<svg width="362" height="350" viewBox="0 0 362 350" fill="none" xmlns="http://www.w3.org/2000/svg">
    <path d="M333.613 197.64C327.973 183.391 325.785 169.322 329.992 151.439C333.413 136.896 338.759 122.674 339.734 107.765C345.416 20.9096 293.319 -5.42155 231.753 15.3081C212.024 21.9505 168.373 35.2025 147.143 36.8081C108.106 39.7601 82.7646 27.464 60.331 27.136C20.4078 26.5536 -13.977 80.7488 7.49502 116.55C14.4678 128.175 19.1526 141.925 28.1278 152.085C47.127 173.59 54.1182 201.945 46.855 229.902C42.3086 247.402 34.9566 264.258 32.7054 282.2C28.099 318.917 54.5686 348.802 91.2694 349.65C126.388 350.461 156.294 329.023 187.629 316.454C203.144 310.23 219.359 305.89 236.206 307.378C256.342 309.157 274.464 319.41 294.953 320.478C320.863 321.83 347.613 308.729 357.043 283.488C365.586 260.62 354.935 239.323 344.163 219.411C340.04 211.787 336.404 204.691 333.613 197.64Z" fill="#034687"/>
    <path opacity="0.38" d="M333.612 197.64C329.553 187.387 327.299 177.219 327.912 165.664C323.849 172.586 321.938 180.465 322.774 188.851C323.973 200.868 330.306 211.388 335.751 221.882C340.992 231.983 345.487 242.746 344.661 254.365C343.902 265.029 339.537 275.381 331.896 282.912C319.035 295.586 300.674 299.51 284.749 306.807C279.749 309.099 274.585 311.842 270.588 315.731C278.513 318.047 286.533 320.038 294.953 320.477C320.862 321.828 347.613 308.727 357.042 283.486C365.585 260.618 354.934 239.322 344.162 219.41C340.039 211.787 336.403 204.691 333.612 197.64Z" fill="#0191E7"/>
    <path d="M77.816 40.3272C100.854 40.3272 119.53 33.644 119.53 25.4C119.53 17.1559 100.854 10.4728 77.816 10.4728C54.7777 10.4728 36.1016 17.1559 36.1016 25.4C36.1016 33.644 54.7777 40.3272 77.816 40.3272Z" fill="#E5EBFC"/>
    <path d="M119.505 25.0375C99.8058 42.5103 44.0466 31.7615 47.2242 15.2551" stroke="white" stroke-miterlimit="10"/>
    <path d="M319.394 70.3312C342.432 70.3312 361.108 63.6481 361.108 55.404C361.108 47.1599 342.432 40.4768 319.394 40.4768C296.356 40.4768 277.68 47.1599 277.68 55.404C277.68 63.6481 296.356 70.3312 319.394 70.3312Z" fill="#E5EBFC"/>
    <path d="M361.083 55.0424C341.384 72.5152 285.625 61.7664 288.802 45.26" stroke="white" stroke-miterlimit="10"/>
    <path d="M242.945 30.1824C265.983 30.1824 284.659 23.4993 284.659 15.2552C284.659 7.01114 265.983 0.328003 242.945 0.328003C219.907 0.328003 201.23 7.01114 201.23 15.2552C201.23 23.4993 219.907 30.1824 242.945 30.1824Z" fill="#E5EBFC"/>
    <path d="M284.634 14.8935C269.485 5.86554 249.331 2.60474 212.354 5.11114C212.354 5.11114 251.626 1.47674 274.966 25.4823" stroke="white" stroke-miterlimit="10"/>
    <path d="M296.091 224.936L296.048 49.3832C296.047 45.4496 292.858 42.2617 288.923 42.2625L276.971 42.2656L271.207 42.2672L40.125 42.3201L33.9714 42.3216L19.6306 42.3256C15.697 42.3264 12.509 45.5161 12.5098 49.4505L12.5522 225.003C12.553 228.937 15.7426 232.125 19.677 232.124L288.971 232.062C292.903 232.059 296.091 228.87 296.091 224.936Z" fill="#CCD7F2"/>
    <path d="M292.912 228.945L23.6187 229.007C19.6851 229.008 16.4955 225.82 16.4947 221.886L16.4531 46.3344C16.4523 42.4008 19.6403 39.2112 23.5739 39.2096L292.867 39.1472C296.8 39.1464 299.99 42.3344 299.992 46.268L300.034 221.821C300.035 225.754 296.847 228.944 292.912 228.945Z" fill="white"/>
    <path d="M296.089 73.2257H23.043V74.1265H296.089V73.2257Z" fill="#737072"/>
    <path d="M246.084 86.8041H290.455" stroke="#E5EBFC" stroke-width="2" stroke-miterlimit="10"/>
    <path d="M246.084 105.045H290.455" stroke="#E5EBFC" stroke-width="2" stroke-miterlimit="10"/>
    <path d="M246.084 123.285H290.455" stroke="#E5EBFC" stroke-width="2" stroke-miterlimit="10"/>
    <path d="M246.084 141.525H290.455" stroke="#E5EBFC" stroke-width="2" stroke-miterlimit="10"/>
    <path d="M246.084 159.765H290.455" stroke="#E5EBFC" stroke-width="2" stroke-miterlimit="10"/>
    <path d="M246.084 178.006H290.455" stroke="#E5EBFC" stroke-width="2" stroke-miterlimit="10"/>
    <path d="M246.084 196.246H290.455" stroke="#E5EBFC" stroke-width="2" stroke-miterlimit="10"/>
    <path d="M246.084 214.486H290.455" stroke="#E5EBFC" stroke-width="2" stroke-miterlimit="10"/>
    <path d="M137.919 116.27H118.111V134.875H137.919V116.27Z" fill="#E5EBFC"/>
    <path d="M137.925 136.761H118.117V155.366H137.925V136.761Z" fill="#E5EBFC"/>
    <path d="M137.931 157.252H118.123V175.858H137.931V157.252Z" fill="#E5EBFC"/>
    <path d="M106.234 116.278H86.4258V134.883H106.234V116.278Z" fill="#E5EBFC"/>
    <path d="M106.238 136.769H86.4297V155.375H106.238V136.769Z" fill="#E5EBFC"/>
    <path d="M106.244 157.26H86.4355V175.866H106.244V157.26Z" fill="#E5EBFC"/>
    <path d="M74.5463 116.286H54.7383V134.891H74.5463V116.286Z" fill="#E5EBFC"/>
    <path d="M137.915 95.7784H118.107V114.384H137.915V95.7784Z" fill="#E5EBFC"/>
    <path d="M106.228 95.7865H86.4199V114.392H106.228V95.7865Z" fill="#E5EBFC"/>
    <path d="M74.5404 95.7943H54.7324V114.4H74.5404V95.7943Z" fill="#E5EBFC"/>
    <path d="M74.5502 136.777H54.7422V155.382H74.5502V136.777Z" fill="#E5EBFC"/>
    <path d="M74.556 157.268H54.748V175.874H74.556V157.268Z" fill="#E5EBFC"/>
    <path d="M74.5619 177.76H54.7539V196.366H74.5619V177.76Z" fill="#E5EBFC"/>
    <path d="M42.8588 116.294H23.0508V134.899H42.8588V116.294Z" fill="#E5EBFC"/>
    <path d="M42.8529 95.8025H23.0449V114.408H42.8529V95.8025Z" fill="#E5EBFC"/>
    <path d="M42.8646 136.786H23.0566V155.391H42.8646V136.786Z" fill="#E5EBFC"/>
    <path d="M42.8685 157.277H23.0605V175.882H42.8685V157.277Z" fill="#E5EBFC"/>
    <path d="M42.8744 177.768H23.0664V196.374H42.8744V177.768Z" fill="#E5EBFC"/>
    <path d="M169.601 95.7705H149.793V114.376H169.601V95.7705Z" fill="#E5EBFC"/>
    <path d="M169.605 116.262H149.797V134.867H169.605V116.262Z" fill="#E5EBFC"/>
    <path d="M169.611 136.753H149.803V155.359H169.611V136.753Z" fill="#E5EBFC"/>
    <path d="M169.617 157.244H149.809V175.85H169.617V157.244Z" fill="#E5EBFC"/>
    <path d="M201.288 95.7616H181.48V114.367H201.288V95.7616Z" fill="#F68A73"/>
    <path d="M201.294 116.253H181.486V134.858H201.294V116.253Z" fill="#E5EBFC"/>
    <path d="M201.298 136.745H181.49V155.35H201.298V136.745Z" fill="#E5EBFC"/>
    <path d="M201.304 157.236H181.496V175.842H201.304V157.236Z" fill="#E5EBFC"/>
    <path d="M232.976 95.7537H213.168V114.359H232.976V95.7537Z" fill="#E5EBFC"/>
    <path d="M232.982 116.245H213.174V134.85H232.982V116.245Z" fill="#E5EBFC"/>
    <path d="M232.986 136.736H213.178V155.342H232.986V136.736Z" fill="#E5EBFC"/>
    <path d="M232.992 157.228H213.184V175.834H232.992V157.228Z" fill="#E5EBFC"/>
    <path d="M31.9838 81.1512C31.8342 81.2736 31.7598 81.4376 31.7598 81.6392C31.7598 81.8416 31.851 82.0016 32.0334 82.1224C32.2166 82.2416 32.6382 82.3832 33.2982 82.5456C33.9598 82.708 34.4726 82.9528 34.8382 83.2768C35.2022 83.6032 35.3854 84.0768 35.3854 84.7016C35.3854 85.3248 35.1518 85.8312 34.6846 86.2208C34.2158 86.6096 33.5998 86.8032 32.8366 86.8032C31.7342 86.8032 30.7414 86.3952 29.8574 85.5792L30.7846 84.4432C31.5358 85.1 32.2294 85.4296 32.867 85.4288C33.1518 85.4288 33.3766 85.3664 33.5398 85.244C33.7022 85.1216 33.783 84.9544 33.783 84.7464C33.783 84.536 33.6966 84.3712 33.5238 84.2488C33.3518 84.1248 33.0094 84.0008 32.4974 83.8752C31.6878 83.6832 31.0942 83.432 30.719 83.1232C30.3438 82.8144 30.1558 82.3296 30.1558 81.6696C30.1558 81.008 30.3942 80.4984 30.8678 80.1392C31.343 79.7816 31.935 79.6016 32.6462 79.6008C33.111 79.6008 33.5774 79.68 34.0414 79.8392C34.5062 80 34.9118 80.2256 35.2574 80.5168L34.4702 81.6528C33.8654 81.1952 33.2422 80.9656 32.5982 80.9656C32.3374 80.9664 32.1334 81.0288 31.9838 81.1512Z" fill="#F68A73"/>
    <path d="M67.7419 82.332L65.8595 86.1392H64.9339L63.0611 82.3328L63.0619 86.7168L61.5075 86.7176L61.5059 79.7536L63.6075 79.7528L65.4011 83.5776L67.2043 79.7512L69.2963 79.7504L69.2979 86.7144L67.7443 86.7152L67.7419 82.332Z" fill="#737072"/>
    <path d="M97.0272 81.0904L97.0288 86.7088L95.4752 86.7095L95.4736 81.0911L93.5008 81.092L93.5 79.7464L98.9992 79.7448V81.0904H97.0272Z" fill="#737072"/>
    <path d="M126.855 83.7424L128.089 79.7368L129.713 79.736L130.941 83.7408L132.324 79.7352L134.009 79.7344L131.578 86.6992H130.423L128.898 81.8576L127.386 86.7H126.229L123.797 79.7368L125.482 79.736L126.855 83.7424Z" fill="#737072"/>
    <path d="M160.593 81.0736L160.594 86.692L159.041 86.6928L159.039 81.0744L157.066 81.0752V79.7296L162.566 79.728V81.0736H160.593Z" fill="#737072"/>
    <path d="M194.272 79.7192V81.084L191.045 81.0848L191.045 82.5896L194.114 82.5888V83.9536L191.045 83.9544L191.046 86.684L189.492 86.6848L189.49 79.7208L194.272 79.7192Z" fill="#737072"/>
    <path d="M222.677 81.1024C222.528 81.2248 222.453 81.3888 222.453 81.5912C222.453 81.7936 222.544 81.9536 222.727 82.0744C222.91 82.1936 223.331 82.3352 223.992 82.4976C224.653 82.66 225.165 82.9048 225.532 83.2288C225.896 83.5544 226.079 84.0288 226.08 84.6536C226.08 85.2768 225.846 85.7832 225.379 86.1728C224.909 86.5616 224.294 86.7552 223.531 86.7552C222.428 86.7552 221.436 86.3472 220.551 85.5312L221.478 84.3952C222.229 85.052 222.923 85.3816 223.56 85.3808C223.845 85.3808 224.07 85.3184 224.233 85.196C224.396 85.0736 224.476 84.9064 224.476 84.6984C224.476 84.488 224.39 84.3232 224.217 84.2008C224.045 84.0768 223.704 83.9528 223.192 83.8272C222.382 83.6352 221.788 83.384 221.413 83.0752C221.037 82.7664 220.85 82.2816 220.849 81.6216C220.849 80.96 221.088 80.4504 221.561 80.0912C222.037 79.7336 222.628 79.5536 223.34 79.5536C223.804 79.5536 224.27 79.6328 224.735 79.792C225.2 79.9528 225.605 80.1784 225.95 80.4696L225.163 81.6056C224.559 81.148 223.935 80.9184 223.291 80.9184C223.03 80.9176 222.827 80.98 222.677 81.1024Z" fill="#737072"/>
    <path d="M33.06 59.9971L33.0627 70.0851L31.8805 70.0854L26.3812 62.1661L26.2827 62.1662L26.2847 70.0869L25.0631 70.0872L25.0605 59.9991L26.2427 59.9988L31.7617 67.9378L31.8602 67.9378L31.8581 59.9974L33.06 59.9971ZM44.0176 65.0382C44.0179 66.1022 43.826 67.0218 43.442 67.7968C43.058 68.5719 42.5311 69.1697 41.8613 69.5903C41.1915 70.0108 40.4264 70.2211 39.566 70.2214C38.7056 70.2216 37.9404 70.0116 37.2704 69.5915C36.6004 69.1713 36.0732 68.5738 35.6888 67.7989C35.3043 67.024 35.112 66.1045 35.1117 65.0406C35.1114 63.9766 35.3033 63.057 35.6873 62.2819C36.0713 61.5069 36.5982 60.9091 37.268 60.4885C37.9378 60.068 38.7029 59.8577 39.5633 59.8574C40.4237 59.8572 41.1889 60.0672 41.8589 60.4873C42.5289 60.9075 43.0561 61.505 43.4406 62.2799C43.825 63.0548 44.0173 63.9743 44.0176 65.0382ZM42.8354 65.0385C42.8352 64.165 42.6888 63.4278 42.3964 62.827C42.1073 62.2261 41.7147 61.7714 41.2188 61.4628C40.7261 61.1543 40.1744 61.0001 39.5636 61.0002C38.9528 61.0004 38.3995 61.1549 37.9037 61.4637C37.4112 61.7725 37.0189 62.2274 36.7268 62.8284C36.438 63.4295 36.2937 64.1667 36.2939 65.0402C36.2941 65.9138 36.4388 66.651 36.728 67.2518C37.0204 67.8527 37.4129 68.3074 37.9056 68.616C38.4015 68.9245 38.9549 69.0787 39.5657 69.0786C40.1765 69.0784 40.7282 68.9239 41.2207 68.6151C41.7164 68.3063 42.1088 67.8514 42.3976 67.2504C42.6897 66.6493 42.8356 65.9121 42.8354 65.0385ZM46.01 59.9937L49.0071 68.485L49.1253 68.485L52.118 59.9921L53.3987 59.9918L49.6971 70.0808L48.4361 70.0811L44.7293 59.994L46.01 59.9937ZM54.9727 70.0794L54.9701 59.9914L61.0584 59.9898L61.0587 61.0735L56.192 61.0747L56.1928 64.4834L60.7443 64.4822L60.7446 65.5659L56.1931 65.5671L56.194 68.9954L61.1395 68.9941L61.1398 70.0778L54.9727 70.0794ZM63.2602 59.9892L64.7183 59.9888L68.1488 68.3618L68.267 68.3618L71.6932 59.987L73.1513 59.9866L73.1539 70.0747L72.0111 70.075L72.0091 62.4104L71.9106 62.4105L68.7601 70.0758L67.6567 70.0761L64.5022 62.4124L64.4036 62.4124L64.4056 70.077L63.2628 70.0773L63.2602 59.9892ZM25.0676 87.0872L25.0649 76.9991L28.5918 76.9982C29.2946 76.998 29.8742 77.1194 30.3307 77.3623C30.7872 77.6019 31.1272 77.9253 31.3506 78.3324C31.574 78.7363 31.6858 79.1845 31.6859 79.6771C31.686 80.1105 31.609 80.4685 31.4547 80.7509C31.3037 81.0334 31.1034 81.2568 30.8539 81.421C30.6077 81.5853 30.3401 81.7068 30.0511 81.7857L30.0511 81.8842C30.3598 81.9039 30.6702 82.0122 30.9822 82.2091C31.2942 82.4061 31.5554 82.6884 31.7656 83.0561C31.9759 83.4239 32.0811 83.8738 32.0812 84.4057C32.0814 84.9115 31.9665 85.3663 31.7368 85.7703C31.507 86.1743 31.1442 86.4945 30.6484 86.7311C30.1526 86.9677 29.5074 87.0861 28.7127 87.0863L25.0676 87.0872ZM26.2889 86.0032L28.7124 86.0026C29.5104 86.0024 30.0768 85.8479 30.4117 85.5391C30.7498 85.2271 30.9188 84.8494 30.9187 84.406C30.9186 84.0645 30.8315 83.7493 30.6574 83.4604C30.4833 83.1681 30.2353 82.935 29.9134 82.7611C29.5916 82.5838 29.2106 82.4953 28.7706 82.4954L26.288 82.496L26.2889 86.0032ZM26.2877 81.4321L28.5536 81.4315C28.9214 81.4314 29.253 81.359 29.5485 81.2145C29.8473 81.0699 30.0837 80.8662 30.2577 80.6035C30.4349 80.3407 30.5235 80.032 30.5234 79.6774C30.5233 79.234 30.3689 78.8581 30.0601 78.5495C29.7513 78.2376 29.262 78.0817 28.5921 78.0819L26.2868 78.0825L26.2877 81.4321ZM34.0892 87.0849L34.0866 76.9968L40.1749 76.9952L40.1752 78.0789L35.3084 78.0801L35.3093 81.4888L39.8608 81.4876L39.8611 82.5713L35.3096 82.5725L35.3105 86.0009L40.256 85.9996L40.2563 87.0833L34.0892 87.0849ZM42.3793 87.0827L42.3767 76.9946L45.7854 76.9937C46.5735 76.9935 47.2205 77.128 47.7263 77.3972C48.232 77.663 48.6065 78.0291 48.8496 78.4953C49.0928 78.9616 49.2144 79.4919 49.2146 80.0863C49.2147 80.6806 49.0933 81.2077 48.8505 81.6675C48.6076 82.1274 48.2349 82.4887 47.7326 82.7515C47.2302 83.0111 46.5882 83.141 45.8067 83.1412L43.0482 83.1419L43.0479 82.0385L45.767 82.0378C46.3055 82.0376 46.739 81.9587 47.0673 81.801C47.399 81.6433 47.6386 81.4199 47.7863 81.1309C47.9373 80.8386 48.0128 80.4905 48.0127 80.0866C48.0125 79.6827 47.9369 79.3297 47.7858 79.0276C47.6347 78.7255 47.3932 78.4924 47.0615 78.3283C46.7298 78.1609 46.2914 78.0773 45.7463 78.0774L43.5986 78.078L43.6009 87.0824L42.3793 87.0827ZM47.1266 82.5497L49.6104 87.0808L48.1918 87.0812L45.7474 82.5501L47.1266 82.5497Z" fill="#D15332"/>
    <path d="M29.7881 101.002L33.2129 101.019L33.1689 109.477L31.3537 109.467L31.3889 102.62L29.7793 102.612L29.7881 101.002Z" fill="#F68A73"/>
    <path d="M65.5462 104.483C65.7614 104.182 65.8702 103.89 65.8718 103.609C65.8734 103.326 65.7814 103.09 65.5974 102.899C65.4118 102.709 65.175 102.612 64.8838 102.611C64.351 102.609 63.8446 102.986 63.3662 103.74L61.8574 102.837C62.2558 102.226 62.691 101.765 63.1654 101.452C63.639 101.14 64.2398 100.986 64.9702 100.99C65.699 100.994 66.3398 101.229 66.8902 101.696C67.4398 102.162 67.7134 102.794 67.7094 103.593C67.707 104.03 67.5926 104.446 67.3694 104.844C67.1462 105.242 66.7334 105.75 66.1342 106.368L64.6006 107.946L67.9398 107.964L67.931 109.657L61.967 109.626L61.9742 108.222L64.4678 105.694C64.9718 105.188 65.3318 104.786 65.5462 104.483Z" fill="#737072"/>
    <path d="M93.7797 102.942L93.7877 101.333L98.9661 101.36L98.9597 102.667L97.2197 104.63C97.8957 104.746 98.4189 105.033 98.7885 105.49C99.1557 105.95 99.3397 106.475 99.3373 107.073C99.3325 107.96 99.0269 108.654 98.4253 109.155C97.8205 109.657 97.0509 109.904 96.1165 109.899C95.1805 109.894 94.2349 109.559 93.2773 108.893L94.0597 107.397C94.8549 107.966 95.5677 108.252 96.1973 108.255C96.5749 108.257 96.8885 108.166 97.1365 107.982C97.3829 107.797 97.5077 107.53 97.5093 107.179C97.5109 106.828 97.3717 106.55 97.0901 106.342C96.8101 106.135 96.4181 106.03 95.9181 106.028C95.6525 106.026 95.2757 106.101 94.7917 106.251L94.7989 104.86L96.4309 102.957L93.7797 102.942Z" fill="#737072"/>
    <path d="M128.276 106.314L128.284 104.838L130.099 104.847L130.091 106.324L131.046 106.329L131.038 107.962L130.083 107.958L130.073 109.978L128.258 109.969L128.268 107.948L124.867 107.93L124.874 106.49L127.914 101.51L129.97 101.52L127.078 106.309L128.276 106.314Z" fill="#737072"/>
    <path d="M162.192 101.686L162.183 103.32L158.844 103.303L158.837 104.718C159.087 104.649 159.374 104.614 159.696 104.615C160.512 104.619 161.211 104.868 161.799 105.362C162.384 105.859 162.675 106.523 162.671 107.358C162.667 108.193 162.359 108.88 161.747 109.422C161.134 109.963 160.382 110.231 159.487 110.226C158.34 110.22 157.387 109.792 156.625 108.942L157.623 107.566C157.696 107.64 157.794 107.729 157.913 107.835C158.035 107.941 158.255 108.081 158.577 108.256C158.899 108.43 159.22 108.518 159.543 108.52C159.866 108.522 160.153 108.426 160.403 108.235C160.656 108.042 160.782 107.756 160.784 107.377C160.786 106.999 160.651 106.706 160.383 106.498C160.113 106.29 159.766 106.186 159.338 106.183C158.911 106.181 158.414 106.332 157.847 106.636L157.067 105.786L157.088 101.66L162.192 101.686Z" fill="#737072"/>
    <path d="M191.99 103.269C191.466 103.266 191.06 103.439 190.772 103.789C190.484 104.138 190.306 104.615 190.238 105.22C190.765 104.882 191.322 104.716 191.91 104.719C192.701 104.723 193.359 104.986 193.885 105.504C194.41 106.024 194.67 106.711 194.666 107.571C194.662 108.43 194.375 109.116 193.803 109.629C193.231 110.143 192.514 110.397 191.652 110.393C191.054 110.39 190.536 110.273 190.098 110.04C189.66 109.809 189.322 109.486 189.082 109.074C188.602 108.273 188.366 107.27 188.371 106.069C188.375 105.294 188.472 104.616 188.665 104.032C188.858 103.448 189.121 102.988 189.453 102.65C190.102 101.976 190.902 101.642 191.854 101.647C192.249 101.65 192.625 101.71 192.985 101.829C193.342 101.947 193.618 102.068 193.811 102.189C194.003 102.311 194.216 102.466 194.45 102.652L193.548 103.978C193.499 103.93 193.43 103.866 193.338 103.782C193.245 103.703 193.062 103.596 192.789 103.465C192.514 103.336 192.248 103.27 191.99 103.269ZM191.726 106.315C191.352 106.314 191.037 106.424 190.781 106.644C190.525 106.864 190.398 107.153 190.395 107.507C190.394 107.863 190.514 108.167 190.754 108.423C190.995 108.678 191.296 108.807 191.66 108.809C192.022 108.81 192.325 108.698 192.57 108.475C192.813 108.25 192.934 107.958 192.936 107.599C192.938 107.24 192.83 106.937 192.614 106.69C192.398 106.442 192.102 106.318 191.726 106.315Z" fill="#737072"/>
    <path d="M219.783 104.694L219.797 101.985L225.906 102.017L225.899 103.445L222.438 110.457L220.383 110.446L223.685 103.626L221.555 103.615L221.55 104.705L219.783 104.694Z" fill="#737072"/>
    <path d="M31.451 121.647C32.0134 121.206 32.715 120.988 33.5526 120.993C34.3926 120.997 35.0886 121.222 35.643 121.669C36.1966 122.114 36.4726 122.663 36.4694 123.311C36.4662 123.961 36.2134 124.518 35.711 124.983C36.4102 125.527 36.7574 126.239 36.7526 127.118C36.7486 127.86 36.447 128.484 35.847 128.989C35.2486 129.494 34.4678 129.744 33.5078 129.738C32.5478 129.734 31.7718 129.477 31.1766 128.965C30.583 128.454 30.2878 127.826 30.291 127.085C30.2958 126.206 30.6502 125.498 31.355 124.961C30.8502 124.482 30.5982 123.921 30.6022 123.276C30.6054 122.63 30.8878 122.087 31.451 121.647ZM32.5982 127.878C32.879 128.069 33.1846 128.164 33.515 128.166C33.8454 128.167 34.1526 128.076 34.4366 127.887C34.719 127.699 34.8622 127.423 34.8646 127.059C34.8662 126.697 34.7302 126.418 34.4582 126.222C34.1838 126.028 33.875 125.93 33.527 125.928C33.1806 125.926 32.8702 126.021 32.5942 126.212C32.3198 126.406 32.1806 126.682 32.179 127.045C32.1774 127.41 32.3166 127.686 32.5982 127.878ZM32.7318 124.182C32.9614 124.376 33.2286 124.474 33.535 124.475C33.8414 124.477 34.111 124.382 34.3414 124.19C34.5734 123.997 34.6886 123.759 34.6902 123.473C34.6918 123.186 34.5806 122.946 34.3558 122.75C34.131 122.556 33.8606 122.458 33.5462 122.457C33.231 122.455 32.9606 122.55 32.735 122.742C32.5078 122.935 32.3926 123.175 32.391 123.462C32.3894 123.746 32.5038 123.986 32.7318 124.182Z" fill="#F68A73"/>
    <path d="M64.5335 128.278C65.0583 128.281 65.4639 128.108 65.7519 127.758C66.0399 127.409 66.2183 126.932 66.2855 126.327C65.7679 126.672 65.2103 126.842 64.6135 126.838C63.8223 126.834 63.1647 126.571 62.6391 126.049C62.1135 125.526 61.8535 124.837 61.8575 123.982C61.8623 123.126 62.1503 122.44 62.7207 121.922C63.2927 121.405 64.0103 121.15 64.8735 121.154C65.4695 121.158 65.9879 121.274 66.4255 121.507C66.8639 121.738 67.2071 122.062 67.4551 122.474C67.9263 123.274 68.1607 124.277 68.1543 125.478C68.1503 126.253 68.0519 126.93 67.8591 127.514C67.6663 128.098 67.4079 128.559 67.0839 128.896C66.4199 129.57 65.6143 129.905 64.6703 129.9C64.2751 129.898 63.8959 129.838 63.5343 129.718C63.1711 129.6 62.8983 129.482 62.7143 129.363C62.5287 129.246 62.3159 129.094 62.0751 128.906L63.0255 127.582C63.0807 127.629 63.1559 127.693 63.2479 127.769C63.3407 127.846 63.5199 127.95 63.7855 128.08C64.0503 128.211 64.2991 128.278 64.5335 128.278ZM64.8103 125.23C65.1847 125.233 65.4983 125.126 65.7495 124.91C66.0007 124.693 66.1271 124.407 66.1287 124.053C66.1303 123.698 66.0119 123.39 65.7711 123.131C65.5303 122.872 65.2279 122.741 64.8655 122.739C64.5015 122.738 64.2055 122.851 63.9735 123.079C63.7431 123.309 63.6263 123.601 63.6247 123.955C63.6231 124.311 63.7255 124.612 63.9351 124.858C64.1431 125.105 64.4351 125.228 64.8103 125.23Z" fill="#737072"/>
    <path d="M89.7041 121.475L93.1289 121.493L93.0849 129.95L91.2697 129.941L91.3049 123.093L89.6953 123.085L89.7041 121.475Z" fill="#737072"/>
    <path d="M98.335 130.074C97.1654 130.068 96.2926 129.667 95.715 128.869C95.139 128.072 94.855 127.01 94.8614 125.683C94.8686 124.357 95.163 123.297 95.7478 122.505C96.3334 121.714 97.2102 121.322 98.3798 121.328C99.5494 121.334 100.422 121.735 101 122.532C101.576 123.33 101.861 124.393 101.855 125.719C101.849 127.046 101.552 128.105 100.967 128.896C100.381 129.688 99.5046 130.08 98.335 130.074ZM97.1222 123.657C96.8526 124.17 96.7158 124.851 96.7118 125.699C96.7078 126.545 96.8366 127.229 97.1014 127.746C97.3646 128.264 97.779 128.524 98.343 128.526C98.9078 128.53 99.3246 128.274 99.5934 127.758C99.863 127.244 99.9998 126.562 100.004 125.716C100.008 124.869 99.879 124.186 99.6142 123.67C99.351 123.151 98.9366 122.891 98.3718 122.888C97.8078 122.886 97.391 123.141 97.1222 123.657Z" fill="#737072"/>
    <path d="M123.618 121.414L127.043 121.431L126.999 129.889L125.184 129.879L125.219 123.031L123.609 123.023L123.618 121.414Z" fill="#737072"/>
    <path d="M128.495 121.438L131.92 121.456L131.876 129.914L130.061 129.904L130.096 123.056L128.486 123.048L128.495 121.438Z" fill="#737072"/>
    <path d="M152.759 121.802L156.184 121.819L156.14 130.277L154.324 130.267L154.36 123.419L152.75 123.411L152.759 121.802Z" fill="#737072"/>
    <path d="M161.497 125.144C161.712 124.843 161.821 124.551 161.822 124.27C161.824 123.986 161.732 123.75 161.548 123.56C161.362 123.37 161.125 123.274 160.834 123.272C160.301 123.27 159.795 123.646 159.317 124.401L157.809 123.498C158.207 122.886 158.642 122.426 159.117 122.114C159.589 121.802 160.191 121.648 160.921 121.652C161.65 121.656 162.291 121.89 162.841 122.358C163.391 122.824 163.665 123.456 163.661 124.254C163.658 124.69 163.544 125.108 163.321 125.505C163.097 125.903 162.685 126.41 162.085 127.029L160.551 128.606L163.89 128.624L163.881 130.318L157.917 130.287L157.925 128.883L160.418 126.355C160.921 125.85 161.281 125.446 161.497 125.144Z" fill="#737072"/>
    <path d="M184.329 121.966L187.754 121.983L187.71 130.441L185.895 130.431L185.93 123.583L184.32 123.575L184.329 121.966Z" fill="#737072"/>
    <path d="M189.73 123.603L189.738 121.994L194.916 122.021L194.91 123.328L193.17 125.29C193.846 125.406 194.369 125.694 194.739 126.151C195.106 126.61 195.29 127.136 195.287 127.734C195.282 128.621 194.976 129.315 194.375 129.816C193.77 130.318 193 130.565 192.066 130.56C191.13 130.555 190.184 130.22 189.227 129.554L190.009 128.058C190.805 128.626 191.518 128.913 192.147 128.916C192.525 128.918 192.839 128.826 193.087 128.642C193.333 128.457 193.458 128.19 193.459 127.84C193.461 127.489 193.322 127.21 193.04 127.002C192.76 126.796 192.368 126.69 191.869 126.688C191.603 126.686 191.227 126.761 190.742 126.911L190.749 125.52L192.381 123.617L189.73 123.603Z" fill="#737072"/>
    <path d="M215.915 122.129L219.34 122.146L219.296 130.604L217.481 130.594L217.516 123.746L215.906 123.738L215.915 122.129Z" fill="#737072"/>
    <path d="M224.227 126.975L224.234 125.498L226.05 125.508L226.042 126.985L226.998 126.99L226.99 128.623L226.034 128.618L226.024 130.639L224.209 130.63L224.219 128.609L220.818 128.591L220.826 127.151L223.865 122.17L225.922 122.181L223.03 126.97L224.227 126.975Z" fill="#737072"/>
    <path d="M26.5635 141.944L29.9883 141.962L29.9443 150.419L28.1291 150.41L28.1643 143.562L26.5547 143.554L26.5635 141.944Z" fill="#F68A73"/>
    <path d="M37.1875 141.999L37.1795 143.633L33.8403 143.615L33.8331 145.03C34.0835 144.961 34.3699 144.926 34.6923 144.927C35.5083 144.931 36.2067 145.18 36.7947 145.674C37.3803 146.171 37.6707 146.835 37.6667 147.67C37.6627 148.504 37.3555 149.192 36.7435 149.734C36.1299 150.275 35.3779 150.543 34.4827 150.538C33.3363 150.533 32.3835 150.103 31.6211 149.254L32.6195 147.878C32.6923 147.952 32.7899 148.041 32.9091 148.147C33.0299 148.253 33.2507 148.392 33.5723 148.568C33.8939 148.742 34.2163 148.83 34.5387 148.832C34.8611 148.834 35.1475 148.738 35.3987 148.547C35.6507 148.354 35.7771 148.068 35.7795 147.689C35.7819 147.311 35.6467 147.018 35.3779 146.81C35.1083 146.602 34.7611 146.498 34.3331 146.495C33.9059 146.493 33.4091 146.644 32.8427 146.948L32.0611 146.098L32.0827 141.972L37.1875 141.999Z" fill="#F68A73"/>
    <path d="M58.2061 142.108L61.6309 142.126L61.5869 150.583L59.7717 150.574L59.8069 143.726L58.1973 143.718L58.2061 142.108Z" fill="#737072"/>
    <path d="M66.9845 143.581C66.4597 143.578 66.0541 143.751 65.7661 144.101C65.4781 144.45 65.2997 144.927 65.2325 145.532C65.7589 145.194 66.3165 145.028 66.9045 145.031C67.6949 145.035 68.3533 145.298 68.8789 145.816C69.4045 146.336 69.6645 147.023 69.6605 147.883C69.6557 148.742 69.3693 149.428 68.7973 149.941C68.2253 150.455 67.5077 150.709 66.6461 150.705C66.0485 150.702 65.5309 150.585 65.0925 150.352C64.6541 150.121 64.3157 149.798 64.0757 149.386C63.5957 148.585 63.3597 147.582 63.3653 146.381C63.3693 145.606 63.4661 144.929 63.6589 144.344C63.8517 143.76 64.1149 143.3 64.4469 142.962C65.0957 142.288 65.8957 141.954 66.8477 141.959C67.2429 141.962 67.6189 142.022 67.9789 142.141C68.3357 142.259 68.6117 142.38 68.8053 142.501C68.9981 142.624 69.2101 142.778 69.4437 142.964L68.5421 144.29C68.4933 144.242 68.4245 144.178 68.3317 144.094C68.2389 144.015 68.0557 143.908 67.7829 143.777C67.5069 143.649 67.2421 143.582 66.9845 143.581ZM66.7197 146.628C66.3453 146.626 66.0301 146.737 65.7741 146.957C65.5181 147.177 65.3909 147.466 65.3885 147.82C65.3869 148.176 65.5069 148.48 65.7477 148.736C65.9885 148.99 66.2893 149.12 66.6533 149.122C67.0149 149.123 67.3181 149.011 67.5629 148.788C67.8061 148.563 67.9277 148.271 67.9293 147.912C67.9309 147.554 67.8237 147.25 67.6069 147.003C67.3917 146.755 67.0949 146.63 66.7197 146.628Z" fill="#737072"/>
    <path d="M89.7158 142.271L93.1406 142.289L93.0966 150.746L91.2814 150.736L91.3166 143.888L89.707 143.88L89.7158 142.271Z" fill="#737072"/>
    <path d="M94.7734 145.007L94.7878 142.298L100.897 142.329L100.89 143.757L97.4294 150.769L95.3734 150.758L98.6758 143.938L96.5462 143.927L96.5406 145.017L94.7734 145.007Z" fill="#737072"/>
    <path d="M121.407 142.435L124.832 142.453L124.788 150.91L122.973 150.901L123.008 144.054L121.398 144.046L121.407 142.435Z" fill="#737072"/>
    <path d="M127.69 142.941C128.252 142.499 128.954 142.282 129.792 142.286C130.632 142.29 131.328 142.515 131.882 142.962C132.437 143.408 132.712 143.956 132.709 144.605C132.706 145.254 132.453 145.811 131.951 146.277C132.65 146.821 132.998 147.533 132.993 148.412C132.989 149.154 132.687 149.778 132.086 150.282C131.488 150.789 130.707 151.038 129.747 151.033C128.787 151.028 128.011 150.771 127.416 150.258C126.822 149.748 126.527 149.12 126.531 148.378C126.536 147.5 126.89 146.791 127.595 146.254C127.09 145.776 126.838 145.215 126.842 144.57C126.844 143.924 127.126 143.38 127.69 142.941ZM128.838 149.171C129.118 149.362 129.425 149.458 129.754 149.459C130.085 149.461 130.392 149.37 130.676 149.181C130.958 148.993 131.102 148.717 131.104 148.353C131.106 147.991 130.97 147.712 130.697 147.516C130.423 147.322 130.113 147.223 129.766 147.222C129.419 147.22 129.109 147.314 128.833 147.506C128.559 147.699 128.419 147.977 128.418 148.339C128.416 148.702 128.555 148.98 128.838 149.171ZM128.97 145.475C129.2 145.67 129.467 145.767 129.774 145.769C130.081 145.77 130.35 145.675 130.58 145.483C130.812 145.29 130.926 145.052 130.928 144.766C130.93 144.479 130.818 144.238 130.594 144.042C130.369 143.849 130.098 143.75 129.784 143.749C129.47 143.747 129.198 143.842 128.973 144.034C128.746 144.227 128.63 144.467 128.629 144.753C128.628 145.041 128.742 145.28 128.97 145.475Z" fill="#737072"/>
    <path d="M152.978 142.598L156.402 142.616L156.358 151.074L154.543 151.064L154.578 144.217L152.969 144.209L152.978 142.598Z" fill="#737072"/>
    <path d="M160.769 149.572C161.294 149.574 161.699 149.402 161.987 149.052C162.275 148.702 162.453 148.226 162.521 147.621C162.004 147.966 161.447 148.135 160.849 148.133C160.059 148.129 159.401 147.866 158.875 147.343C158.35 146.82 158.09 146.131 158.094 145.275C158.098 144.42 158.386 143.734 158.956 143.216C159.528 142.699 160.246 142.443 161.109 142.448C161.705 142.451 162.223 142.568 162.662 142.801C163.1 143.033 163.443 143.355 163.691 143.767C164.163 144.568 164.396 145.57 164.39 146.772C164.386 147.547 164.287 148.225 164.095 148.809C163.902 149.393 163.643 149.853 163.319 150.19C162.655 150.865 161.85 151.199 160.907 151.194C160.511 151.191 160.132 151.131 159.771 151.012C159.407 150.893 159.135 150.774 158.951 150.657C158.765 150.539 158.552 150.387 158.311 150.2L159.262 148.875C159.317 148.923 159.392 148.986 159.483 149.063C159.576 149.142 159.756 149.245 160.021 149.374C160.285 149.505 160.535 149.571 160.769 149.572ZM161.046 146.523C161.421 146.526 161.734 146.419 161.985 146.202C162.236 145.986 162.363 145.7 162.364 145.346C162.366 144.99 162.247 144.682 162.007 144.423C161.766 144.164 161.463 144.033 161.101 144.031C160.738 144.03 160.441 144.143 160.209 144.371C159.979 144.601 159.862 144.893 159.86 145.247C159.859 145.603 159.961 145.904 160.17 146.15C160.379 146.398 160.671 146.522 161.046 146.523Z" fill="#737072"/>
    <path d="M188.826 146.081C189.041 145.78 189.15 145.488 189.151 145.206C189.153 144.923 189.061 144.687 188.876 144.497C188.69 144.306 188.454 144.21 188.163 144.209C187.63 144.206 187.124 144.583 186.646 145.338L185.137 144.434C185.535 143.823 185.971 143.362 186.446 143.05C186.918 142.738 187.52 142.584 188.25 142.588C188.979 142.592 189.62 142.826 190.171 143.294C190.721 143.759 190.994 144.392 190.99 145.19C190.987 145.627 190.873 146.044 190.65 146.442C190.426 146.84 190.014 147.347 189.414 147.966L187.881 149.544L191.22 149.562L191.211 151.255L185.247 151.224L185.254 149.82L187.748 147.292C188.252 146.786 188.611 146.383 188.826 146.081Z" fill="#737072"/>
    <path d="M196.039 151.375C194.869 151.369 193.997 150.968 193.419 150.17C192.843 149.373 192.559 148.31 192.567 146.984C192.574 145.658 192.868 144.598 193.452 143.806C194.038 143.015 194.915 142.622 196.085 142.629C197.255 142.635 198.127 143.036 198.705 143.833C199.281 144.631 199.567 145.694 199.559 147.02C199.552 148.346 199.256 149.406 198.672 150.197C198.086 150.989 197.21 151.382 196.039 151.375ZM194.827 144.958C194.557 145.472 194.42 146.152 194.416 147C194.412 147.846 194.541 148.53 194.806 149.046C195.069 149.565 195.483 149.825 196.047 149.828C196.612 149.831 197.029 149.575 197.297 149.06C197.567 148.546 197.703 147.864 197.707 147.018C197.711 146.17 197.583 145.488 197.318 144.971C197.055 144.453 196.64 144.193 196.076 144.19C195.512 144.186 195.095 144.442 194.827 144.958Z" fill="#737072"/>
    <path d="M219.982 146.242C220.197 145.942 220.306 145.65 220.307 145.368C220.309 145.085 220.217 144.849 220.033 144.658C219.847 144.468 219.611 144.371 219.319 144.37C218.787 144.368 218.28 144.745 217.802 145.499L216.293 144.596C216.691 143.985 217.127 143.524 217.602 143.211C218.075 142.899 218.676 142.746 219.407 142.75C220.135 142.754 220.776 142.987 221.327 143.455C221.877 143.921 222.15 144.554 222.146 145.352C222.143 145.789 222.029 146.205 221.806 146.602C221.583 147.001 221.171 147.508 220.571 148.126L219.037 149.705L222.376 149.722L222.367 151.416L216.403 151.385L216.411 149.981L218.905 147.453C219.407 146.947 219.767 146.544 219.982 146.242Z" fill="#737072"/>
    <path d="M223.44 142.963L226.865 142.981L226.821 151.438L225.006 151.429L225.041 144.582L223.432 144.574L223.44 142.963Z" fill="#737072"/>
    <path d="M29.8654 165.568C30.0806 165.267 30.1894 164.975 30.191 164.694C30.1926 164.41 30.1006 164.174 29.9158 163.984C29.7302 163.794 29.4934 163.697 29.2022 163.696C28.6694 163.693 28.163 164.07 27.6846 164.825L26.1758 163.922C26.5742 163.31 27.0102 162.85 27.4846 162.538C27.9574 162.226 28.559 162.072 29.2894 162.075C30.0182 162.079 30.659 162.313 31.2102 162.781C31.7598 163.247 32.0326 163.879 32.0286 164.678C32.0262 165.114 31.9118 165.53 31.6886 165.928C31.4646 166.326 31.0534 166.834 30.4534 167.452L28.9198 169.03L32.259 169.048L32.2502 170.742L26.2862 170.71L26.2934 169.306L28.787 166.778C29.291 166.274 29.6502 165.87 29.8654 165.568Z" fill="#F68A73"/>
    <path d="M37.186 165.606C37.4012 165.306 37.51 165.014 37.5116 164.732C37.5132 164.449 37.4212 164.213 37.2372 164.022C37.0516 163.832 36.8148 163.735 36.5244 163.734C35.9916 163.732 35.4852 164.109 35.0068 164.863L33.498 163.96C33.8964 163.349 34.3316 162.888 34.806 162.576C35.2788 162.264 35.8804 162.11 36.6116 162.114C37.3404 162.118 37.9812 162.352 38.5316 162.819C39.0812 163.286 39.3548 163.918 39.3508 164.716C39.3484 165.152 39.234 165.569 39.0108 165.966C38.7876 166.365 38.3756 166.872 37.7756 167.491L36.242 169.069L39.5812 169.086L39.5724 170.78L33.6084 170.749L33.6156 169.345L36.1092 166.817C36.6116 166.311 36.9716 165.908 37.186 165.606Z" fill="#F68A73"/>
    <path d="M62.2067 165.593C62.4219 165.292 62.5307 165 62.5323 164.718C62.5339 164.435 62.4419 164.199 62.2579 164.009C62.0723 163.818 61.8355 163.722 61.5451 163.721C61.0123 163.718 60.5059 164.095 60.0275 164.85L58.5195 163.946C58.9179 163.335 59.3531 162.874 59.8275 162.562C60.3003 162.25 60.9019 162.097 61.6323 162.1C62.3611 162.104 63.0019 162.338 63.5531 162.806C64.1027 163.272 64.3755 163.904 64.3715 164.702C64.3691 165.138 64.2547 165.555 64.0315 165.953C63.8083 166.351 63.3963 166.858 62.7971 167.477L61.2627 169.055L64.6019 169.073L64.5931 170.766L58.6291 170.735L58.6363 169.331L61.1299 166.803C61.6323 166.298 61.9915 165.895 62.2067 165.593Z" fill="#737072"/>
    <path d="M66.1907 163.926L66.1987 162.317L71.3771 162.343L71.3707 163.65L69.6307 165.613C70.3067 165.729 70.8307 166.016 71.1995 166.474C71.5667 166.932 71.7507 167.458 71.7475 168.056C71.7427 168.943 71.4379 169.638 70.8355 170.138C70.2307 170.64 69.4611 170.887 68.5267 170.882C67.5907 170.878 66.6451 170.542 65.6875 169.877L66.4699 168.38C67.2651 168.949 67.9787 169.235 68.6083 169.238C68.9859 169.24 69.2995 169.149 69.5475 168.965C69.7939 168.779 69.9187 168.513 69.9203 168.162C69.9219 167.81 69.7827 167.532 69.5003 167.325C69.2203 167.118 68.8283 167.013 68.3291 167.01C68.0635 167.009 67.6867 167.082 67.2019 167.234L67.2091 165.842L68.8411 163.939L66.1907 163.926Z" fill="#737072"/>
    <path d="M93.7943 165.756C94.0095 165.455 94.1183 165.163 94.1199 164.882C94.1215 164.598 94.0287 164.362 93.8447 164.172C93.6591 163.982 93.4231 163.886 93.1319 163.884C92.5991 163.882 92.0927 164.258 91.6143 165.013L90.1055 164.11C90.5039 163.499 90.9399 163.038 91.4143 162.726C91.8871 162.414 92.4887 162.261 93.2191 162.264C93.9479 162.268 94.5887 162.502 95.1399 162.97C95.6895 163.436 95.9623 164.068 95.9583 164.866C95.9559 165.302 95.8415 165.719 95.6183 166.117C95.3943 166.516 94.9831 167.022 94.3831 167.641L92.8495 169.219L96.1887 169.237L96.1799 170.93L90.2159 170.899L90.2231 169.495L92.7167 166.967C93.2199 166.462 93.5791 166.058 93.7943 165.756Z" fill="#737072"/>
    <path d="M100.69 167.298L100.698 165.822L102.513 165.831L102.505 167.308L103.46 167.313L103.452 168.946L102.497 168.942L102.487 170.962L100.672 170.953L100.682 168.932L97.2812 168.914L97.2884 167.474L100.328 162.494L102.385 162.504L99.4924 167.293L100.69 167.298Z" fill="#737072"/>
    <path d="M125.398 165.92C125.613 165.619 125.722 165.327 125.723 165.046C125.725 164.762 125.633 164.526 125.449 164.336C125.263 164.146 125.027 164.049 124.735 164.048C124.203 164.046 123.696 164.422 123.218 165.177L121.709 164.274C122.107 163.663 122.543 163.202 123.017 162.89C123.49 162.578 124.091 162.425 124.822 162.428C125.551 162.432 126.191 162.666 126.743 163.134C127.292 163.6 127.566 164.232 127.562 165.03C127.559 165.466 127.445 165.883 127.222 166.281C126.999 166.68 126.586 167.186 125.987 167.805L124.453 169.383L127.792 169.401L127.783 171.094L121.819 171.063L121.827 169.659L124.32 167.131C124.823 166.625 125.183 166.222 125.398 165.92Z" fill="#737072"/>
    <path d="M134.604 162.671L134.596 164.305L131.256 164.287L131.249 165.702C131.5 165.633 131.786 165.598 132.108 165.599C132.924 165.603 133.624 165.852 134.211 166.347C134.796 166.843 135.087 167.507 135.083 168.342C135.079 169.178 134.772 169.865 134.16 170.407C133.547 170.948 132.794 171.216 131.899 171.211C130.752 171.206 129.8 170.777 129.037 169.926L130.036 168.551C130.108 168.624 130.205 168.714 130.325 168.82C130.447 168.925 130.667 169.066 130.988 169.241C131.31 169.414 131.632 169.503 131.955 169.505C132.277 169.506 132.564 169.411 132.815 169.22C133.067 169.026 133.193 168.742 133.196 168.362C133.197 167.984 133.063 167.69 132.794 167.483C132.524 167.274 132.177 167.17 131.749 167.168C131.322 167.166 130.825 167.316 130.259 167.62L129.477 166.77L129.499 162.643L134.604 162.671Z" fill="#737072"/>
    <path d="M157.042 166.084C157.257 165.783 157.366 165.491 157.367 165.21C157.369 164.926 157.277 164.69 157.093 164.5C156.907 164.309 156.67 164.213 156.379 164.212C155.846 164.209 155.34 164.586 154.862 165.341L153.354 164.438C153.752 163.826 154.187 163.366 154.662 163.054C155.134 162.742 155.736 162.587 156.466 162.591C157.195 162.595 157.836 162.83 158.386 163.297C158.936 163.763 159.21 164.395 159.206 165.194C159.203 165.63 159.089 166.046 158.866 166.444C158.642 166.843 158.23 167.35 157.631 167.968L156.097 169.546L159.436 169.564L159.427 171.258L153.463 171.226L153.47 169.822L155.964 167.294C156.466 166.789 156.826 166.386 157.042 166.084Z" fill="#737072"/>
    <path d="M164.403 164.253C163.878 164.25 163.472 164.423 163.184 164.773C162.896 165.122 162.718 165.599 162.651 166.204C163.177 165.866 163.734 165.701 164.322 165.703C165.114 165.707 165.771 165.97 166.297 166.488C166.822 167.008 167.082 167.695 167.078 168.555C167.074 169.414 166.787 170.1 166.215 170.613C165.643 171.126 164.926 171.381 164.064 171.376C163.466 171.373 162.949 171.257 162.51 171.023C162.072 170.792 161.734 170.469 161.494 170.057C161.014 169.256 160.778 168.254 160.783 167.052C160.787 166.278 160.884 165.599 161.077 165.015C161.27 164.431 161.533 163.971 161.865 163.633C162.514 162.959 163.314 162.626 164.266 162.63C164.661 162.633 165.037 162.693 165.397 162.812C165.754 162.931 166.03 163.051 166.223 163.172C166.415 163.295 166.628 163.45 166.862 163.635L165.96 164.962C165.911 164.913 165.843 164.849 165.749 164.766C165.656 164.687 165.473 164.58 165.2 164.449C164.926 164.321 164.66 164.254 164.403 164.253ZM164.139 167.3C163.764 167.298 163.449 167.409 163.193 167.629C162.937 167.849 162.809 168.138 162.807 168.492C162.806 168.848 162.926 169.152 163.166 169.408C163.407 169.662 163.709 169.792 164.072 169.794C164.434 169.795 164.737 169.683 164.982 169.46C165.225 169.235 165.346 168.943 165.348 168.585C165.35 168.226 165.242 167.922 165.026 167.675C164.81 167.426 164.513 167.302 164.139 167.3Z" fill="#737072"/>
    <path d="M188.555 166.247C188.77 165.946 188.879 165.654 188.881 165.373C188.882 165.09 188.79 164.854 188.606 164.663C188.421 164.473 188.184 164.376 187.894 164.375C187.361 164.373 186.854 164.75 186.376 165.504L184.867 164.601C185.266 163.99 185.701 163.529 186.175 163.217C186.648 162.905 187.25 162.751 187.98 162.754C188.709 162.758 189.35 162.993 189.901 163.46C190.45 163.926 190.724 164.558 190.719 165.357C190.717 165.793 190.602 166.21 190.379 166.607C190.156 167.006 189.744 167.513 189.144 168.131L187.61 169.71L190.95 169.727L190.941 171.42L184.977 171.389L184.984 169.985L187.478 167.457C187.98 166.952 188.34 166.549 188.555 166.247Z" fill="#737072"/>
    <path d="M192.195 165.679L192.21 162.97L198.319 163.002L198.312 164.43L194.851 171.442L192.795 171.431L196.097 164.612L193.967 164.601L193.961 165.69L192.195 165.679Z" fill="#737072"/>
    <path d="M220.242 166.411C220.457 166.11 220.566 165.818 220.567 165.537C220.569 165.254 220.476 165.018 220.292 164.827C220.106 164.637 219.87 164.54 219.579 164.539C219.046 164.537 218.54 164.914 218.062 165.668L216.553 164.765C216.951 164.154 217.387 163.693 217.862 163.381C218.334 163.069 218.936 162.915 219.666 162.918C220.395 162.922 221.036 163.157 221.587 163.624C222.137 164.09 222.41 164.722 222.406 165.521C222.403 165.957 222.289 166.374 222.066 166.771C221.842 167.17 221.43 167.677 220.83 168.295L219.296 169.874L222.635 169.89L222.626 171.584L216.662 171.553L216.67 170.149L219.164 167.621C219.667 167.116 220.026 166.713 220.242 166.411Z" fill="#737072"/>
    <path d="M225.109 163.612C225.671 163.17 226.372 162.953 227.211 162.957C228.051 162.961 228.747 163.186 229.3 163.634C229.855 164.079 230.13 164.628 230.127 165.276C230.124 165.926 229.871 166.482 229.369 166.948C230.068 167.492 230.416 168.204 230.411 169.083C230.407 169.825 230.105 170.449 229.504 170.954C228.905 171.46 228.125 171.709 227.165 171.703C226.205 171.698 225.429 171.442 224.834 170.93C224.24 170.419 223.945 169.791 223.949 169.05C223.954 168.17 224.308 167.462 225.013 166.925C224.508 166.446 224.256 165.886 224.26 165.24C224.263 164.596 224.545 164.052 225.109 163.612ZM226.256 169.843C226.536 170.034 226.844 170.129 227.174 170.131C227.504 170.133 227.812 170.042 228.096 169.853C228.378 169.665 228.522 169.389 228.524 169.025C228.525 168.663 228.389 168.384 228.116 168.188C227.842 167.994 227.532 167.896 227.185 167.894C226.839 167.892 226.528 167.986 226.252 168.178C225.978 168.371 225.839 168.648 225.837 169.01C225.835 169.374 225.974 169.652 226.256 169.843ZM226.389 166.147C226.619 166.341 226.886 166.439 227.192 166.441C227.499 166.442 227.768 166.347 227.999 166.156C228.231 165.962 228.346 165.725 228.348 165.438C228.349 165.152 228.238 164.911 228.013 164.715C227.788 164.522 227.518 164.423 227.204 164.422C226.889 164.42 226.618 164.515 226.392 164.706C226.165 164.9 226.05 165.139 226.048 165.426C226.047 165.712 226.161 165.951 226.389 166.147Z" fill="#737072"/>
    <path d="M29.2622 185.609C29.4774 185.308 29.5862 185.016 29.5878 184.734C29.5894 184.451 29.4974 184.215 29.3126 184.025C29.127 183.834 28.8902 183.738 28.5998 183.737C28.067 183.734 27.5606 184.111 27.0822 184.866L25.5742 183.962C25.9726 183.351 26.4078 182.89 26.8822 182.578C27.355 182.266 27.9566 182.112 28.687 182.116C29.4158 182.12 30.0566 182.354 30.607 182.822C31.1566 183.287 31.4302 183.92 31.4262 184.718C31.4238 185.155 31.3094 185.572 31.0862 185.969C30.863 186.368 30.451 186.874 29.851 187.493L28.3174 189.07L31.6566 189.088L31.6478 190.782L25.6838 190.75L25.691 189.346L28.1846 186.818C28.6878 186.314 29.047 185.912 29.2622 185.609Z" fill="#F68A73"/>
    <path d="M35.637 189.279C36.1618 189.282 36.5674 189.109 36.8554 188.759C37.1434 188.41 37.321 187.933 37.389 187.328C36.8722 187.673 36.3146 187.842 35.7162 187.84C34.9258 187.836 34.2682 187.573 33.7426 187.05C33.217 186.528 32.957 185.838 32.961 184.983C32.9658 184.128 33.2538 183.442 33.8234 182.924C34.3954 182.407 35.113 182.151 35.9762 182.156C36.5722 182.159 37.0906 182.276 37.529 182.509C37.9674 182.74 38.3106 183.063 38.5578 183.475C39.0298 184.276 39.2634 185.278 39.257 186.48C39.253 187.254 39.1546 187.933 38.9618 188.517C38.769 189.101 38.5106 189.561 38.1866 189.898C37.5218 190.573 36.717 190.906 35.7738 190.902C35.3786 190.899 34.9994 190.839 34.6378 190.72C34.2746 190.601 34.0018 190.482 33.8178 190.365C33.6322 190.246 33.4194 190.096 33.1786 189.907L34.129 188.582C34.1842 188.63 34.2594 188.694 34.3506 188.77C34.4434 188.848 34.6234 188.952 34.8882 189.082C35.1538 189.211 35.4034 189.278 35.637 189.279ZM35.9138 186.23C36.289 186.232 36.6026 186.126 36.853 185.91C37.1034 185.693 37.2306 185.407 37.2322 185.053C37.2338 184.697 37.1154 184.39 36.8746 184.13C36.6338 183.871 36.3314 183.74 35.969 183.738C35.605 183.737 35.309 183.85 35.077 184.078C34.8466 184.308 34.7298 184.6 34.7282 184.954C34.7266 185.31 34.829 185.611 35.0378 185.857C35.2474 186.105 35.5386 186.228 35.9138 186.23Z" fill="#F68A73"/>
    <path d="M57.5872 184.069L57.5952 182.459L62.7728 182.486L62.7664 183.794L61.0264 185.756C61.7024 185.871 62.2264 186.159 62.5952 186.617C62.9624 187.076 63.1464 187.601 63.144 188.199C63.1392 189.086 62.8336 189.781 62.232 190.281C61.6272 190.782 60.8576 191.03 59.9232 191.026C58.9872 191.021 58.0424 190.685 57.084 190.019L57.8664 188.522C58.6616 189.091 59.3744 189.378 60.004 189.381C60.3816 189.383 60.6952 189.291 60.9432 189.107C61.1896 188.922 61.3136 188.655 61.316 188.304C61.3176 187.953 61.1784 187.674 60.8968 187.467C60.6168 187.26 60.2248 187.155 59.7256 187.153C59.46 187.151 59.0832 187.226 58.5984 187.376L58.6056 185.985L60.2376 184.081L57.5872 184.069Z" fill="#737072"/>
    <path d="M67.9678 191.067C66.7982 191.061 65.9254 190.66 65.3478 189.862C64.7718 189.065 64.4878 188.002 64.4942 186.676C64.5014 185.35 64.7958 184.29 65.3806 183.498C65.967 182.707 66.843 182.314 68.0126 182.321C69.1822 182.327 70.055 182.729 70.6326 183.525C71.2086 184.323 71.4943 185.386 71.4879 186.712C71.4807 188.038 71.1846 189.098 70.5998 189.889C70.0142 190.68 69.1382 191.073 67.9678 191.067ZM66.755 184.649C66.4854 185.163 66.3486 185.843 66.3446 186.691C66.3398 187.538 66.4694 188.221 66.7342 188.738C66.9974 189.256 67.4118 189.516 67.9766 189.519C68.5406 189.522 68.9582 189.266 69.227 188.75C69.4966 188.236 69.6334 187.554 69.6374 186.708C69.6422 185.861 69.5126 185.178 69.2478 184.662C68.9846 184.143 68.5702 183.883 68.0062 183.88C67.4406 183.878 67.0238 184.134 66.755 184.649Z" fill="#737072"/>
    <path d="M44.2825 44.0529C44.2825 46.0281 42.6809 47.6297 40.7057 47.6297C38.7305 47.6297 37.1289 46.0281 37.1289 44.0529C37.1289 42.0777 38.7305 40.4761 40.7057 40.4761C42.6809 40.4769 44.2825 42.0777 44.2825 44.0529Z" fill="#F68A73"/>
    <path d="M40.8919 45.5201H40.5255C39.6511 45.5201 38.9415 44.8112 38.9415 43.9368L38.9375 29.4289C38.9375 28.5545 39.6463 27.8448 40.5207 27.8448H40.8871C41.7615 27.8448 42.4711 28.5537 42.4711 29.4281L42.4751 43.936C42.4751 44.8104 41.7663 45.5193 40.8919 45.5201Z" fill="#737072"/>
    <path d="M70.4016 44.0529C70.4016 46.0281 68.8 47.6297 66.8248 47.6297C64.8496 47.6297 63.248 46.0281 63.248 44.0529C63.248 42.0777 64.8496 40.4761 66.8248 40.4761C68.8 40.4761 70.4016 42.0777 70.4016 44.0529Z" fill="#F68A73"/>
    <path d="M67.011 45.5201H66.6446C65.7702 45.5201 65.0606 44.8112 65.0606 43.9368L65.0566 29.4289C65.0566 28.5545 65.7654 27.8448 66.6398 27.8448H67.0062C67.8806 27.8448 68.5902 28.5537 68.5902 29.4281L68.5942 43.936C68.5942 44.8104 67.8854 45.5193 67.011 45.5201Z" fill="#737072"/>
    <path d="M96.5208 44.0529C96.5208 46.0281 94.9192 47.6297 92.944 47.6297C90.9688 47.6297 89.3672 46.0281 89.3672 44.0529C89.3672 42.0777 90.9688 40.4761 92.944 40.4761C94.92 40.4769 96.5208 42.0777 96.5208 44.0529Z" fill="#F68A73"/>
    <path d="M93.1302 45.5201H92.7638C91.8894 45.5201 91.1798 44.8112 91.1798 43.9368L91.1758 29.4289C91.1758 28.5545 91.8846 27.8448 92.759 27.8448H93.1254C93.9998 27.8448 94.7094 28.5537 94.7094 29.4281L94.7134 43.936C94.7142 44.8104 94.0054 45.5193 93.1302 45.5201Z" fill="#737072"/>
    <path d="M122.64 44.0529C122.64 46.0281 121.038 47.6297 119.063 47.6297C117.088 47.6297 115.486 46.0281 115.486 44.0529C115.486 42.0777 117.088 40.4761 119.063 40.4761C121.039 40.4769 122.64 42.0777 122.64 44.0529Z" fill="#F68A73"/>
    <path d="M119.249 45.5201H118.883C118.009 45.5201 117.299 44.8112 117.299 43.9368L117.295 29.4289C117.295 28.5545 118.004 27.8448 118.878 27.8448H119.245C120.119 27.8448 120.829 28.5537 120.829 29.4281L120.833 43.936C120.833 44.8104 120.124 45.5193 119.249 45.5201Z" fill="#737072"/>
    <path d="M148.761 44.0529C148.761 46.0281 147.159 47.6297 145.184 47.6297C143.209 47.6297 141.607 46.0281 141.607 44.0529C141.607 42.0777 143.209 40.4761 145.184 40.4761C147.159 40.4769 148.761 42.0777 148.761 44.0529Z" fill="#F68A73"/>
    <path d="M145.37 45.5201H145.004C144.13 45.5201 143.42 44.8112 143.42 43.9368L143.416 29.4289C143.416 28.5545 144.125 27.8448 144.999 27.8448H145.366C146.24 27.8448 146.95 28.5537 146.95 29.4281L146.954 43.936C146.954 44.8104 146.245 45.5193 145.37 45.5201Z" fill="#737072"/>
    <path d="M174.88 44.0529C174.88 46.0281 173.279 47.6297 171.303 47.6297C169.327 47.6297 167.727 46.0281 167.727 44.0529C167.727 42.0777 169.328 40.4761 171.303 40.4761C173.279 40.4761 174.88 42.0777 174.88 44.0529Z" fill="#F68A73"/>
    <path d="M171.49 45.5201H171.123C170.249 45.5201 169.539 44.8112 169.539 43.9368L169.535 29.4289C169.535 28.5545 170.244 27.8448 171.118 27.8448H171.485C172.359 27.8448 173.069 28.5537 173.069 29.4281L173.073 43.936C173.073 44.8104 172.364 45.5193 171.49 45.5201Z" fill="#737072"/>
    <path d="M200.999 44.0529C200.999 46.0281 199.398 47.6297 197.423 47.6297C195.447 47.6297 193.846 46.0281 193.846 44.0529C193.846 42.0777 195.447 40.4761 197.423 40.4761C199.398 40.4769 200.999 42.0777 200.999 44.0529Z" fill="#F68A73"/>
    <path d="M197.609 45.5201H197.242C196.368 45.5201 195.658 44.8112 195.658 43.9368L195.654 29.4289C195.654 28.5545 196.363 27.8448 197.238 27.8448H197.604C198.478 27.8448 199.188 28.5537 199.188 29.4281L199.192 43.936C199.193 44.8104 198.483 45.5193 197.609 45.5201Z" fill="#737072"/>
    <path d="M227.118 44.0529C227.118 46.0281 225.517 47.6297 223.542 47.6297C221.566 47.6297 219.965 46.0281 219.965 44.0529C219.965 42.0777 221.566 40.4761 223.542 40.4761C225.518 40.4769 227.118 42.0777 227.118 44.0529Z" fill="#F68A73"/>
    <path d="M223.728 45.5201H223.361C222.487 45.5201 221.777 44.8112 221.777 43.9368L221.773 29.4289C221.773 28.5545 222.482 27.8448 223.357 27.8448H223.723C224.597 27.8448 225.307 28.5537 225.307 29.4281L225.311 43.936C225.312 44.8104 224.603 45.5193 223.728 45.5201Z" fill="#737072"/>
    <path d="M253.238 44.0529C253.238 46.0281 251.637 47.6297 249.661 47.6297C247.686 47.6297 246.084 46.0281 246.084 44.0529C246.084 42.0777 247.686 40.4761 249.661 40.4761C251.637 40.4769 253.238 42.0777 253.238 44.0529Z" fill="#F68A73"/>
    <path d="M249.847 45.5201H249.481C248.606 45.5201 247.897 44.8112 247.897 43.9368L247.893 29.4289C247.893 28.5545 248.601 27.8448 249.476 27.8448H249.842C250.717 27.8448 251.426 28.5537 251.426 29.4281L251.43 43.936C251.43 44.8104 250.721 45.5193 249.847 45.5201Z" fill="#737072"/>
    <path d="M279.357 44.0529C279.357 46.0281 277.755 47.6297 275.78 47.6297C273.805 47.6297 272.203 46.0281 272.203 44.0529C272.203 42.0777 273.804 40.4761 275.78 40.4761C277.755 40.4769 279.357 42.0777 279.357 44.0529Z" fill="#F68A73"/>
    <path d="M275.966 45.5201H275.6C274.725 45.5201 274.016 44.8112 274.016 43.9368L274.012 29.4289C274.012 28.5545 274.72 27.8448 275.595 27.8448H275.961C276.836 27.8448 277.545 28.5537 277.545 29.4281L277.549 43.936C277.549 44.8104 276.841 45.5193 275.966 45.5201Z" fill="#737072"/>
    <mask id="mask0_364_4258" style="mask-type:luminance" maskUnits="userSpaceOnUse" x="0" y="8" width="361" height="342">
    <path d="M333.613 197.64C327.973 183.391 325.785 169.322 329.992 151.439C333.413 136.896 338.759 122.674 339.734 107.765C345.416 20.9096 293.319 -5.42155 231.753 15.3081C212.024 21.9505 168.373 35.2025 147.143 36.8081C108.106 39.7601 82.7646 27.4641 60.331 27.1361C20.4078 26.5536 -13.977 80.7488 7.49502 116.55C14.4678 128.175 19.1526 141.925 28.1278 152.085C47.127 173.59 35.5334 204.166 28.271 232.124C23.7246 249.625 13.383 268.385 23.4486 294.758C25.9222 301.238 33.7014 305.666 35.9798 311.745C44.227 333.746 65.159 349.046 91.2694 349.65C126.388 350.462 156.294 329.024 187.629 316.454C203.144 310.231 219.359 305.891 236.206 307.379C256.342 309.158 274.464 319.41 294.953 320.479C320.863 321.83 347.613 308.73 357.043 283.489C365.586 260.621 354.935 239.324 344.163 219.412C340.04 211.787 336.404 204.691 333.613 197.64Z" fill="white"/>
    </mask>
    <g mask="url(#mask0_364_4258)">
    <path d="M132.756 175.29C134.673 180.018 108.364 180.876 111.354 174.894C114.345 168.913 114.386 158.446 114.386 158.446H131.502C131.502 158.446 130.839 170.563 132.756 175.29Z" fill="#FFC4C2"/>
    <path d="M117.959 158.446C118.442 163.706 121.959 166.859 127.563 168.799C128.879 169.254 130.273 169.612 131.662 169.806C131.167 164.567 131.501 158.446 131.501 158.446H117.959Z" fill="#FFADAA"/>
    <path d="M140.298 142.401C140.197 141.439 139.416 137.401 138.942 134.988C138.84 134.411 138.728 133.86 138.611 133.321C138.591 133.219 138.576 133.147 138.576 133.147L138.574 133.155C136.314 122.934 131.324 119.412 124.138 119.412C114.773 119.412 107.182 130.055 107.182 143.184C107.182 156.313 118.314 162.642 127.538 164.255C137.913 166.069 139.984 164.757 140.547 158.578C140.548 158.576 140.55 158.575 140.55 158.573C141.47 155.993 141.179 151.059 142.794 149.812C144.407 148.565 140.445 143.795 140.298 142.401Z" fill="#FFC4C2"/>
    <path d="M146.077 121.573C145.265 118.939 142.454 120.424 140.387 121.979C140.341 121.789 146.443 118.062 144.597 116.77C141.7 114.743 138.724 118.61 138.529 118.446C140.313 116.541 139.882 116.308 138.44 115.878C137.893 115.714 136.069 115.859 134.008 117.018C132.098 118.092 129.961 118.706 127.773 118.606C125.686 118.512 122.747 118.29 117.361 118.04C105 117.465 103.467 129.059 103.467 129.059C103.467 129.059 98.3886 132.892 99.059 140.941C99.7294 148.99 114.007 161.446 114.007 161.446C114.007 161.446 120.14 164.034 126.464 158.476C132.788 152.918 129.53 149.086 132.279 146.105C135.029 143.123 132.309 141.899 131.733 136.917C131.158 131.934 137.919 130.634 137.919 130.634C145.518 125.375 146.511 122.982 146.077 121.573Z" fill="#232323"/>
    <path d="M132.441 145.282C133.607 147.561 133.048 150.179 131.191 151.13C129.335 152.08 126.883 151.003 125.717 148.724C124.55 146.445 125.109 143.826 126.966 142.876C128.823 141.926 131.274 143.002 132.441 145.282Z" fill="#FFC4C2"/>
    <path d="M148.82 347.735H95.5192L88.0664 292.487H156.274L148.82 347.735Z" fill="white"/>
    <path d="M114.895 306.546C114.895 306.546 115.69 313.367 121.393 320.59L121.487 347.735" stroke="#D5D5D5" stroke-width="3.2902" stroke-miterlimit="10"/>
    <path d="M186.147 117.497C186.147 117.497 183.413 119.413 183.263 122.146C183.141 124.359 183.884 128.783 185.184 130.082C186.484 131.382 187.005 130.484 187.005 130.484L186.147 117.497Z" fill="#FFC4C2"/>
    <path d="M195.427 137.261C195.427 137.261 196.637 133.039 197.541 123.084C197.673 121.636 198.383 118.735 196.84 117.719C196.508 117.5 195.332 116.702 194.806 118.311C195.093 116.324 192.513 115.682 192.139 117.639C192.097 115.519 189.469 115.587 189.152 117.409C189.249 114.945 189.152 113.876 189.152 111.245C189.152 108.614 188.926 107.111 188.1 107.035C187.273 106.96 186.289 106.267 185.071 119.591C184.793 122.628 184.505 125.637 184.607 127.564C184.786 130.948 185.248 133.278 186.54 134.154C190.273 137.762 195.427 137.261 195.427 137.261Z" fill="#FFC4C2"/>
    <path d="M75.3184 259.752L82.8792 258.813C84.2648 258.76 85.5576 259.608 86.2216 261.004L87.936 264L75.3184 259.752Z" fill="#FFADAA"/>
    <path d="M75.559 259.178C75.559 259.178 90.5526 263.123 90.4326 264.838C90.2398 267.609 87.911 273.267 87.003 274.779C86.5542 275.526 85.807 276.164 83.1406 275.687C81.2534 275.35 78.2438 274.385 76.2878 272.954C72.7382 270.358 72.0742 267.504 72.0742 267.504L75.559 259.178Z" fill="#FFC4C2"/>
    <path d="M89.4013 269.102C89.9349 267.518 90.3557 265.947 90.4333 264.838C90.5525 263.123 75.5589 259.178 75.5589 259.178L74.8301 260.919C79.5437 263.772 84.4013 266.666 89.4013 269.102Z" fill="#FFADAA"/>
    <path d="M89.85 267.676C89.6084 267.676 89.362 267.624 89.1284 267.514L84.6852 265.416C83.8404 265.017 83.478 264.008 83.8772 263.162C84.2764 262.317 85.2852 261.955 86.1308 262.354L90.5748 264.452C91.4196 264.851 91.782 265.86 91.3828 266.706C91.0932 267.318 90.4844 267.676 89.85 267.676Z" fill="#FFADAA"/>
    <path d="M88.6906 270.826C88.449 270.826 88.2027 270.774 87.9691 270.664L83.525 268.566C82.6802 268.167 82.3178 267.158 82.717 266.313C83.1162 265.467 84.1251 265.106 84.9707 265.505L89.4147 267.602C90.2595 268.002 90.6219 269.01 90.2227 269.856C89.9339 270.468 89.3258 270.826 88.6906 270.826Z" fill="#FFC4C2"/>
    <path d="M90.3829 269.185C90.4021 268.532 90.0429 267.898 89.4149 267.602L84.9717 265.505C84.2949 265.185 83.5189 265.359 83.0293 265.873C85.4021 267.108 87.8893 268.257 90.3829 269.185Z" fill="#FFADAA"/>
    <path d="M87.5316 273.976C87.2892 273.976 87.0436 273.924 86.81 273.814L82.3668 271.716C81.522 271.317 81.1596 270.308 81.5588 269.462C81.958 268.617 82.9668 268.255 83.8124 268.654L88.2564 270.752C89.1012 271.151 89.4636 272.16 89.0644 273.006C88.7748 273.618 88.166 273.976 87.5316 273.976Z" fill="#FFC4C2"/>
    <path d="M86.3734 277.126C86.131 277.126 85.8854 277.074 85.6518 276.964L81.2086 274.866C80.3638 274.467 80.0014 273.458 80.4006 272.613C80.7998 271.767 81.8086 271.406 82.6542 271.805L87.0974 273.902C87.9422 274.302 88.3046 275.31 87.9054 276.156C87.6158 276.768 87.0078 277.126 86.3734 277.126Z" fill="#FFC4C2"/>
    <path d="M104.018 176.528C103.659 176.351 111.116 169.591 111.116 169.591C111.116 169.591 115.346 170.827 133.799 170.695L141.26 177.209C141.26 177.209 126.561 187.65 104.018 176.528Z" fill="#0191E7"/>
    <path d="M184.466 131.353L184.585 135.321C184.181 145.589 176.097 170.324 176.097 170.324L158.095 176.844C142.92 174.39 132.755 175.291 132.755 175.291L111.353 174.895C111.353 174.895 84.2839 182.023 79.2503 186.669C74.2167 191.315 38.8351 230.716 38.6415 236.137C38.4479 241.558 72.0735 267.503 72.0735 267.503L75.5583 259.179C75.5583 259.179 70.5263 245.713 60.8615 234.924L84.1503 220.874C85.3087 235.459 85.3895 241.289 86.4678 255.019C88.3223 278.632 85.3175 300.951 85.3175 300.951C125.041 314.118 162.381 300.082 162.381 300.082C162.381 300.082 157.685 277.172 156.539 254.258C155.393 231.344 163.679 209.638 163.679 209.638C163.679 209.638 192.164 187.954 192.833 180.92C193.503 173.887 196.377 142.188 196.377 142.188L196.977 135.252L184.466 131.353Z" fill="#0191E7"/>
    <path d="M186.373 180.886C184.028 185.607 161.679 202.727 159.104 204.064C152.725 207.377 151.887 212.797 152.071 219.519C152.223 225.063 153.101 230.555 153.269 236.098C153.582 246.446 153.957 257.268 157.503 266.974C157.094 262.835 156.755 258.547 156.541 254.258C155.395 231.345 163.681 209.639 163.681 209.639C163.681 209.639 192.165 187.954 192.835 180.921C193.505 173.887 196.378 142.189 196.378 142.189L196.979 135.253L195.649 134.839C194.989 138.538 188.257 177.093 186.373 180.886Z" fill="#0191E7"/>
    <path d="M99.7924 304.649C95.2228 297.02 93.9892 288.894 93.2556 279.645C92.194 266.252 92.1652 252.835 91.3988 239.433C91.0668 233.629 90.6468 228.053 90.9068 222.236C91.0948 218.039 91.3508 213.751 90.5236 209.639C84.9588 214.456 77.9204 217.474 71.8044 221.494C66.6108 224.908 57.8524 227.606 54.9844 233.534C52.0636 239.571 60.6036 247.103 64.2956 250.823C67.7044 254.257 71.5356 257.503 74.694 261.242L75.558 259.178C75.558 259.178 70.526 245.712 60.8612 234.923L84.1508 220.873C85.3092 235.459 85.39 241.288 86.4684 255.018C88.3228 278.631 85.318 300.951 85.318 300.951C90.2012 302.57 95.0476 303.775 99.7924 304.649Z" fill="#0191E7"/>
    <path d="M141.259 285.131C141.259 285.131 111.821 289.829 96.4629 275.851C96.4629 275.851 108.385 300.489 141.259 285.131Z" fill="#0191E7"/>
    <path d="M134.228 179.11C132.329 180.566 130.056 181.494 127.728 182.085C125.392 182.678 122.955 182.929 120.536 182.793C118.128 182.61 115.711 182.235 113.461 181.359C112.309 181.014 111.248 180.424 110.174 179.914C109.125 179.345 108.136 178.663 107.18 177.97C108.353 178.242 109.438 178.658 110.564 178.944C111.696 179.212 112.785 179.567 113.916 179.758L115.588 180.102L117.272 180.342C117.83 180.442 118.393 180.488 118.956 180.538C119.519 180.578 120.078 180.67 120.644 180.657L122.335 180.731C122.899 180.718 123.463 180.693 124.028 180.693C125.16 180.666 126.288 180.561 127.42 180.444C129.688 180.18 131.946 179.759 134.228 179.11Z" fill="#0191E7"/>
    <path d="M77.3087 329.963C77.8167 327.353 80.8919 318.445 80.6095 315.816C80.2543 312.506 79.0767 309.35 77.2047 306.598C70.5647 296.837 67.4799 298.574 65.3439 291.669C56.8415 264.19 42.0471 275.676 29.3351 264.204C29.3351 264.204 27.5239 280.542 29.6319 283.259C31.1959 285.275 33.4687 286.537 35.9511 287.128C37.1967 287.425 38.2223 288.123 38.8455 289.42C40.0991 292.028 39.1607 293.885 37.2815 295.255C34.3663 297.382 32.9223 301.034 33.8831 304.514C36.0367 312.307 41.4399 316.499 48.5335 316.776C58.0015 317.146 40.7807 359.956 83.5239 348.01C83.5239 348.01 96.5599 337.341 85.7559 320.75C85.7807 322.311 76.8319 332.41 77.3087 329.963ZM65.6295 327.454C65.2255 328.424 63.9807 328.806 63.0599 328.386C61.9399 327.874 60.8991 327.559 59.7759 327.217C58.7399 326.901 58.0647 326.104 58.2231 324.967C58.3559 324.015 59.5015 323.119 60.4727 323.415C61.8967 323.849 63.3407 324.265 64.6983 324.885C65.6807 325.334 66.0295 326.495 65.6295 327.454ZM56.8719 289.513C56.9375 291.991 53.0839 292.31 53.0183 289.817C52.9775 288.264 52.9631 286.689 52.4639 285.203C51.6703 282.845 55.3039 281.527 56.0975 283.886C56.7127 285.716 56.8207 287.6 56.8719 289.513Z" fill="#0191E7"/>
    <path d="M29.3166 264.38C29.1302 266.134 27.651 280.707 29.6326 283.26C31.1966 285.276 33.4694 286.538 35.9518 287.129C37.1974 287.426 38.223 288.124 38.8462 289.421C40.0998 292.029 39.1614 293.886 37.2822 295.256C34.367 297.383 32.923 301.035 33.8838 304.515C36.0374 312.309 41.4406 316.499 48.5342 316.777C58.0022 317.147 40.7814 359.957 83.5246 348.011C83.5246 348.011 58.3686 292.409 29.3166 264.38ZM65.6294 327.455C65.2254 328.424 63.9806 328.807 63.0598 328.386C61.9398 327.874 60.899 327.559 59.7758 327.217C58.7398 326.901 58.0646 326.104 58.223 324.967C58.3558 324.015 59.5014 323.119 60.4726 323.415C61.8966 323.849 63.3406 324.265 64.6982 324.885C65.6806 325.334 66.0294 326.495 65.6294 327.455Z" fill="#0191E7"/>
    <path d="M99.0401 385.708C98.7113 384.801 78.1681 322.438 45.5137 283.046" stroke="white" stroke-width="0.9663" stroke-miterlimit="10" stroke-linecap="round" stroke-linejoin="round"/>
    <path d="M58.1698 300.222C58.1698 300.222 48.0411 301.622 41.6562 299.444" stroke="white" stroke-width="0.9663" stroke-miterlimit="10" stroke-linecap="round" stroke-linejoin="round"/>
    <path d="M68.96 302.536C68.96 302.536 67.9304 307.366 64.4824 310.244" stroke="white" stroke-width="0.9663" stroke-miterlimit="10" stroke-linecap="round" stroke-linejoin="round"/>
    <path d="M64.5059 335.437C64.5059 335.437 71.1563 339.439 79.2683 337.792" stroke="white" stroke-width="0.9663" stroke-miterlimit="10" stroke-linecap="round" stroke-linejoin="round"/>
    <path d="M85.1997 330.721C85.1997 330.721 85.9965 336.539 81.5957 342.687" stroke="white" stroke-width="0.9663" stroke-miterlimit="10" stroke-linecap="round" stroke-linejoin="round"/>
    <path d="M270.667 286.497C276.939 258.89 292.735 244.462 284.374 238.654C275.849 232.734 249.209 254.418 247.853 273.752C247.203 278.273 248.319 284.266 246.705 282.27C241.594 275.943 241.894 271.602 240.302 262.714C239.931 260.647 238.521 258.835 236.511 258.226C234.311 257.56 231.888 258.34 229.259 261.346C222.079 269.557 223.439 283.871 227.988 305.299C227.051 303.85 225.8 302.519 224.112 301.776C221.357 300.563 216.253 298.341 214.002 301.567C212.031 304.392 213.339 309.407 213.867 312.467C215.658 322.862 224.377 328.739 231.432 335.744C233.126 337.426 234.724 339.172 236.107 341.062C238.62 344.495 239.867 350.18 244.915 350.594C248.27 350.87 251.715 350.598 255.043 350.165C259.859 349.538 263.707 347.03 264.668 342.023C265.076 339.898 276.958 332.5 279.741 330.926C298.969 320.054 280.033 310.702 267.816 321.636C277.435 305.139 283.419 301.563 288.085 296.115C314.866 273.502 294.894 259.539 270.667 286.497ZM269.393 263.072C270.891 260.61 272.711 258.458 274.892 256.574C275.714 255.863 277.106 256.246 277.679 257.062C278.344 258.009 278.007 259.143 277.191 259.848C275.566 261.252 274.119 262.962 273.003 264.798C272.439 265.723 271.393 266.246 270.335 265.74C269.43 265.306 268.831 263.995 269.393 263.072ZM234.093 295.562C232.051 291.614 230.634 287.48 230.455 283.01C230.353 280.442 234.339 280.104 234.442 282.678C234.607 286.809 235.965 290.54 237.849 294.182C239.031 296.47 235.259 297.816 234.093 295.562ZM274.733 307.658C273.466 308.576 272.223 309.534 271.194 310.72C269.504 312.666 266.45 310.083 268.14 308.136C269.387 306.701 270.899 305.496 272.435 304.384C274.527 302.869 276.815 306.15 274.733 307.658Z" fill="#0191E7"/>
    <path d="M283.742 238.301C274.616 233.753 249.177 254.865 247.853 273.751C247.203 278.272 248.319 284.265 246.705 282.269C241.594 275.942 241.894 271.601 240.302 262.713C239.931 260.646 238.521 258.834 236.511 258.225C234.311 257.559 231.888 258.339 229.259 261.345C222.079 269.556 223.439 283.87 227.988 305.298C227.051 303.849 225.8 302.518 224.112 301.775C221.357 300.562 216.253 298.34 214.002 301.566C212.031 304.391 213.339 309.406 213.867 312.466C215.658 322.861 224.377 328.738 231.432 335.743C233.126 337.425 234.724 339.171 236.107 341.061C238.62 344.494 239.867 350.179 244.915 350.593C245.57 350.647 246.228 350.679 246.888 350.693C245.487 344.892 248.976 267.917 283.742 238.301ZM234.093 295.562C232.051 291.614 230.634 287.48 230.455 283.01C230.353 280.441 234.339 280.104 234.442 282.678C234.607 286.809 235.965 290.54 237.849 294.182C239.031 296.47 235.259 297.816 234.093 295.562Z" fill="#0191E7"/>
    <path d="M278.433 245.105C276.734 246.379 275.202 248.048 273.833 249.76L272.799 251.054C272.453 251.486 272.16 251.957 271.837 252.406L270.891 253.77L270.417 254.451L269.988 255.162L268.273 258.01C267.7 258.959 267.231 259.968 266.705 260.944C266.205 261.934 265.652 262.898 265.194 263.909L263.831 266.947C263.393 267.967 262.887 268.958 262.502 270.001L261.308 273.112L260.113 276.223L259.076 279.391L258.044 282.562C257.697 283.618 257.345 284.672 257.074 285.751L255.321 292.187L254.882 293.796L254.517 295.424L253.787 298.68C253.315 300.854 252.782 303.014 252.36 305.198L251.177 311.767C250.803 313.96 250.336 316.138 250.069 318.349L249.147 324.961L248.685 328.266L248.456 329.919L248.286 331.58L246.928 344.866L246.925 344.885C246.894 345.192 246.62 345.415 246.313 345.384C246.005 345.353 245.782 345.078 245.813 344.771V344.77L247.217 331.454L247.393 329.79L247.629 328.132L248.101 324.818L249.048 318.189C249.322 315.973 249.797 313.788 250.18 311.59L251.387 305.002C251.818 302.812 252.36 300.644 252.841 298.463L253.584 295.197L253.956 293.564L254.401 291.949L256.183 285.489C256.459 284.406 256.815 283.346 257.168 282.286L258.215 279.102L259.269 275.921L260.481 272.794L261.693 269.666C262.082 268.618 262.595 267.62 263.041 266.594L264.425 263.538C264.889 262.52 265.45 261.548 265.958 260.551C266.493 259.568 266.969 258.553 267.551 257.595L269.294 254.721L269.731 254.003L270.213 253.314L271.177 251.934C271.505 251.479 271.805 251.004 272.157 250.566L273.213 249.252C274.633 247.501 276.136 245.843 278.01 244.449C278.183 244.32 278.427 244.356 278.556 244.529C278.685 244.702 278.649 244.946 278.476 245.074L278.433 245.105Z" fill="white"/>
    <path d="M235.703 279.23C235.703 279.23 246.17 292.058 250.194 314.144" stroke="white" stroke-width="1.3978" stroke-miterlimit="10" stroke-linecap="round" stroke-linejoin="round"/>
    <path d="M291.251 279.49C291.251 279.49 267.01 289.381 248.689 323.964" stroke="white" stroke-width="1.3978" stroke-miterlimit="10" stroke-linecap="round" stroke-linejoin="round"/>
    <path d="M278.734 324.956C278.734 324.956 263.365 326.216 247.336 340.337" stroke="white" stroke-width="1.3978" stroke-miterlimit="10" stroke-linecap="round" stroke-linejoin="round"/>
    <path d="M222 309.165C222 309.165 235.663 318.519 246.235 342.837" stroke="white" stroke-width="1.3978" stroke-miterlimit="10" stroke-linecap="round" stroke-linejoin="round"/>
    <path d="M167.821 313.956C166.641 310.456 160.769 298.756 160.673 295.084C160.554 290.462 161.595 285.898 163.666 281.764C171.014 267.102 175.581 268.927 177.253 259.026C183.906 219.623 206.391 232.719 221.785 214.584C221.785 214.584 227.284 236.747 224.881 240.878C223.097 243.942 220.2 246.096 216.891 247.367C215.231 248.005 213.946 249.155 213.327 251.056C212.081 254.879 213.714 257.262 216.553 258.803C220.959 261.196 223.62 265.96 222.936 270.926C221.404 282.055 214.734 288.819 205.017 290.506C192.048 292.757 223.635 348.539 162.581 339.951C162.581 339.951 142.668 327.657 154.493 302.824C154.748 304.978 168.928 317.239 167.821 313.956ZM183.443 308.354C184.177 309.614 185.962 309.912 187.153 309.163C188.601 308.253 189.977 307.628 191.46 306.95C192.829 306.324 193.611 305.103 193.185 303.567C192.827 302.279 191.084 301.256 189.801 301.842C187.92 302.702 186.009 303.54 184.253 304.643C182.982 305.443 182.716 307.106 183.443 308.354ZM188.523 254.498C188.889 257.923 194.253 257.651 193.886 254.208C193.657 252.063 193.386 249.891 193.801 247.753C194.46 244.36 189.214 243.214 188.556 246.607C188.045 249.239 188.241 251.854 188.523 254.498Z" fill="#0191E7"/>
    <path d="M163.008 340.005C164.467 321.891 194.374 250.812 219.333 217.162C204.098 231.495 183.561 221.667 177.252 259.025C175.58 268.926 171.013 267.102 163.665 281.763C161.593 285.897 160.553 290.461 160.673 295.083C160.768 298.755 166.641 310.456 167.821 313.955C168.927 317.238 154.747 304.978 154.493 302.823C142.668 327.656 162.581 339.951 162.581 339.951C162.727 339.971 162.863 339.986 163.008 340.005ZM188.555 246.607C189.213 243.213 194.46 244.36 193.801 247.753C193.385 249.891 193.657 252.062 193.885 254.208C194.253 257.652 188.888 257.923 188.522 254.499C188.241 251.854 188.044 249.239 188.555 246.607Z" fill="#0191E7"/>
    <path d="M148.15 394.714C148.436 393.404 165.254 303.752 202.974 243.504" stroke="white" stroke-width="1.3424" stroke-miterlimit="10" stroke-linecap="round" stroke-linejoin="round"/>
    <path d="M188.705 269.483C188.705 269.483 202.911 269.549 211.301 265.375" stroke="white" stroke-width="1.3424" stroke-miterlimit="10" stroke-linecap="round" stroke-linejoin="round"/>
    <path d="M174.273 274.655C174.273 274.655 176.579 281.115 181.857 284.446" stroke="white" stroke-width="1.3424" stroke-miterlimit="10" stroke-linecap="round" stroke-linejoin="round"/>
    <path d="M186.459 319.138C186.459 319.138 178.037 325.872 166.564 325.096" stroke="white" stroke-width="1.3424" stroke-miterlimit="10" stroke-linecap="round" stroke-linejoin="round"/>
    <path d="M157.096 316.451C157.096 316.451 157.069 324.609 164.259 332.266" stroke="white" stroke-width="1.3424" stroke-miterlimit="10" stroke-linecap="round" stroke-linejoin="round"/>
    </g>
    <path d="M324.513 157.643C301.311 157.822 280.181 157.985 260.855 158.134C258.504 133.163 258.504 108.23 260.855 83.26C280.181 83.4088 301.311 83.572 324.513 83.7504C321.851 108.393 321.851 133.001 324.513 157.643Z" fill="#E5EBFC"/>
    <path d="M327.712 154.443C304.51 154.622 283.38 154.785 264.054 154.934C261.703 129.963 261.703 105.03 264.054 80.0601C283.38 80.2089 304.51 80.3721 327.712 80.5505C325.05 105.193 325.05 129.801 327.712 154.443Z" fill="#E5EBFC"/>
    <path d="M286.587 89.1145C280.484 89.0785 274.541 89.0441 268.754 89.0097C268.79 88.5121 268.828 88.0145 268.865 87.5161C274.654 87.5521 280.597 87.5889 286.702 87.6265C286.664 88.1225 286.624 88.6185 286.587 89.1145Z" fill="#737072"/>
    <path d="M319.249 99.1497C300.941 99.0801 283.956 99.0145 268.156 98.9545C268.179 98.4585 268.204 97.9617 268.23 97.4657C284.032 97.5305 301.019 97.6009 319.33 97.6769C319.303 98.1673 319.275 98.6585 319.249 99.1497Z" fill="#737072"/>
    <path d="M318.868 108.967C300.573 108.934 283.6 108.904 267.812 108.876C267.824 108.381 267.835 107.886 267.848 107.39C283.637 107.423 300.612 107.458 318.908 107.496C318.894 107.987 318.88 108.477 318.868 108.967Z" fill="#737072"/>
    <path d="M318.766 118.774C300.474 118.779 283.505 118.783 267.719 118.787C267.718 118.292 267.717 117.797 267.717 117.302C283.502 117.303 300.471 117.303 318.763 117.304C318.763 117.794 318.764 118.283 318.766 118.774Z" fill="#737072"/>
    <path d="M318.941 128.582C300.643 128.624 283.668 128.663 267.878 128.699C267.863 128.204 267.851 127.708 267.838 127.213C283.627 127.182 300.601 127.147 318.897 127.11C318.911 127.601 318.925 128.091 318.941 128.582Z" fill="#737072"/>
    <path d="M319.395 138.403C301.082 138.483 284.093 138.557 268.289 138.626C268.261 138.129 268.236 137.633 268.211 137.137C284.013 137.073 300.999 137.004 319.309 136.931C319.337 137.421 319.365 137.912 319.395 138.403Z" fill="#737072"/>
    <path d="M320.128 148.251C301.79 148.369 284.778 148.478 268.952 148.579C268.913 148.081 268.874 147.583 268.836 147.085C284.658 146.989 301.666 146.885 320 146.773C320.042 147.266 320.085 147.759 320.128 148.251Z" fill="#737072"/>
    <path d="M338.372 237.115C316.292 244.242 296.182 250.733 277.79 256.669C268.061 233.552 260.585 209.766 255.342 185.239C273.823 179.587 294.031 173.407 316.218 166.622C321.067 190.928 328.445 214.404 338.372 237.115Z" fill="#E5EBFC"/>
    <path d="M340.466 233.103C318.385 240.23 298.276 246.72 279.884 252.657C270.155 229.54 262.679 205.754 257.436 181.227C275.916 175.575 296.124 169.395 318.312 162.61C323.161 186.916 330.539 210.392 340.466 233.103Z" fill="#E5EBFC"/>
    <path d="M281.643 183.11C275.81 184.906 270.131 186.654 264.599 188.356C264.485 187.87 264.371 187.384 264.258 186.898C269.791 185.196 275.472 183.45 281.307 181.655C281.419 182.141 281.531 182.626 281.643 183.11Z" fill="#737072"/>
    <path d="M315.812 182.89C298.325 188.313 282.102 193.343 267.011 198.022C266.884 197.542 266.759 197.062 266.635 196.58C281.73 191.904 297.956 186.878 315.448 181.46C315.568 181.938 315.689 182.414 315.812 182.89Z" fill="#737072"/>
    <path d="M318.392 192.371C300.928 197.825 284.728 202.885 269.657 207.591C269.519 207.115 269.382 206.639 269.246 206.163C284.319 201.46 300.523 196.404 317.989 190.955C318.121 191.428 318.256 191.899 318.392 192.371Z" fill="#737072"/>
    <path d="M321.235 201.757C303.787 207.246 287.599 212.338 272.541 217.074C272.391 216.602 272.242 216.13 272.094 215.658C287.153 210.926 303.342 205.839 320.792 200.356C320.939 200.823 321.087 201.29 321.235 201.757Z" fill="#737072"/>
    <path d="M324.342 211.062C306.899 216.588 290.716 221.714 275.663 226.483C275.5 226.014 275.34 225.546 275.18 225.077C290.233 220.313 306.416 215.191 323.859 209.671C324.02 210.135 324.18 210.598 324.342 211.062Z" fill="#737072"/>
    <path d="M327.719 220.295C310.273 225.862 294.087 231.026 279.031 235.83C278.856 235.364 278.683 234.898 278.51 234.432C293.566 229.634 309.75 224.475 327.195 218.914C327.369 219.376 327.543 219.836 327.719 220.295Z" fill="#737072"/>
    <path d="M331.372 229.471C313.913 235.08 297.716 240.285 282.648 245.127C282.461 244.663 282.275 244.199 282.09 243.736C297.155 238.9 313.35 233.703 330.807 228.099C330.995 228.556 331.183 229.014 331.372 229.471Z" fill="#737072"/>
    </svg>
    