<svg width="389" height="384" viewBox="0 0 389 384" fill="none" xmlns="http://www.w3.org/2000/svg">
    <path d="M363.938 260.962C325.456 350.909 223.877 389.543 144.288 382.956C122.557 381.157 78.8332 377.538 44.6937 345.254C-20.8691 283.253 -10.7719 153.654 51.9905 77.3539C60.073 67.528 116.019 1.69535 203.2 2.57639C267.029 3.22161 311.83 39.2779 317.278 43.7698C324.16 49.4442 339.338 62.9287 353.018 84.3209C385.16 134.585 387.985 204.754 363.938 260.962Z" fill="#34A7EC" fill-opacity="0.19"/>
    <path d="M55.8916 2.47521C55.7246 0.891916 57.7098 0.0393282 58.7616 1.23443C69.4434 13.3698 94.4869 49.048 81.9669 106.034C66.2586 177.531 78.8113 205.362 96.0333 223.25C96.0333 223.25 70.996 213.224 57.3425 184.896C23.8197 115.343 58.8615 30.6265 55.8916 2.47521Z" fill="#D8EEFB"/>
    <path d="M62.6665 25.92C63.3666 34.1128 63.9048 42.315 64.1424 50.5253C64.423 58.7327 64.4547 66.945 64.2304 75.1465C63.9746 83.3463 63.5651 91.5402 62.8079 99.7044C62.0876 107.872 61.0174 115.999 59.9142 124.155C58.8573 132.312 57.7462 140.524 57.4723 148.875C57.1915 157.208 57.9008 165.708 60.1421 173.827C60.7029 175.85 61.303 177.872 62.0159 179.837C62.6929 181.817 63.4577 183.768 64.2571 185.703C65.8754 189.568 67.753 193.332 69.9014 196.939C74.2171 204.144 79.6268 210.686 85.7316 216.369C86.3741 216.967 87.3797 216.93 87.9779 216.288C88.5651 215.657 88.5409 214.676 87.9315 214.074L87.9271 214.07C86.4814 212.646 85.0538 211.207 83.6953 209.71C83.0038 208.972 82.3467 208.204 81.6753 207.45C81.0334 206.671 80.361 205.917 79.7438 205.119C77.2217 201.969 74.9239 198.647 72.8832 195.17C68.7719 188.246 65.6743 180.671 63.5194 172.919C62.4854 169.029 61.7398 165.071 61.3014 161.068C60.866 157.065 60.7375 153.022 60.8397 148.969C61.0437 140.858 62.0763 132.721 63.0745 124.556C64.0624 116.388 64.999 108.174 65.5962 99.9334C65.9059 95.8146 66.1414 91.6907 66.303 87.5647C66.3957 85.5022 66.4484 83.4383 66.5048 81.3749C66.5415 79.3109 66.5667 77.2469 66.5752 75.1833C66.5935 66.928 66.3599 58.6762 65.8661 50.4432C65.3327 42.2128 64.5811 33.9991 63.5143 25.8283C63.4838 25.5947 63.2699 25.4302 63.0362 25.4607C62.8093 25.4905 62.6476 25.6944 62.6665 25.92Z" fill="white"/>
    <path d="M45.2938 247.424C44.1988 250.145 40.6802 250.864 38.5788 248.817C26.9836 237.523 -2.91269 202.628 2.09805 146.976C6.32938 99.9804 4.15777 74.0955 2.35767 62.4129C1.97699 59.9426 4.97137 58.4221 6.74466 60.1836C26.3101 79.6177 84.9727 148.811 45.2938 247.424Z" fill="#D8EEFB"/>
    <path d="M41.3231 247.307C41.2611 247.346 41.1947 247.378 41.124 247.404C40.5316 247.626 39.8718 247.325 39.6502 246.733C39.399 246.062 14.5648 178.821 17.4963 113.212C17.5248 112.58 18.0596 112.091 18.6919 112.118C19.3238 112.147 19.8131 112.682 19.785 113.314C16.8747 178.446 41.5462 245.264 41.7955 245.931C41.9907 246.452 41.7809 247.027 41.3231 247.307Z" fill="white"/>
    <path d="M380.866 191.714C384.86 100.836 308.576 23.6703 210.483 19.3597C112.389 15.049 29.6307 85.2258 25.6372 176.104C21.6437 266.982 97.927 344.147 196.021 348.458C294.115 352.769 376.873 282.592 380.866 191.714Z" fill="#0191E7"/>
    <path opacity="0.2" d="M193.627 303.799C270.677 303.799 333.139 244.793 333.139 172.005C333.139 99.2167 270.677 40.2104 193.627 40.2104C116.577 40.2104 54.1152 99.2167 54.1152 172.005C54.1152 244.793 116.577 303.799 193.627 303.799Z" fill="white"/>
    <g opacity="0.68">
    <path d="M248.669 184.684C248.627 213.735 246.634 242.845 241.515 271.485C240.219 278.639 238.716 285.758 236.926 292.811C235.13 299.86 233.057 306.848 230.518 313.68C227.959 320.495 224.988 327.212 220.959 333.35C218.929 336.397 216.626 339.317 213.784 341.718C212.364 342.911 210.804 343.97 209.088 344.745C207.376 345.515 205.504 346.003 203.605 346.036C201.708 346.092 199.809 345.721 198.063 345.017C196.31 344.321 194.712 343.31 193.257 342.157C190.348 339.83 187.994 336.943 185.928 333.92C181.828 327.825 178.816 321.122 176.23 314.318C173.66 307.497 171.566 300.514 169.754 293.469C167.946 286.422 166.429 279.305 165.122 272.154C162.514 257.847 160.735 243.403 159.535 228.919C158.343 214.433 157.745 199.901 157.672 185.366C157.636 178.1 157.835 170.835 158.093 163.574C158.365 156.314 158.765 149.058 159.299 141.812C160.374 127.322 161.979 112.864 164.366 98.5244C165.563 91.3565 166.959 84.2188 168.639 77.1444C170.322 70.0723 172.279 63.0564 174.706 56.1925C175.926 52.7637 177.26 49.3717 178.781 46.0593C180.3 42.7477 181.999 39.5082 183.997 36.4456C185.999 33.3964 188.301 30.4858 191.166 28.156C192.599 27.0012 194.178 25.9965 195.907 25.3157C197.63 24.6263 199.499 24.2771 201.358 24.3478C203.218 24.4008 205.052 24.8646 206.744 25.6098C208.438 26.3586 209.995 27.3768 211.424 28.531C214.283 30.8542 216.65 33.6947 218.749 36.6774C222.922 42.6845 226.068 49.3092 228.793 56.0499C231.499 62.809 233.733 69.7431 235.678 76.7487C237.617 83.7577 239.259 90.845 240.68 97.9737C246.302 126.514 248.585 155.628 248.669 184.684ZM246.519 184.684C246.546 170.208 245.995 155.729 244.793 141.304C243.607 126.88 241.81 112.497 239.133 98.2728C237.796 91.1618 236.24 84.0912 234.387 77.0987C232.528 70.1099 230.383 63.1924 227.77 56.4538C225.139 49.7343 222.088 43.1326 218.04 37.1684C216.004 34.2071 213.709 31.3948 210.954 29.1068C209.577 27.9697 208.082 26.9703 206.464 26.2344C204.848 25.5074 203.108 25.0307 201.338 24.9843C199.569 24.9282 197.802 25.2841 196.166 25.9575C194.523 26.6242 193.016 27.6053 191.641 28.7379C188.892 31.0223 186.664 33.8959 184.727 36.9179C182.795 39.9529 181.149 43.172 179.682 46.4667C178.212 49.7621 176.926 53.1407 175.752 56.5571C173.417 63.3968 171.548 70.394 169.949 77.4482C168.356 84.505 167.043 91.6259 165.929 98.7767C163.708 113.082 162.266 127.504 161.354 141.953C160.432 156.403 160.113 170.887 160.139 185.364C160.101 199.838 160.584 214.317 161.66 228.752C162.745 243.185 164.406 257.582 166.891 271.837C168.137 278.964 169.592 286.053 171.335 293.07C173.081 300.084 175.107 307.033 177.6 313.807C180.108 320.562 183.039 327.209 187.002 333.196C188.996 336.164 191.265 338.979 194.015 341.211C195.389 342.319 196.884 343.277 198.501 343.933C200.113 344.591 201.842 344.956 203.574 344.898C205.307 344.853 207.013 344.396 208.597 343.669C210.184 342.937 211.648 341.931 212.992 340.783C215.682 338.474 217.903 335.624 219.862 332.63C223.755 326.596 226.645 319.934 229.124 313.167C231.584 306.381 233.587 299.426 235.315 292.408C237.039 285.386 238.476 278.293 239.71 271.165C242.179 256.907 243.819 242.509 244.909 228.076C246.015 213.642 246.525 199.162 246.519 184.684Z" fill="white"/>
    <path d="M321.955 184.684C321.855 203.392 319.45 222.108 314.442 240.149C309.346 258.149 301.665 275.465 291.237 291.011C286.022 298.776 280.114 306.085 273.513 312.716C266.914 319.345 259.616 325.294 251.695 330.28C243.766 335.247 235.202 339.223 226.238 341.92C217.279 344.624 207.926 346.034 198.565 346.043C189.204 346.043 179.848 344.641 170.884 341.944C161.915 339.254 153.345 335.285 145.408 330.323C137.478 325.343 130.169 319.399 123.56 312.772C116.948 306.144 111.028 298.837 105.802 291.072C95.3522 275.524 87.6547 258.2 82.5354 240.192C80.0155 231.171 78.1429 221.972 76.9024 212.691C75.6684 203.409 75.0484 194.048 75.0059 184.684C75.0543 175.32 75.6801 165.96 76.9198 156.679C78.1663 147.4 80.0459 138.204 82.5717 129.187C87.7039 111.185 95.4132 93.8735 105.87 78.3411C111.098 70.5836 117.019 63.2843 123.63 56.6649C130.24 50.0486 137.543 44.1102 145.471 39.1454C153.406 34.1966 161.974 30.2567 170.928 27.5677C179.876 24.8677 189.216 23.4594 198.565 23.4502C207.914 23.4672 217.252 24.8833 226.195 27.5903C235.144 30.2863 243.705 34.2343 251.632 39.1882C259.552 44.1587 266.844 50.1019 273.443 56.7211C280.043 63.3435 285.952 70.6442 291.169 78.4018C301.604 93.9321 309.298 111.236 314.406 129.229C319.425 147.263 321.842 165.976 321.955 184.684ZM319.49 184.684C319.463 166.188 317.159 147.673 312.279 129.819C307.372 111.992 299.983 94.7821 289.811 79.305C284.728 71.5744 278.954 64.2879 272.488 57.6643C266.019 51.051 258.874 45.0677 251.059 40.0947C243.235 35.1495 234.786 31.169 225.927 28.4768C217.072 25.7825 207.827 24.3663 198.565 24.3355C189.303 24.3742 180.06 25.7983 171.21 28.4994C162.355 31.1988 153.914 35.1872 146.098 40.1376C138.292 45.1164 131.157 51.1046 124.699 57.7206C118.244 64.3472 112.482 71.6353 107.41 79.366C97.2594 94.8411 89.8865 112.043 85.0035 129.861C82.5709 138.78 80.8095 147.875 79.6161 157.037C78.4197 166.2 77.8295 175.441 77.8087 184.684C77.8353 193.927 78.4314 203.167 79.6333 212.329C80.8328 221.49 82.6011 230.581 85.0398 239.497C89.9355 257.307 97.3205 274.498 107.478 289.957C112.552 297.68 118.315 304.96 124.769 311.578C131.227 318.184 138.357 324.167 146.162 329.13C153.975 334.068 162.415 338.026 171.254 340.725C180.088 343.43 189.316 344.86 198.565 344.907C207.815 344.869 217.045 343.447 225.884 340.749C234.728 338.058 243.174 334.106 250.996 329.173C258.809 324.215 265.949 318.238 272.418 311.634C278.883 305.02 284.658 297.741 289.743 290.018C299.922 274.557 307.323 257.358 312.243 239.539C317.134 221.692 319.451 203.18 319.49 184.684Z" fill="white"/>
    <path d="M54.5787 120.834L91.6344 120.534L128.69 120.365L202.801 120.228L276.913 120.378L313.968 120.564L351.024 120.887C351.084 120.887 351.132 120.936 351.132 120.997C351.131 121.056 351.083 121.104 351.024 121.104L313.968 121.428L276.913 121.613L202.801 121.763L128.69 121.627L91.6344 121.457L54.5787 121.158C54.4892 121.157 54.4173 121.084 54.418 120.994C54.4187 120.906 54.4905 120.834 54.5787 120.834Z" fill="white"/>
    <path d="M97.5677 58.7687C106.337 58.6297 115.107 58.5702 123.876 58.4694L150.184 58.2998C158.954 58.2275 167.723 58.2353 176.493 58.2129L202.801 58.1628L255.418 58.3134L281.726 58.4987C290.496 58.6086 299.265 58.6729 308.035 58.8219C308.095 58.823 308.143 58.8725 308.142 58.9325C308.141 58.9914 308.093 59.0384 308.035 59.0395C299.265 59.1885 290.496 59.2528 281.726 59.3627L255.418 59.5479L202.801 59.6985L176.493 59.6485C167.723 59.6262 158.954 59.634 150.184 59.5616L123.876 59.392C115.107 59.2912 106.337 59.2317 97.5677 59.0927C97.4783 59.0913 97.4069 59.0176 97.4082 58.928C97.4096 58.8405 97.4807 58.7702 97.5677 58.7687Z" fill="white"/>
    <path d="M41.7019 182.899L81.9768 182.6L122.252 182.43L202.802 182.293L283.352 182.443L323.626 182.629L363.901 182.952C363.962 182.953 364.01 183.002 364.009 183.062C364.009 183.121 363.961 183.169 363.901 183.17L323.626 183.493L283.352 183.678L202.802 183.829L122.252 183.692L81.9768 183.521L41.7019 183.223C41.6124 183.222 41.5405 183.149 41.541 183.06C41.5417 182.971 41.6135 182.899 41.7019 182.899Z" fill="white"/>
    <path d="M54.5787 244.963L91.6344 244.664L128.69 244.494L202.801 244.357L276.913 244.508L313.968 244.693L351.024 245.017C351.084 245.017 351.132 245.066 351.132 245.126C351.131 245.186 351.083 245.234 351.024 245.234L313.968 245.557L276.913 245.743L202.801 245.893L128.69 245.757L91.6344 245.587L54.5787 245.288C54.4892 245.287 54.4173 245.214 54.418 245.124C54.4187 245.035 54.4905 244.964 54.5787 244.963Z" fill="white"/>
    <path d="M313.338 307.759H102.871C102.557 307.759 102.303 307.504 102.303 307.191C102.303 306.877 102.557 306.623 102.871 306.623H313.338C313.652 306.623 313.906 306.877 313.906 307.191C313.906 307.504 313.652 307.759 313.338 307.759Z" fill="white"/>
    </g>
    <path d="M159.26 105.421C159.04 105.421 158.825 105.316 158.692 105.121C158.478 104.808 158.559 104.381 158.872 104.167C159.502 103.736 160.126 103.302 160.743 102.865C161.052 102.646 161.481 102.719 161.701 103.029C161.92 103.338 161.846 103.767 161.537 103.986C160.914 104.427 160.284 104.865 159.647 105.301C159.528 105.382 159.393 105.421 159.26 105.421Z" fill="white"/>
    <path d="M164.639 101.552C164.431 101.552 164.226 101.458 164.091 101.28C163.861 100.977 163.921 100.547 164.223 100.318C165.373 99.4459 166.514 98.5501 167.613 97.6553C167.906 97.4156 168.338 97.4601 168.579 97.754C168.819 98.0483 168.774 98.4808 168.48 98.7201C167.369 99.625 166.216 100.531 165.053 101.412C164.929 101.506 164.783 101.552 164.639 101.552ZM171.357 96.0758C171.166 96.0758 170.976 95.9969 170.84 95.8425C170.59 95.5577 170.618 95.1238 170.903 94.8735C171.991 93.9173 173.06 92.9396 174.081 91.967C174.355 91.7059 174.79 91.7155 175.052 91.991C175.313 92.2655 175.303 92.7002 175.028 92.9617C173.994 93.9466 172.911 94.9369 171.81 95.9048C171.679 96.0196 171.518 96.0758 171.357 96.0758ZM177.628 90.0961C177.457 90.0961 177.285 90.0323 177.152 89.9039C176.879 89.6409 176.87 89.206 177.134 88.9331C178.136 87.893 179.116 86.8283 180.048 85.768C180.299 85.4833 180.732 85.4549 181.017 85.7057C181.302 85.956 181.33 86.3899 181.08 86.6747C180.134 87.7505 179.139 88.8309 178.123 89.8857C177.988 90.0256 177.808 90.0961 177.628 90.0961ZM183.345 83.5854C183.196 83.5854 183.045 83.5364 182.918 83.4358C182.621 83.1996 182.572 82.7675 182.809 82.4708C183.705 81.3466 184.576 80.1928 185.4 79.0416C185.621 78.7329 186.05 78.6624 186.358 78.8829C186.667 79.1036 186.738 79.5325 186.517 79.841C185.679 81.0115 184.793 82.1841 183.883 83.3266C183.747 83.4966 183.547 83.5854 183.345 83.5854ZM188.386 76.5354C188.26 76.5354 188.132 76.5008 188.018 76.4279C187.698 76.2241 187.604 75.7995 187.808 75.4798C188.577 74.2713 189.32 73.031 190.014 71.7926C190.2 71.4616 190.619 71.344 190.95 71.5297C191.28 71.7152 191.398 72.1339 191.213 72.4645C190.505 73.7253 189.749 74.9878 188.966 76.2175C188.835 76.4231 188.613 76.5354 188.386 76.5354ZM192.623 68.975C192.522 68.975 192.419 68.9527 192.323 68.9055C191.982 68.7396 191.84 68.3285 192.006 67.9877C192.631 66.703 193.224 65.3859 193.769 64.0735C193.914 63.7232 194.313 63.5565 194.666 63.7024C195.016 63.8477 195.183 64.2495 195.037 64.5998C194.482 65.9374 193.878 67.2795 193.241 68.5886C193.122 68.8327 192.877 68.975 192.623 68.975ZM195.942 60.973C195.868 60.973 195.792 60.9607 195.718 60.935C195.359 60.8112 195.169 60.42 195.293 60.0616C195.758 58.7195 196.188 57.3416 196.573 55.966C196.676 55.6008 197.053 55.3872 197.419 55.4898C197.785 55.592 197.998 55.9709 197.895 56.3361C197.503 57.7382 197.064 59.1427 196.591 60.5104C196.493 60.7947 196.227 60.973 195.942 60.973Z" fill="white"/>
    <path d="M198.277 52.6242C198.229 52.6242 198.18 52.619 198.132 52.6086C197.761 52.5286 197.525 52.1634 197.605 51.7925C197.765 51.0544 197.913 50.3062 198.048 49.5692C198.116 49.1959 198.472 48.9496 198.848 49.0173C199.221 49.0857 199.468 49.4434 199.4 49.8164C199.262 50.5678 199.11 51.3299 198.948 52.0821C198.878 52.404 198.593 52.6242 198.277 52.6242Z" fill="white"/>
    <path d="M204.058 54.8875C203.884 54.8875 203.71 54.8218 203.576 54.6901C203.033 54.1547 202.49 53.6122 201.949 53.0621C201.683 52.7917 201.687 52.3568 201.957 52.0911C202.227 51.8253 202.663 51.8288 202.928 52.0991C203.464 52.6438 204.002 53.1815 204.54 53.7114C204.81 53.9776 204.814 54.4124 204.547 54.6825C204.413 54.8191 204.236 54.8875 204.058 54.8875Z" fill="white"/>
    <path d="M256.965 82.0638C256.944 82.0638 256.922 82.0628 256.899 82.0606C255.453 81.9229 253.993 81.7392 252.56 81.5146C252.185 81.4557 251.929 81.1046 251.988 80.7297C252.047 80.355 252.395 80.0988 252.773 80.1576C254.179 80.378 255.611 80.5582 257.03 80.6934C257.407 80.7294 257.684 81.0647 257.648 81.4421C257.614 81.7974 257.315 82.0638 256.965 82.0638ZM248.408 80.7231C248.359 80.7231 248.31 80.7178 248.26 80.707C246.848 80.3976 245.42 80.0397 244.017 79.6432C243.652 79.5402 243.44 79.1606 243.543 78.7958C243.646 78.4307 244.024 78.2187 244.391 78.3217C245.767 78.7107 247.168 79.0618 248.554 79.3654C248.924 79.4465 249.159 79.8127 249.078 80.1831C249.008 80.5041 248.723 80.7231 248.408 80.7231ZM240.069 78.3697C239.994 78.3697 239.919 78.3574 239.844 78.3317C238.483 77.8603 237.107 77.3395 235.753 76.7836C235.402 76.6394 235.235 76.2382 235.378 75.8873C235.523 75.5366 235.924 75.3685 236.275 75.513C237.604 76.0593 238.956 76.571 240.294 77.0339C240.652 77.1579 240.842 77.5491 240.718 77.9074C240.619 78.1916 240.353 78.3697 240.069 78.3697ZM232.047 75.0788C231.949 75.0788 231.848 75.0573 231.753 75.0119C230.454 74.3945 229.144 73.7295 227.857 73.0352C227.524 72.8551 227.399 72.4386 227.579 72.1048C227.759 71.7706 228.177 71.6463 228.51 71.8267C229.775 72.5097 231.065 73.1641 232.343 73.7717C232.685 73.9344 232.831 74.3441 232.668 74.6866C232.55 74.9339 232.304 75.0788 232.047 75.0788ZM224.422 70.9665C224.3 70.9665 224.178 70.9345 224.067 70.8674C222.839 70.1255 221.6 69.3371 220.384 68.5243C220.069 68.3135 219.984 67.887 220.195 67.5719C220.406 67.2563 220.832 67.1719 221.148 67.3825C222.347 68.1837 223.567 68.9608 224.778 69.6922C225.102 69.8885 225.206 70.3104 225.01 70.635C224.881 70.8484 224.654 70.9665 224.422 70.9665ZM217.216 66.1539C217.075 66.1539 216.933 66.1108 216.81 66.0211C215.653 65.1735 214.487 64.2824 213.345 63.3729C213.048 63.1369 212.999 62.7047 213.235 62.4082C213.472 62.1118 213.903 62.0621 214.2 62.2986C215.328 63.1966 216.479 64.0764 217.622 64.9133C217.928 65.1372 217.994 65.5671 217.77 65.873C217.635 66.0567 217.427 66.1539 217.216 66.1539ZM210.433 60.7595C210.274 60.7595 210.115 60.7049 209.986 60.5936C208.904 59.6644 207.809 58.6893 206.731 57.6957C206.452 57.4386 206.435 57.0041 206.692 56.7253C206.948 56.4463 207.384 56.4293 207.662 56.6858C208.728 57.6688 209.811 58.633 210.881 59.552C211.168 59.799 211.201 60.2326 210.954 60.5203C210.818 60.6784 210.626 60.7595 210.433 60.7595Z" fill="white"/>
    <path d="M263.584 82.3894C263.583 82.3894 263.582 82.3894 263.582 82.3894C262.816 82.3867 262.039 82.3717 261.272 82.3449C260.893 82.3318 260.597 82.0136 260.61 81.6347C260.623 81.2556 260.928 80.9581 261.32 80.9724C262.073 80.9988 262.835 81.0133 263.587 81.0161C263.966 81.0174 264.272 81.3259 264.271 81.7052C264.27 82.0835 263.962 82.3894 263.584 82.3894Z" fill="white"/>
    <path d="M263.553 82.2602C263.295 82.2602 263.048 82.1144 262.932 81.8661C262.606 81.176 262.284 80.4811 261.963 79.7816C261.805 79.4369 261.956 79.0294 262.301 78.8713C262.645 78.7126 263.054 78.8643 263.211 79.2093C263.53 79.9043 263.851 80.5948 264.174 81.2804C264.335 81.6234 264.188 82.0328 263.845 82.1944C263.751 82.239 263.651 82.2602 263.553 82.2602Z" fill="white"/>
    <path d="M325.103 148.358C325.017 148.358 324.928 148.341 324.843 148.306C323.413 147.719 321.98 147.085 320.583 146.423C320.24 146.261 320.094 145.851 320.256 145.508C320.418 145.166 320.827 145.019 321.171 145.182C322.547 145.833 323.958 146.457 325.365 147.036C325.716 147.18 325.883 147.581 325.739 147.932C325.63 148.197 325.374 148.358 325.103 148.358ZM316.751 144.403C316.642 144.403 316.53 144.376 316.426 144.32C315.073 143.592 313.712 142.814 312.383 142.008C312.058 141.811 311.955 141.389 312.151 141.065C312.348 140.74 312.77 140.637 313.094 140.834C314.404 141.627 315.744 142.393 317.077 143.111C317.411 143.291 317.536 143.707 317.356 144.041C317.233 144.272 316.996 144.403 316.751 144.403ZM308.845 139.613C308.712 139.613 308.578 139.575 308.46 139.495C307.187 138.635 305.911 137.727 304.668 136.797C304.364 136.57 304.302 136.139 304.529 135.836C304.756 135.532 305.187 135.47 305.491 135.697C306.716 136.614 307.975 137.509 309.23 138.358C309.544 138.57 309.626 138.997 309.414 139.311C309.281 139.507 309.065 139.613 308.845 139.613ZM301.443 134.079C301.29 134.079 301.135 134.028 301.007 133.923C299.823 132.95 298.637 131.928 297.481 130.888C297.199 130.634 297.176 130.2 297.43 129.918C297.684 129.636 298.118 129.614 298.4 129.867C299.541 130.894 300.711 131.902 301.88 132.862C302.172 133.103 302.214 133.536 301.974 133.829C301.838 133.994 301.641 134.079 301.443 134.079ZM294.572 127.901C294.398 127.901 294.225 127.835 294.091 127.705C293 126.636 291.904 125.519 290.835 124.385C290.575 124.109 290.588 123.674 290.864 123.414C291.14 123.154 291.574 123.167 291.835 123.443C292.891 124.563 293.974 125.667 295.052 126.723C295.323 126.989 295.328 127.423 295.063 127.694C294.928 127.832 294.75 127.901 294.572 127.901ZM288.229 121.177C288.037 121.177 287.847 121.098 287.711 120.942C286.706 119.79 285.698 118.594 284.719 117.388C284.479 117.093 284.524 116.661 284.819 116.421C285.113 116.182 285.546 116.227 285.785 116.522C286.754 117.715 287.751 118.899 288.746 120.039C288.995 120.325 288.966 120.758 288.68 121.008C288.55 121.122 288.389 121.177 288.229 121.177ZM282.399 114.004C282.192 114.004 281.987 113.91 281.852 113.732C280.928 112.513 280.005 111.253 279.107 109.985C278.887 109.676 278.961 109.247 279.27 109.028C279.579 108.808 280.008 108.882 280.227 109.191C281.117 110.447 282.032 111.695 282.946 112.903C283.175 113.205 283.116 113.636 282.813 113.865C282.689 113.959 282.544 114.004 282.399 114.004ZM277.053 106.463C276.83 106.463 276.613 106.355 276.48 106.156C275.637 104.888 274.792 103.575 273.967 102.253C273.766 101.932 273.864 101.508 274.185 101.307C274.507 101.106 274.93 101.204 275.132 101.526C275.95 102.836 276.788 104.138 277.624 105.396C277.834 105.712 277.748 106.138 277.432 106.348C277.316 106.426 277.183 106.463 277.053 106.463ZM272.154 98.6233C271.919 98.6233 271.689 98.5021 271.561 98.2843C270.789 96.9713 270.014 95.6157 269.259 94.2556C269.075 93.9241 269.195 93.5061 269.526 93.3219C269.858 93.1383 270.276 93.2573 270.46 93.589C271.21 94.9392 271.979 96.2849 272.745 97.5883C272.937 97.9151 272.828 98.336 272.502 98.5283C272.392 98.5926 272.272 98.6233 272.154 98.6233ZM267.666 90.5406C267.418 90.5406 267.18 90.4067 267.057 90.1726C266.345 88.8156 265.636 87.4256 264.949 86.0413C264.78 85.7015 264.919 85.2895 265.259 85.1207C265.597 84.9536 266.01 85.0905 266.179 85.4305C266.862 86.8059 267.566 88.1868 268.273 89.5347C268.449 89.8706 268.32 90.2858 267.984 90.4619C267.882 90.5151 267.773 90.5406 267.666 90.5406Z" fill="white"/>
    <path d="M331.614 150.741C331.544 150.741 331.473 150.73 331.403 150.708C330.67 150.471 329.942 150.226 329.217 149.972C328.859 149.846 328.671 149.454 328.797 149.096C328.923 148.738 329.315 148.55 329.672 148.676C330.386 148.927 331.103 149.168 331.825 149.401C332.186 149.517 332.384 149.904 332.267 150.265C332.174 150.556 331.904 150.741 331.614 150.741Z" fill="white"/>
    <path d="M195.085 14.7534C188.022 14.7534 182.297 20.4787 182.297 27.5414C182.297 32.1181 187.667 42.7649 191.447 49.6927C193.019 52.5725 197.151 52.5725 198.722 49.6927C202.502 42.7649 207.873 32.1181 207.873 27.5414C207.873 20.4789 202.147 14.7534 195.085 14.7534ZM195.085 34.4073C191.293 34.4073 188.219 31.3334 188.219 27.5414C188.219 23.7494 191.293 20.6754 195.085 20.6754C198.877 20.6754 201.951 23.7494 201.951 27.5414C201.951 31.3334 198.877 34.4073 195.085 34.4073Z" fill="white"/>
    <path d="M265.752 38.8008C256.859 38.8008 249.65 46.0097 249.65 54.9024C249.65 60.6652 256.412 74.0707 261.172 82.7938C263.151 86.4197 268.353 86.4197 270.332 82.7938C275.092 74.0709 281.854 60.6652 281.854 54.9024C281.854 46.0098 274.645 38.8008 265.752 38.8008ZM265.752 63.5475C260.977 63.5475 257.107 59.677 257.107 54.9024C257.107 50.1279 260.977 46.2572 265.752 46.2572C270.527 46.2572 274.397 50.1279 274.397 54.9024C274.397 59.677 270.527 63.5475 265.752 63.5475Z" fill="white"/>
    <path d="M159.679 69.72C152.355 69.72 146.418 75.6573 146.418 82.9812C146.418 87.7274 151.987 98.7683 155.907 105.953C157.537 108.939 161.822 108.939 163.451 105.953C167.372 98.7683 172.941 87.7274 172.941 82.9812C172.941 75.6573 167.003 69.72 159.679 69.72ZM159.679 90.1015C155.747 90.1015 152.559 86.9137 152.559 82.9813C152.559 79.049 155.747 75.8612 159.679 75.8612C163.612 75.8612 166.799 79.049 166.799 82.9813C166.799 86.9137 163.612 90.1015 159.679 90.1015Z" fill="white"/>
    <path d="M337.107 122.806C329.783 122.806 323.846 128.743 323.846 136.067C323.846 140.814 329.415 151.855 333.335 159.039C334.965 162.025 339.25 162.025 340.879 159.039C344.799 151.855 350.368 140.814 350.368 136.067C350.368 128.743 344.431 122.806 337.107 122.806ZM337.107 143.188C333.175 143.188 329.987 140 329.987 136.068C329.987 132.135 333.175 128.947 337.107 128.947C341.039 128.947 344.227 132.135 344.227 136.068C344.227 140 341.039 143.188 337.107 143.188Z" fill="white"/>
    <path d="M188.824 196.44H30.8422C28.7601 196.44 27.0723 194.752 27.0723 192.67V121.556C27.0723 119.473 28.7602 117.786 30.8422 117.786H188.824C190.906 117.786 192.594 119.474 192.594 121.556V192.67C192.594 194.752 190.906 196.44 188.824 196.44Z" fill="url(#paint0_linear_364_6089)"/>
    <path opacity="0.5" d="M184.486 193.045H34.5766C32.4944 193.045 30.8066 191.357 30.8066 189.275V124.144C30.8066 122.062 32.4946 120.375 34.5766 120.375H184.486C186.569 120.375 188.256 122.062 188.256 124.144V189.275C188.256 191.357 186.569 193.045 184.486 193.045Z" fill="white"/>
    <path d="M90.8521 172.134C94.1823 167.222 96.1282 161.296 96.1282 154.915C96.1282 143.198 89.5679 133.014 79.9209 127.833L65.4062 154.915L90.8521 172.134Z" fill="url(#paint1_linear_364_6089)"/>
    <path d="M79.92 127.833C75.5973 125.511 70.6555 124.193 65.4054 124.193C63.2827 124.193 61.2104 124.408 59.209 124.818L65.4054 154.915L79.92 127.833Z" fill="url(#paint2_linear_364_6089)"/>
    <path d="M59.209 124.818C52.2669 126.24 46.1791 130.004 41.8047 135.247L65.4054 154.915L59.209 124.818Z" fill="#0191E7"/>
    <path d="M65.4059 154.915L37.3867 167.533C42.2012 178.207 52.9357 185.637 65.4059 185.637C75.9922 185.637 85.3273 180.282 90.8519 172.134L65.4059 154.915Z" fill="url(#paint3_linear_364_6089)"/>
    <path d="M41.8042 135.248C39.8456 137.595 38.231 140.24 37.0371 143.104C47.914 147.362 65.405 154.915 65.405 154.915L41.8042 135.248Z" fill="#91B3FA"/>
    <path d="M37.0378 143.104C35.5221 146.74 34.6836 150.729 34.6836 154.915C34.6836 159.412 35.6501 163.683 37.3865 167.533L65.4057 154.915C65.4057 154.915 47.9147 147.362 37.0378 143.104Z" fill="#BDD0FB"/>
    <g opacity="0.78">
    <path d="M133.951 135.548H105.913C104.74 135.548 103.789 136.281 103.789 137.186C103.789 138.091 104.74 138.825 105.913 138.825H133.951C135.124 138.825 136.075 138.091 136.075 137.186C136.075 136.281 135.124 135.548 133.951 135.548Z" fill="white"/>
    <path d="M133.951 142.803H105.913C104.74 142.803 103.789 143.537 103.789 144.442C103.789 145.347 104.74 146.081 105.913 146.081H133.951C135.124 146.081 136.075 145.347 136.075 144.442C136.075 143.537 135.124 142.803 133.951 142.803Z" fill="white"/>
    <path d="M133.951 171.827H105.913C104.74 171.827 103.789 172.561 103.789 173.466C103.789 174.371 104.74 175.105 105.913 175.105H133.951C135.124 175.105 136.075 174.371 136.075 173.466C136.075 172.561 135.124 171.827 133.951 171.827Z" fill="white"/>
    <path d="M133.951 164.572H105.913C104.74 164.572 103.789 165.305 103.789 166.21C103.789 167.115 104.74 167.849 105.913 167.849H133.951C135.124 167.849 136.075 167.115 136.075 166.21C136.075 165.305 135.124 164.572 133.951 164.572Z" fill="white"/>
    <path d="M133.951 157.315H105.913C104.74 157.315 103.789 158.049 103.789 158.954C103.789 159.859 104.74 160.593 105.913 160.593H133.951C135.124 160.593 136.075 159.859 136.075 158.954C136.075 158.049 135.124 157.315 133.951 157.315Z" fill="white"/>
    </g>
    <g opacity="0.78">
    <path d="M179.838 135.701H151.8C150.627 135.701 149.676 136.435 149.676 137.34C149.676 138.245 150.627 138.979 151.8 138.979H179.838C181.011 138.979 181.962 138.245 181.962 137.34C181.962 136.435 181.011 135.701 179.838 135.701Z" fill="white"/>
    <path d="M179.838 142.957H151.8C150.627 142.957 149.676 143.691 149.676 144.596C149.676 145.501 150.627 146.235 151.8 146.235H179.838C181.011 146.235 181.962 145.501 181.962 144.596C181.962 143.691 181.011 142.957 179.838 142.957Z" fill="white"/>
    <path d="M179.838 171.981H151.8C150.627 171.981 149.676 172.715 149.676 173.62C149.676 174.525 150.627 175.259 151.8 175.259H179.838C181.011 175.259 181.962 174.525 181.962 173.62C181.962 172.715 181.011 171.981 179.838 171.981Z" fill="white"/>
    <path d="M179.838 164.725H151.8C150.627 164.725 149.676 165.459 149.676 166.364C149.676 167.269 150.627 168.003 151.8 168.003H179.838C181.011 168.003 181.962 167.269 181.962 166.364C181.962 165.459 181.011 164.725 179.838 164.725Z" fill="white"/>
    <path d="M179.838 157.469H151.8C150.627 157.469 149.676 158.203 149.676 159.108C149.676 160.013 150.627 160.747 151.8 160.747H179.838C181.011 160.747 181.962 160.013 181.962 159.108C181.962 158.203 181.011 157.469 179.838 157.469Z" fill="white"/>
    </g>
    <path d="M167.639 305.561C167.639 305.561 164.536 297.393 160.912 298.141C157.287 298.889 153.322 301.674 153.322 301.674L147.5 309.548C147.5 309.548 163.845 315.987 169.593 312.297C169.593 312.297 186.288 315.181 207.371 311.722C204.319 305.279 202.5 298.828 201.432 293.821C190.753 299.865 179.252 304.38 167.639 305.561Z" fill="#FFA6A4"/>
    <path d="M256.073 246.315C256.073 246.315 232.171 276.421 201.432 293.821C202.5 298.828 204.319 305.279 207.371 311.722C223.317 309.105 241.772 302.861 257.417 288.985L256.073 246.315Z" fill="#34A7EC"/>
    <path d="M76.9238 250.296L78.4078 290.152C82.6229 291.603 86.6356 292.731 90.4569 293.573C92.847 285.878 98.1102 276.433 102.42 269.411C86.5857 263.813 76.9238 250.296 76.9238 250.296Z" fill="#0191E7"/>
    <path d="M155.979 249.618C134.258 273.07 116.677 274.45 102.42 269.41C98.1103 276.433 92.8472 285.878 90.457 293.573C148.462 306.361 162.121 253.036 162.121 253.036L155.979 249.618Z" fill="url(#paint4_linear_364_6089)"/>
    <path d="M160.385 247.127C160.385 247.127 162.887 244.441 167.517 245.285C172.148 246.129 176.27 247.738 179.155 245.285C182.041 242.832 183.055 246.124 183.055 246.124L174.415 252.692L160.385 247.127Z" fill="url(#paint5_linear_364_6089)"/>
    <path d="M155.217 251.72C155.217 251.72 156.931 244.552 162.098 245.534C167.264 246.517 178.993 252.895 182.016 251.72C185.039 250.545 188.904 247.733 190.887 248.727L187.394 253.07C187.394 253.07 196.374 247.889 197.92 251.072L182.978 259.48C182.978 259.48 161.118 257.292 155.217 251.72Z" fill="url(#paint6_linear_364_6089)"/>
    <path d="M1.73217 381.652C1.73217 381.652 -5.67916 275.843 48.3494 242.942C48.3494 242.942 63.4544 232.97 82.2763 252.282C101.098 271.594 95.0367 291.657 79.2414 310.46C63.4461 329.263 47.3579 362.851 51.1865 381.652H1.73217Z" fill="url(#paint7_linear_364_6089)"/>
    <path d="M75.5797 214.121C75.5655 215.383 57.5742 240.937 57.5742 240.937C57.5742 240.937 60.8035 247.298 76.2203 252.461L89.5281 225.1L75.5797 214.121Z" fill="url(#paint8_linear_364_6089)"/>
    <path d="M68.5039 301.859C68.5039 301.859 102.638 330.446 139.497 317.972C141.783 317.199 144.283 317.367 146.417 318.494L157.014 324.09C161.462 326.439 166.97 324.897 169.551 320.58C171.023 318.117 172.279 315.305 172.529 312.61L151.795 304.216L153.323 301.674C153.323 301.674 143.2 300.816 140.55 308.071C140.55 308.071 121.267 316.092 88.7486 280.324C88.7485 280.323 73.9919 292.871 68.5039 301.859Z" fill="url(#paint9_linear_364_6089)"/>
    <path d="M66.6666 301.734C66.5211 301.734 66.374 301.692 66.2442 301.604C51.8299 291.865 45.0488 276.145 44.9819 275.987C44.8192 275.603 44.9986 275.16 45.3822 274.997C45.7661 274.834 46.2096 275.014 46.3725 275.397C46.4379 275.551 53.0565 290.871 67.0898 300.353C67.4355 300.586 67.5264 301.056 67.2928 301.401C67.147 301.617 66.909 301.734 66.6666 301.734Z" fill="#0191E7"/>
    <path d="M88.075 280.01C87.8273 280.01 87.5844 279.888 87.4398 279.664C87.3966 279.596 83.0028 272.756 74.6367 257.776C72.0888 253.214 68.7452 250.326 64.6977 249.193C57.9856 247.314 51.511 250.916 51.4461 250.953C51.0838 251.158 50.6231 251.031 50.4171 250.669C50.2111 250.307 50.3379 249.846 50.6998 249.64C50.9856 249.478 57.7659 245.692 65.0911 247.734C69.5463 248.978 73.2015 252.108 75.9556 257.04C84.2941 271.971 88.6662 278.779 88.7095 278.846C88.9357 279.196 88.8343 279.663 88.4838 279.889C88.3572 279.971 88.2151 280.01 88.075 280.01Z" fill="#0191E7"/>
    <path d="M89.7457 199.478C89.7457 199.478 96.1474 214.184 96.5771 221.902C97.0071 229.621 98.6702 234.629 89.7457 236.183C80.8211 237.738 73.3028 233.292 69.2297 225.603C69.2297 225.603 62.8481 213.756 64.2796 208.904C65.7113 204.053 89.7457 199.478 89.7457 199.478Z" fill="url(#paint10_linear_364_6089)"/>
    <path d="M72.2787 220.075L72.7867 219.852C73.4335 219.566 73.7102 218.796 73.3853 218.169C72.1269 215.737 69.6735 210.165 72.8428 208.865C76.9274 207.19 93.1071 203.891 96.5978 198.15C99.9528 192.632 96.9802 185.509 92.5126 183.484C92.2136 183.348 91.8612 183.456 91.7077 183.746L91.3354 184.45C91.0806 184.933 90.3683 184.859 90.2166 184.336C90.0711 183.833 89.4021 183.735 89.1247 184.179C88.0516 185.897 85.1548 188.681 77.4076 190.111C66.3976 192.143 59.1183 196.598 58.9372 204.207C58.9257 204.69 58.4115 204.959 57.9985 204.707C57.1856 204.212 55.8847 203.979 54.146 205.441C51.1223 207.983 52.3597 214.579 58.9882 220.004C59.3031 220.262 59.3005 220.753 58.9595 220.975C57.7577 221.758 55.9663 223.619 60.608 226.1C65.409 228.667 68.9943 228.456 70.3748 228.228C70.7182 228.172 70.9396 227.839 70.8646 227.499L69.3912 220.812C69.3077 220.434 69.5958 220.075 69.9834 220.075H72.2787Z" fill="url(#paint11_linear_364_6089)"/>
    <path d="M72.5559 221.487C72.5559 221.487 70.1137 212.093 65.9021 214.727C61.6904 217.361 68.0876 225.252 71.4736 225.604L72.5559 221.487Z" fill="url(#paint12_linear_364_6089)"/>
    <path d="M146.418 318.494C146.418 318.494 155.092 326.979 156.766 325.743C157.362 325.304 158.865 323.708 160.322 321.93C161.351 320.676 161.457 318.904 160.575 317.543L158.53 314.386C156.58 311.378 152.406 310.747 149.702 313.1C148.339 314.287 147.101 316.006 146.418 318.494Z" fill="#FFA6A4"/>
    <path d="M284.111 381.652C284.111 381.652 283.047 341.972 260.883 302.608C253.95 290.295 251.484 275.963 253.646 261.999L256.074 246.315C256.074 246.315 286.492 236.022 320.21 245.882C320.21 245.882 366.961 282.956 335.716 381.652H284.111Z" fill="#34A7EC"/>
    <path d="M261.252 226.299L269.139 245.247C269.637 246.444 270.714 247.297 271.992 247.516C276.54 248.296 287.538 249.514 294.761 244.765C295.622 244.199 295.841 243.029 295.252 242.184L280.68 221.263L261.252 226.299Z" fill="#FFA7A4"/>
    <path d="M280.706 315.349C279.62 315.636 279.08 316.857 279.6 317.853L302.418 361.606C302.804 362.345 303.656 362.71 304.457 362.479L379.098 340.929C380.027 340.66 380.563 339.689 380.294 338.76L367.437 294.25C367.173 293.336 366.228 292.8 365.308 293.043L280.706 315.349Z" fill="#0191E7"/>
    <path d="M285.521 310.208C284.452 310.463 283.845 311.594 284.225 312.625L302.491 362.242C302.823 363.144 303.796 363.637 304.719 363.37L379.135 341.884C380.061 341.617 380.622 340.678 380.418 339.736L370.106 291.982C369.889 290.978 368.889 290.348 367.889 290.586L285.521 310.208Z" fill="#BDD0FB"/>
    <path d="M292.002 305.2C290.697 305.398 289.837 306.666 290.135 307.951L302.541 361.515C302.834 362.78 304.129 363.541 305.377 363.18L378.665 342.02C379.843 341.68 380.537 340.465 380.231 339.278L368.96 295.555C368.67 294.43 367.574 293.706 366.425 293.881L292.002 305.2Z" fill="#0191E7"/>
    <path d="M351.327 325.626C357.015 282.658 323.902 249.618 323.902 249.618L304.201 272.586C319.159 291.23 326.269 308.314 329.517 321.732C333.824 320.478 344.195 318.496 351.327 325.626Z" fill="#FF9B97"/>
    <path d="M329.516 322.236C329.289 322.236 329.083 322.081 329.027 321.851C324.998 305.207 316.513 288.738 303.808 272.901C303.634 272.684 303.669 272.367 303.886 272.193C304.103 272.019 304.42 272.054 304.594 272.271C317.392 288.224 325.942 304.825 330.006 321.614C330.071 321.884 329.905 322.156 329.635 322.222C329.595 322.231 329.555 322.236 329.516 322.236Z" fill="url(#paint13_linear_364_6089)"/>
    <path d="M329.516 321.732C332.535 334.203 332.218 343.508 331.759 347.951C331.585 349.625 330.239 350.933 328.56 351.051C326.652 351.184 324.055 351.36 321.734 351.493C319.183 351.64 316.352 350.028 314.459 348.681C313.492 347.993 312.242 349.064 312.782 350.12C314.195 352.885 317.781 355.346 320.253 356.793C321.152 357.32 320.984 358.664 319.981 358.948L309.41 361.944C326.779 378.308 338.247 359.999 338.247 359.999C345.914 348.152 349.878 336.567 351.327 325.626C344.194 318.496 333.824 320.477 329.516 321.732Z" fill="#FFB2B0"/>
    <path d="M269.408 197.307C269.077 197.619 255.428 224.422 255.428 224.422L270.898 231.89L287.608 208.408C287.608 208.408 274.953 192.087 269.408 197.307Z" fill="#FFA29F"/>
    <path d="M280.578 211.226L272.863 224.087C272.746 224.282 272.606 224.459 272.44 224.614C271.521 225.469 268.379 227.955 265.949 224.57C263.879 221.685 261.936 219.061 259.854 217.979C258.639 217.348 257.143 217.852 256.525 219.075C255.254 221.595 252.792 226.731 251.245 231.601C250.857 232.822 251.487 234.132 252.674 234.613C255.807 235.882 261.998 238.177 267.492 238.936C268.394 239.06 269.288 238.679 269.825 237.944C272.188 234.706 278.85 225.657 281.124 223.392C283.236 221.287 287.135 222.081 288.891 222.586C289.558 222.777 290.268 222.685 290.863 222.327C292.645 221.254 295.755 218.58 292.91 214.054C292.202 212.929 292.563 211.43 293.674 210.699C295.664 209.39 297.823 206.933 295.766 202.954C293.683 198.926 289.964 198.565 287.431 198.874C286.31 199.011 285.173 198.423 284.743 197.379C284.551 196.915 284.173 196.519 283.469 196.376C282.142 196.107 281.27 194.893 281.531 193.564C281.978 191.284 281.641 188.323 278.002 186.322C271.327 182.652 265.48 188.632 263.994 193.68C262.507 198.728 269.97 202.295 274.664 202.891C278.113 203.328 280.003 207.091 280.764 209.059C281.04 209.772 280.972 210.569 280.578 211.226Z" fill="url(#paint14_linear_364_6089)"/>
    <path d="M278.227 228.115C278.227 228.115 281.195 219.43 284.994 219.749C288.793 220.068 291.783 223.853 287.075 228.107C281.218 233.4 278.227 228.115 278.227 228.115Z" fill="#FFB4B2"/>
    <path d="M124.271 203.038L125.414 238.562C125.613 244.756 130.696 249.686 136.923 249.722L221.992 250.224C226.153 250.248 229.699 247.225 230.306 243.127C231.636 234.156 233.331 218.104 231.423 203.038H124.271Z" fill="#2E80B1"/>
    <path d="M220.233 248.191C220.097 248.191 219.984 248.084 219.979 247.947C219.974 247.807 220.083 247.689 220.224 247.684C220.716 247.665 221.207 247.6 221.683 247.489C221.819 247.457 221.956 247.542 221.988 247.679C222.02 247.815 221.935 247.952 221.798 247.984C221.29 248.102 220.767 248.172 220.242 248.191C220.239 248.191 220.236 248.191 220.233 248.191ZM216.679 248.178C216.679 248.178 216.678 248.178 216.678 248.178L215.155 248.169C215.014 248.168 214.902 248.054 214.902 247.914C214.903 247.774 215.017 247.662 215.156 247.662C215.157 247.662 215.157 247.662 215.158 247.662L216.681 247.671C216.821 247.672 216.934 247.786 216.933 247.926C216.932 248.066 216.819 248.178 216.679 248.178ZM211.602 248.148C211.602 248.148 211.601 248.148 211.601 248.148L210.078 248.14C209.938 248.138 209.825 248.025 209.826 247.884C209.826 247.744 209.94 247.632 210.079 247.632C210.08 247.632 210.08 247.632 210.081 247.632L211.604 247.641C211.744 247.642 211.857 247.756 211.856 247.896C211.855 248.036 211.742 248.148 211.602 248.148ZM206.525 248.118C206.525 248.118 206.525 248.118 206.524 248.118L205.001 248.109C204.861 248.108 204.748 247.994 204.748 247.854C204.749 247.714 204.863 247.602 205.002 247.602C205.003 247.602 205.003 247.602 205.004 247.602L206.527 247.61C206.667 247.612 206.78 247.725 206.779 247.866C206.779 248.006 206.665 248.118 206.525 248.118ZM201.448 248.088C201.448 248.088 201.447 248.088 201.447 248.088L199.924 248.079C199.783 248.079 199.671 247.964 199.671 247.824C199.672 247.684 199.808 247.57 199.927 247.572L201.45 247.581C201.59 247.582 201.703 247.696 201.702 247.836C201.702 247.976 201.588 248.088 201.448 248.088ZM196.371 248.059C196.371 248.059 196.37 248.059 196.37 248.059L194.847 248.05C194.707 248.049 194.594 247.935 194.595 247.794C194.595 247.655 194.709 247.542 194.848 247.542C194.849 247.542 194.85 247.542 194.85 247.542L196.373 247.551C196.513 247.552 196.626 247.666 196.625 247.806C196.624 247.946 196.511 248.059 196.371 248.059ZM191.295 248.028C191.294 248.028 191.294 248.028 191.293 248.028L189.77 248.02C189.63 248.019 189.517 247.905 189.518 247.764C189.518 247.624 189.632 247.512 189.771 247.512C189.772 247.512 189.772 247.512 189.773 247.512L191.296 247.521C191.436 247.522 191.549 247.636 191.548 247.776C191.548 247.916 191.434 248.028 191.295 248.028ZM186.218 247.999C186.217 247.999 186.217 247.999 186.216 247.999L184.693 247.99C184.553 247.989 184.44 247.875 184.441 247.735C184.441 247.595 184.555 247.482 184.694 247.482C184.695 247.482 184.695 247.482 184.696 247.482L186.219 247.491C186.359 247.492 186.472 247.606 186.471 247.746C186.471 247.886 186.357 247.999 186.218 247.999ZM181.141 247.969C181.14 247.969 181.14 247.969 181.139 247.969L179.616 247.96C179.476 247.959 179.363 247.845 179.364 247.705C179.365 247.565 179.478 247.452 179.618 247.452C179.618 247.452 179.619 247.452 179.619 247.452L181.142 247.461C181.283 247.462 181.395 247.576 181.395 247.717C181.394 247.856 181.28 247.969 181.141 247.969ZM176.064 247.939C176.063 247.939 176.063 247.939 176.062 247.939L174.539 247.93C174.399 247.929 174.286 247.815 174.287 247.675C174.287 247.535 174.401 247.422 174.541 247.422C174.541 247.422 174.542 247.422 174.542 247.422L176.065 247.431C176.206 247.432 176.318 247.546 176.318 247.687C176.317 247.826 176.203 247.939 176.064 247.939ZM170.987 247.909C170.986 247.909 170.986 247.909 170.985 247.909L169.462 247.9C169.322 247.899 169.209 247.785 169.21 247.645C169.21 247.505 169.324 247.392 169.464 247.392C169.464 247.392 169.464 247.392 169.465 247.392L170.988 247.401C171.128 247.402 171.241 247.516 171.24 247.657C171.24 247.796 171.126 247.909 170.987 247.909ZM165.91 247.879C165.909 247.879 165.909 247.879 165.908 247.879L164.385 247.87C164.245 247.869 164.132 247.755 164.133 247.615C164.134 247.475 164.247 247.363 164.387 247.363C164.387 247.363 164.388 247.363 164.388 247.363L165.911 247.372C166.052 247.373 166.165 247.487 166.164 247.627C166.163 247.767 166.049 247.879 165.91 247.879ZM160.833 247.849C160.832 247.849 160.832 247.849 160.831 247.849L159.308 247.84C159.168 247.839 159.055 247.725 159.056 247.585C159.057 247.445 159.17 247.332 159.31 247.332C159.31 247.332 159.311 247.332 159.311 247.332L160.834 247.341C160.975 247.342 161.088 247.456 161.087 247.597C161.086 247.736 160.972 247.849 160.833 247.849ZM155.756 247.819C155.755 247.819 155.755 247.819 155.754 247.819L154.231 247.81C154.091 247.809 153.978 247.695 153.979 247.555C153.98 247.415 154.093 247.303 154.233 247.303C154.233 247.303 154.234 247.303 154.234 247.303L155.757 247.311C155.898 247.313 156.01 247.426 156.01 247.567C156.009 247.707 155.895 247.819 155.756 247.819ZM150.679 247.789C150.678 247.789 150.678 247.789 150.677 247.789L149.154 247.781C149.014 247.78 148.901 247.666 148.902 247.525C148.903 247.385 149.034 247.29 149.157 247.273L150.68 247.282C150.821 247.283 150.934 247.397 150.933 247.537C150.932 247.677 150.819 247.789 150.679 247.789ZM145.602 247.759C145.601 247.759 145.601 247.759 145.6 247.759L144.077 247.75C143.937 247.749 143.824 247.635 143.825 247.495C143.826 247.355 143.939 247.243 144.079 247.243C144.079 247.243 144.08 247.243 144.08 247.243L145.603 247.252C145.744 247.253 145.856 247.367 145.856 247.507C145.855 247.647 145.742 247.759 145.602 247.759ZM140.525 247.729C140.524 247.729 140.524 247.729 140.523 247.729L139 247.721C138.86 247.72 138.747 247.606 138.748 247.465C138.749 247.326 138.862 247.213 139.002 247.213C139.002 247.213 139.003 247.213 139.003 247.213L140.526 247.222C140.667 247.223 140.78 247.337 140.779 247.477C140.778 247.617 140.664 247.729 140.525 247.729ZM135.508 247.162C135.482 247.162 135.455 247.158 135.429 247.149C134.939 246.988 134.454 246.789 133.988 246.56C133.863 246.498 133.811 246.345 133.873 246.22C133.935 246.094 134.087 246.043 134.213 246.104C134.658 246.324 135.121 246.513 135.588 246.668C135.721 246.712 135.793 246.855 135.749 246.988C135.714 247.095 135.615 247.162 135.508 247.162ZM224.911 246.452C224.836 246.452 224.763 246.419 224.713 246.357C224.625 246.247 224.643 246.088 224.752 246C225.136 245.693 225.492 245.348 225.808 244.975C225.899 244.868 226.059 244.855 226.166 244.946C226.273 245.037 226.286 245.197 226.195 245.304C225.858 245.701 225.479 246.069 225.069 246.397C225.023 246.434 224.967 246.452 224.911 246.452ZM131.22 244.534C131.155 244.534 131.091 244.51 131.041 244.461C130.672 244.095 130.326 243.702 130.012 243.292C129.927 243.181 129.948 243.021 130.059 242.936C130.171 242.851 130.331 242.872 130.415 242.984C130.715 243.375 131.046 243.751 131.398 244.1C131.498 244.198 131.499 244.359 131.4 244.459C131.351 244.509 131.285 244.534 131.22 244.534ZM227.626 242.267C227.605 242.267 227.584 242.265 227.562 242.259C227.427 242.224 227.345 242.085 227.381 241.95C227.448 241.688 227.503 241.42 227.542 241.152L227.641 240.478C227.661 240.339 227.787 240.242 227.929 240.263C228.067 240.284 228.164 240.412 228.143 240.551L228.044 241.227C228.002 241.512 227.944 241.798 227.872 242.077C227.842 242.191 227.739 242.267 227.626 242.267ZM128.545 240.271C128.44 240.271 128.341 240.205 128.305 240.099C128.138 239.611 128.005 239.104 127.908 238.594C127.881 238.456 127.972 238.323 128.11 238.297C128.247 238.271 128.38 238.361 128.406 238.498C128.499 238.986 128.627 239.469 128.785 239.935C128.831 240.068 128.76 240.212 128.627 240.258C128.6 240.267 128.573 240.271 128.545 240.271ZM228.365 237.245C228.355 237.245 228.344 237.245 228.333 237.243C228.194 237.226 228.095 237.099 228.113 236.96C228.174 236.469 228.234 235.965 228.294 235.45C228.31 235.31 228.437 235.211 228.575 235.227C228.715 235.243 228.814 235.369 228.798 235.508C228.738 236.025 228.678 236.53 228.617 237.023C228.601 237.151 228.491 237.245 228.365 237.245ZM127.91 235.26C127.774 235.26 127.661 235.152 127.657 235.015L127.608 233.492C127.603 233.352 127.713 233.235 127.853 233.23C127.982 233.224 128.111 233.335 128.115 233.476L128.164 234.999C128.169 235.138 128.059 235.256 127.919 235.26C127.916 235.26 127.913 235.26 127.91 235.26ZM228.92 232.198C228.912 232.198 228.904 232.197 228.895 232.197C228.756 232.184 228.653 232.06 228.667 231.92C228.714 231.423 228.761 230.917 228.805 230.405C228.817 230.265 228.938 230.17 229.08 230.174C229.22 230.186 229.323 230.31 229.311 230.449C229.266 230.963 229.22 231.469 229.172 231.968C229.16 232.1 229.049 232.198 228.92 232.198ZM127.747 230.186C127.611 230.186 127.498 230.077 127.494 229.94L127.445 228.418C127.44 228.278 127.55 228.161 127.69 228.156C127.828 228.154 127.948 228.262 127.952 228.402L128.001 229.924C128.006 230.064 127.896 230.181 127.755 230.186C127.753 230.186 127.75 230.186 127.747 230.186ZM229.33 227.137C229.324 227.137 229.318 227.137 229.313 227.136C229.173 227.127 229.067 227.006 229.076 226.866C229.109 226.365 229.141 225.859 229.169 225.348C229.177 225.208 229.297 225.097 229.437 225.109C229.577 225.117 229.684 225.236 229.676 225.377C229.647 225.889 229.616 226.397 229.583 226.9C229.574 227.034 229.462 227.137 229.33 227.137ZM127.584 225.111C127.448 225.111 127.335 225.003 127.331 224.865L127.282 223.343C127.277 223.204 127.387 223.086 127.527 223.082C127.663 223.072 127.785 223.188 127.789 223.328L127.838 224.85C127.843 224.989 127.732 225.107 127.592 225.111C127.59 225.111 127.587 225.111 127.584 225.111ZM229.585 222.066C229.582 222.066 229.579 222.066 229.576 222.066C229.436 222.061 229.326 221.943 229.331 221.803C229.348 221.3 229.363 220.793 229.375 220.283C229.378 220.143 229.513 220.04 229.635 220.035C229.775 220.039 229.886 220.155 229.883 220.295C229.87 220.807 229.855 221.316 229.838 221.82C229.834 221.958 229.721 222.066 229.585 222.066ZM127.421 220.037C127.284 220.037 127.172 219.929 127.167 219.791L127.119 218.269C127.114 218.129 127.224 218.011 127.364 218.007C127.499 218.014 127.622 218.113 127.626 218.253L127.675 219.775C127.679 219.915 127.569 220.033 127.429 220.037C127.427 220.037 127.423 220.037 127.421 220.037ZM229.67 216.989C229.53 216.989 229.416 216.875 229.416 216.735C229.415 216.231 229.412 215.724 229.405 215.215C229.404 215.075 229.516 214.96 229.656 214.958C229.78 214.959 229.911 215.068 229.913 215.209C229.92 215.719 229.923 216.228 229.924 216.734C229.924 216.875 229.811 216.989 229.67 216.989L229.67 216.989ZM127.258 214.963C127.121 214.963 127.009 214.855 127.004 214.717L126.955 213.194C126.951 213.054 127.061 212.937 127.201 212.932C127.32 212.929 127.458 213.037 127.462 213.178L127.512 214.701C127.516 214.841 127.406 214.958 127.266 214.963C127.263 214.963 127.261 214.963 127.258 214.963ZM229.563 211.914C229.427 211.914 229.315 211.807 229.309 211.67C229.288 211.165 229.264 210.659 229.236 210.152C229.228 210.013 229.336 209.893 229.476 209.885C229.615 209.873 229.735 209.984 229.743 210.125C229.771 210.633 229.796 211.141 229.817 211.649C229.823 211.789 229.714 211.908 229.574 211.914C229.57 211.914 229.566 211.914 229.563 211.914ZM127.095 209.888C126.958 209.888 126.845 209.78 126.841 209.642L126.792 208.12C126.787 207.98 126.897 207.863 127.037 207.858C127.157 207.844 127.295 207.963 127.299 208.104L127.348 209.626C127.353 209.766 127.243 209.884 127.103 209.888C127.1 209.888 127.098 209.888 127.095 209.888ZM229.237 206.847C229.106 206.847 228.996 206.748 228.984 206.615C228.939 206.111 228.891 205.606 228.838 205.103C228.824 204.964 228.925 204.839 229.065 204.825C229.204 204.811 229.329 204.911 229.344 205.051C229.396 205.557 229.445 206.064 229.49 206.571C229.502 206.71 229.399 206.834 229.259 206.846C229.252 206.847 229.244 206.847 229.237 206.847ZM126.931 204.814C126.795 204.814 126.682 204.705 126.678 204.568L126.629 203.046C126.624 202.906 126.734 202.788 126.874 202.784C126.995 202.782 127.132 202.889 127.136 203.03L127.185 204.552C127.19 204.692 127.08 204.809 126.94 204.814C126.937 204.814 126.934 204.814 126.931 204.814ZM227.355 203.291H225.832C225.691 203.291 225.578 203.178 225.578 203.038C225.578 202.897 225.691 202.784 225.832 202.784H227.355C227.495 202.784 227.609 202.897 227.609 203.038C227.609 203.178 227.495 203.291 227.355 203.291ZM222.278 203.291H220.755C220.614 203.291 220.501 203.178 220.501 203.038C220.501 202.897 220.614 202.784 220.755 202.784H222.278C222.418 202.784 222.532 202.897 222.532 203.038C222.532 203.178 222.418 203.291 222.278 203.291ZM217.201 203.291H215.678C215.537 203.291 215.424 203.178 215.424 203.038C215.424 202.897 215.537 202.784 215.678 202.784H217.201C217.341 202.784 217.455 202.897 217.455 203.038C217.455 203.178 217.341 203.291 217.201 203.291ZM212.124 203.291H210.6C210.46 203.291 210.347 203.178 210.347 203.038C210.347 202.897 210.46 202.784 210.6 202.784H212.124C212.264 202.784 212.377 202.897 212.377 203.038C212.377 203.178 212.264 203.291 212.124 203.291ZM207.046 203.291H205.523C205.383 203.291 205.27 203.178 205.27 203.038C205.27 202.897 205.383 202.784 205.523 202.784H207.046C207.187 202.784 207.3 202.897 207.3 203.038C207.3 203.178 207.187 203.291 207.046 203.291ZM201.97 203.291H200.446C200.306 203.291 200.193 203.178 200.193 203.038C200.193 202.897 200.306 202.784 200.446 202.784H201.97C202.11 202.784 202.223 202.897 202.223 203.038C202.223 203.178 202.11 203.291 201.97 203.291ZM196.892 203.291H195.369C195.229 203.291 195.115 203.178 195.115 203.038C195.115 202.897 195.229 202.784 195.369 202.784H196.892C197.033 202.784 197.146 202.897 197.146 203.038C197.146 203.178 197.033 203.291 196.892 203.291ZM191.815 203.291H190.292C190.152 203.291 190.038 203.178 190.038 203.038C190.038 202.897 190.152 202.784 190.292 202.784H191.815C191.956 202.784 192.069 202.897 192.069 203.038C192.069 203.178 191.956 203.291 191.815 203.291ZM186.738 203.291H185.215C185.075 203.291 184.961 203.178 184.961 203.038C184.961 202.897 185.075 202.784 185.215 202.784H186.738C186.879 202.784 186.992 202.897 186.992 203.038C186.992 203.178 186.879 203.291 186.738 203.291ZM181.661 203.291H180.138C179.998 203.291 179.884 203.178 179.884 203.038C179.884 202.897 179.998 202.784 180.138 202.784H181.661C181.802 202.784 181.915 202.897 181.915 203.038C181.915 203.178 181.802 203.291 181.661 203.291ZM176.584 203.291H175.061C174.921 203.291 174.807 203.178 174.807 203.038C174.807 202.897 174.921 202.784 175.061 202.784H176.584C176.725 202.784 176.838 202.897 176.838 203.038C176.838 203.178 176.725 203.291 176.584 203.291ZM171.507 203.291H169.984C169.844 203.291 169.73 203.178 169.73 203.038C169.73 202.897 169.844 202.784 169.984 202.784H171.507C171.648 202.784 171.761 202.897 171.761 203.038C171.761 203.178 171.648 203.291 171.507 203.291ZM166.43 203.291H164.907C164.767 203.291 164.653 203.178 164.653 203.038C164.653 202.897 164.767 202.784 164.907 202.784H166.43C166.571 202.784 166.684 202.897 166.684 203.038C166.684 203.178 166.57 203.291 166.43 203.291ZM161.353 203.291H159.83C159.69 203.291 159.576 203.178 159.576 203.038C159.576 202.897 159.69 202.784 159.83 202.784H161.353C161.494 202.784 161.607 202.897 161.607 203.038C161.607 203.178 161.494 203.291 161.353 203.291ZM156.276 203.291H154.753C154.613 203.291 154.499 203.178 154.499 203.038C154.499 202.897 154.613 202.784 154.753 202.784H156.276C156.416 202.784 156.53 202.897 156.53 203.038C156.53 203.178 156.416 203.291 156.276 203.291ZM151.199 203.291H149.676C149.536 203.291 149.422 203.178 149.422 203.038C149.422 202.897 149.536 202.784 149.676 202.784H151.199C151.34 202.784 151.453 202.897 151.453 203.038C151.453 203.178 151.339 203.291 151.199 203.291ZM146.122 203.291H144.599C144.459 203.291 144.345 203.178 144.345 203.038C144.345 202.897 144.459 202.784 144.599 202.784H146.122C146.262 202.784 146.376 202.897 146.376 203.038C146.376 203.178 146.262 203.291 146.122 203.291ZM141.045 203.291H139.522C139.382 203.291 139.268 203.178 139.268 203.038C139.268 202.897 139.382 202.784 139.522 202.784H141.045C141.185 202.784 141.299 202.897 141.299 203.038C141.299 203.178 141.185 203.291 141.045 203.291ZM135.968 203.291H134.445C134.305 203.291 134.191 203.178 134.191 203.038C134.191 202.897 134.305 202.784 134.445 202.784H135.968C136.108 202.784 136.222 202.897 136.222 203.038C136.222 203.178 136.108 203.291 135.968 203.291ZM130.891 203.291H129.368C129.228 203.291 129.114 203.178 129.114 203.038C129.114 202.897 129.228 202.784 129.368 202.784H130.891C131.031 202.784 131.145 202.897 131.145 203.038C131.145 203.178 131.031 203.291 130.891 203.291Z" fill="white"/>
    <path d="M149.203 177.249L149.459 174.509C149.748 173.855 150.348 173.392 151.057 173.279C153.707 172.857 160.28 172.116 163.445 174.481L163.917 177.664L149.203 177.249Z" fill="#2E80B1"/>
    <path d="M157.482 174.613C156.872 174.761 156.261 174.761 155.648 174.61C154.907 174.428 154.385 173.765 154.385 173.006V164.427H158.751L158.751 172.999C158.751 173.762 158.227 174.431 157.482 174.613Z" fill="#2E80B1"/>
    <path d="M191.488 177.249L191.744 174.509C192.033 173.855 192.633 173.392 193.342 173.279C195.992 172.857 202.565 172.116 205.73 174.481L206.202 177.664L191.488 177.249Z" fill="#2E80B1"/>
    <path d="M199.767 174.613C199.157 174.761 198.546 174.761 197.934 174.61C197.193 174.428 196.67 173.765 196.67 173.006V163.523H201.036V172.999C201.036 173.762 200.512 174.431 199.767 174.613Z" fill="#2E80B1"/>
    <path d="M153.941 166.53L200.892 164.976C201.963 164.94 202.871 164.168 203.055 163.118C203.312 161.648 203.539 159.447 203.201 157.166C202.816 154.572 200.585 152.645 197.951 152.583C189.192 152.374 166.895 152.381 154.605 157.242C153.305 157.756 152.341 158.867 152.012 160.22C151.698 161.51 151.49 163.234 151.9 164.988C152.117 165.92 152.98 166.562 153.941 166.53Z" fill="#2E80B1"/>
    <path opacity="0.7" d="M153.127 164.391C152.869 164.391 152.649 164.196 152.622 163.934C152.615 163.857 152.438 162.039 152.912 160.287C153.289 158.895 154.389 157.777 155.785 157.367C158.414 156.596 163.44 155.284 167.558 155.168C167.841 155.161 168.072 155.382 168.08 155.662C168.088 155.942 167.867 156.176 167.587 156.184C163.582 156.296 158.652 157.584 156.07 158.342C155.012 158.652 154.177 159.499 153.892 160.552C153.467 162.125 153.631 163.815 153.633 163.832C153.661 164.111 153.457 164.36 153.178 164.388C153.161 164.39 153.144 164.391 153.127 164.391Z" fill="white"/>
    <path d="M127.419 176.181C142.587 175.987 208.206 175.298 227.267 177.598C228.908 177.796 230.247 178.996 230.602 180.603C231.729 185.695 233.995 197.523 233.726 209.248C233.69 210.844 232.52 212.19 230.944 212.488L187.435 220.719H171.98L125.62 211.504C123.986 211.179 122.781 209.795 122.697 208.139C122.395 202.24 121.924 188.399 123.52 179.49C123.859 177.597 125.487 176.206 127.419 176.181Z" fill="#2E80B1"/>
    <path d="M172.348 217.224C172.332 217.224 172.315 217.223 172.299 217.219L170.805 216.922C170.667 216.895 170.578 216.762 170.605 216.624C170.633 216.487 170.765 216.394 170.904 216.425L172.384 216.719C172.396 216.718 172.407 216.717 172.418 216.717H173.941C174.082 216.717 174.195 216.83 174.195 216.971C174.195 217.111 174.082 217.224 173.941 217.224H172.418C172.406 217.224 172.395 217.223 172.383 217.222C172.372 217.223 172.36 217.224 172.348 217.224ZM184.095 217.224H182.572C182.432 217.224 182.318 217.111 182.318 216.97C182.318 216.83 182.432 216.717 182.572 216.717H184.095C184.236 216.717 184.349 216.83 184.349 216.97C184.349 217.111 184.236 217.224 184.095 217.224ZM179.019 217.224H177.495C177.355 217.224 177.242 217.111 177.242 216.97C177.242 216.83 177.355 216.717 177.495 216.717H179.019C179.159 216.717 179.272 216.83 179.272 216.97C179.272 217.111 179.159 217.224 179.019 217.224ZM187.639 217.119C187.519 217.119 187.413 217.034 187.39 216.912C187.364 216.775 187.455 216.642 187.592 216.616L189.089 216.333C189.228 216.308 189.36 216.397 189.386 216.535C189.412 216.673 189.321 216.806 189.183 216.832L187.687 217.115C187.671 217.118 187.655 217.119 187.639 217.119ZM167.369 216.235C167.352 216.235 167.336 216.233 167.319 216.23L165.825 215.933C165.688 215.906 165.598 215.772 165.626 215.634C165.653 215.497 165.784 215.408 165.924 215.435L167.418 215.732C167.555 215.759 167.645 215.893 167.617 216.03C167.593 216.151 167.488 216.235 167.369 216.235ZM192.628 216.175C192.508 216.175 192.402 216.09 192.379 215.968C192.353 215.831 192.443 215.698 192.581 215.672L194.078 215.389C194.215 215.363 194.348 215.453 194.374 215.591C194.4 215.729 194.31 215.862 194.172 215.888L192.675 216.171C192.659 216.174 192.643 216.175 192.628 216.175ZM162.389 215.244C162.373 215.244 162.356 215.243 162.339 215.24L160.846 214.943C160.708 214.915 160.619 214.782 160.646 214.644C160.674 214.507 160.806 214.417 160.945 214.445L162.439 214.742C162.576 214.769 162.666 214.902 162.638 215.04C162.614 215.161 162.508 215.244 162.389 215.244ZM197.616 215.232C197.497 215.232 197.39 215.147 197.367 215.025C197.341 214.887 197.432 214.754 197.57 214.728L199.066 214.445C199.204 214.421 199.337 214.51 199.363 214.648C199.389 214.785 199.298 214.918 199.16 214.944L197.664 215.227C197.648 215.23 197.632 215.232 197.616 215.232ZM202.605 214.288C202.485 214.288 202.379 214.203 202.356 214.081C202.33 213.943 202.42 213.81 202.558 213.784L204.055 213.501C204.193 213.476 204.325 213.566 204.351 213.703C204.377 213.841 204.287 213.974 204.149 214L202.652 214.283C202.636 214.286 202.621 214.288 202.605 214.288ZM157.41 214.255C157.393 214.255 157.377 214.253 157.36 214.25L155.866 213.953C155.729 213.926 155.639 213.792 155.667 213.654C155.694 213.517 155.825 213.426 155.965 213.455L157.459 213.752C157.596 213.779 157.686 213.913 157.658 214.051C157.634 214.171 157.528 214.255 157.41 214.255ZM207.593 213.344C207.474 213.344 207.367 213.259 207.344 213.137C207.318 213 207.409 212.867 207.547 212.841L209.043 212.558C209.181 212.531 209.314 212.623 209.34 212.76C209.366 212.898 209.275 213.031 209.137 213.056L207.641 213.34C207.625 213.343 207.609 213.344 207.593 213.344ZM152.43 213.265C152.414 213.265 152.397 213.263 152.38 213.26L150.887 212.963C150.749 212.936 150.66 212.803 150.687 212.665C150.714 212.528 150.849 212.435 150.985 212.466L152.479 212.762C152.617 212.789 152.706 212.923 152.679 213.061C152.655 213.181 152.549 213.265 152.43 213.265ZM212.582 212.4C212.462 212.4 212.356 212.315 212.333 212.193C212.307 212.056 212.397 211.923 212.535 211.897L214.032 211.614C214.17 211.59 214.302 211.678 214.328 211.816C214.354 211.954 214.264 212.087 214.126 212.113L212.629 212.396C212.613 212.399 212.598 212.4 212.582 212.4ZM147.45 212.275C147.434 212.275 147.417 212.274 147.401 212.27L145.907 211.973C145.769 211.946 145.68 211.813 145.707 211.675C145.735 211.538 145.866 211.448 146.006 211.475L147.5 211.772C147.637 211.8 147.726 211.933 147.699 212.071C147.675 212.191 147.569 212.275 147.45 212.275ZM217.571 211.457C217.451 211.457 217.344 211.372 217.321 211.25C217.295 211.112 217.386 210.979 217.524 210.953L219.02 210.67C219.159 210.645 219.291 210.735 219.317 210.873C219.343 211.01 219.252 211.143 219.114 211.169L217.618 211.452C217.602 211.455 217.586 211.457 217.571 211.457ZM142.471 211.285C142.454 211.285 142.438 211.284 142.421 211.281L140.927 210.984C140.79 210.956 140.7 210.823 140.728 210.685C140.755 210.548 140.888 210.458 141.026 210.486L142.52 210.783C142.657 210.81 142.747 210.944 142.719 211.081C142.695 211.202 142.589 211.285 142.471 211.285ZM222.559 210.512C222.439 210.512 222.333 210.428 222.31 210.306C222.284 210.168 222.374 210.035 222.512 210.009L224.009 209.726C224.148 209.703 224.279 209.791 224.305 209.928C224.331 210.066 224.241 210.199 224.103 210.225L222.606 210.508C222.591 210.511 222.575 210.512 222.559 210.512ZM137.491 210.295C137.475 210.295 137.458 210.294 137.441 210.291L135.947 209.994C135.81 209.966 135.721 209.833 135.748 209.695C135.776 209.558 135.907 209.467 136.047 209.496L137.54 209.793C137.678 209.82 137.767 209.953 137.74 210.091C137.716 210.212 137.61 210.295 137.491 210.295ZM227.548 209.569C227.428 209.569 227.321 209.484 227.298 209.362C227.272 209.225 227.363 209.092 227.501 209.066L228.997 208.783C229.136 208.758 229.268 208.847 229.294 208.985C229.32 209.123 229.229 209.256 229.092 209.282L227.595 209.565C227.579 209.568 227.563 209.569 227.548 209.569ZM132.512 209.306C132.495 209.306 132.479 209.304 132.462 209.301L130.968 209.004C130.831 208.977 130.741 208.843 130.769 208.705C130.796 208.569 130.929 208.476 131.067 208.506L132.561 208.803C132.698 208.83 132.788 208.964 132.76 209.102C132.736 209.222 132.63 209.306 132.512 209.306ZM127.532 208.316C127.515 208.316 127.499 208.315 127.482 208.311L126.192 208.054L126.162 207.451C126.155 207.311 126.263 207.192 126.403 207.186C126.54 207.157 126.662 207.286 126.669 207.427L126.679 207.634L127.581 207.813C127.719 207.841 127.808 207.975 127.781 208.112C127.756 208.233 127.651 208.316 127.532 208.316ZM229.992 206.51C229.853 206.51 229.74 206.398 229.738 206.259C229.732 205.752 229.721 205.246 229.706 204.741C229.702 204.601 229.812 204.484 229.952 204.48C230.085 204.484 230.209 204.585 230.214 204.726C230.229 205.234 230.239 205.743 230.246 206.253C230.247 206.393 230.135 206.508 229.995 206.51C229.994 206.51 229.993 206.51 229.992 206.51ZM126.269 204.141C126.133 204.141 126.02 204.033 126.015 203.896C125.999 203.407 125.983 202.898 125.969 202.372C125.965 202.232 126.076 202.115 126.216 202.111C126.353 202.123 126.473 202.218 126.477 202.358C126.491 202.883 126.506 203.391 126.523 203.879C126.527 204.019 126.418 204.137 126.278 204.141C126.275 204.141 126.272 204.141 126.269 204.141ZM229.792 201.438C229.659 201.438 229.547 201.335 229.539 201.201C229.506 200.692 229.469 200.186 229.43 199.684C229.419 199.544 229.524 199.422 229.663 199.412C229.801 199.395 229.926 199.505 229.936 199.644C229.976 200.149 230.012 200.657 230.045 201.168C230.054 201.308 229.948 201.429 229.808 201.438C229.803 201.438 229.797 201.438 229.792 201.438ZM126.153 199.065C126.014 199.065 125.9 198.953 125.899 198.814C125.893 198.313 125.889 197.804 125.887 197.289C125.886 197.149 125.999 197.035 126.14 197.034H126.14C126.28 197.034 126.394 197.147 126.394 197.287C126.397 197.801 126.401 198.308 126.407 198.808C126.408 198.949 126.296 199.064 126.156 199.065C126.155 199.065 126.154 199.065 126.153 199.065ZM229.352 196.378C229.224 196.378 229.114 196.281 229.1 196.151C229.044 195.641 228.987 195.137 228.927 194.64C228.91 194.502 229.009 194.375 229.148 194.358C229.29 194.339 229.414 194.441 229.431 194.58C229.491 195.079 229.549 195.584 229.604 196.097C229.62 196.236 229.519 196.361 229.379 196.376C229.37 196.377 229.361 196.378 229.352 196.378ZM126.159 193.987C126.158 193.987 126.157 193.987 126.155 193.987C126.015 193.985 125.903 193.87 125.905 193.73C125.913 193.223 125.923 192.714 125.936 192.204C125.94 192.064 126.057 191.961 126.196 191.957C126.336 191.96 126.447 192.077 126.444 192.217C126.431 192.725 126.421 193.232 126.413 193.738C126.411 193.876 126.298 193.987 126.159 193.987ZM228.708 191.34C228.584 191.34 228.475 191.25 228.457 191.123C228.381 190.61 228.305 190.108 228.228 189.619C228.206 189.481 228.3 189.351 228.439 189.329C228.576 189.308 228.707 189.402 228.729 189.54C228.806 190.031 228.884 190.535 228.959 191.05C228.979 191.188 228.884 191.317 228.745 191.338C228.733 191.339 228.72 191.34 228.708 191.34ZM126.325 188.912C126.321 188.912 126.316 188.912 126.312 188.911C126.172 188.904 126.064 188.785 126.071 188.645C126.098 188.133 126.128 187.625 126.162 187.12C126.171 186.98 126.292 186.87 126.432 186.884C126.571 186.893 126.677 187.014 126.668 187.154C126.635 187.656 126.605 188.162 126.578 188.671C126.571 188.807 126.459 188.912 126.325 188.912ZM227.88 186.328C227.76 186.328 227.653 186.242 227.631 186.12C227.534 185.596 227.44 185.097 227.348 184.626C227.322 184.488 227.411 184.354 227.549 184.328C227.686 184.301 227.82 184.391 227.847 184.529C227.939 185.002 228.034 185.503 228.13 186.029C228.155 186.167 228.064 186.299 227.926 186.324C227.911 186.327 227.895 186.328 227.88 186.328ZM126.723 183.85C126.714 183.85 126.704 183.85 126.695 183.849C126.556 183.833 126.455 183.708 126.47 183.569C126.527 183.052 126.589 182.545 126.656 182.05C126.675 181.911 126.803 181.807 126.942 181.833C127.081 181.852 127.178 181.979 127.16 182.118C127.093 182.609 127.032 183.111 126.975 183.624C126.961 183.754 126.851 183.85 126.723 183.85ZM226.659 181.554C226.649 181.554 226.639 181.554 226.629 181.553C226.159 181.498 225.655 181.443 225.119 181.39C224.98 181.377 224.877 181.252 224.891 181.113C224.905 180.973 225.025 180.879 225.169 180.885C225.709 180.938 226.215 180.993 226.688 181.048C226.827 181.064 226.927 181.19 226.911 181.33C226.895 181.459 226.786 181.554 226.659 181.554ZM221.602 181.097C221.596 181.097 221.59 181.097 221.584 181.096C221.095 181.061 220.589 181.027 220.066 180.994C219.926 180.985 219.82 180.864 219.829 180.725C219.837 180.584 219.959 180.478 220.098 180.487C220.623 180.52 221.131 180.555 221.62 180.59C221.76 180.6 221.865 180.722 221.855 180.861C221.846 180.995 221.734 181.097 221.602 181.097ZM216.534 180.794C216.529 180.794 216.525 180.794 216.521 180.794C216.026 180.768 215.519 180.744 215.001 180.72C214.861 180.714 214.752 180.595 214.759 180.455C214.765 180.316 214.886 180.204 215.024 180.213C215.543 180.237 216.051 180.261 216.547 180.287C216.687 180.294 216.794 180.413 216.787 180.553C216.78 180.689 216.668 180.794 216.534 180.794ZM211.461 180.572C211.458 180.572 211.455 180.572 211.452 180.572L209.93 180.517C209.79 180.512 209.68 180.394 209.685 180.254C209.69 180.115 209.815 180.011 209.947 180.009L211.471 180.064C211.611 180.07 211.72 180.188 211.715 180.327C211.71 180.464 211.597 180.572 211.461 180.572ZM206.387 180.403C206.384 180.403 206.381 180.403 206.379 180.403L204.857 180.36C204.717 180.356 204.606 180.239 204.61 180.099C204.614 179.959 204.711 179.855 204.871 179.852L206.394 179.895C206.534 179.9 206.644 180.017 206.64 180.156C206.636 180.294 206.523 180.403 206.387 180.403ZM201.311 180.271C201.309 180.271 201.307 180.271 201.305 180.271L199.782 180.238C199.642 180.235 199.531 180.119 199.534 179.978C199.537 179.84 199.65 179.73 199.788 179.73C199.79 179.73 199.791 179.73 199.793 179.73L201.317 179.764C201.457 179.767 201.568 179.883 201.565 180.024C201.562 180.161 201.448 180.271 201.311 180.271ZM196.235 180.169C196.233 180.169 196.231 180.169 196.23 180.169L194.707 180.143C194.567 180.141 194.455 180.025 194.458 179.885C194.46 179.746 194.573 179.635 194.711 179.635C194.713 179.635 194.714 179.635 194.716 179.635L196.239 179.662C196.38 179.664 196.491 179.78 196.488 179.92C196.486 180.059 196.373 180.169 196.235 180.169ZM128.698 180.169C128.559 180.169 128.446 180.057 128.444 179.918C128.442 179.778 128.554 179.663 128.695 179.661L130.219 179.643C130.22 179.643 130.221 179.643 130.222 179.643C130.361 179.643 130.474 179.754 130.476 179.894C130.478 180.034 130.365 180.149 130.225 180.15L128.701 180.169C128.7 180.169 128.699 180.169 128.698 180.169ZM133.777 180.111C133.638 180.111 133.525 179.999 133.523 179.859C133.522 179.719 133.635 179.605 133.775 179.603L135.299 179.588C135.3 179.588 135.301 179.588 135.301 179.588C135.44 179.588 135.554 179.7 135.555 179.839C135.556 179.979 135.444 180.094 135.304 180.095L133.78 180.111C133.779 180.111 133.778 180.111 133.777 180.111ZM191.157 180.089C191.156 180.089 191.155 180.089 191.154 180.089L189.631 180.07C189.491 180.068 189.379 179.953 189.381 179.813C189.383 179.673 189.496 179.562 189.635 179.562C189.636 179.562 189.637 179.562 189.638 179.562L191.161 179.582C191.301 179.584 191.414 179.699 191.411 179.839C191.409 179.978 191.296 180.089 191.157 180.089ZM138.857 180.062C138.717 180.062 138.604 179.95 138.603 179.81C138.602 179.67 138.714 179.555 138.854 179.554L140.378 179.541C140.379 179.541 140.38 179.541 140.38 179.541C140.52 179.541 140.633 179.653 140.634 179.792C140.635 179.932 140.523 180.047 140.383 180.048L138.859 180.062C138.858 180.062 138.857 180.062 138.857 180.062ZM186.081 180.03C186.08 180.03 186.079 180.03 186.078 180.03L184.555 180.015C184.415 180.014 184.303 179.899 184.304 179.759C184.305 179.619 184.418 179.507 184.558 179.507C184.559 179.507 184.559 179.507 184.56 179.507L186.083 179.522C186.224 179.523 186.336 179.638 186.335 179.778C186.333 179.918 186.22 180.03 186.081 180.03ZM143.935 180.02C143.796 180.02 143.682 179.908 143.681 179.769C143.68 179.628 143.793 179.514 143.934 179.513L145.457 179.502C145.457 179.502 145.458 179.502 145.459 179.502C145.598 179.502 145.711 179.615 145.712 179.754C145.713 179.894 145.601 180.009 145.461 180.01L143.937 180.02C143.937 180.02 143.936 180.02 143.935 180.02ZM181.004 179.986C181.003 179.986 181.002 179.986 181.002 179.986L179.479 179.976C179.339 179.975 179.226 179.861 179.227 179.721C179.228 179.581 179.341 179.469 179.481 179.469C179.481 179.469 179.482 179.469 179.482 179.469L181.005 179.479C181.146 179.48 181.259 179.594 181.257 179.734C181.256 179.874 181.143 179.986 181.004 179.986ZM149.014 179.986C148.875 179.986 148.761 179.874 148.76 179.734C148.759 179.594 148.872 179.48 149.013 179.479L150.536 179.47C150.537 179.47 150.537 179.47 150.538 179.47C150.677 179.47 150.791 179.583 150.792 179.723C150.792 179.863 150.679 179.977 150.539 179.978L149.016 179.986C149.015 179.986 149.015 179.986 149.014 179.986ZM154.093 179.961C153.953 179.961 153.84 179.848 153.839 179.708C153.839 179.568 153.952 179.454 154.092 179.454L155.616 179.448H155.616C155.756 179.448 155.87 179.561 155.87 179.7C155.871 179.841 155.758 179.955 155.618 179.955L154.094 179.961H154.093ZM175.926 179.957H175.926L174.402 179.951C174.262 179.951 174.149 179.837 174.149 179.696C174.15 179.557 174.263 179.444 174.403 179.444H174.404L175.927 179.45C176.068 179.45 176.181 179.564 176.18 179.704C176.18 179.844 176.066 179.957 175.926 179.957ZM159.171 179.944C159.031 179.944 158.918 179.831 158.917 179.691C158.917 179.551 159.03 179.437 159.17 179.436L160.694 179.433C160.824 179.422 160.948 179.546 160.948 179.686C160.949 179.826 160.835 179.94 160.695 179.94L159.172 179.944H159.171ZM170.849 179.941C170.849 179.941 170.849 179.941 170.849 179.941L169.325 179.938C169.185 179.938 169.072 179.824 169.072 179.684C169.072 179.544 169.186 179.431 169.326 179.431H169.326L170.849 179.433C170.99 179.433 171.103 179.547 171.103 179.687C171.102 179.827 170.989 179.941 170.849 179.941ZM164.249 179.936C164.109 179.936 163.995 179.822 163.995 179.683C163.995 179.542 164.108 179.428 164.248 179.428H165.767C165.907 179.428 166.023 179.542 166.023 179.682C166.023 179.822 165.912 179.936 165.772 179.936H164.249L164.249 179.936Z" fill="white"/>
    <path d="M185.98 227.208H172.44C170.666 227.208 169.171 225.888 168.961 224.134L167.396 211.106C167.147 209.03 168.775 207.204 170.875 207.204H187.141C189.199 207.204 190.814 208.96 190.632 211L189.47 224.029C189.31 225.829 187.795 227.208 185.98 227.208Z" fill="url(#paint15_linear_364_6089)"/>
    <path d="M184.908 225.492H174.064C172.642 225.492 171.446 224.434 171.277 223.03L170.024 212.595C169.825 210.933 171.129 209.47 172.811 209.47H185.838C187.486 209.47 188.779 210.877 188.633 212.511L187.703 222.945C187.574 224.387 186.361 225.492 184.908 225.492Z" fill="#34A7EC"/>
    <defs>
    <linearGradient id="paint0_linear_364_6089" x1="265.706" y1="329.222" x2="58.8354" y2="100.803" gradientUnits="userSpaceOnUse">
    <stop stop-color="#FF928E"/>
    <stop offset="1" stop-color="#FE7062"/>
    </linearGradient>
    <linearGradient id="paint1_linear_364_6089" x1="152.224" y1="89.4513" x2="127.96" y2="111.426" gradientUnits="userSpaceOnUse">
    <stop stop-color="#FF928E"/>
    <stop offset="1" stop-color="#FE7062"/>
    </linearGradient>
    <linearGradient id="paint2_linear_364_6089" x1="58.3721" y1="153.24" x2="89.1852" y2="79.142" gradientUnits="userSpaceOnUse">
    <stop stop-color="#4F52FF"/>
    <stop offset="1" stop-color="#4042E2"/>
    </linearGradient>
    <linearGradient id="paint3_linear_364_6089" x1="37.3868" y1="170.276" x2="90.8519" y2="170.276" gradientUnits="userSpaceOnUse">
    <stop stop-color="#DAE3FE"/>
    <stop offset="1" stop-color="#E9EFFD"/>
    </linearGradient>
    <linearGradient id="paint4_linear_364_6089" x1="184.654" y1="246.269" x2="90.7287" y2="292.992" gradientUnits="userSpaceOnUse">
    <stop stop-color="#FEBBBA"/>
    <stop offset="1" stop-color="#FF928E"/>
    </linearGradient>
    <linearGradient id="paint5_linear_364_6089" x1="183.281" y1="234.551" x2="169.428" y2="249.02" gradientUnits="userSpaceOnUse">
    <stop stop-color="#FEBBBA"/>
    <stop offset="1" stop-color="#FF928E"/>
    </linearGradient>
    <linearGradient id="paint6_linear_364_6089" x1="185.102" y1="245.716" x2="91.1762" y2="292.438" gradientUnits="userSpaceOnUse">
    <stop stop-color="#FEBBBA"/>
    <stop offset="1" stop-color="#FF928E"/>
    </linearGradient>
    <linearGradient id="paint7_linear_364_6089" x1="111.371" y1="227.144" x2="-55.67" y2="447.466" gradientUnits="userSpaceOnUse">
    <stop offset="0.598958" stop-color="#0191E7"/>
    <stop offset="1" stop-color="#4042E2"/>
    </linearGradient>
    <linearGradient id="paint8_linear_364_6089" x1="63.3561" y1="260.859" x2="75.8368" y2="226.777" gradientUnits="userSpaceOnUse">
    <stop stop-color="#FEBBBA"/>
    <stop offset="1" stop-color="#FF928E"/>
    </linearGradient>
    <linearGradient id="paint9_linear_364_6089" x1="123.633" y1="304.968" x2="80.1101" y2="336.97" gradientUnits="userSpaceOnUse">
    <stop stop-color="#FEBBBA"/>
    <stop offset="1" stop-color="#FF928E"/>
    </linearGradient>
    <linearGradient id="paint10_linear_364_6089" x1="91.0876" y1="212.422" x2="54.4915" y2="240.424" gradientUnits="userSpaceOnUse">
    <stop stop-color="#FEBBBA"/>
    <stop offset="1" stop-color="#FF928E"/>
    </linearGradient>
    <linearGradient id="paint11_linear_364_6089" x1="65.3247" y1="190.251" x2="99.4082" y2="234.134" gradientUnits="userSpaceOnUse">
    <stop stop-color="#09005D"/>
    <stop offset="1" stop-color="#1A0F91"/>
    </linearGradient>
    <linearGradient id="paint12_linear_364_6089" x1="86.5475" y1="206.49" x2="49.9514" y2="234.491" gradientUnits="userSpaceOnUse">
    <stop stop-color="#FEBBBA"/>
    <stop offset="1" stop-color="#FF928E"/>
    </linearGradient>
    <linearGradient id="paint13_linear_364_6089" x1="365.052" y1="221.751" x2="306.685" y2="313.078" gradientUnits="userSpaceOnUse">
    <stop stop-color="#E1473D"/>
    <stop offset="1" stop-color="#E9605A"/>
    </linearGradient>
    <linearGradient id="paint14_linear_364_6089" x1="283.986" y1="229.077" x2="255.733" y2="199.065" gradientUnits="userSpaceOnUse">
    <stop stop-color="#09005D"/>
    <stop offset="1" stop-color="#1A0F91"/>
    </linearGradient>
    <linearGradient id="paint15_linear_364_6089" x1="191.532" y1="193.491" x2="275.768" y2="41.0423" gradientUnits="userSpaceOnUse">
    <stop stop-color="#09005D"/>
    <stop offset="1" stop-color="#1A0F91"/>
    </linearGradient>
    </defs>
    </svg>
    