<svg width="36" height="36" viewBox="0 0 36 36" fill="none" xmlns="http://www.w3.org/2000/svg">
    <path d="M27 33.403C27 35.573 9 35.573 9 33.403C9 29.475 10.2868 26.0574 13.0551 24.2636C13.6643 24.9805 14.4221 25.5563 15.2759 25.9512C16.1297 26.3461 17.0592 26.5506 18 26.5506C18.9407 26.5506 19.8702 26.3461 20.7241 25.9512C21.5779 25.5563 22.3357 24.9805 22.9449 24.2636C25.7131 26.0574 27 29.475 27 33.403ZM27 11.1095C28.0028 11.1095 28.983 10.8122 29.8168 10.2551C30.6506 9.69794 31.3005 8.9061 31.6842 7.97965C32.068 7.0532 32.1684 6.03376 31.9727 5.05025C31.7771 4.06674 31.2942 3.16333 30.5851 2.45425C29.8761 1.74518 28.9727 1.2623 27.9891 1.06666C27.0056 0.871029 25.9862 0.971435 25.0597 1.35518C24.1333 1.73893 23.3414 2.38878 22.7843 3.22256C22.2272 4.05634 21.9299 5.0366 21.9299 6.03938C21.9299 6.7052 22.061 7.36451 22.3158 7.97965C22.5706 8.59478 22.9441 9.15371 23.4149 9.62452C23.8857 10.0953 24.4446 10.4688 25.0597 10.7236C25.6749 10.9784 26.3342 11.1095 27 11.1095ZM31.9449 10.2627C31.3357 10.9795 30.5779 11.5553 29.7241 11.9502C28.8702 12.3451 27.9407 12.5497 27 12.5497C26.0592 12.5497 25.1297 12.3451 24.2759 11.9502C23.4221 11.5553 22.6643 10.9795 22.0551 10.2627C20.7968 11.0972 19.7975 12.2676 19.1704 13.6412C20.8322 13.9311 22.3143 14.8607 23.2986 16.2306C24.283 17.6006 24.6914 19.3017 24.4361 20.9692C29.6031 21.218 36 20.6958 36 19.4021C36 15.4741 34.7131 12.0565 31.9449 10.2627ZM9 11.1095C10.0028 11.1095 10.983 10.8122 11.8168 10.2551C12.6506 9.69794 13.3005 8.9061 13.6842 7.97965C14.068 7.0532 14.1684 6.03376 13.9727 5.05025C13.7771 4.06674 13.2942 3.16333 12.5851 2.45425C11.8761 1.74518 10.9727 1.2623 9.98914 1.06666C9.00563 0.871029 7.98619 0.971435 7.05975 1.35518C6.1333 1.73893 5.34145 2.38878 4.78433 3.22256C4.22722 4.05634 3.92986 5.0366 3.92986 6.03938C3.92986 6.7052 4.061 7.36451 4.3158 7.97965C4.57059 8.59479 4.94406 9.15372 5.41486 9.62452C5.88567 10.0953 6.4446 10.4688 7.05974 10.7236C7.67488 10.9784 8.33418 11.1095 9 11.1095ZM11.5639 20.9692C11.3087 19.3017 11.717 17.6006 12.7014 16.2306C13.6857 14.8607 15.1678 13.9311 16.8296 13.6412C16.2025 12.2676 15.2032 11.0972 13.9449 10.2627C13.3357 10.9795 12.578 11.5553 11.7241 11.9502C10.8703 12.3451 9.94077 12.5497 9.00002 12.5497C8.05928 12.5497 7.12978 12.3451 6.27594 11.9502C5.4221 11.5553 4.66432 10.9795 4.05512 10.2627C1.28686 12.0565 0 15.4741 0 19.4021C0 20.6958 6.39695 21.218 11.5639 20.9692ZM18 14.9702C16.9972 14.9702 16.017 15.2676 15.1832 15.8247C14.3494 16.3818 13.6995 17.1737 13.3158 18.1001C12.932 19.0265 12.8316 20.046 13.0273 21.0295C13.2229 22.013 13.7058 22.9164 14.4149 23.6255C15.1239 24.3346 16.0273 24.8175 17.0109 25.0131C17.9944 25.2087 19.0138 25.1083 19.9403 24.7246C20.8667 24.3408 21.6586 23.691 22.2157 22.8572C22.7728 22.0234 23.0701 21.0431 23.0701 20.0404C23.0701 18.6957 22.536 17.4061 21.5851 16.4552C20.6343 15.5044 19.3447 14.9702 18 14.9702Z" fill="#0191E7"/>
    </svg>
    