<svg width="42" height="34" viewBox="0 0 42 34" fill="none" xmlns="http://www.w3.org/2000/svg">
    <path d="M15.9409 9.212V2.832H39.3049V17.836H15.9409V16.12H15.8529C15.7209 16.12 15.5449 16.12 15.3689 16.076L13.9609 15.9V18.848C13.9609 19.376 14.4009 19.816 14.9289 19.816H40.2289C40.7569 19.816 41.1969 19.376 41.1969 18.848V1.864C41.1969 1.336 40.7569 0.895996 40.2289 0.895996H14.9289C14.4009 0.895996 13.9609 1.336 13.9609 1.864V8.464L14.4009 8.992L15.9409 9.212Z" fill="#0191E7"/>
    <path d="M18.888 27.7798H16.028C14.444 27.7798 13.168 29.0558 13.168 30.6398V32.5318C13.168 32.8838 13.432 33.1478 13.784 33.1478H21.088C21.44 33.1478 21.704 32.8838 21.704 32.5318V30.6398C21.704 29.0118 20.428 27.7798 18.888 27.7798Z" fill="#0191E7"/>
    <path d="M17.4356 26.9001C18.7722 26.9001 19.8556 25.8166 19.8556 24.4801C19.8556 23.1435 18.7722 22.0601 17.4356 22.0601C16.0991 22.0601 15.0156 23.1435 15.0156 24.4801C15.0156 25.8166 16.0991 26.9001 17.4356 26.9001Z" fill="#0191E7"/>
    <path d="M28.9641 27.7798H26.1041C24.5201 27.7798 23.2441 29.0558 23.2441 30.6398V32.5318C23.2441 32.8838 23.5081 33.1478 23.8601 33.1478H31.1641C31.5161 33.1478 31.7801 32.8838 31.7801 32.5318V30.6398C31.8241 29.0118 30.5481 27.7798 28.9641 27.7798Z" fill="#0191E7"/>
    <path d="M27.5118 26.9001C28.8483 26.9001 29.9318 25.8166 29.9318 24.4801C29.9318 23.1435 28.8483 22.0601 27.5118 22.0601C26.1753 22.0601 25.0918 23.1435 25.0918 24.4801C25.0918 25.8166 26.1753 26.9001 27.5118 26.9001Z" fill="#0191E7"/>
    <path d="M39.0403 27.7798H36.1803C34.5963 27.7798 33.3203 29.0558 33.3203 30.6398V32.5318C33.3203 32.8838 33.5843 33.1478 33.9363 33.1478H41.2403C41.5923 33.1478 41.8563 32.8838 41.8563 32.5318V30.6398C41.9003 29.0118 40.6243 27.7798 39.0403 27.7798Z" fill="#0191E7"/>
    <path d="M37.6329 26.9001C38.9694 26.9001 40.0529 25.8166 40.0529 24.4801C40.0529 23.1435 38.9694 22.0601 37.6329 22.0601C36.2964 22.0601 35.2129 23.1435 35.2129 24.4801C35.2129 25.8166 36.2964 26.9001 37.6329 26.9001Z" fill="#0191E7"/>
    <path d="M10.4401 11.588L11.2321 12.468C11.7601 13.084 12.5081 13.48 13.3001 13.568L15.6761 13.876C16.4241 13.964 17.1281 13.392 17.1281 12.556C17.1281 11.94 16.6001 11.412 15.9401 11.324L13.6081 11.016C13.4321 10.972 13.2121 10.884 13.0801 10.752L11.1001 8.50804C10.5281 7.89204 9.78014 7.54004 8.94414 7.54004H5.64414C4.76414 7.54004 3.88414 7.93604 3.31214 8.59604C1.86014 10.4 0.804144 12.38 0.188144 14.58L0.144144 14.712C-0.0318563 15.284 0.232144 15.944 0.760144 16.252C0.936144 16.34 1.15614 16.384 1.37614 16.384C1.94814 16.384 2.43214 16.032 2.60814 15.46L2.65214 15.24C3.04814 13.876 3.62014 12.6 4.45614 11.412L4.41214 15.768L3.57614 25.14C3.53214 25.756 3.88414 26.416 4.50014 26.548C5.29214 26.768 6.04014 26.196 6.08414 25.448L6.87614 16.692C6.92014 16.384 7.14014 16.164 7.44814 16.164C7.75614 16.164 7.97614 16.384 8.02014 16.692L8.81214 25.448C8.85614 26.108 9.42814 26.592 10.0881 26.592C10.2201 26.592 10.3521 26.548 10.4841 26.504C11.0561 26.328 11.4081 25.712 11.3201 25.14L10.4401 15.768V11.588ZM8.10814 13.216C8.10814 13.26 8.10814 13.26 8.10814 13.216L7.93214 13.48L7.53614 13.92C7.53614 13.92 7.49214 13.964 7.44814 13.964C7.40414 13.964 7.40414 13.964 7.36014 13.92L6.74414 13.26C6.70014 13.216 6.70014 13.172 6.70014 13.172L7.18414 9.56404H6.96414C6.87614 9.56404 6.83214 9.52004 6.83214 9.43204V8.68404C6.83214 8.59604 6.87614 8.55204 6.96414 8.55204H7.88814C7.93214 8.55204 7.97614 8.59604 7.97614 8.59604L8.02014 8.64004V9.38804C8.02014 9.43204 8.02014 9.43204 7.97614 9.47604C7.97614 9.52004 7.93214 9.52004 7.88814 9.52004H7.66814L8.15214 13.128C8.15214 13.172 8.15214 13.216 8.10814 13.216Z" fill="#0191E7"/>
    <path d="M7.40389 6.528C8.95913 6.528 10.2199 5.26723 10.2199 3.712C10.2199 2.15676 8.95913 0.895996 7.40389 0.895996C5.84866 0.895996 4.58789 2.15676 4.58789 3.712C4.58789 5.26723 5.84866 6.528 7.40389 6.528Z" fill="#0191E7"/>
    <path d="M22.0127 5.38379H21.0887C20.9127 5.38379 20.7807 5.51579 20.7807 5.69179V6.48379C19.5927 6.70379 18.7567 7.75979 18.8887 8.99179C19.0207 10.1798 20.0767 11.0598 21.3087 11.0598H21.8807C22.1007 11.0598 22.3207 11.1478 22.4527 11.3238C22.5847 11.4998 22.6727 11.7198 22.6287 11.9398C22.5847 12.3358 22.2327 12.6438 21.7927 12.6438H21.0007C20.7807 12.6438 20.5607 12.4678 20.5167 12.2478C20.4727 12.1158 20.3407 12.0278 20.2087 12.0278H19.2847C19.1967 12.0278 19.1087 12.0718 19.0647 12.1158C19.0207 12.1598 18.9767 12.2478 18.9767 12.3358C19.0647 13.3038 19.8127 14.0518 20.7367 14.1398V14.9318C20.7367 15.1078 20.8687 15.2398 21.0447 15.2398H21.9687C22.1447 15.2398 22.2767 15.1078 22.2767 14.9318V14.0958C23.2887 13.8758 24.0807 13.0398 24.1687 12.0718C24.2127 11.4118 24.0367 10.7958 23.5967 10.2678C23.1567 9.78379 22.5407 9.51979 21.8807 9.51979H21.1767C20.9567 9.51979 20.7367 9.43179 20.6047 9.25579C20.4727 9.07979 20.3847 8.85979 20.4287 8.63979C20.4727 8.24379 20.8247 7.93579 21.2647 7.93579H22.0567C22.2767 7.93579 22.4967 8.11179 22.5407 8.33179C22.5847 8.46379 22.7167 8.55179 22.8487 8.55179H23.7727C23.8607 8.55179 23.9487 8.50779 23.9927 8.46379C24.0367 8.41979 24.0807 8.33179 24.0807 8.24379C23.9927 7.27579 23.2447 6.57179 22.3207 6.43979V5.64779C22.3207 5.55979 22.1887 5.38379 22.0127 5.38379Z" fill="#0191E7"/>
    <path d="M27.0715 7.40817H35.6515C36.1795 7.40817 36.6195 6.96817 36.6195 6.44017C36.6195 5.91217 36.1795 5.47217 35.6515 5.47217H27.0715C26.5435 5.47217 26.1035 5.91217 26.1035 6.44017C26.1035 6.96817 26.5435 7.40817 27.0715 7.40817Z" fill="#0191E7"/>
    <path d="M27.0715 11.3242H35.6515C36.1795 11.3242 36.6195 10.8842 36.6195 10.3562C36.6195 9.82818 36.1795 9.38818 35.6515 9.38818H27.0715C26.5435 9.38818 26.1035 9.82818 26.1035 10.3562C26.1035 10.8842 26.5435 11.3242 27.0715 11.3242Z" fill="#0191E7"/>
    <path d="M27.0715 15.2841H35.6515C36.1795 15.2841 36.6195 14.8441 36.6195 14.3161C36.6195 13.7881 36.1795 13.3481 35.6515 13.3481H27.0715C26.5435 13.3481 26.1035 13.7881 26.1035 14.3161C26.1035 14.8441 26.5435 15.2841 27.0715 15.2841Z" fill="#0191E7"/>
    </svg>
    