<svg width="38" height="36" viewBox="0 0 38 36" fill="none" xmlns="http://www.w3.org/2000/svg">
    <path d="M25.1186 26.941V35.7057H0.765625V26.941C0.765625 24.9998 2.05974 23.3528 3.9421 22.941L8.53033 21.8822L10.8244 26.4116L11.8833 23.3528L10.8833 21.2939H15.0597L14.0597 23.3528L15.1186 26.4116L17.4127 21.8234L22.0009 22.8822C23.8244 23.3528 25.1186 25.0587 25.1186 26.941Z" fill="#0191E7"/>
    <path d="M12.943 18.588C15.9318 18.588 18.3548 15.5857 18.3548 11.8822C18.3548 8.1786 15.9318 5.17627 12.943 5.17627C9.95418 5.17627 7.53125 8.1786 7.53125 11.8822C7.53125 15.5857 9.95418 18.588 12.943 18.588Z" fill="#0191E7"/>
    <path d="M36.0006 0.293945H22.5888C21.8829 0.293945 21.3535 0.882181 21.3535 1.52924V14.1763L25.3535 11.7057H35.9418C36.6476 11.7057 37.177 11.1175 37.177 10.4704V1.52924C37.2359 0.823357 36.6476 0.293945 36.0006 0.293945ZM25.5888 2.64689H33.0006C33.3535 2.64689 33.5888 2.88218 33.5888 3.23512C33.5888 3.58806 33.3535 3.82336 33.0006 3.82336H25.5888C25.2359 3.82336 25.0006 3.58806 25.0006 3.23512C25.0006 2.88218 25.2359 2.64689 25.5888 2.64689ZM33.0006 9.29395H25.5888C25.2359 9.29395 25.0006 9.05865 25.0006 8.70571C25.0006 8.35277 25.2359 8.11748 25.5888 8.11748H33.0006C33.3535 8.11748 33.5888 8.35277 33.5888 8.70571C33.5888 9.05865 33.2947 9.29395 33.0006 9.29395ZM34.9418 6.52924H23.6476C23.2947 6.52924 23.0594 6.29395 23.0594 5.941C23.0594 5.58806 23.2947 5.35277 23.6476 5.35277H34.9418C35.2947 5.35277 35.53 5.58806 35.53 5.941C35.53 6.29395 35.2359 6.52924 34.9418 6.52924Z" fill="#0191E7"/>
    </svg>
    