<svg width="40" height="40" viewBox="0 0 40 40" fill="none" xmlns="http://www.w3.org/2000/svg">
    <g clip-path="url(#clip0_364_7657)">
    <path d="M16.1872 21.9378C13.0628 21.9378 10.4812 18.551 10.0664 14.1538H9.2168C9.6888 19.1618 12.6292 23.0202 16.1872 23.0202C19.7456 23.0202 22.686 19.1618 23.1576 14.1538H22.3084C21.8932 18.551 19.312 21.9378 16.1872 21.9378Z" fill="#0191E7"/>
    <path d="M28.2584 31.8697L28.2412 31.9561L28.1988 32.1753L28.0412 32.3337L27.9768 32.3985L27.19 33.1833C26.918 33.4489 26.5596 33.5949 26.1804 33.5949C25.7988 33.5949 25.438 33.4465 25.158 33.1713L23.454 31.4613C23.1808 31.1881 23.0312 30.8249 23.0328 30.4401C23.0336 30.0533 23.1852 29.6909 23.458 29.4221L24.2364 28.6469L24.2984 28.5849L24.4592 28.4241L24.6832 28.3825L24.766 28.3673L24.8592 28.3493L27.2968 25.9233C26.2408 25.8809 25.2536 25.4545 24.5008 24.7033C23.8464 24.0481 23.432 23.2073 23.3092 22.3025C22.9832 22.2201 22.6524 22.1489 22.314 22.1021C22.298 22.0997 22.2812 22.0985 22.2648 22.0953C22.1348 22.0789 22.0036 22.0633 21.8716 22.0513C21.8712 22.0645 21.8672 22.0781 21.8668 22.0917C21.8652 22.1305 21.8584 22.1673 21.8536 22.2069C21.8292 22.4261 21.764 22.6389 21.662 22.8437C20.9736 24.5761 18.7476 27.8589 17.4368 29.7217L17.1668 25.8501C17.5496 25.6537 17.8788 25.3293 18.09 24.9517C18.2416 24.6805 18.3348 24.3849 18.3348 24.0833C18.3348 24.0833 17.3568 24.5169 16.3584 24.5169C16.3012 24.5169 16.2444 24.5145 16.1876 24.5117C16.1304 24.5145 16.074 24.5169 16.0168 24.5169C15.0184 24.5169 14.0404 24.0833 14.0404 24.0833C14.0404 24.3849 14.1332 24.6805 14.2852 24.9517C14.4964 25.3293 14.8256 25.6537 15.2084 25.8501L14.9384 29.7217C13.6272 27.8589 11.4012 24.5761 10.7132 22.8437C10.6104 22.6389 10.5452 22.4261 10.5208 22.2069C10.516 22.1673 10.5092 22.1305 10.5076 22.0917C10.5072 22.0785 10.5036 22.0649 10.5032 22.0513C10.3708 22.0633 10.2396 22.0789 10.1096 22.0953C10.0928 22.0985 10.0764 22.0997 10.0604 22.1021C5.5052 22.7349 2 26.6453 2 31.3745C2 36.5465 6.1932 36.5341 11.3648 36.5341H16.1868H21.0092C26.1808 36.5341 30.3736 36.5461 30.3736 31.3745C30.3736 30.8445 30.3236 30.3269 30.2388 29.8209L28.2756 31.7761L28.2584 31.8697Z" fill="#0191E7"/>
    <path d="M8.88312 13.1118H9.12072H10.4011H10.8935H21.4783H21.9707H23.2511H23.4879C24.0571 13.1118 24.5179 12.6506 24.5179 12.0822C24.5179 11.5134 24.0571 11.0518 23.4879 11.0518H23.2075C23.2075 8.31502 21.6403 5.94582 19.3559 4.78702L19.1467 5.97382L18.7739 8.08622C18.7279 8.34742 18.5011 8.53142 18.2451 8.53142C18.2139 8.53142 18.1823 8.52862 18.1507 8.52302C17.8575 8.47142 17.6623 8.19262 17.7143 7.89942L18.1243 5.57142L18.3783 4.13022C18.1287 3.73102 17.6867 3.46582 17.1815 3.46582H15.1887C14.6839 3.46582 14.2423 3.73142 13.9923 4.13022L14.2463 5.57142L14.6567 7.89942C14.7083 8.19262 14.5131 8.47142 14.2199 8.52302C14.1883 8.52902 14.1571 8.53142 14.1263 8.53142C13.8695 8.53142 13.6423 8.34782 13.5963 8.08622L13.2239 5.97422L13.0147 4.78782C10.7299 5.94622 9.16352 8.31502 9.16352 11.0518H8.88312C8.31432 11.0518 7.85352 11.5134 7.85352 12.0822C7.85392 12.6506 8.31472 13.1118 8.88312 13.1118Z" fill="#0191E7"/>
    <path d="M28.6916 26.0225L28.1664 26.1509L28.0896 26.1701L28.0328 26.2265L25.218 29.0281L24.9044 29.0881L24.8176 29.1041L24.756 29.1661L23.976 29.9425C23.842 30.0749 23.7676 30.2525 23.7676 30.4413C23.7668 30.6305 23.84 30.8077 23.9736 30.9409L25.6788 32.6521C25.8152 32.7861 25.9924 32.8597 26.1804 32.8597C26.3672 32.8597 26.5432 32.7873 26.6772 32.6569L27.458 31.8777L27.52 31.8153L27.5368 31.7289L27.5972 31.4149L30.41 28.6133L30.4668 28.5569L30.486 28.4797L30.6184 27.9493L28.6916 26.0225Z" fill="#0191E7"/>
    <path d="M32.4474 20.5434L32.6486 20.7454L32.8518 20.545L33.0202 20.379C33.2626 20.7042 33.6042 21.327 33.1262 21.8018C32.9586 21.969 32.4606 22.463 31.8646 23.0546L33.5998 24.7906L34.8318 23.557C34.9366 23.4926 35.1914 23.3642 35.405 23.3642C35.5322 23.3642 35.5938 23.4102 35.6282 23.4454C36.1974 24.0146 35.7306 24.8234 35.7262 24.8318L35.6138 25.023L35.7702 25.1798L36.1754 25.5862L36.3582 25.7698L36.559 25.6062C36.6162 25.5598 37.9578 24.4526 37.9982 23.023C38.0366 21.6742 37.6098 21.1114 37.561 21.0514L37.551 21.0398L37.541 21.0298L35.9794 19.4618L35.929 19.4118L35.8614 19.3902L34.6838 19.0266L34.5314 18.8734L34.7606 18.6466L34.9646 18.4446L34.7618 18.241L34.1242 17.5998C34.0134 17.489 33.8666 17.4282 33.711 17.4282C33.5562 17.4282 33.4106 17.4878 33.3018 17.597L31.8114 19.0818C31.7018 19.191 31.6406 19.3378 31.6406 19.4934C31.6406 19.6486 31.7006 19.7942 31.8106 19.9038L32.4474 20.5434Z" fill="#0191E7"/>
    <path d="M37.339 29.5669L30.717 22.9453C31.1786 21.7137 30.9158 20.2709 29.9234 19.2801C29.2826 18.6381 28.453 18.3013 27.6134 18.2681L26.9638 18.9173L28.5782 20.5321L28.5778 21.8737L27.6134 22.8357H26.2746L24.6594 21.2217L24.0098 21.8713C24.0422 22.7121 24.3794 23.5401 25.0214 24.1829C25.6978 24.8581 26.5842 25.1957 27.4694 25.1957C27.8818 25.1957 28.2946 25.1221 28.6858 24.9757L35.3078 31.5985C35.5874 31.8793 35.9546 32.0197 36.3214 32.0197C36.6898 32.0197 37.0582 31.8789 37.339 31.5985C37.901 31.0369 37.8986 30.1265 37.339 29.5669ZM35.8334 30.0929C35.969 29.9561 36.1466 29.8881 36.325 29.8881C36.5018 29.8881 36.679 29.9553 36.815 30.0905C37.0846 30.3625 37.0838 30.8025 36.815 31.0729C36.6786 31.2085 36.5014 31.2757 36.3238 31.2757C36.1462 31.2757 35.9686 31.2085 35.8322 31.0725C35.5622 30.8029 35.5614 30.3633 35.8334 30.0929Z" fill="#0191E7"/>
    </g>
    <defs>
    <clipPath id="clip0_364_7657">
    <rect width="40" height="40" fill="white"/>
    </clipPath>
    </defs>
    </svg>
    