<svg width="30" height="30" viewBox="0 0 30 30" fill="none" xmlns="http://www.w3.org/2000/svg">
    <path d="M28.7091 6.78033C29.3091 6.18033 29.3091 5.19034 28.7091 4.56034L25.4391 1.29033C24.8391 0.690332 23.8491 0.690332 23.2191 1.29033L21.8691 2.64033L27.3591 8.13033L28.7091 6.78033Z" fill="#0191E7"/>
    <path d="M29.0695 23.0102L20.7595 14.7002L26.5795 8.88017L21.0895 3.39017L15.2695 9.21018L6.95946 0.900176C6.74946 0.690176 6.38946 0.690176 6.14946 0.900176L0.869464 6.18017C0.749464 6.30017 0.689453 6.42018 0.689453 6.57018C0.689453 6.72018 0.749464 6.87018 0.869464 6.96018L9.17945 15.2702L2.57945 21.8702C2.39945 22.0502 2.27946 22.2602 2.24946 22.5002L1.16946 27.7502C1.10946 27.9902 1.16945 28.2302 1.28945 28.4102C1.46945 28.6802 1.82945 28.8302 2.12945 28.7702L7.40946 27.6902C7.64946 27.6302 7.88945 27.5102 8.03945 27.3602L14.6395 20.7602L22.9495 29.0702C23.0695 29.1902 23.2195 29.2502 23.3395 29.2502C23.4595 29.2502 23.6395 29.1902 23.7295 29.0702L29.0095 23.7902C29.1295 23.6702 29.1895 23.5502 29.1895 23.4002C29.2495 23.2502 29.1895 23.1002 29.0695 23.0102ZM7.28945 26.6702L3.95946 27.3602L2.66946 26.0702L3.35946 22.7402L3.38945 22.7102L4.52945 22.9202L4.49946 23.9102C4.49946 24.0002 4.55946 24.0602 4.64946 24.0602L6.05946 24.0002L5.99946 25.4102C5.99946 25.5002 6.05946 25.5602 6.14946 25.5602L7.13945 25.5302L7.28945 26.6702ZM2.12945 6.60018L6.59946 2.13017L8.00946 3.54017L5.78945 5.76018C5.57945 5.97018 5.57945 6.33018 5.78945 6.57018C5.90945 6.69018 6.05945 6.75018 6.17945 6.75018C6.29945 6.75018 6.47946 6.69018 6.56946 6.57018L8.78945 4.35018L10.1995 5.76018L7.97945 7.98017C7.76945 8.19017 7.76945 8.55017 7.97945 8.79017C8.09945 8.91017 8.24946 8.97018 8.36946 8.97018C8.48946 8.97018 8.66946 8.91017 8.75946 8.79017L10.9795 6.57018L12.3895 7.98017L10.1695 10.2002C9.95946 10.4102 9.95946 10.7702 10.1695 11.0102C10.2895 11.1302 10.4395 11.1902 10.5595 11.1902C10.7095 11.1902 10.8595 11.1302 10.9495 11.0102L13.1695 8.79017L14.4295 10.0502L9.95946 14.5202L2.12945 6.60018ZM23.3995 27.8702L15.5095 19.9802L19.9795 15.5102L21.2395 16.7702L19.0195 18.9902C18.8095 19.2002 18.8095 19.5602 19.0195 19.8002C19.1395 19.9202 19.2895 19.9802 19.4095 19.9802C19.5295 19.9802 19.7095 19.9202 19.7995 19.8002L22.0195 17.5802L23.4295 18.9902L21.2095 21.2102C20.9995 21.4202 20.9995 21.7802 21.2095 22.0202C21.3295 22.1402 21.4795 22.2002 21.5995 22.2002C21.7195 22.2002 21.8995 22.1402 21.9895 22.0202L24.2095 19.8002L25.6195 21.2102L23.3995 23.4302C23.1895 23.6402 23.1895 24.0002 23.3995 24.2402C23.5195 24.3602 23.6695 24.4202 23.7895 24.4202C23.9095 24.4202 24.0895 24.3602 24.1795 24.2402L26.3995 22.0202L27.8095 23.4302L23.3995 27.8702Z" fill="#0191E7"/>
    </svg>
    