<svg width="38" height="38" viewBox="0 0 38 38" fill="none" xmlns="http://www.w3.org/2000/svg">
    <path d="M27.2399 23.04C27.2399 30.24 20.9999 36 13.6799 35.24C8.03988 34.68 3.43988 30.12 2.75988 24.52C2.11988 19 5.15988 14 9.91988 11.84L10.5599 13.88C10.7199 14.4 11.3999 14.56 11.7599 14.12L15.9999 9.24003C16.3199 8.84003 16.1599 8.24003 15.6399 8.12003L9.39988 6.48003C8.87988 6.36003 8.39988 6.84003 8.55988 7.36003L9.15988 9.28003C3.15988 11.8 -0.720119 18.08 0.119881 24.96C0.959881 31.8 6.51988 37.24 13.3999 37.92C22.3199 38.84 29.9199 31.8 29.9199 23.04V22.12C29.9199 21.92 29.7599 21.72 29.5199 21.72H27.6399C27.4399 21.72 27.2399 21.88 27.2399 22.12V23.04Z" fill="#0191E7"/>
    <path d="M15.719 15.04H14.199C13.919 15.04 13.679 15.24 13.679 15.52L13.479 17.4C12.999 17.52 12.519 17.72 12.039 18L10.559 16.8C10.359 16.64 10.039 16.64 9.83898 16.84L8.75898 17.92C8.55898 18.12 8.55898 18.44 8.71898 18.64L9.91898 20.12C9.67898 20.56 9.47898 21.04 9.31898 21.56L7.43898 21.76C7.15898 21.8 6.95898 22 6.95898 22.28V23.8C6.95898 24.08 7.15898 24.32 7.43898 24.32L9.31898 24.52C9.43898 25.04 9.63898 25.52 9.91898 25.96L8.71898 27.44C8.55898 27.64 8.55898 27.96 8.75898 28.16L9.83898 29.24C10.039 29.44 10.359 29.44 10.559 29.28L12.039 28.08C12.479 28.32 12.959 28.52 13.479 28.68L13.679 30.56C13.719 30.84 13.919 31.04 14.199 31.04H15.719C15.999 31.04 16.239 30.84 16.239 30.56L16.439 28.68C16.919 28.56 17.399 28.36 17.879 28.08L19.359 29.28C19.559 29.44 19.879 29.44 20.079 29.24L21.159 28.16C21.359 27.96 21.359 27.64 21.199 27.44L19.999 25.96C20.239 25.52 20.439 25.04 20.599 24.52L22.479 24.32C22.759 24.28 22.959 24.08 22.959 23.8V22.28C22.959 22 22.759 21.76 22.479 21.76L20.599 21.56C20.479 21.04 20.279 20.56 19.999 20.12L21.199 18.64C21.359 18.44 21.359 18.12 21.159 17.92L20.079 16.84C19.879 16.64 19.559 16.64 19.359 16.8L17.879 18C17.439 17.72 16.959 17.56 16.439 17.4L16.239 15.52C16.239 15.24 15.999 15.04 15.719 15.04ZM17.759 23.04C17.759 24.56 16.519 25.8 14.959 25.8C13.439 25.8 12.159 24.56 12.159 23.04C12.159 21.52 13.399 20.24 14.959 20.24C16.479 20.24 17.759 21.52 17.759 23.04Z" fill="#0191E7"/>
    <path d="M37.6003 7.88008L35.2003 7.64008C35.0403 7.04008 34.8003 6.48008 34.5203 5.96008L36.0403 4.12008C36.2003 3.92008 36.1603 3.68008 36.0003 3.52008L34.5203 2.04008C34.3603 1.88008 34.0803 1.88008 33.9203 2.00008L32.0803 3.52008C31.5603 3.20008 31.0003 3.00008 30.4003 2.84008L30.1603 0.480078C30.1203 0.240078 29.9203 0.0800781 29.7203 0.0800781H27.6003C27.3603 0.0800781 27.1603 0.240078 27.1603 0.480078L26.9203 2.84008C26.3203 3.00008 25.7603 3.24008 25.2403 3.52008L23.4003 2.00008C23.2003 1.84008 22.9603 1.88008 22.8003 2.04008L21.3203 3.52008C21.1603 3.68008 21.1603 3.96008 21.2803 4.12008L22.8003 5.96008C22.5203 6.48008 22.2803 7.04008 22.1203 7.64008L19.7203 7.88008C19.4803 7.92008 19.3203 8.12008 19.3203 8.32008V10.4001C19.3203 10.6401 19.4803 10.8401 19.7203 10.8401L22.1203 11.0801C22.2803 11.6801 22.5203 12.2401 22.8003 12.7601L21.2803 14.6401C21.1203 14.8401 21.1603 15.0801 21.3203 15.2401L22.8003 16.7201C22.9603 16.8801 23.2403 16.8801 23.4003 16.7601L25.2403 15.2801C25.7603 15.5601 26.3203 15.8001 26.9203 15.9601L27.1603 18.3201C27.2003 18.5601 27.4003 18.7201 27.6003 18.7201H29.7203C29.9603 18.7201 30.1603 18.5601 30.1603 18.3201L30.4003 15.9601C31.0003 15.8001 31.5603 15.5601 32.0803 15.2801L33.9203 16.7601C34.1203 16.9201 34.3603 16.8801 34.5203 16.7201L36.0003 15.2401C36.1603 15.0801 36.2003 14.8001 36.0403 14.6401L34.5203 12.7601C34.8003 12.2401 35.0403 11.6801 35.2003 11.0801L37.6003 10.8401C37.8403 10.8001 38.0003 10.6001 38.0003 10.4001V8.32008C38.0003 8.08008 37.8403 7.92008 37.6003 7.88008ZM28.6003 12.6401C26.8003 12.6401 25.3203 11.2001 25.3203 9.40008C25.3203 7.60008 26.8003 6.12008 28.6003 6.12008C30.4003 6.12008 31.8803 7.60008 31.8803 9.40008C31.8803 11.2001 30.4403 12.6401 28.6003 12.6401Z" fill="#0191E7"/>
    </svg>
    