<svg width="38" height="38" viewBox="0 0 38 38" fill="none" xmlns="http://www.w3.org/2000/svg">
    <g clip-path="url(#clip0_364_7609)">
    <path d="M28.2431 7.50752C27.23 5.75225 25.2373 4.91728 23.3558 5.2958C22.7435 3.47744 21.0216 2.16748 18.9955 2.16748C16.9693 2.16748 15.2511 3.47744 14.6351 5.2958C12.7537 4.91728 10.7609 5.75225 9.7478 7.50752C8.73472 9.26279 9.00933 11.404 10.2785 12.8476C9.00933 14.2874 8.73472 16.4323 9.7478 18.1876C10.7609 19.9429 12.7537 20.7778 14.6351 20.3993C15.2474 22.2177 16.9693 23.5276 18.9955 23.5276C21.0216 23.5276 22.7398 22.2177 23.3558 20.3993C25.2373 20.7778 27.23 19.9429 28.2431 18.1876C29.2562 16.4323 28.9816 14.2874 27.7124 12.8476C28.9816 11.4077 29.2562 9.26279 28.2431 7.50752ZM18.9955 17.4454C16.4572 17.4454 14.3976 15.3858 14.3976 12.8476C14.3976 10.3093 16.4572 8.24971 18.9955 8.24971C21.5337 8.24971 23.5933 10.3093 23.5933 12.8476C23.5933 15.3858 21.5374 17.4454 18.9955 17.4454Z" fill="#0191E7"/>
    <path d="M28.5667 7.32192C27.4868 5.47759 25.3493 4.5313 23.2601 4.9395C23.4122 5.02485 23.5644 5.11391 23.7165 5.19927C23.1859 3.65552 21.9353 2.43462 20.3618 1.98559C18.7661 1.53286 17.0331 1.92251 15.7677 2.99126C15.0775 3.57387 14.5728 4.34575 14.2833 5.19555C14.4355 5.1102 14.5876 5.02114 14.7398 4.93579C13.1886 4.63149 11.5743 5.05825 10.398 6.11958C9.13996 7.25141 8.56848 8.98071 8.83938 10.6395C8.98781 11.5561 9.41457 12.4059 10.0232 13.1073C10.0232 12.9329 10.0232 12.7584 10.0232 12.584C8.92102 13.8495 8.49426 15.6084 8.95442 17.2338C9.39973 18.811 10.6169 20.0801 12.1644 20.5997C12.9956 20.8817 13.8863 20.9225 14.7435 20.7518C14.5913 20.6665 14.4392 20.5774 14.287 20.492C14.8177 22.0321 16.0683 23.2567 17.6417 23.7057C19.2374 24.1584 20.9741 23.7688 22.2359 22.7C22.9261 22.1174 23.4308 21.3456 23.7202 20.4957C23.5681 20.5811 23.4159 20.6702 23.2638 20.7555C24.815 21.0598 26.4292 20.6293 27.6056 19.5717C28.8636 18.4399 29.4351 16.7106 29.1642 15.0518C29.0157 14.1352 28.589 13.2854 27.9804 12.584C27.9804 12.7584 27.9804 12.9329 27.9804 13.1073C29.3757 11.5004 29.6206 9.17739 28.5667 7.32192C28.3292 6.9063 27.6872 7.2811 27.9247 7.69673C28.8079 9.25161 28.6298 11.2332 27.4534 12.5877C27.3161 12.7473 27.3124 12.9514 27.4534 13.111C28.3886 14.1872 28.7226 15.6975 28.3255 17.0631C27.947 18.3694 26.9302 19.4456 25.6388 19.8834C24.9374 20.1209 24.1841 20.1803 23.4568 20.0356C23.2489 19.9948 23.0708 20.0913 23.0003 20.2954C22.555 21.5905 21.4825 22.6147 20.1652 22.9895C18.8366 23.368 17.3523 23.0711 16.2947 22.1731C15.7046 21.6721 15.2519 21.0264 14.9995 20.2954C14.929 20.095 14.7509 19.9948 14.5431 20.0356C13.2554 20.2879 11.8749 19.9094 10.9027 19.0225C9.8636 18.0762 9.33293 16.6364 9.55559 15.2448C9.68176 14.4543 10.0232 13.7084 10.5464 13.1073C10.6837 12.9477 10.6874 12.7436 10.5464 12.584C9.61125 11.5079 9.27727 9.99751 9.67434 8.63188C10.0529 7.32563 11.0697 6.24575 12.3611 5.81157C13.0624 5.57407 13.8157 5.51469 14.5431 5.65942C14.7509 5.70024 14.929 5.60376 14.9995 5.39966C15.4448 4.10454 16.5173 3.08032 17.8347 2.70552C19.1632 2.327 20.6476 2.62387 21.7052 3.52192C22.2952 4.0229 22.748 4.6686 23.0003 5.39966C23.0708 5.60005 23.2489 5.70024 23.4568 5.65942C25.2195 5.3143 27.023 6.15669 27.9247 7.70044C28.1659 8.10864 28.8079 7.73384 28.5667 7.32192Z" fill="#0191E7"/>
    <path d="M18.9963 17.0741C17.2521 17.0629 15.623 15.9645 15.0256 14.3094C14.417 12.6209 14.9365 10.7284 16.3096 9.58169C17.6678 8.44243 19.6754 8.31997 21.1857 9.23286C22.6849 10.1383 23.4939 11.9456 23.1451 13.6674C22.7963 15.4041 21.3861 16.7512 19.6383 17.0332C19.4267 17.0629 19.2115 17.0741 18.9963 17.0741C18.5176 17.0778 18.5176 17.82 18.9963 17.8163C21.0818 17.8051 22.9558 16.484 23.6721 14.5284C24.3808 12.595 23.7611 10.3276 22.1691 9.02133C20.5549 7.69653 18.2281 7.49985 16.432 8.58715C14.6433 9.66704 13.723 11.7897 14.1275 13.8344C14.5172 15.8198 16.1834 17.434 18.1836 17.7457C18.4545 17.7866 18.7254 17.8125 19 17.8163C19.475 17.82 19.475 17.0778 18.9963 17.0741Z" fill="#0191E7"/>
    <path d="M31.7621 22.8035C31.7621 22.8221 31.7621 22.8406 31.7621 22.8592C31.7621 22.9705 31.7658 23.0781 31.7621 23.1895C31.5877 30.192 25.8654 35.8215 18.8146 35.8289V35.8178C18.8146 35.8141 18.8109 35.8141 18.8109 35.8103C11.942 35.61 6.41641 30.0621 6.24199 23.1857C6.23828 23.0781 6.23828 22.9668 6.23828 22.8555C6.23828 22.8369 6.23828 22.8184 6.23828 22.7998C12.6285 22.8072 17.9352 27.4348 19.0002 33.5244C20.0615 27.4385 25.3682 22.8109 31.7621 22.8035Z" fill="#0191E7"/>
    <path d="M31.391 22.8035C31.391 25.4457 30.5969 28.01 29.068 30.166C27.6133 32.2182 25.524 33.8213 23.1602 34.6859C21.7686 35.1943 20.3027 35.4541 18.8184 35.4578C18.9408 35.5803 19.067 35.7064 19.1895 35.8289C19.1895 35.3354 18.5215 35.4318 18.1875 35.4059C17.8795 35.3836 17.5678 35.3465 17.2635 35.2982C16.6066 35.1943 15.9535 35.0385 15.3227 34.8344C14.1055 34.441 12.9514 33.8547 11.9086 33.1162C9.86387 31.6652 8.25703 29.5797 7.39238 27.227C6.86914 25.802 6.62422 24.3176 6.60938 22.7998C6.48691 22.9223 6.36074 23.0484 6.23828 23.1709C8.57246 23.1783 10.8732 23.8277 12.8586 25.0561C14.7734 26.2436 16.3506 27.9432 17.3971 29.9396C18.002 31.0937 18.4176 32.3369 18.6439 33.6209C18.707 33.9734 19.2971 33.9771 19.3602 33.6209C19.7609 31.3646 20.7592 29.2346 22.2658 27.5053C23.7539 25.802 25.6873 24.5031 27.8359 23.798C29.1051 23.3824 30.4262 23.1746 31.7621 23.1709C32.2408 23.1709 32.2408 22.4287 31.7621 22.4287C29.3092 22.4361 26.8785 23.1152 24.7893 24.4029C22.7594 25.6535 21.0709 27.4533 19.965 29.5648C19.3305 30.7746 18.8814 32.0771 18.6439 33.4242C18.8814 33.4242 19.1227 33.4242 19.3602 33.4242C18.9408 31.0492 17.8609 28.8189 16.2764 27.0006C14.7029 25.1934 12.6396 23.8277 10.3611 23.0855C9.03262 22.6514 7.63359 22.4361 6.23828 22.4324C6.03789 22.4324 5.86719 22.6031 5.86719 22.8035C5.88945 25.5311 6.67617 28.1992 8.23848 30.4443C9.75254 32.6189 11.8826 34.3037 14.3467 35.276C15.768 35.8363 17.2857 36.1369 18.8109 36.1852C18.7219 36.148 18.6365 36.1109 18.5475 36.0775C18.5512 36.0812 18.5512 36.0813 18.5549 36.085C18.5178 35.9959 18.4807 35.9105 18.4473 35.8215C18.4473 35.8252 18.4473 35.8289 18.4473 35.8326C18.4473 36.033 18.618 36.2037 18.8184 36.2037C21.5682 36.1963 24.2883 35.3428 26.526 33.7396C28.7117 32.1736 30.3928 29.9805 31.3242 27.457C31.8772 25.9652 32.1332 24.3881 32.1332 22.8035C32.1332 22.3248 31.391 22.3248 31.391 22.8035Z" fill="#0191E7"/>
    </g>
    <defs>
    <clipPath id="clip0_364_7609">
    <rect width="38" height="38" fill="white"/>
    </clipPath>
    </defs>
    </svg>
    