<svg width="308" height="322" viewBox="0 0 308 322" fill="none" xmlns="http://www.w3.org/2000/svg">
    <path fill-rule="evenodd" clip-rule="evenodd" d="M96.4364 26.2913C96.2844 26.4046 95.4118 26.9252 94.4973 27.4484C91.3867 29.2277 87.519 31.7825 85.5847 33.3355C85.0379 33.7742 84.3098 34.3087 83.9665 34.5231C83.623 34.7372 83.3749 34.9854 83.4147 35.0741C83.4546 35.163 83.3086 35.3159 83.09 35.4139C82.8715 35.5119 82.6725 35.6992 82.6477 35.8302C82.6229 35.9612 82.3833 36.1668 82.1152 36.287C81.8471 36.4073 81.6074 36.6128 81.5826 36.7438C81.5578 36.8748 81.3182 37.0804 81.0501 37.2006C80.782 37.3208 80.5423 37.5264 80.5175 37.6574C80.4927 37.7884 80.2938 37.9757 80.0752 38.0737C79.8567 38.1717 79.7146 38.3335 79.7594 38.4333C79.8041 38.5331 79.5645 38.7387 79.2268 38.8901C78.8892 39.0415 78.6495 39.2471 78.6943 39.3469C78.739 39.4467 78.5415 39.6333 78.2554 39.7617C77.9694 39.89 77.6108 40.2469 77.4588 40.5548C77.3067 40.8628 77.0154 41.1896 76.8114 41.2811C76.6076 41.3725 76.4774 41.5289 76.5222 41.6287C76.5669 41.7285 76.4194 41.8928 76.1943 41.9938C75.9692 42.0947 75.8175 42.2497 75.8572 42.3383C75.897 42.427 75.4104 43.0072 74.7763 43.6277C74.1422 44.2484 73.4451 45.0135 73.2272 45.3278C73.0093 45.6422 72.7301 45.9448 72.6069 46.0001C72.4835 46.0554 72.4135 46.1694 72.4512 46.2536C72.4889 46.3376 72.17 46.7978 71.7423 47.2762C71.3145 47.7545 70.8804 48.3569 70.7776 48.6149C70.6746 48.8729 70.4871 49.1302 70.3609 49.1869C70.2346 49.2435 70.0219 49.4801 69.888 49.7126C69.7543 49.9451 69.0271 51.1012 68.2722 52.2817C66.9926 54.2823 65.4369 57.2079 64.6983 59.0024C64.5237 59.4266 64.0987 60.4393 63.754 61.2532C63.4094 62.067 63.1639 62.8146 63.2085 62.9142C63.2532 63.0139 63.1836 63.3016 63.0539 63.5538C62.6925 64.2552 61.8862 67.0908 61.9851 67.3112C62.0333 67.4187 61.9918 67.5427 61.8928 67.5872C61.7939 67.6315 61.7083 67.9641 61.7028 68.3262C61.6973 68.6882 61.623 69.0158 61.5377 69.0541C61.4524 69.0924 61.378 69.4199 61.3725 69.782C61.367 70.1441 61.2815 70.4767 61.1826 70.521C61.0836 70.5654 61.076 70.765 61.1655 70.9646C61.255 71.1642 61.2362 71.3688 61.1236 71.4193C61.0111 71.4697 60.9922 71.6743 61.0817 71.8739C61.1712 72.0735 61.1524 72.2781 61.0398 72.3286C60.9273 72.3791 60.9084 72.5837 60.9979 72.7833C61.0875 72.9829 61.0686 73.1875 60.9561 73.238C60.8435 73.2884 60.8225 73.4882 60.9094 73.6819C60.9963 73.8757 60.9979 74.1259 60.913 74.238C60.8281 74.3502 60.8297 74.6004 60.9166 74.7942C61.0035 74.9879 60.999 75.1802 60.9069 75.2215C60.8146 75.2629 60.797 75.7612 60.8675 76.3289C60.938 76.8967 60.9378 77.3872 60.8667 77.419C60.7959 77.4508 60.8077 77.9605 60.8933 78.5513C60.9786 79.1423 61.0851 80.198 61.1298 80.8971C61.1745 81.5963 61.2987 82.5704 61.4055 83.0619C61.9542 85.5848 62.109 86.222 62.407 87.1896C62.5855 87.7689 62.7165 88.4459 62.6981 88.6941C62.6568 89.2553 66.3617 97.1293 67.4401 98.7719C67.8656 99.4202 68.4939 100.413 68.8363 100.979C69.1787 101.545 69.6662 102.258 69.9196 102.564C70.1729 102.87 70.6924 103.519 71.0738 104.008C72.4267 105.739 75.8489 109.302 76.2923 109.441C76.3967 109.474 76.5493 109.65 76.6314 109.833C76.7134 110.016 76.8727 110.125 76.9852 110.074C77.0978 110.024 77.2437 110.102 77.3095 110.249C77.3752 110.396 77.7437 110.724 78.1281 110.978C78.5126 111.233 78.881 111.561 78.9467 111.707C79.0126 111.854 79.1584 111.933 79.271 111.882C79.3836 111.832 79.5459 111.947 79.6317 112.138C79.7174 112.33 79.8687 112.482 79.9682 112.478C80.0676 112.473 80.7828 112.921 81.5575 113.472C82.3323 114.024 83.3598 114.691 83.8407 114.955C84.3216 115.218 85.1021 115.701 85.5752 116.028C86.0486 116.354 86.6681 116.708 86.9519 116.814C87.2358 116.919 87.4995 117.076 87.5377 117.161C87.5759 117.246 87.87 117.408 88.1911 117.521C88.5123 117.635 88.8231 117.834 88.8819 117.966C88.9406 118.096 89.0807 118.162 89.1932 118.112C89.3058 118.061 89.4439 118.122 89.4998 118.247C89.556 118.371 89.9359 118.606 90.3444 118.769C90.7527 118.932 91.5743 119.348 92.1697 119.694C92.7653 120.04 93.5448 120.417 93.9019 120.532C94.2591 120.647 94.5785 120.798 94.6118 120.867C94.6452 120.937 95.038 121.135 95.4849 121.307C95.9318 121.479 96.6475 121.784 97.0755 121.985C97.5035 122.185 98.095 122.449 98.3903 122.57C98.6856 122.691 99.2994 122.95 99.7542 123.145C100.209 123.34 100.847 123.593 101.172 123.708C101.497 123.823 102.114 124.102 102.545 124.329C102.975 124.555 103.552 124.798 103.827 124.869C104.101 124.94 104.351 125.053 104.381 125.121C104.412 125.188 104.758 125.344 105.151 125.468C105.545 125.591 105.898 125.761 105.936 125.846C105.974 125.931 106.37 126.135 106.815 126.301C107.262 126.466 108.204 126.902 108.909 127.27C109.615 127.637 110.328 127.985 110.493 128.043C110.659 128.101 111.145 128.334 111.574 128.561C112.003 128.788 112.579 129.032 112.854 129.102C113.128 129.173 113.396 129.327 113.449 129.445C113.502 129.562 113.835 129.75 114.189 129.861C114.543 129.973 115.648 130.527 116.645 131.093C117.641 131.659 118.612 132.175 118.802 132.24C118.993 132.305 119.28 132.495 119.44 132.662C119.601 132.83 119.807 132.933 119.898 132.892C119.989 132.851 120.288 133.011 120.562 133.248C120.836 133.484 121.142 133.642 121.24 133.597C121.34 133.553 121.475 133.639 121.542 133.789C121.61 133.938 121.757 134.02 121.869 133.969C121.982 133.919 122.122 133.984 122.18 134.115C122.239 134.246 122.55 134.446 122.871 134.559C123.192 134.672 123.512 134.891 123.581 135.045C123.65 135.199 123.777 135.293 123.863 135.254C124.108 135.144 128.424 137.624 128.576 137.962C128.615 138.05 128.74 138.08 128.852 138.03C128.965 137.979 129.13 138.101 129.22 138.301C129.309 138.5 129.463 138.627 129.562 138.583C129.661 138.539 129.966 138.696 130.24 138.933C130.514 139.169 130.82 139.327 130.919 139.282C131.018 139.238 131.172 139.365 131.261 139.564C131.351 139.764 131.493 139.897 131.578 139.86C131.663 139.823 131.916 139.93 132.14 140.098C133.263 140.939 135.998 142.793 136.154 142.819C136.252 142.835 137.068 143.4 137.969 144.075C138.869 144.75 139.688 145.298 139.789 145.293C139.889 145.288 140.042 145.44 140.127 145.632C140.213 145.823 140.376 145.938 140.488 145.888C140.601 145.837 140.763 145.952 140.849 146.144C140.935 146.335 141.086 146.488 141.185 146.483C141.481 146.469 142.982 147.611 143.144 147.973C143.227 148.158 143.391 148.316 143.509 148.325C143.626 148.335 144.3 148.946 145.004 149.683C145.71 150.421 146.777 151.491 147.377 152.061C147.976 152.631 148.664 153.426 148.905 153.828C149.145 154.229 149.414 154.525 149.503 154.485C149.665 154.413 150.116 154.94 150.885 156.101C151.115 156.448 151.406 156.74 151.531 156.75C151.657 156.76 151.903 157.09 152.08 157.484C152.256 157.877 152.493 158.157 152.605 158.107C152.718 158.056 153.004 158.448 153.241 158.977C153.478 159.506 153.79 159.979 153.934 160.028C154.079 160.077 154.436 160.5 154.729 160.968C155.022 161.436 155.608 162.351 156.03 163C157.703 165.573 160.341 170.951 161.836 174.836C163.241 178.485 163.507 179.345 164.038 181.966C164.161 182.57 164.367 183.434 164.496 183.886C164.625 184.337 164.648 184.744 164.547 184.789C164.446 184.834 164.507 185.193 164.684 185.587C164.86 185.98 164.935 186.394 164.85 186.506C164.765 186.618 164.84 187.031 165.017 187.425C165.193 187.818 165.245 188.181 165.133 188.232C165.02 188.282 164.999 188.482 165.086 188.676C165.173 188.869 165.174 189.119 165.09 189.232C165.005 189.344 165.001 189.583 165.082 189.764C165.291 190.228 165.282 193.815 165.066 196.641C165.019 197.255 165.011 197.826 165.049 197.911C165.087 197.995 165.012 198.322 164.883 198.637C164.754 198.952 164.697 199.317 164.755 199.448C164.814 199.579 164.77 199.727 164.657 199.778C164.545 199.828 164.526 200.033 164.616 200.233C164.705 200.432 164.686 200.637 164.574 200.687C164.461 200.738 164.442 200.942 164.532 201.142C164.621 201.342 164.625 201.536 164.54 201.574C164.455 201.612 164.375 201.967 164.362 202.362C164.349 202.758 164.23 203.54 164.098 204.1C163.966 204.66 163.881 205.171 163.91 205.235C163.938 205.299 163.898 205.517 163.819 205.719C163.565 206.377 163.478 206.726 163.41 207.366C163.374 207.712 163.267 208.03 163.174 208.072C163.08 208.113 163.058 208.27 163.126 208.42C163.193 208.57 163.156 208.733 163.043 208.784C162.931 208.834 162.875 208.956 162.919 209.055C163.004 209.246 162.804 209.93 162.36 210.96C162.211 211.306 162.12 211.659 162.158 211.744C162.196 211.828 162.043 212.368 161.817 212.942C160.192 217.075 159.842 217.956 159.603 218.515C159.455 218.862 159.358 219.202 159.389 219.271C159.445 219.396 161.327 218.425 164.379 216.695C166.83 215.305 170.844 212.715 173.815 210.606C174.533 210.096 175.375 209.508 175.687 209.298C175.998 209.088 176.694 208.544 177.233 208.087C177.772 207.63 178.602 206.953 179.077 206.581C179.552 206.209 179.913 205.841 179.878 205.763C179.843 205.685 180.091 205.497 180.428 205.346C180.766 205.194 181.005 204.989 180.961 204.889C180.916 204.789 181.104 204.607 181.379 204.483C181.654 204.36 181.899 204.152 181.924 204.021C181.948 203.89 182.193 203.682 182.468 203.559C182.743 203.436 182.931 203.253 182.886 203.154C182.842 203.054 182.98 202.893 183.195 202.797C183.632 202.601 183.822 202.404 187.44 198.373C188.861 196.791 189.994 195.434 189.959 195.356C189.924 195.279 190.016 195.161 190.164 195.095C190.312 195.028 190.557 194.722 190.709 194.414C190.861 194.106 191.033 193.833 191.09 193.808C191.248 193.737 193.386 190.771 193.574 190.362C193.665 190.165 193.82 189.968 193.92 189.923C194.019 189.879 194.229 189.562 194.385 189.219C194.542 188.877 194.903 188.252 195.187 187.831C195.472 187.411 195.77 186.936 195.85 186.776C195.93 186.617 196.508 185.472 197.134 184.232C197.76 182.992 198.382 181.697 198.518 181.355C198.652 181.012 199.113 179.91 199.541 178.905C200.456 176.761 200.713 176.036 200.627 175.845C200.593 175.769 200.696 175.506 200.857 175.261C201.017 175.016 201.118 174.748 201.082 174.666C201.045 174.584 201.153 174.209 201.323 173.833C201.492 173.458 201.601 173.085 201.566 173.005C201.53 172.925 201.586 172.619 201.691 172.325C202.196 170.909 202.545 168.746 202.564 166.922C202.568 166.53 202.641 166.179 202.726 166.141C202.811 166.102 202.809 165.913 202.722 165.719C202.636 165.525 202.634 165.275 202.719 165.163C202.804 165.051 202.802 164.801 202.715 164.607C202.628 164.413 202.649 164.213 202.762 164.163C202.874 164.112 202.911 163.948 202.843 163.796C202.776 163.645 202.738 163.344 202.76 163.126C202.857 162.146 202.853 161.541 202.742 160.576C202.677 160.006 202.611 159.126 202.596 158.621C202.538 156.634 201.967 153.753 200.883 149.967C199.524 145.226 194.64 135.674 191.954 132.504C191.513 131.983 190.819 131.117 190.412 130.581C190.005 130.044 189.419 129.375 189.109 129.094C188.799 128.814 188.27 128.266 187.932 127.878C187.595 127.49 187.207 127.13 187.071 127.077C186.935 127.024 186.739 126.793 186.636 126.564C186.533 126.334 186.357 126.188 186.244 126.238C186.132 126.288 185.93 126.085 185.796 125.785C185.661 125.486 185.459 125.282 185.347 125.333C185.234 125.383 185.051 125.221 184.939 124.971C184.827 124.722 184.643 124.559 184.531 124.609C184.418 124.66 184.235 124.497 184.123 124.247C184.011 123.998 183.827 123.835 183.715 123.886C183.602 123.936 183.439 123.819 183.352 123.625C183.265 123.431 183.079 123.264 182.939 123.253C182.799 123.241 182.613 123.074 182.526 122.88C182.439 122.686 182.276 122.569 182.164 122.62C182.051 122.67 181.886 122.548 181.796 122.349C181.707 122.149 181.541 122.027 181.429 122.077C181.316 122.128 181.173 122.055 181.111 121.916C180.967 121.596 176.251 118.213 175.981 118.236C175.871 118.246 175.719 118.115 175.643 117.946C175.567 117.777 175.268 117.603 174.978 117.56C174.689 117.517 174.405 117.378 174.348 117.25C174.29 117.122 174.151 117.059 174.039 117.11C173.926 117.16 173.779 117.079 173.712 116.929C173.645 116.78 173.498 116.698 173.385 116.749C173.273 116.799 173.143 116.756 173.097 116.653C173.05 116.55 172.587 116.318 172.067 116.138C170.528 115.605 169.967 115.374 169.346 115.018C169.023 114.833 168.054 114.461 167.193 114.191C166.332 113.921 165.607 113.655 165.582 113.6C165.481 113.375 156.633 110.532 156.383 110.644C156.289 110.686 156.081 110.583 155.92 110.416C155.759 110.248 155.552 110.145 155.46 110.186C155.368 110.227 153.502 109.716 151.313 109.049C149.124 108.383 146.496 107.625 145.472 107.364C142.234 106.542 141.875 106.448 140.531 106.071C139.807 105.868 139.14 105.736 139.047 105.777C138.955 105.819 138.585 105.69 138.226 105.493C137.867 105.295 137.498 105.166 137.408 105.206C137.317 105.246 136.023 104.895 134.532 104.425C133.041 103.955 131.754 103.6 131.672 103.636C131.591 103.673 131.23 103.541 130.87 103.343C130.511 103.145 130.146 103.014 130.059 103.053C129.882 103.132 126.792 102.196 126.723 102.042C126.699 101.988 126.001 101.727 125.172 101.461C124.343 101.195 123.121 100.752 122.457 100.476C121.792 100.201 120.857 99.8448 120.377 99.6852C119.898 99.5256 119.153 99.2098 118.722 98.9835C118.291 98.7572 117.741 98.5138 117.498 98.4427C117.256 98.3716 116.654 98.0939 116.16 97.8258C115.666 97.5578 115.002 97.2466 114.685 97.1346C114.367 97.0225 114.069 96.8457 114.022 96.7418C113.975 96.6378 113.861 96.587 113.767 96.629C113.674 96.6709 113.366 96.5394 113.083 96.3365C112.8 96.1337 112.336 95.8818 112.053 95.7765C111.769 95.6714 111.492 95.4852 111.437 95.3627C111.382 95.24 111.256 95.1436 111.156 95.1481C110.951 95.1576 109.244 94.137 108.275 93.4255C107.92 93.1651 107.347 92.7848 107.001 92.5804C106.654 92.3761 106.3 92.0689 106.214 91.898C106.127 91.7271 105.987 91.6174 105.902 91.6546C105.718 91.7353 104.843 91.0724 104.693 90.7388C104.635 90.6088 104.495 90.544 104.382 90.5945C104.27 90.645 104.107 90.5279 104.02 90.3341C103.933 90.1403 103.747 89.9727 103.607 89.9615C103.467 89.9503 103.263 89.7419 103.153 89.4983C103.044 89.2546 102.863 89.0966 102.75 89.1471C102.637 89.1976 102.472 89.0756 102.383 88.876C102.293 88.6764 102.128 88.5544 102.015 88.6049C101.903 88.6554 101.719 88.4925 101.607 88.2431C101.495 87.9936 101.312 87.8307 101.199 87.8812C101.086 87.9317 100.885 87.728 100.75 87.4286C100.616 87.1293 100.414 86.9256 100.301 86.9761C100.189 87.0266 100.007 86.8686 99.8982 86.6249C99.7889 86.3813 99.5848 86.1729 99.4446 86.1617C99.3044 86.1505 99.0841 85.906 98.9551 85.6184C98.8261 85.3308 98.618 85.0872 98.4926 85.0772C98.3672 85.0672 98.0809 84.773 97.8565 84.4233C97.6323 84.0736 96.9345 83.0865 96.3058 82.2297C94.7694 80.1347 92.4731 75.0142 92.0341 72.7034C91.307 68.8778 91.2407 68.3733 91.4528 68.2783C91.552 68.2337 91.5441 67.998 91.4348 67.7543C91.3255 67.5106 91.3056 67.2196 91.3905 67.1075C91.4754 66.9953 91.4738 66.7451 91.3869 66.5514C91.3 66.3576 91.321 66.1579 91.4336 66.1074C91.5461 66.0569 91.5467 65.8115 91.4348 65.562C91.3229 65.3125 91.3234 65.0671 91.436 65.0166C91.5485 64.9661 91.5926 64.8177 91.5339 64.6869C91.4752 64.5559 91.5327 64.191 91.6617 63.8757C91.7908 63.5607 91.8399 63.1769 91.7709 63.023C91.7019 62.8691 91.7375 62.7019 91.8501 62.6514C91.9626 62.6009 92.0138 62.4684 91.9637 62.3566C91.6119 61.5722 94.3862 54.1753 95.9377 51.7609C96.2562 51.2653 96.6636 50.5732 96.8432 50.223C97.0227 49.8729 97.2332 49.5578 97.3105 49.5231C97.3881 49.4883 97.5275 49.3032 97.6203 49.1117C97.713 48.9204 98.0103 48.5174 98.281 48.2165C98.5515 47.9154 98.8006 47.6075 98.8345 47.5324C99.0244 47.1091 101.406 44.555 102.341 43.7713C105.784 40.8848 109.733 38.818 113.573 37.8934C116.773 37.1225 117.336 37.0631 121.363 37.0704C121.667 37.071 121.943 37.1324 121.978 37.2068C122.012 37.2812 122.225 37.2596 122.45 37.1586C122.675 37.0576 122.896 37.0567 122.94 37.1565C122.985 37.2563 123.16 37.276 123.329 37.2003C123.498 37.1245 123.666 37.1312 123.704 37.2148C123.742 37.2986 124.032 37.3574 124.349 37.3454C125.766 37.292 131.138 38.9928 131.4 39.5774C131.467 39.7255 131.596 39.8129 131.687 39.7719C131.779 39.7308 132.109 39.9262 132.42 40.2062C132.731 40.4862 133.06 40.6817 133.152 40.6406C133.244 40.5995 133.426 40.806 133.558 41.0996C133.69 41.3932 133.912 41.6424 134.052 41.6536C134.192 41.6648 134.396 41.8732 134.506 42.1168C134.615 42.3605 134.785 42.5234 134.884 42.479C135.552 42.1794 140.221 52.5467 140.151 54.1745C140.087 55.6515 144.195 64.7549 145.054 65.0415C145.199 65.09 145.389 65.2864 145.475 65.478C145.689 65.9556 147.55 67.7949 147.962 67.936C148.33 68.062 148.339 67.965 148.203 65.4928C148.132 64.2242 148.458 62.1088 148.744 61.9807C148.995 61.8683 150.286 62.5049 150.422 62.8082C150.5 62.9827 150.634 63.0944 150.719 63.0563C150.804 63.0182 151.097 63.2058 151.369 63.4734C152.253 64.3433 152.99 64.9778 153.157 65.0141C153.248 65.0336 153.639 65.2996 154.026 65.6053C155.837 67.0335 159.916 68.7391 160.691 68.3917C160.85 68.3204 161.009 68.3274 161.045 68.407C161.127 68.5888 162.242 68.453 163.901 68.0596C164.934 67.8144 165.373 67.6138 166.196 67.0123C166.756 66.603 167.183 66.1995 167.146 66.1157C167.108 66.0319 167.201 65.9078 167.353 65.8398C167.504 65.7719 167.722 65.4783 167.836 65.1874C167.95 64.8965 168.13 64.6196 168.235 64.5723C168.552 64.4302 171.059 58.53 171.311 57.3333C171.44 56.7225 171.578 56.1047 171.618 55.9606C171.689 55.7076 171.765 55.2483 171.918 54.1482C171.958 53.8604 172.024 53.5614 172.064 53.4835C172.26 53.104 172.422 49.2849 172.314 47.5955C172.018 42.9638 171.78 41.9386 170.106 38.1225C168.902 35.3766 167.642 33.2377 166.857 32.6075C166.665 32.4537 166.055 31.7918 165.501 31.1368C164.948 30.4817 164.057 29.6123 163.522 29.2049C162.987 28.7975 162.509 28.3733 162.459 28.262C162.321 27.9548 161.439 27.3038 161.265 27.3802C161.18 27.4174 161.037 27.2843 160.948 27.0847C160.858 26.8851 160.693 26.7631 160.58 26.8135C160.468 26.864 160.311 26.76 160.231 26.5825C160.151 26.4049 159.849 26.2246 159.56 26.1817C159.27 26.1387 158.968 25.9584 158.888 25.7808C158.809 25.6033 158.651 25.4993 158.539 25.5497C158.426 25.6002 158.294 25.5521 158.245 25.4429C158.138 25.2039 155.317 23.6191 154.384 23.2743C154.02 23.1394 153.694 22.9696 153.662 22.8972C153.629 22.8246 153.152 22.6241 152.602 22.4515C152.051 22.2789 151.579 22.0894 151.553 22.0304C151.496 21.9038 147.675 20.751 145.459 20.1919C143.61 19.7256 143.572 19.7173 142.033 19.4388C141.371 19.3188 140.608 19.1632 140.337 19.093C140.067 19.0225 139.542 18.9632 139.172 18.9613C138.802 18.9591 138.285 18.8808 138.025 18.7871C137.764 18.6935 137.421 18.6751 137.262 18.7464C137.103 18.8176 136.767 18.7722 136.515 18.6454C136.263 18.5186 135.98 18.4492 135.887 18.4914C135.793 18.5334 135.052 18.4927 134.241 18.4006C133.43 18.3086 132.129 18.23 131.35 18.226C130.571 18.222 129.906 18.1577 129.872 18.083C129.839 18.0081 129.627 18.0297 129.402 18.1306C129.176 18.2316 128.956 18.2325 128.911 18.1327C128.866 18.0329 128.645 18.0339 128.42 18.1349C128.195 18.2358 127.974 18.2368 127.93 18.137C127.885 18.0372 127.71 18.0175 127.541 18.0932C127.372 18.1689 127.198 18.1492 127.153 18.0494C127.108 17.9496 126.841 17.9712 126.56 18.0974C126.279 18.2236 126.012 18.2452 125.967 18.1454C125.922 18.0456 125.655 18.0672 125.374 18.1934C125.093 18.3196 124.832 18.3559 124.796 18.2743C124.759 18.1924 124.219 18.2209 123.595 18.3374C122.971 18.4539 122.431 18.4824 122.394 18.4006C122.358 18.319 122.116 18.347 121.857 18.4631C121.598 18.5792 121.267 18.6412 121.12 18.601C120.443 18.415 115.058 19.4021 112.046 20.2641C111.207 20.5042 110.027 20.8327 109.424 20.9942C107.065 21.625 103.7 22.9 100.284 24.4572C98.3199 25.3528 96.5884 26.1782 96.4364 26.2913ZM8.41632 73.6523C8.26804 73.9246 7.93361 74.782 7.67312 75.5577C7.41264 76.3334 7.09082 77.2189 6.958 77.5256C6.82517 77.8324 6.58103 78.5212 6.41548 79.0564C6.24994 79.5916 5.99166 80.3102 5.84126 80.6534C5.69093 80.9967 5.60639 81.3629 5.65318 81.4672C5.69997 81.5716 5.64613 81.6981 5.53358 81.7486C5.42102 81.7991 5.36678 81.9248 5.413 82.0278C5.4593 82.1311 5.303 82.6458 5.06571 83.1718C4.82843 83.6977 4.66407 84.1945 4.70045 84.2756C4.73691 84.3569 4.66025 84.7066 4.53024 85.053C4.40044 85.3994 4.13901 86.3407 3.94957 87.1449C3.76013 87.9491 3.49678 88.8143 3.36428 89.0675C3.23165 89.3209 3.17497 89.6434 3.2382 89.7844C3.30135 89.9252 3.22166 90.2408 3.06109 90.4856C2.90051 90.7305 2.80024 91.0001 2.83824 91.0849C2.90489 91.2335 2.44801 93.3722 2.28663 93.6663C2.24291 93.7458 2.18639 94.0654 2.16097 94.3765C2.13535 94.6876 1.99885 95.6806 1.85744 96.5831C1.71603 97.4856 1.58074 98.6007 1.55658 99.0609C1.53251 99.5214 1.44244 99.9294 1.35649 99.968C1.27053 100.007 1.27338 100.201 1.3629 100.401C1.45241 100.601 1.45607 100.795 1.37094 100.833C1.28581 100.871 1.20534 101.226 1.19175 101.622C1.17817 102.018 1.13457 102.993 1.09438 103.791C1.0544 104.588 1.02126 105.436 1.02094 105.676C1.02061 105.916 0.987963 106.911 0.948611 107.888C0.909052 108.865 0.906877 110.043 0.943479 110.506C0.980079 110.969 0.971683 111.458 0.924528 111.593C0.877374 111.728 0.920975 112.021 1.02131 112.245C1.12165 112.469 1.13421 112.743 1.04933 112.856C0.964444 112.968 1.00264 113.3 1.13431 113.593C1.26598 113.887 1.28156 114.168 1.169 114.219C1.05645 114.269 1.07422 114.555 1.2085 114.855C1.34277 115.154 1.36054 115.44 1.24799 115.491C1.13543 115.541 1.18763 115.904 1.36405 116.298C1.54048 116.691 1.6153 117.105 1.53042 117.217C1.44553 117.329 1.51823 117.738 1.69198 118.125C1.86572 118.512 1.94588 118.911 1.86994 119.012C1.79399 119.112 1.81713 119.524 1.92161 119.928C2.02589 120.331 2.2358 121.194 2.38811 121.845C3.99799 128.726 6.28756 134.153 10.3524 140.721C11.4604 142.512 12.3191 143.766 13.2071 144.89C13.5565 145.332 14.0386 145.999 14.2782 146.371C14.5178 146.743 14.8313 147.088 14.9747 147.137C15.1183 147.187 15.3566 147.497 15.5043 147.826C15.652 148.155 15.8549 148.388 15.9552 148.343C16.0553 148.298 16.304 148.505 16.5076 148.804C16.7112 149.102 17.1312 149.625 17.4412 149.965C17.751 150.306 18.1427 150.767 18.3115 150.991C18.4803 151.215 18.7646 151.529 18.9431 151.689C19.1217 151.848 19.6927 152.377 20.2124 152.863C21.6751 154.232 23.1814 155.581 23.9803 156.238C24.3801 156.567 24.7625 156.959 24.8301 157.11C24.8977 157.261 25.0452 157.343 25.1577 157.293C25.2703 157.242 25.4334 157.359 25.5203 157.553C25.6072 157.747 25.793 157.914 25.9332 157.925C26.0734 157.937 26.2775 158.145 26.3868 158.389C26.4961 158.632 26.6775 158.79 26.7901 158.74C26.9026 158.689 27.068 158.811 27.1575 159.011C27.247 159.211 27.3896 159.343 27.474 159.306C27.5585 159.268 28.0592 159.583 28.5864 160.005C29.1136 160.427 29.6143 160.741 29.6987 160.704C29.7832 160.666 29.9078 160.759 29.9753 160.909C30.1188 161.229 33.9728 163.977 34.518 164.148C34.7219 164.212 35.0203 164.401 35.1807 164.568C35.3412 164.735 35.5583 164.833 35.6633 164.786C35.7683 164.739 35.9194 164.846 35.999 165.023C36.0787 165.201 36.3807 165.381 36.6704 165.424C36.96 165.467 37.2621 165.647 37.3418 165.825C37.4214 166.002 37.5787 166.106 37.6912 166.056C37.8038 166.005 37.9508 166.086 38.0179 166.236C38.0851 166.386 38.2321 166.467 38.3446 166.417C38.4572 166.366 38.5953 166.427 38.6512 166.551C38.7074 166.676 39.0897 166.912 39.501 167.076C39.9124 167.24 40.2741 167.43 40.3051 167.499C40.3361 167.568 40.5983 167.722 40.8881 167.84C41.1779 167.958 41.7004 168.199 42.0493 168.374C42.3983 168.549 42.9901 168.821 43.3646 168.977C43.7392 169.134 44.0779 169.335 44.1175 169.423C44.1571 169.511 44.4265 169.619 44.7161 169.661C45.0057 169.704 45.2895 169.844 45.3468 169.972C45.404 170.099 45.543 170.162 45.6555 170.112C45.7681 170.061 45.9017 170.113 45.9524 170.226C46.0031 170.339 46.2693 170.489 46.5439 170.56C46.8187 170.63 47.3929 170.875 47.82 171.103C48.247 171.331 49.3747 171.78 50.326 172.102C51.2772 172.424 52.347 172.824 52.7035 172.991C53.6797 173.45 64.5896 176.843 66.2725 177.211C67.0804 177.388 68.295 177.702 68.9712 177.908C69.6474 178.114 70.2558 178.258 70.3231 178.228C70.5087 178.145 71.1237 178.367 71.5779 178.682C71.8993 178.905 71.9407 179.039 71.7777 179.327C71.6107 179.622 71.1932 179.746 69.559 179.986C68.4518 180.148 67.4273 180.251 67.2821 180.214C67.137 180.177 66.8524 180.22 66.6498 180.311C66.4472 180.402 66.2448 180.395 66.2001 180.295C66.1553 180.195 65.8424 180.238 65.5048 180.389C65.1671 180.54 64.8542 180.583 64.8094 180.483C64.7647 180.383 64.5439 180.384 64.3188 180.485C64.0937 180.586 63.8729 180.587 63.8281 180.487C63.7834 180.387 63.5626 180.388 63.3374 180.489C63.1123 180.59 62.8915 180.591 62.8468 180.491C62.802 180.392 62.5912 180.388 62.3782 180.484C62.1652 180.579 61.0141 180.573 59.8201 180.469C58.6264 180.366 57.3148 180.305 56.9058 180.333C56.497 180.362 56.1302 180.313 56.0909 180.226C56.0515 180.138 55.8949 180.122 55.7427 180.19C55.5906 180.259 55.0672 180.199 54.5795 180.058C54.092 179.917 53.554 179.864 53.3842 179.94C53.2143 180.017 53.0387 179.997 52.994 179.897C52.9492 179.798 52.7745 179.778 52.6056 179.854C52.4368 179.929 52.2699 179.927 52.2349 179.849C52.1997 179.771 51.8339 179.686 51.422 179.661C51.0101 179.636 50.5102 179.569 50.3109 179.513C50.1119 179.457 49.0403 179.235 47.9299 179.02C46.8194 178.804 45.696 178.548 45.4335 178.45C45.1707 178.352 44.8922 178.3 44.8144 178.335C44.595 178.434 33.2727 174.838 33.1848 174.642C33.1419 174.547 33.0249 174.473 32.9248 174.478C32.8246 174.483 32.2562 174.264 31.662 173.991C30.0979 173.274 29.4862 173.027 28.4363 172.687C27.9223 172.52 27.4637 172.3 27.4174 172.196C27.3712 172.093 27.2413 172.05 27.1287 172.101C27.0162 172.151 26.8858 172.107 26.839 172.003C26.7923 171.898 26.4613 171.716 26.1039 171.597C25.1793 171.29 24.398 170.945 24.3416 170.819C24.3149 170.759 23.9464 170.558 23.5226 170.371C22.3633 169.86 22.3532 169.855 21.1688 169.216C20.5624 168.889 19.9795 168.627 19.8735 168.635C19.7677 168.642 19.6291 168.533 19.5657 168.391C19.5023 168.25 19.3583 168.175 19.2458 168.226C19.1332 168.276 19.0029 168.232 18.9561 168.128C18.9093 168.024 18.5592 167.841 18.1782 167.721C17.797 167.602 17.3515 167.365 17.1878 167.194C17.0242 167.024 16.8047 166.923 16.6997 166.97C16.5948 167.017 16.4693 166.968 16.4208 166.86C16.3725 166.752 15.7893 166.352 15.1248 165.97C14.4603 165.588 13.3442 164.945 12.6447 164.539C11.9449 164.134 11.2632 163.749 11.13 163.684C10.5725 163.411 9.64677 162.806 9.4086 162.558C9.2677 162.411 9.07117 162.328 8.97171 162.372C8.87246 162.417 8.73608 162.331 8.66895 162.181C8.60181 162.032 8.45478 161.95 8.34223 162.001C8.22968 162.051 8.08266 161.97 8.01552 161.82C7.94838 161.671 7.82416 161.578 7.73932 161.616C7.65448 161.653 7.39912 161.547 7.17169 161.38C5.05357 159.827 3.3364 158.865 3.20451 159.157C3.03551 159.532 8.24643 170.885 9.68499 173.277C11.0097 175.479 14.3147 180.3 15.4557 181.695C15.7787 182.089 16.2705 182.776 16.549 183.221C16.8272 183.665 17.1355 183.993 17.2337 183.949C17.3319 183.905 17.5222 184.114 17.6565 184.413C17.7907 184.712 17.9927 184.916 18.1052 184.865C18.2178 184.815 18.4359 185.055 18.5899 185.398C18.744 185.742 18.9847 186.032 19.1249 186.043C19.2651 186.054 19.5058 186.344 19.6598 186.687C19.8139 187.031 20.0319 187.271 20.1445 187.22C20.2571 187.17 20.423 187.293 20.5132 187.494C20.7424 188.005 21.8023 189.092 21.9893 189.008C22.0747 188.97 22.2059 189.076 22.2812 189.244C22.4547 189.631 24.186 191.332 24.5299 191.454C24.6719 191.504 24.8338 191.647 24.8896 191.771C24.9454 191.896 25.6095 192.485 26.3654 193.082C27.1215 193.678 27.9329 194.325 28.1686 194.519C28.4045 194.713 28.859 195.014 29.1788 195.189C29.4986 195.364 29.8371 195.678 29.9308 195.887C30.0247 196.096 30.1935 196.226 30.3061 196.175C30.4186 196.125 30.5656 196.206 30.6328 196.356C30.6999 196.505 30.8469 196.587 30.9595 196.536C31.072 196.486 31.2343 196.601 31.3201 196.792C31.4059 196.983 31.5574 197.136 31.6567 197.132C31.7561 197.127 32.5535 197.632 33.429 198.254C34.3044 198.876 35.1389 199.434 35.2833 199.493C35.696 199.662 37.9143 201.082 37.9738 201.215C38.0033 201.28 38.2644 201.369 38.554 201.412C38.8437 201.455 39.1458 201.635 39.2254 201.813C39.305 201.99 39.4623 202.094 39.5748 202.044C39.6874 201.993 39.8344 202.075 39.9016 202.224C39.9687 202.374 40.1157 202.455 40.2283 202.405C40.3408 202.354 40.4878 202.435 40.555 202.585C40.6221 202.735 40.7493 202.825 40.8375 202.785C40.9259 202.746 41.2506 202.87 41.5592 203.061C42.2038 203.46 42.7355 203.711 44.5294 204.459C45.2361 204.754 45.8478 205.069 45.8885 205.16C45.9291 205.251 46.3413 205.43 46.8044 205.558C47.2674 205.686 47.6863 205.88 47.7351 205.989C47.7839 206.098 48.0537 206.206 48.3347 206.23C48.6158 206.253 48.8784 206.346 48.9183 206.435C48.9582 206.524 49.2144 206.655 49.4878 206.726C49.7611 206.797 50.5315 207.097 51.1994 207.391C53.5106 208.41 63.204 211.459 66.3495 212.157C67.0647 212.316 67.9202 212.523 68.2508 212.617C68.5811 212.711 69.2638 212.845 69.7679 212.914C70.272 212.983 71.0813 213.157 71.566 213.301C72.051 213.445 73.1553 213.665 74.0203 213.79C74.8852 213.915 75.8327 214.081 76.1259 214.16C76.4187 214.238 77.0705 214.357 77.5739 214.424C78.0773 214.492 78.7327 214.612 79.0306 214.691C79.3283 214.771 79.6588 214.797 79.765 214.749C79.8714 214.702 80.1715 214.739 80.4323 214.833C80.6928 214.927 81.211 215.005 81.5838 215.007C81.9564 215.009 82.2919 215.079 82.3291 215.162C82.3663 215.245 82.4909 215.27 82.6057 215.219C82.7909 215.136 84.7622 215.269 85.1354 215.39C85.5935 215.538 88.5281 215.832 88.7149 215.748C88.8377 215.693 88.9748 215.73 89.0196 215.829C89.0643 215.929 89.2217 215.957 89.3692 215.891C89.517 215.824 89.9086 215.845 90.2398 215.936C90.5708 216.027 90.9838 216.038 91.1573 215.96C91.3309 215.883 91.5095 215.9 91.5543 216C91.599 216.1 91.7996 216.108 91.9997 216.018C92.2001 215.929 92.5698 215.959 92.8216 216.086C93.0734 216.213 93.3362 216.291 93.4057 216.26C93.4751 216.229 94.8555 216.247 96.4729 216.301C98.0903 216.354 99.4944 216.362 99.593 216.318C99.6917 216.274 99.8021 216.304 99.8385 216.385C99.8749 216.466 100.277 216.5 100.733 216.461C101.188 216.421 101.59 216.455 101.627 216.536C101.663 216.617 101.877 216.601 102.102 216.5C102.327 216.399 102.548 216.398 102.593 216.498C102.638 216.598 102.859 216.597 103.084 216.496C103.309 216.395 103.53 216.394 103.574 216.494C103.619 216.594 103.775 216.622 103.922 216.556C104.298 216.387 105.481 216.369 105.556 216.532C105.59 216.606 105.803 216.584 106.028 216.483C106.253 216.382 106.474 216.381 106.518 216.481C106.563 216.581 106.784 216.58 107.009 216.479C107.234 216.378 107.455 216.377 107.5 216.477C107.544 216.577 107.671 216.618 107.78 216.569C107.89 216.52 108.607 216.455 109.375 216.425C110.142 216.395 111.148 216.349 111.61 216.324C112.072 216.299 113.217 216.264 114.155 216.246C115.093 216.229 116.022 216.142 116.219 216.053C116.417 215.965 116.615 215.974 116.66 216.074C116.704 216.174 116.862 216.201 117.009 216.135C117.157 216.069 117.732 216.007 118.288 215.997C118.843 215.988 119.44 215.916 119.615 215.838C119.789 215.76 119.968 215.778 120.013 215.878C120.058 215.977 120.264 215.983 120.472 215.89C120.68 215.796 121.208 215.718 121.646 215.716C122.366 215.712 124.755 215.468 127.888 215.077C128.529 214.997 129.244 214.931 129.478 214.93C129.713 214.929 130.09 214.845 130.316 214.744C130.543 214.642 130.765 214.641 130.81 214.74C130.855 214.84 131.116 214.821 131.391 214.698C131.666 214.574 131.984 214.53 132.098 214.598C132.213 214.667 132.577 214.602 132.908 214.453C133.239 214.305 133.546 214.265 133.591 214.365C133.636 214.465 133.995 214.402 134.389 214.225C134.783 214.048 135.137 213.974 135.175 214.06C135.435 214.639 144.458 210.599 144.888 209.712C144.955 209.574 145.268 209.346 145.583 209.205C145.898 209.063 146.119 208.866 146.074 208.766C146.03 208.666 146.177 208.502 146.402 208.401C146.627 208.3 146.775 208.136 146.73 208.036C146.685 207.936 146.833 207.772 147.058 207.671C147.283 207.57 147.431 207.406 147.386 207.306C147.341 207.206 147.489 207.042 147.714 206.941C147.939 206.84 148.087 206.676 148.042 206.576C147.997 206.476 148.137 206.315 148.353 206.219C148.568 206.122 148.745 205.96 148.745 205.86C148.745 205.759 149.067 205.163 149.462 204.536C150.286 203.226 151.802 199.835 152.107 198.619C152.221 198.166 152.359 197.725 152.414 197.641C152.535 197.455 152.936 195.391 153.051 194.358C153.097 193.948 153.209 193.579 153.301 193.538C153.393 193.497 153.406 193.319 153.33 193.144C153.254 192.968 153.281 192.539 153.389 192.191C153.497 191.843 153.524 191.414 153.448 191.238C153.372 191.063 153.402 190.877 153.515 190.827C153.627 190.776 153.664 190.611 153.596 190.46C153.528 190.309 153.492 189.982 153.516 189.733C153.54 189.485 153.578 189.078 153.602 188.829C153.626 188.58 153.571 188.212 153.481 188.012C153.391 187.811 153.386 187.615 153.47 187.576C153.554 187.538 153.556 186.777 153.475 185.885C153.393 184.994 153.308 184.027 153.286 183.737C153.079 180.974 152.338 178.613 150.138 173.707C148.031 169.008 147.355 167.832 145.457 165.563C145.019 165.04 144.525 164.428 144.359 164.203C144.193 163.977 143.906 163.665 143.72 163.508C143.366 163.208 142.879 162.611 142.256 161.713C142.05 161.416 141.8 161.209 141.7 161.254C141.599 161.299 141.389 161.05 141.232 160.701C141.076 160.352 140.856 160.107 140.743 160.158C140.63 160.208 140.449 160.05 140.34 159.807C140.23 159.563 140.026 159.355 139.886 159.343C139.746 159.332 139.56 159.165 139.473 158.971C139.386 158.777 139.223 158.66 139.111 158.71C138.998 158.761 138.796 158.557 138.662 158.258C138.528 157.958 138.326 157.755 138.213 157.805C138.1 157.856 137.953 157.774 137.885 157.622C137.817 157.471 137.613 157.244 137.431 157.118C137.249 156.991 136.6 156.426 135.988 155.861C135.376 155.296 134.407 154.512 133.836 154.118C133.264 153.723 132.748 153.293 132.689 153.161C132.63 153.029 132.489 152.962 132.377 153.013C132.264 153.063 132.099 152.941 132.009 152.742C131.92 152.542 131.754 152.42 131.642 152.471C131.529 152.521 131.381 152.436 131.312 152.283C131.243 152.129 130.923 151.91 130.602 151.797C130.281 151.684 129.934 151.402 129.83 151.171C129.727 150.941 129.56 150.789 129.461 150.833C129.361 150.878 129.011 150.717 128.683 150.474C128.354 150.232 127.627 149.749 127.065 149.401C126.504 149.054 125.703 148.53 125.284 148.239C124.866 147.947 124.442 147.696 124.342 147.681C124.241 147.666 123.771 147.386 123.297 147.059C122.823 146.733 122.353 146.469 122.254 146.474C122.155 146.478 122.021 146.366 121.958 146.225C121.895 146.084 121.751 146.009 121.638 146.06C121.526 146.11 121.379 146.029 121.311 145.879C121.244 145.73 121.097 145.649 120.985 145.699C120.872 145.749 120.725 145.668 120.658 145.519C120.591 145.369 120.444 145.288 120.331 145.338C120.219 145.389 120.08 145.329 120.022 145.204C119.965 145.08 119.643 144.857 119.308 144.707C118.973 144.558 118.015 144.056 117.179 143.592C115.262 142.527 113.232 141.544 112.594 141.373C112.324 141.3 112.056 141.137 112 141.011C111.943 140.885 111.673 140.723 111.4 140.652C111.126 140.58 110.193 140.154 109.325 139.704C108.457 139.254 107.445 138.778 107.076 138.644C106.707 138.511 106.381 138.349 106.352 138.284C106.323 138.219 105.935 138.033 105.491 137.872C104.303 137.441 103.63 137.147 103.581 137.037C103.557 136.984 103.246 136.845 102.889 136.729C102.533 136.613 101.87 136.352 101.415 136.147C100.96 135.943 100.337 135.664 100.03 135.526C99.7231 135.388 99.2223 135.171 98.9171 135.044C98.6118 134.917 97.9921 134.645 97.54 134.44C97.0878 134.235 96.4265 133.972 96.0702 133.856C95.714 133.74 95.4029 133.602 95.379 133.548C95.3336 133.447 94.8342 133.224 93.4559 132.687C93.0049 132.512 92.5298 132.318 92.4001 132.256C90.9609 131.573 89.9732 131.152 89.8236 131.16C89.7235 131.165 89.6031 131.083 89.5562 130.979C89.5092 130.874 89.246 130.73 88.9714 130.66C88.6967 130.589 88.1223 130.349 87.6948 130.125C87.2675 129.902 86.4887 129.565 85.9642 129.376C85.4397 129.187 84.0106 128.598 82.7889 128.068C81.5669 127.538 80.0801 126.943 79.4845 126.745C78.8891 126.548 78.3659 126.306 78.3221 126.209C78.2783 126.111 77.8897 125.929 77.4586 125.805C77.0275 125.68 76.1257 125.335 75.4547 125.036C74.7837 124.738 73.755 124.349 73.1684 124.172C72.5821 123.995 72.0618 123.76 72.0126 123.65C71.9634 123.54 71.2433 123.23 70.4127 122.96C69.5822 122.691 68.2091 122.157 67.3618 121.775C65.2144 120.807 64.7412 120.613 63.6745 120.268C63.1603 120.101 62.7109 119.901 62.6758 119.823C62.6405 119.745 62.3001 119.557 61.9192 119.405C61.5384 119.253 60.9513 118.992 60.6146 118.824C60.2779 118.657 59.6389 118.388 59.1949 118.226C58.7508 118.065 58.3634 117.88 58.3341 117.814C58.3048 117.749 57.9813 117.583 57.615 117.444C56.4241 116.995 54.9439 116.284 54.8741 116.129C54.8367 116.045 54.569 115.942 54.2794 115.899C53.9897 115.856 53.7148 115.737 53.6686 115.634C53.6221 115.532 53.1779 115.287 52.6814 115.09C52.1846 114.893 51.3302 114.439 50.7829 114.081C50.2353 113.724 49.5897 113.388 49.3481 113.336C49.1064 113.284 48.8583 113.129 48.7967 112.991C48.735 112.854 48.608 112.776 48.5145 112.818C48.421 112.859 48.113 112.728 47.8303 112.525C47.5476 112.322 47.0839 112.07 46.8002 111.965C46.5166 111.86 46.2363 111.667 46.1776 111.536C46.1189 111.405 45.9788 111.339 45.8663 111.39C45.7537 111.44 45.6067 111.359 45.5395 111.21C45.4724 111.06 45.3254 110.979 45.2128 111.029C45.1003 111.08 44.9533 110.998 44.8861 110.849C44.819 110.699 44.672 110.618 44.5594 110.668C44.4469 110.719 44.3156 110.673 44.2677 110.566C44.2198 110.459 43.71 110.124 43.1347 109.821C41.9564 109.2 38.4358 106.88 38.3364 106.658C38.3008 106.579 38.1968 106.548 38.1053 106.589C38.0137 106.63 37.6841 106.434 37.373 106.154C37.0618 105.874 36.7507 105.671 36.6817 105.702C36.6127 105.732 36.3117 105.524 36.0126 105.239C35.7135 104.953 35.4028 104.749 35.3221 104.786C35.2413 104.822 34.8882 104.539 34.5372 104.157C34.1862 103.775 33.8172 103.499 33.7171 103.544C33.6169 103.589 33.4853 103.515 33.4246 103.379C33.3289 103.166 30.5706 100.969 29.5944 100.329C29.4059 100.205 29.1962 99.9804 29.1285 99.8294C29.0607 99.6783 28.9132 99.596 28.8007 99.6465C28.6881 99.697 28.5406 99.6147 28.4728 99.4635C28.4051 99.3126 28.1849 99.0681 27.9834 98.9203C27.7819 98.7726 27.4523 98.5308 27.2508 98.3831C27.0493 98.2353 26.8108 97.95 26.7207 97.7491C26.6305 97.5481 26.4647 97.425 26.3521 97.4754C26.2396 97.5259 26.0743 97.4039 25.9847 97.2043C25.8952 97.0047 25.7299 96.8827 25.6173 96.9332C25.5048 96.9837 25.3028 96.78 25.1686 96.4806C25.0343 96.1813 24.8323 95.9776 24.7198 96.0281C24.6072 96.0786 24.4414 95.9555 24.3512 95.7544C24.2612 95.5536 24.0425 95.2837 23.8654 95.155C23.1403 94.6285 22.6487 94.1478 21.6127 92.9537C21.0137 92.2634 20.0618 91.1701 19.4971 90.5243C18.9326 89.8785 18.229 89.0171 17.9337 88.6102C17.6381 88.2033 17.1163 87.5056 16.7736 87.06C14.4163 83.993 13.2392 81.9958 10.9572 77.1912C9.86579 74.8936 8.90839 73.0461 8.82943 73.0854C8.75056 73.1249 8.56453 73.3799 8.41632 73.6523Z" fill="url(#paint0_linear_0_1)" fill-opacity="0.12"/>
    <path fill-rule="evenodd" clip-rule="evenodd" d="M154.172 70.7683C154.095 70.973 154.073 71.2448 154.165 71.4485C154.001 71.631 154.205 71.5393 154.126 71.9108C154.102 72.1306 154.227 72.67 154.606 73.5168C154.986 74.3637 155.343 74.9302 155.462 74.8766C155.575 74.8262 155.773 75.0231 155.904 75.3141C156.035 75.6052 156.222 75.8395 156.322 75.835C156.421 75.8303 156.904 76.1368 157.395 76.516C158.957 77.7219 160.464 78.7874 160.696 78.8498C160.779 78.8722 161.294 79.1562 161.839 79.4808C162.384 79.8055 162.9 80.0401 162.984 80.0024C163.069 79.9647 163.193 80.0564 163.26 80.2061C163.327 80.3558 163.474 80.437 163.587 80.3865C163.699 80.336 163.828 80.3755 163.872 80.4742C163.916 80.5727 164.192 80.7559 164.485 80.8813C165.324 81.2406 169.67 82.6709 169.777 82.6231C169.98 82.532 169.501 81.6866 168.387 80.1692C167.689 79.2176 166.587 77.291 165.609 75.3126C163.624 71.2946 163.582 71.235 162.928 71.5284C162.648 71.6537 162.383 71.6744 162.338 71.5746C162.294 71.4748 162.073 71.4758 161.848 71.5767C161.623 71.6777 161.402 71.6787 161.357 71.5789C161.312 71.4791 161.099 71.4765 160.883 71.5734C160.668 71.6701 160.433 71.7018 160.362 71.6438C160.291 71.5856 159.765 71.4808 159.192 71.4106C158.007 71.2652 156.115 70.7391 155.409 70.3583C154.864 70.0646 154.377 70.2263 154.172 70.7683Z" fill="#FF0000" fill-opacity="0.12"/>
    <g clip-path="url(#clip0_0_1)">
    <path d="M293.56 191.722C298.543 176.755 296.828 160.366 288.858 146.756C276.875 125.877 252.779 115.139 229.251 120.191C218.785 108.394 203.744 101.684 187.979 101.784C163.922 101.726 142.583 117.219 135.182 140.121C119.731 143.287 106.394 152.965 98.5893 166.679C86.5122 187.5 89.2635 213.742 105.396 231.603C100.414 246.57 102.128 262.959 110.098 276.569C122.081 297.448 146.178 308.186 169.705 303.134C180.171 314.932 195.212 321.642 210.977 321.542C235.047 321.603 256.395 306.1 263.79 283.182C279.242 280.016 292.578 270.337 300.383 256.624C312.447 235.803 309.69 209.574 293.56 191.722ZM210.997 307.172C201.367 307.185 192.041 303.812 184.647 297.642C184.979 297.461 185.564 297.138 185.945 296.905L229.681 271.63C231.915 270.357 233.291 267.976 233.275 265.404L233.275 203.717L251.762 214.397C251.959 214.494 252.094 214.685 252.12 214.905L252.12 265.992C252.094 288.706 233.704 307.12 210.997 307.172ZM122.55 269.381C117.725 261.043 115.988 251.274 117.638 241.783C117.964 241.976 118.529 242.325 118.936 242.558L162.672 267.834C164.891 269.132 167.639 269.132 169.857 267.834L223.255 236.989L223.255 258.346C223.267 258.569 223.167 258.779 222.99 258.914L178.776 284.452C159.091 295.797 133.936 289.055 122.55 269.381ZM111.044 173.857C115.846 165.51 123.431 159.116 132.47 155.802C132.47 156.18 132.447 156.845 132.447 157.31L132.447 207.859C132.431 210.43 133.803 212.808 136.038 214.081L189.435 244.923L170.948 255.6C170.764 255.722 170.529 255.742 170.325 255.658L126.108 230.098C106.456 218.707 99.7163 193.554 111.044 173.857ZM262.931 209.219L209.531 178.374L228.018 167.7C228.202 167.577 228.437 167.558 228.641 167.645L272.858 193.182C292.549 204.56 299.292 229.755 287.919 249.452C283.107 257.787 275.528 264.174 266.496 267.501L266.496 215.441C266.519 212.873 265.156 210.495 262.931 209.219ZM281.331 181.514C281.005 181.313 280.44 180.971 280.033 180.738L236.294 155.463C234.075 154.167 231.331 154.167 229.109 155.463L175.711 186.308L175.711 164.951C175.699 164.728 175.799 164.518 175.976 164.382L220.19 138.864C239.888 127.502 265.063 134.264 276.42 153.97C281.218 162.298 282.955 172.042 281.331 181.514ZM165.659 219.582L147.169 208.902C146.972 208.805 146.836 208.615 146.81 208.395L146.81 157.31C146.827 134.564 165.268 116.134 188.008 116.15C197.625 116.157 206.934 119.529 214.323 125.683C213.99 125.864 213.409 126.187 213.024 126.42L169.289 151.696C167.054 152.965 165.678 155.346 165.695 157.918L165.659 219.582ZM175.702 197.922L199.485 184.179L223.267 197.912L223.267 225.388L199.485 239.121L175.702 225.388L175.702 197.922Z" fill="#0188DB"/>
    </g>
    <defs>
    <linearGradient id="paint0_linear_0_1" x1="194.643" y1="92.8288" x2="10.3313" y2="175.491" gradientUnits="userSpaceOnUse">
    <stop stop-color="#003B76"/>
    <stop offset="1" stop-color="#00A3FF"/>
    </linearGradient>
    <clipPath id="clip0_0_1">
    <rect width="217" height="220" fill="white" transform="translate(91 101.674)"/>
    </clipPath>
    </defs>
    </svg>
    