<svg width="149" height="28" viewBox="0 0 149 28" fill="none" xmlns="http://www.w3.org/2000/svg">
    <path opacity="0.5" d="M14.7248 20.1063C25.1925 21.3431 34.975 22.4718 44.7446 23.71C45.4428 23.7984 46.0345 24.6969 47.5879 25.9618C42.922 26.5121 39.3573 27.2041 35.7769 27.301C26.3169 27.5579 16.8497 27.5608 7.38396 27.6506C6.2308 27.6618 5.05171 27.7348 3.93022 27.5355C0.12088 26.8588 -1.03661 24.447 0.974596 21.221C1.92621 19.695 3.08946 18.2392 4.38947 16.9814C9.30447 12.2279 14.2857 7.53625 19.3202 2.90355C20.22 2.07528 21.4912 1.63028 23.1828 0.672852C23.4246 7.81001 16.1328 9.7712 14.5391 15.4568C15.8448 15.2097 16.9447 15.0735 18.0029 14.7899C56.8276 4.38743 95.5732 5.5133 134.231 15.6224C138.229 16.6683 142.12 18.1423 145.989 19.6023C148.03 20.3731 149.766 21.7867 148.651 24.2392C147.591 26.5724 145.575 26.5794 143.393 25.6304C117.629 14.439 90.2695 13.1306 62.6942 13.4928C48.3639 13.6809 34.1386 15.1957 20.1537 18.4231C18.4636 18.8134 16.8339 19.4451 14.7248 20.1063Z" fill="url(#paint0_linear_364_5226)"/>
    <defs>
    <linearGradient id="paint0_linear_364_5226" x1="-1.05353e-08" y1="27.346" x2="177.078" y2="27.346" gradientUnits="userSpaceOnUse">
    <stop stop-color="#BAE5FF"/>
    <stop offset="1" stop-color="#F3FBFF"/>
    </linearGradient>
    </defs>
    </svg>
    