<svg width="54" height="54" viewBox="0 0 54 54" fill="none" xmlns="http://www.w3.org/2000/svg">
    <path fill-rule="evenodd" clip-rule="evenodd" d="M37.3245 0.0268738C37.275 0.0378781 37.0052 0.0694026 36.7249 0.0969932C35.7715 0.190716 34.5486 0.390761 33.9069 0.557953C33.7255 0.60516 33.4895 0.655876 33.3823 0.670601C33.2751 0.685274 33.1874 0.718659 33.1874 0.744655C33.1874 0.770703 33.1351 0.792021 33.0711 0.792021C33.007 0.792021 32.938 0.815944 32.9176 0.845182C32.8972 0.874421 32.8163 0.898343 32.7378 0.898343C32.6592 0.898343 32.5783 0.922266 32.5579 0.951504C32.5375 0.980743 32.4566 1.00467 32.378 1.00467C32.2995 1.00467 32.2185 1.02859 32.1981 1.05783C32.1778 1.08707 32.1088 1.11099 32.0447 1.11099C31.9807 1.11099 31.9283 1.13491 31.9283 1.16415C31.9283 1.19339 31.8474 1.21731 31.7485 1.21731C31.6495 1.21731 31.5686 1.24123 31.5686 1.27047C31.5686 1.29971 31.5 1.32363 31.4162 1.32363C31.3324 1.32363 31.2059 1.37148 31.1351 1.42995C31.0643 1.48843 30.9575 1.53628 30.8977 1.53628C30.838 1.53628 30.7892 1.5602 30.7892 1.58944C30.7892 1.61868 30.7352 1.6426 30.6693 1.6426C30.6033 1.6426 30.5493 1.66381 30.5493 1.68975C30.5493 1.71575 30.3672 1.80405 30.1446 1.88602C29.9221 1.96805 29.6683 2.07841 29.5808 2.13126C29.4933 2.1841 29.3921 2.22737 29.356 2.22737C29.3198 2.22737 29.2902 2.24752 29.2902 2.27219C29.2902 2.2968 29.1621 2.37415 29.0054 2.44405C28.8488 2.51391 28.677 2.61337 28.6237 2.66505C28.5703 2.71672 28.4965 2.75898 28.4595 2.75898C28.4225 2.75898 28.3447 2.79343 28.2866 2.83548C28.2286 2.87758 27.9247 3.08002 27.6115 3.28538C27.0805 3.63337 26.381 4.17679 26.0045 4.53371C25.9155 4.61808 25.701 4.8186 25.528 4.97941C25.3549 5.14022 25.2132 5.29572 25.2132 5.32491C25.2132 5.35409 25.1647 5.41666 25.1055 5.46398C24.9406 5.59555 24.4337 6.19898 24.4337 6.26357C24.4337 6.29504 24.4101 6.32077 24.381 6.32077C24.3521 6.32077 24.2948 6.39254 24.2539 6.48026C24.2129 6.56797 24.159 6.63974 24.134 6.63974C24.109 6.63974 24.055 6.71151 24.014 6.79922C23.9731 6.88694 23.9158 6.95871 23.8869 6.95871C23.8579 6.95871 23.8342 7.00655 23.8342 7.06503C23.8342 7.12351 23.8072 7.17135 23.7742 7.17135C23.7412 7.17135 23.7143 7.2192 23.7143 7.27767C23.7143 7.33615 23.6873 7.38399 23.6543 7.38399C23.6213 7.38399 23.5943 7.43184 23.5943 7.49032C23.5943 7.54879 23.5674 7.59664 23.5344 7.59664C23.5014 7.59664 23.4744 7.64305 23.4744 7.69982C23.4744 7.7566 23.4475 7.81779 23.4145 7.83586C23.3815 7.85394 23.3545 7.91513 23.3545 7.9719C23.3545 8.02868 23.3324 8.07509 23.3054 8.07509C23.2784 8.07509 23.2196 8.1947 23.1747 8.34089C23.1297 8.48709 23.076 8.6067 23.0552 8.6067C23.0345 8.6067 22.9816 8.73232 22.9378 8.88579C22.894 9.03927 22.8045 9.30842 22.7389 9.48386C22.6733 9.65929 22.597 9.91047 22.5693 10.042C22.4272 10.7175 22.3952 10.8898 22.3621 11.1584C22.3422 11.3192 22.3001 11.4987 22.2685 11.5572C22.197 11.6896 22.2393 14.0155 22.3227 14.5342C22.3555 14.7388 22.4001 15.0498 22.4218 15.2253C22.4434 15.4007 22.4843 15.6279 22.5127 15.7303C22.541 15.8326 22.5966 16.0479 22.6362 16.2087C22.7768 16.779 23.2218 18.0225 23.3147 18.105C23.3366 18.1244 23.3545 18.1841 23.3545 18.2377C23.3545 18.2913 23.3815 18.3352 23.4145 18.3352C23.4475 18.3352 23.4744 18.3703 23.4744 18.4133C23.4744 18.4563 23.5284 18.5766 23.5943 18.6807C23.6603 18.7848 23.7143 18.9052 23.7143 18.9481C23.7143 18.9911 23.7412 19.0263 23.7742 19.0263C23.8072 19.0263 23.8342 19.0721 23.8342 19.1282C23.8342 19.1842 23.8544 19.238 23.8791 19.2478C23.9039 19.2575 24.0294 19.4449 24.158 19.6642C24.2867 19.8835 24.4643 20.1586 24.5528 20.2756C24.6412 20.3925 24.7787 20.5957 24.8584 20.7271C24.9382 20.8585 25.0506 21.0126 25.1083 21.0694C25.1659 21.1262 25.2132 21.1932 25.2132 21.2181C25.2132 21.2431 25.2671 21.3149 25.3331 21.3776C25.399 21.4404 25.453 21.5231 25.453 21.5615C25.453 21.5998 25.48 21.6312 25.513 21.6312C25.5459 21.6312 25.573 21.6611 25.573 21.6976C25.573 21.7342 25.64 21.8331 25.7219 21.9174C25.8036 22.0018 25.9585 22.1932 26.0659 22.3427C26.1733 22.4923 26.3222 22.6696 26.3967 22.7366C26.4713 22.8038 26.5326 22.8756 26.5332 22.8961C26.5337 22.9168 26.6079 23.008 26.6981 23.0988C26.7882 23.1897 26.9294 23.3424 27.0119 23.4382C27.0943 23.534 27.2098 23.6629 27.2686 23.7248C27.3273 23.7867 27.4487 23.9169 27.5384 24.0142C27.628 24.1114 27.7559 24.243 27.8226 24.3066C27.8893 24.3701 28.0094 24.5058 28.0895 24.6082C28.1697 24.7105 28.2838 24.8329 28.3431 24.8802C28.4023 24.9275 28.4508 24.9824 28.4508 25.0023C28.4508 25.0221 28.5183 25.0981 28.6007 25.1712C28.6832 25.2443 28.7506 25.3244 28.7506 25.3493C28.7506 25.3741 28.8249 25.4673 28.9155 25.5564C29.0062 25.6456 29.1883 25.855 29.3202 26.0218C29.4521 26.1886 29.5879 26.3514 29.622 26.3837C29.656 26.4159 29.7492 26.526 29.829 26.6283C29.9088 26.7306 30.0226 26.8531 30.0819 26.9003C30.1411 26.9476 30.1896 27.0145 30.1896 27.049C30.1896 27.0834 30.2503 27.1655 30.3245 27.2315C30.3987 27.2975 30.6076 27.5536 30.7888 27.8006C30.9699 28.0476 31.1503 28.2798 31.1896 28.3165C31.2288 28.3532 31.2781 28.4309 31.2989 28.4893C31.3198 28.5476 31.3588 28.5953 31.3855 28.5953C31.4122 28.5953 31.4677 28.667 31.5086 28.7547C31.5496 28.8425 31.6069 28.9142 31.6358 28.9142C31.6648 28.9142 31.6885 28.9501 31.6885 28.994C31.6885 29.0378 31.7155 29.0737 31.7485 29.0737C31.7815 29.0737 31.8084 29.1051 31.8084 29.1434C31.8084 29.1818 31.8624 29.2645 31.9283 29.3273C31.9943 29.39 32.0483 29.4783 32.0483 29.5233C32.0483 29.5684 32.0689 29.6053 32.0942 29.6053C32.166 29.6053 32.9476 30.6823 32.9476 30.7813C32.9476 30.807 32.9746 30.828 33.0076 30.828C33.0405 30.828 33.0675 30.8759 33.0675 30.9343C33.0675 30.9928 33.0912 31.0407 33.1202 31.0407C33.1492 31.0407 33.2064 31.1124 33.2474 31.2002C33.2883 31.2879 33.3456 31.3596 33.3746 31.3596C33.4036 31.3596 33.4273 31.4075 33.4273 31.466C33.4273 31.5244 33.4475 31.5725 33.4722 31.5727C33.497 31.5729 33.5469 31.6268 33.5833 31.6923C33.7651 32.0203 34.2294 32.7717 34.2646 32.795C34.2867 32.8096 34.4241 33.0369 34.5699 33.3C34.7156 33.5632 34.8554 33.7864 34.8806 33.7962C34.9056 33.806 34.9262 33.8598 34.9262 33.9158C34.9262 33.9719 34.9532 34.0177 34.9861 34.0177C35.0191 34.0177 35.0461 34.0635 35.0461 34.1196C35.0461 34.1756 35.0663 34.2294 35.0911 34.2392C35.1647 34.2682 35.4058 34.7109 35.4058 34.817C35.4058 34.871 35.4285 34.9276 35.4562 34.9427C35.4839 34.958 35.5813 35.1806 35.6725 35.4376C35.7638 35.6947 35.9071 36.0724 35.9911 36.277C36.075 36.4817 36.1557 36.7509 36.1705 36.8751C36.1853 36.9993 36.2186 37.101 36.2445 37.101C36.292 37.101 36.3443 37.2789 36.4048 37.6463C36.4229 37.7561 36.4619 37.8592 36.4914 37.8753C36.5209 37.8915 36.545 37.999 36.545 38.1142C36.545 38.2295 36.572 38.3237 36.605 38.3237C36.6379 38.3237 36.6649 38.4505 36.6649 38.6055C36.6649 38.7605 36.6893 38.91 36.7191 38.9378C36.7489 38.9656 36.7898 39.1079 36.8101 39.2541C36.8304 39.4003 36.8731 39.6873 36.9051 39.892C37.0316 40.7025 37.0868 42.3031 37.0266 43.414C36.97 44.458 36.9407 44.6966 36.7836 45.3942C36.7475 45.555 36.7032 45.7882 36.6854 45.9125C36.6674 46.0367 36.6286 46.1384 36.5989 46.1384C36.5693 46.1384 36.545 46.2327 36.545 46.3479C36.545 46.4632 36.518 46.5722 36.4851 46.5903C36.4521 46.6084 36.4251 46.7174 36.4251 46.8326C36.4251 46.9479 36.3981 47.0422 36.3651 47.0422C36.3322 47.0422 36.3052 47.0886 36.3052 47.1453C36.3052 47.2021 36.2782 47.2633 36.2452 47.2814C36.2123 47.2995 36.1853 47.3575 36.1853 47.4104C36.1853 47.5464 35.7908 48.4204 35.4289 49.086C35.3503 49.2306 35.2859 49.3692 35.2859 49.3939C35.2859 49.4186 35.232 49.4902 35.166 49.553C35.1001 49.6157 35.0461 49.6985 35.0461 49.7368C35.0461 49.7752 35.0191 49.8065 34.9861 49.8065C34.9532 49.8065 34.9262 49.8544 34.9262 49.9129C34.9262 49.9713 34.8992 50.0192 34.8662 50.0192C34.8332 50.0192 34.8063 50.067 34.8063 50.1255C34.8063 50.184 34.7859 50.2318 34.7609 50.2318C34.736 50.2318 34.6777 50.3095 34.6313 50.4046C34.5849 50.4996 34.4704 50.6774 34.3768 50.7996C34.2833 50.9218 34.2067 51.0372 34.2067 51.0559C34.2067 51.0746 34.173 51.1233 34.1318 51.1641C33.9977 51.2966 33.9383 51.3723 33.8518 51.521C33.805 51.6014 33.7443 51.6672 33.7169 51.6672C33.6895 51.6672 33.6671 51.7031 33.6671 51.7469C33.6671 51.7908 33.6401 51.8267 33.6071 51.8267C33.5742 51.8267 33.5472 51.8503 33.5472 51.8792C33.5472 51.9351 33.4233 52.0801 33.2024 52.2828C33.1283 52.3509 33.0675 52.4269 33.0675 52.4518C33.0675 52.4767 32.9711 52.5914 32.8532 52.7067C32.0048 53.5372 31.823 53.7139 31.7035 53.824C31.6293 53.8923 31.5686 53.9647 31.5686 53.9848C31.5686 54.0216 32.1339 53.9906 33.0675 53.9024C33.8176 53.8316 35.0799 53.6389 36.0354 53.4494C36.2662 53.4037 36.536 53.3523 36.6349 53.3353C36.7339 53.3182 36.9632 53.2614 37.1446 53.209C37.326 53.1566 37.6025 53.0821 37.7591 53.0434C37.9157 53.0047 38.0439 52.9543 38.0439 52.9314C38.0439 52.9086 38.1249 52.8899 38.2238 52.8899C38.3227 52.8899 38.4037 52.866 38.4037 52.8367C38.4037 52.8075 38.4695 52.7836 38.55 52.7836C38.6306 52.7836 38.7131 52.7596 38.7334 52.7304C38.7538 52.7012 38.8363 52.6772 38.9169 52.6772C38.9974 52.6772 39.0632 52.6533 39.0632 52.6241C39.0632 52.5948 39.1146 52.5709 39.1774 52.5709C39.3056 52.5709 39.3734 52.5435 40.697 51.9562C41.2164 51.7258 41.6413 51.5186 41.6413 51.4959C41.6413 51.4731 41.6767 51.4545 41.7199 51.4545C41.7632 51.4545 41.8565 51.4067 41.9273 51.3482C41.9981 51.2897 42.0698 51.2419 42.0866 51.2419C42.133 51.2419 42.9789 50.7525 43.0696 50.6732C43.1132 50.6351 43.1726 50.604 43.2018 50.604C43.2309 50.604 43.3167 50.5496 43.3924 50.4832C43.468 50.4168 43.6244 50.3039 43.7398 50.2324C43.8553 50.1609 43.98 50.0777 44.0169 50.0475C44.0539 50.0173 44.32 49.8012 44.6084 49.5673C44.8967 49.3334 45.1902 49.0857 45.2606 49.0169C45.331 48.9481 45.564 48.7297 45.7784 48.5315C46.2359 48.1084 46.3779 47.9598 46.3779 47.9038C46.3779 47.8814 46.4319 47.8286 46.4978 47.7864C46.5638 47.7443 46.6178 47.69 46.6178 47.6659C46.6178 47.6418 46.6852 47.5623 46.7677 47.4892C46.8501 47.4161 46.9175 47.3371 46.9175 47.3137C46.9175 47.2903 46.9648 47.2218 47.0225 47.1616C47.3005 46.8714 47.6223 46.3821 47.8265 45.9391C47.8703 45.844 47.9265 45.7663 47.9514 45.7663C47.9764 45.7663 47.9968 45.7199 47.9968 45.6631C47.9968 45.6063 48.0237 45.5451 48.0567 45.5271C48.0897 45.509 48.1167 45.4478 48.1167 45.391C48.1167 45.3343 48.1437 45.2878 48.1766 45.2878C48.2096 45.2878 48.2366 45.2516 48.2366 45.2074C48.2366 45.1631 48.2604 45.0854 48.2895 45.0346C48.4206 44.8063 48.4857 44.6583 48.5642 44.4107C48.6106 44.2645 48.6908 44.0428 48.7424 43.9179C48.9456 43.4269 49.1217 42.6617 49.2712 41.6197C49.4585 40.3146 49.3122 37.4504 49.0038 36.3834C48.9531 36.2079 48.8785 35.9209 48.838 35.7454C48.7975 35.57 48.7277 35.3427 48.6828 35.2404C48.638 35.1381 48.5687 34.9467 48.5288 34.8151C48.4889 34.6835 48.4338 34.5532 48.4063 34.5254C48.3789 34.4976 48.3565 34.4199 48.3565 34.3526C48.3565 34.2854 48.3295 34.2303 48.2966 34.2303C48.2636 34.2303 48.2366 34.1586 48.2366 34.0709C48.2366 33.9831 48.2096 33.9114 48.1766 33.9114C48.1437 33.9114 48.1167 33.8516 48.1167 33.7785C48.1167 33.7054 48.0897 33.6456 48.0567 33.6456C48.0237 33.6456 47.9968 33.5858 47.9968 33.5127C47.9968 33.4396 47.9698 33.3798 47.9368 33.3798C47.9038 33.3798 47.8769 33.3334 47.8769 33.2766C47.8769 33.2198 47.8499 33.1586 47.8169 33.1405C47.7839 33.1225 47.7569 33.0613 47.7569 33.0045C47.7569 32.9477 47.73 32.9013 47.697 32.9013C47.664 32.9013 47.637 32.8535 47.637 32.795C47.637 32.7365 47.61 32.6887 47.5771 32.6887C47.5441 32.6887 47.5171 32.6553 47.5171 32.6145C47.5171 32.5207 46.7369 31.1797 46.6685 31.1559C46.6406 31.1461 46.6178 31.0976 46.6178 31.048C46.6178 30.9984 46.5638 30.9233 46.4978 30.8812C46.4319 30.839 46.3779 30.774 46.3779 30.7365C46.3779 30.6992 46.3509 30.6685 46.318 30.6685C46.285 30.6685 46.258 30.6327 46.258 30.5888C46.258 30.5449 46.231 30.5091 46.1981 30.5091C46.1651 30.5091 46.1381 30.4843 46.1381 30.4541C46.1381 30.4239 46.0504 30.3167 45.9432 30.2158C45.6263 29.9175 45.5146 29.7997 45.4021 29.645C45.3436 29.5645 45.1479 29.3676 44.9674 29.2076C44.7869 29.0475 44.6392 28.9034 44.6392 28.8873C44.6392 28.8214 42.7919 27.1599 42.7186 27.1599C42.6911 27.1599 42.6516 27.1121 42.6306 27.0536C42.6097 26.9951 42.5706 26.9473 42.5436 26.9473C42.5168 26.9473 42.1175 26.6184 41.6565 26.2163C41.1955 25.8143 40.6373 25.3418 40.4161 25.1664C39.7164 24.6115 39.639 24.5492 39.3523 24.3103C39.198 24.1818 39.0497 24.0765 39.0226 24.0764C38.9955 24.0764 38.9193 24.0046 38.8534 23.9171C38.7874 23.8295 38.7117 23.7578 38.6852 23.7578C38.6587 23.7577 38.3815 23.5303 38.0693 23.2526C37.757 22.9748 37.482 22.7475 37.458 22.7474C37.434 22.7473 37.3604 22.6756 37.2945 22.5881C37.2285 22.5005 37.1538 22.4288 37.1283 22.4287C37.0763 22.4286 36.4251 21.8623 36.4251 21.8172C36.4251 21.8013 36.2835 21.6611 36.1103 21.5057C35.9372 21.3502 35.6876 21.1085 35.5557 20.9685C35.4238 20.8286 35.2345 20.6394 35.135 20.548C35.0355 20.4566 34.8885 20.2981 34.8081 20.1958C34.7278 20.0935 34.6201 19.9739 34.5688 19.93C34.5175 19.8862 34.401 19.7526 34.3099 19.6332C34.2188 19.5138 34.0909 19.3652 34.0256 19.3031C33.9603 19.241 33.9069 19.1653 33.9069 19.1348C33.9069 19.1044 33.8845 19.0794 33.8571 19.0794C33.8297 19.0794 33.769 19.0137 33.7222 18.9332C33.6754 18.8529 33.5899 18.7407 33.5322 18.684C33.4745 18.6273 33.4273 18.5515 33.4273 18.5157C33.4273 18.4797 33.4071 18.4424 33.3823 18.4326C33.3313 18.4125 33.0265 17.9768 32.8679 17.6972C32.8099 17.5949 32.7116 17.4394 32.6496 17.3517C32.5874 17.264 32.5347 17.1503 32.5323 17.0992C32.5299 17.048 32.5077 17.0059 32.4829 17.0057C32.4291 17.0052 32.2881 16.7478 32.2881 16.65C32.2881 16.612 32.2611 16.5809 32.2281 16.5809C32.1951 16.5809 32.1682 16.5345 32.1682 16.4777C32.1682 16.4209 32.1412 16.3597 32.1082 16.3416C32.0752 16.3236 32.0483 16.2504 32.0483 16.179C32.0483 16.1076 32.0213 16.0493 31.9883 16.0493C31.9553 16.0493 31.9283 16.0014 31.9283 15.9429C31.9283 15.8845 31.9014 15.8366 31.8684 15.8366C31.8354 15.8366 31.8084 15.7768 31.8084 15.7037C31.8084 15.6306 31.7815 15.5708 31.7485 15.5708C31.7155 15.5708 31.6885 15.499 31.6885 15.4113C31.6885 15.3236 31.6615 15.2518 31.6286 15.2518C31.5956 15.2518 31.5686 15.1935 31.5686 15.1221C31.5686 15.0507 31.5416 14.9775 31.5086 14.9594C31.4757 14.9414 31.4487 14.8576 31.4487 14.7734C31.4487 14.6891 31.4246 14.6069 31.3951 14.5908C31.3656 14.5746 31.3279 14.4715 31.3114 14.3617C31.295 14.2519 31.2328 13.9348 31.1732 13.657C31.0276 12.9779 31.0277 11.4777 31.1734 10.866C31.4145 9.85338 31.4535 9.72308 31.5157 9.72308C31.5447 9.72308 31.5686 9.66471 31.5686 9.59332C31.5686 9.52192 31.5956 9.44877 31.6286 9.4307C31.6615 9.41262 31.6885 9.35143 31.6885 9.29466C31.6885 9.23788 31.7155 9.19147 31.7485 9.19147C31.7815 9.19147 31.8084 9.13167 31.8084 9.05857C31.8084 8.98547 31.8354 8.92567 31.8684 8.92567C31.9014 8.92567 31.9283 8.8943 31.9283 8.85597C31.9283 8.81759 31.9823 8.73487 32.0483 8.67209C32.1142 8.60936 32.1682 8.52111 32.1682 8.47603C32.1682 8.43095 32.1951 8.39406 32.2281 8.39406C32.2611 8.39406 32.2881 8.36732 32.2881 8.33457C32.2881 8.10475 33.774 6.60402 34.4165 6.18484C34.5485 6.09877 34.7235 5.97453 34.8057 5.90877C34.8877 5.84301 34.9736 5.78916 34.9962 5.78916C35.0189 5.78916 35.0732 5.75929 35.1168 5.72271C35.1603 5.68619 35.2769 5.62043 35.3759 5.57662C35.4748 5.53277 35.5692 5.48492 35.5857 5.4703C35.6783 5.38785 36.5385 5.02534 36.8524 4.93646C38.008 4.60909 39.1974 4.53701 40.2351 4.73147C41.1001 4.89356 41.2438 4.94061 42.2254 5.38301C42.2994 5.41634 42.3601 5.46158 42.3603 5.48349C42.3606 5.50539 42.4148 5.52336 42.4807 5.52336C42.5467 5.52336 42.6007 5.54728 42.6007 5.57652C42.6007 5.60576 42.6411 5.62968 42.6906 5.62968C42.7401 5.62968 42.7805 5.64977 42.7805 5.67428C42.7805 5.69884 42.8449 5.74493 42.9236 5.77672C43.275 5.91866 44.3994 6.92123 44.3994 7.09251C44.3994 7.13589 44.4213 7.17135 44.4481 7.17135C44.475 7.17135 44.534 7.25508 44.5792 7.35741C44.6245 7.45975 44.6835 7.54348 44.7104 7.54348C44.7372 7.54348 44.7591 7.61381 44.7591 7.69982C44.7591 7.78584 44.7861 7.87095 44.8191 7.88902C44.852 7.9071 44.879 7.98025 44.879 8.05165C44.879 8.12304 44.9028 8.18141 44.9318 8.18141C45.1275 8.18141 45.1321 11.2209 44.9369 11.6103C44.7599 11.9636 44.7658 14.6334 44.944 14.7973C44.9742 14.8251 44.9989 14.8937 44.9989 14.9498C44.9989 15.0897 45.2517 15.742 45.3367 15.8215C45.4127 15.8925 45.4256 15.8698 45.6627 15.2518C45.7844 14.9347 46.0953 14.4544 46.179 14.4544C46.2524 14.4544 46.4977 14.751 46.4978 14.8398C46.4978 14.891 46.5182 14.9329 46.5431 14.9329C46.5681 14.9329 46.6188 15.0106 46.6559 15.1056C46.7765 15.4146 46.8868 15.65 46.9237 15.6771C46.9435 15.6917 47.0098 15.7994 47.0709 15.9163C47.3562 16.4628 48.1648 17.3251 48.3917 17.3251C48.4383 17.3251 48.4764 17.3443 48.4764 17.3676C48.4764 17.4209 48.7634 17.5098 49.2109 17.5952C49.4897 17.6484 49.6189 17.6476 49.8855 17.5909C50.0668 17.5523 50.2152 17.5007 50.2152 17.4761C50.2152 17.4515 50.2514 17.4314 50.2958 17.4314C50.3402 17.4314 50.4253 17.3836 50.485 17.3251C50.5446 17.2666 50.6188 17.2188 50.6497 17.2188C50.7425 17.2188 51.9995 16.0539 52.1919 15.7896C52.2901 15.6546 52.3914 15.5191 52.417 15.4883C52.462 15.4344 52.5308 15.3307 52.6884 15.0791C52.7296 15.0132 52.7783 14.9475 52.7967 14.9329C52.8859 14.8617 53.3434 13.948 53.5019 13.5241C53.9364 12.3619 53.9903 12.0858 53.9996 10.9719C54.0062 10.1704 53.9328 9.51081 53.8103 9.27121C53.7804 9.21274 53.7041 8.98457 53.6406 8.76422C53.5772 8.54386 53.4551 8.23436 53.3692 8.07647C53.2833 7.91858 53.213 7.76277 53.213 7.73018C53.213 7.64018 53.0691 7.3849 53.0181 7.38442C52.9934 7.38421 52.9732 7.33615 52.9732 7.27767C52.9732 7.2192 52.9462 7.17135 52.9132 7.17135C52.8802 7.17135 52.8533 7.12877 52.8533 7.07678C52.8533 7.02473 52.7993 6.9477 52.7334 6.90554C52.6674 6.86339 52.6134 6.78636 52.6134 6.73431C52.6134 6.68232 52.5865 6.63974 52.5535 6.63974C52.5205 6.63974 52.4935 6.61353 52.4935 6.58153C52.4935 6.51152 51.9787 5.81633 51.789 5.63021C51.7149 5.55743 51.6541 5.48046 51.6541 5.45924C51.6541 5.43798 51.5597 5.33687 51.4443 5.23453C51.3289 5.1322 51.2344 5.03433 51.2344 5.01705C51.2344 4.97994 50.4286 4.28077 49.9491 3.90194C49.5493 3.58601 49.541 3.57984 49.1959 3.34349C49.0475 3.24179 48.8784 3.12037 48.8201 3.07364C48.7619 3.02686 48.6405 2.95504 48.5503 2.91405C48.4602 2.87301 48.3428 2.79742 48.2895 2.74606C48.2362 2.69471 48.1545 2.65266 48.1079 2.65266C48.0613 2.65266 47.9844 2.60481 47.9368 2.54634C47.8893 2.48786 47.8279 2.44001 47.8003 2.44001C47.7729 2.44001 47.5967 2.34906 47.4089 2.23784C47.2211 2.12668 46.9124 1.96518 46.7228 1.87901C46.5333 1.79283 46.3782 1.70442 46.3781 1.68247C46.378 1.66051 46.324 1.6426 46.258 1.6426C46.1921 1.6426 46.1381 1.61868 46.1381 1.58944C46.1381 1.5602 46.0841 1.53628 46.0182 1.53628C45.9522 1.53628 45.8983 1.51235 45.8983 1.48312C45.8983 1.45388 45.8578 1.42995 45.8083 1.42995C45.7589 1.42995 45.7184 1.40603 45.7184 1.37679C45.7184 1.34755 45.651 1.32363 45.5685 1.32363C45.4861 1.32363 45.4186 1.29971 45.4186 1.27047C45.4186 1.24123 45.3512 1.21731 45.2687 1.21731C45.1863 1.21731 45.1188 1.19769 45.1188 1.17377C45.1188 1.1498 44.9839 1.09764 44.8191 1.05783C44.6542 1.01801 44.5193 0.965858 44.5193 0.941882C44.5193 0.91796 44.4572 0.898343 44.3814 0.898343C44.3055 0.898343 44.2179 0.877185 44.1865 0.851349C44.0417 0.731896 42.6202 0.383585 41.7912 0.264344C41.5604 0.231172 41.2366 0.18221 41.0718 0.155577C40.4274 0.051381 39.4672 -0.00571395 38.4636 0.000452731C37.8866 0.00401452 37.3739 0.0159226 37.3245 0.0268738ZM10.6737 1.95008C10.6077 2.00027 10.4323 2.17283 10.2839 2.33353C10.1355 2.49424 9.96017 2.67504 9.89422 2.73532C9.82827 2.79561 9.69336 2.93691 9.59443 3.04935C9.49551 3.16178 9.35389 3.30883 9.27966 3.37608C9.20543 3.44338 9.14476 3.52344 9.14476 3.554C9.14476 3.58457 9.11778 3.60956 9.0848 3.60956C9.05183 3.60956 9.02485 3.63428 9.02485 3.66447C9.02485 3.69472 8.93041 3.80317 8.815 3.90551C8.69958 4.00784 8.60515 4.11103 8.60515 4.13479C8.60515 4.15861 8.54819 4.23553 8.47858 4.30581C8.40903 4.37609 8.24229 4.57709 8.10811 4.75252C7.97392 4.92795 7.81504 5.11019 7.75502 5.15745C7.69494 5.20476 7.64584 5.27722 7.64584 5.31853C7.64584 5.35978 7.59188 5.42804 7.52593 5.4702C7.45997 5.51235 7.40601 5.56716 7.40601 5.59199C7.40601 5.63553 7.0606 6.10722 6.98907 6.16129C6.96971 6.17591 6.92096 6.24768 6.88073 6.32077C6.84044 6.39387 6.69852 6.62113 6.5653 6.8258C6.43207 7.03047 6.27709 7.28767 6.22085 7.39728C6.16461 7.50696 6.09799 7.59664 6.07281 7.59664C6.04763 7.59664 6.02701 7.64448 6.02701 7.70296C6.02701 7.76144 6.00662 7.80928 5.98168 7.80928C5.95674 7.80928 5.89828 7.88706 5.85169 7.98206C5.8051 8.07706 5.68771 8.31033 5.5907 8.50038C5.49375 8.69043 5.39284 8.89377 5.36652 8.95225C5.3402 9.01072 5.22334 9.24995 5.10691 9.48386C4.99041 9.71777 4.86103 10.0048 4.8193 10.1218C4.77757 10.2387 4.72199 10.3572 4.69572 10.3849C4.66946 10.4127 4.648 10.489 4.648 10.5546C4.648 10.6201 4.62102 10.6885 4.58804 10.7066C4.55507 10.7246 4.52809 10.8097 4.52809 10.8958C4.52809 10.9818 4.5011 11.0521 4.46813 11.0521C4.43515 11.0521 4.40817 11.1239 4.40817 11.2116C4.40817 11.2993 4.38119 11.3711 4.34821 11.3711C4.31524 11.3711 4.28826 11.4653 4.28826 11.5806C4.28826 11.6958 4.26128 11.8049 4.2283 11.8229C4.19532 11.841 4.16834 11.9487 4.16834 12.0622C4.16834 12.1757 4.14424 12.2818 4.11474 12.2979C4.08524 12.3141 4.04579 12.4172 4.02715 12.527C4.00844 12.6368 3.96527 12.8702 3.93122 13.0456C3.57111 14.9002 3.53592 16.4744 3.80884 18.5212C3.88325 19.0792 3.9555 19.479 4.04915 19.8503C4.08596 19.9965 4.13063 20.2118 4.14838 20.3287C4.16613 20.4457 4.20486 20.5641 4.23442 20.5919C4.26404 20.6197 4.28826 20.7213 4.28826 20.8178C4.28826 20.9143 4.3123 20.9932 4.34168 20.9932C4.371 20.9932 4.40901 21.071 4.42604 21.166C4.44307 21.2611 4.48833 21.4345 4.52671 21.5514C4.56502 21.6684 4.61005 21.8239 4.62671 21.897C4.64338 21.9701 4.6784 22.0777 4.70448 22.1362C4.73056 22.1947 4.81204 22.3861 4.88561 22.5615C5.0927 23.0553 5.3125 23.5492 5.43547 23.7969C5.49699 23.9209 5.54735 24.0584 5.54735 24.1026C5.54735 24.1467 5.57433 24.1829 5.60731 24.1829C5.64028 24.1829 5.66726 24.2293 5.66726 24.2861C5.66726 24.3429 5.69424 24.404 5.72722 24.4221C5.7602 24.4402 5.78718 24.5133 5.78718 24.5847C5.78718 24.6561 5.81416 24.7145 5.84713 24.7145C5.88011 24.7145 5.90709 24.7624 5.90709 24.8208C5.90709 24.8793 5.92736 24.9273 5.95206 24.9274C5.97676 24.9275 6.06448 25.0589 6.14692 25.2195C6.22936 25.3801 6.31708 25.5116 6.34178 25.5117C6.36648 25.5118 6.38675 25.548 6.38675 25.5921C6.38675 25.6859 7.02625 26.7776 7.14052 26.879C7.18327 26.9169 7.23537 26.9956 7.25624 27.0539C7.2771 27.1122 7.31931 27.1599 7.35007 27.1599C7.38083 27.1599 7.40601 27.2025 7.40601 27.2545C7.40601 27.3065 7.45997 27.3836 7.52593 27.4257C7.59188 27.4679 7.64584 27.5449 7.64584 27.597C7.64584 27.6489 7.67282 27.6915 7.7058 27.6915C7.73877 27.6915 7.76575 27.7274 7.76575 27.7713C7.76575 27.8151 7.79273 27.851 7.82571 27.851C7.85869 27.851 7.88573 27.8809 7.88573 27.9175C7.88579 27.954 7.95324 28.0534 8.03562 28.1384C8.11806 28.2233 8.18545 28.3094 8.18545 28.3296C8.18545 28.3498 8.23264 28.4159 8.29037 28.4765C8.34811 28.5371 8.44926 28.6528 8.51521 28.7337C8.58117 28.8147 8.6958 28.9457 8.77003 29.0248C8.84426 29.104 8.90493 29.19 8.90493 29.2159C8.90493 29.2417 8.95889 29.2974 9.02485 29.3395C9.0908 29.3817 9.14476 29.4467 9.14476 29.4842C9.14476 29.5215 9.17174 29.5522 9.20472 29.5522C9.23769 29.5522 9.26467 29.5793 9.26467 29.6124C9.26467 29.6455 9.31318 29.7113 9.37241 29.7586C9.43171 29.8058 9.54503 29.9283 9.62429 30.0306C9.7035 30.1329 9.92935 30.366 10.1262 30.5486C10.323 30.7311 10.5402 30.9457 10.6088 31.0255C10.7968 31.2441 13.0867 33.2653 13.4569 33.5392C13.6346 33.6708 13.8966 33.8802 14.039 34.0044C14.1814 34.1286 14.314 34.2303 14.3337 34.2303C14.3881 34.2303 14.5138 34.3519 14.5901 34.4784C14.6441 34.5679 14.6396 34.605 14.5683 34.6575C14.4953 34.7112 14.3799 34.6958 13.955 34.5756C13.6672 34.4941 13.4061 34.407 13.3747 34.3821C13.3434 34.3571 13.2692 34.3367 13.2098 34.3367C13.1505 34.3367 13.1019 34.3127 13.1019 34.2835C13.1019 34.2543 13.021 34.2303 12.922 34.2303C12.8231 34.2303 12.7422 34.2064 12.7422 34.1772C12.7422 34.1479 12.6882 34.124 12.6223 34.124C12.5563 34.124 12.5023 34.1001 12.5023 34.0709C12.5023 34.0416 12.4484 34.0177 12.3824 34.0177C12.3165 34.0177 12.2625 33.9938 12.2625 33.9645C12.2625 33.9353 12.2115 33.9114 12.1491 33.9114C12.0867 33.9114 11.8066 33.7839 11.5267 33.6281C11.2468 33.4723 10.9336 33.3138 10.8307 33.276C10.7279 33.2383 10.6437 33.1864 10.6437 33.1607C10.6437 33.135 10.6072 33.114 10.5626 33.114C10.5181 33.114 10.3969 33.0422 10.2934 32.9545C10.1899 32.8668 10.0644 32.795 10.0147 32.795C9.96491 32.795 9.9242 32.7711 9.9242 32.7418C9.9242 32.7126 9.88373 32.6887 9.83426 32.6887C9.7848 32.6887 9.74433 32.6699 9.74433 32.647C9.74433 32.624 9.66434 32.5634 9.56661 32.5122C9.46888 32.461 9.35425 32.3901 9.3118 32.3546C9.26941 32.319 9.03234 32.1476 8.78502 31.9737C8.5377 31.7997 8.29169 31.6143 8.23839 31.5617C8.18503 31.509 8.12274 31.466 8.09995 31.466C8.03568 31.466 5.66726 29.3504 5.66726 29.2929C5.66726 29.2649 5.64682 29.2341 5.62188 29.2243C5.59688 29.2146 5.48218 29.099 5.36706 28.9676C5.06398 28.6216 4.94185 28.4943 4.72294 28.2965C4.6158 28.1996 4.52809 28.0957 4.52809 28.0654C4.52809 28.0352 4.5011 28.0105 4.46813 28.0105C4.43515 28.0105 4.40817 27.9855 4.40817 27.9549C4.40817 27.9244 4.34743 27.8436 4.27327 27.7755C4.08135 27.5994 3.92852 27.4298 3.92852 27.3929C3.92852 27.3755 3.86065 27.2861 3.77773 27.1942C3.55085 26.9427 3.54893 26.9404 3.32997 26.6549C3.21785 26.5087 3.10429 26.3811 3.07761 26.3714C3.05099 26.3616 3.02917 26.3198 3.02917 26.2783C3.02917 26.2369 3.00218 26.203 2.96921 26.203C2.93623 26.203 2.90925 26.178 2.90925 26.1475C2.90925 26.1169 2.8439 26.0339 2.76404 25.9631C2.68411 25.8922 2.60137 25.7857 2.58009 25.7263C2.5588 25.6668 2.51629 25.6182 2.48554 25.6182C2.45478 25.6182 2.4296 25.5924 2.4296 25.5608C2.4296 25.5292 2.33115 25.3678 2.21081 25.2019C2.09048 25.0362 1.88867 24.757 1.7624 24.5816C1.63607 24.4062 1.5119 24.2377 1.48654 24.2072C1.38035 24.0798 1.22075 23.8309 1.18981 23.7443C1.17146 23.6932 1.13267 23.6513 1.10353 23.6513C1.07445 23.6513 1.05059 23.6154 1.05059 23.5715C1.05059 23.5277 1.02361 23.4918 0.990634 23.4918C0.957658 23.4918 0.930677 23.4559 0.930677 23.4121C0.930677 23.3682 0.910472 23.3321 0.88571 23.3319C0.860947 23.3317 0.810284 23.2778 0.773051 23.2123C0.426261 22.6018 0.112687 22.1793 0.0485328 22.2361C-0.033668 22.309 -0.00464892 25.6484 0.0846268 26.3891C0.166828 27.0712 0.445567 28.6087 0.571296 29.0737C0.60691 29.2053 0.651758 29.4266 0.671064 29.5655C0.69031 29.7043 0.729642 29.818 0.758421 29.818C0.787201 29.818 0.810764 29.8897 0.810764 29.9775C0.810764 30.0652 0.837744 30.1369 0.87072 30.1369C0.903697 30.1369 0.930677 30.2192 0.930677 30.3199C0.930677 30.4205 0.957658 30.5176 0.990634 30.5356C1.02361 30.5537 1.05059 30.6508 1.05059 30.7514C1.05059 30.8521 1.07757 30.9343 1.11055 30.9343C1.14352 30.9343 1.1705 30.9826 1.1705 31.0415C1.1705 31.1912 1.31014 31.5723 1.36494 31.5723C1.38995 31.5723 1.41033 31.6126 1.41033 31.6618C1.41033 31.7751 1.6465 32.3795 1.71707 32.4468C1.74621 32.4746 1.77007 32.5271 1.77007 32.5636C1.77007 32.6 1.86756 32.8165 1.9867 33.0447C2.10589 33.2729 2.23306 33.5193 2.26933 33.5924C2.30567 33.6655 2.38355 33.7888 2.44243 33.8664C2.50131 33.944 2.54951 34.0577 2.54951 34.1189C2.54951 34.1802 2.57649 34.2303 2.60947 34.2303C2.64244 34.2303 2.66942 34.2662 2.66942 34.3101C2.66942 34.3539 2.6964 34.3898 2.72938 34.3898C2.76236 34.3898 2.78934 34.4356 2.78934 34.4917C2.78934 34.5478 2.8096 34.6016 2.83431 34.6113C2.85907 34.6211 2.99829 34.8315 3.1438 35.0791C3.28926 35.3266 3.43183 35.5538 3.46055 35.5841C3.5427 35.6705 3.92852 36.2594 3.92852 36.2983C3.92852 36.3175 3.98248 36.3678 4.04843 36.4099C4.11438 36.4521 4.16834 36.5291 4.16834 36.5812C4.16834 36.6332 4.19532 36.6757 4.2283 36.6757C4.26128 36.6757 4.28826 36.7116 4.28826 36.7555C4.28826 36.7993 4.31524 36.8352 4.34821 36.8352C4.38119 36.8352 4.40817 36.8711 4.40817 36.915C4.40817 36.9588 4.42934 36.9947 4.45518 36.9947C4.48108 36.9947 4.54673 37.0605 4.60105 37.1409C4.71461 37.3088 4.8169 37.4281 5.17262 37.8068C5.31274 37.9561 5.42744 38.0999 5.42744 38.1265C5.42744 38.153 5.50838 38.2418 5.60731 38.3237C5.70624 38.4057 5.78718 38.4988 5.78718 38.5307C5.78718 38.5625 5.84114 38.6185 5.90709 38.655C5.97304 38.6916 6.02701 38.7428 6.02701 38.7689C6.02701 38.795 6.07515 38.855 6.13403 38.9023C6.19291 38.9496 6.34807 39.1068 6.47878 39.2517C6.93109 39.753 8.96189 41.5573 9.65277 42.0716C9.80986 42.1886 9.99591 42.3326 10.0662 42.3917C10.1365 42.4508 10.2884 42.5581 10.4039 42.6301C10.5193 42.702 10.6976 42.8331 10.8 42.9213C10.9026 43.0095 11.1479 43.184 11.3452 43.3091C11.5425 43.4342 11.7554 43.5784 11.8184 43.6295C11.8812 43.6806 12.0272 43.781 12.1426 43.8525C12.258 43.924 12.4047 44.025 12.4687 44.077C12.5326 44.1289 12.6104 44.1715 12.6415 44.1715C12.6727 44.1715 12.7417 44.2135 12.7951 44.2649C12.8484 44.3162 12.9662 44.392 13.0569 44.4333C13.1476 44.4746 13.2218 44.5283 13.2218 44.5526C13.2218 44.5769 13.2494 44.5967 13.283 44.5967C13.3373 44.5967 13.8035 44.845 13.8813 44.9152C13.9769 45.0015 14.6605 45.3942 14.7153 45.3942C14.7513 45.3942 14.7807 45.4181 14.7807 45.4473C14.7807 45.4766 14.8161 45.5005 14.8593 45.5005C14.9026 45.5005 14.9959 45.5483 15.0667 45.6068C15.1374 45.6653 15.237 45.7131 15.2878 45.7131C15.3387 45.7131 15.3803 45.7371 15.3803 45.7663C15.3803 45.7955 15.4283 45.8195 15.4869 45.8195C15.5456 45.8195 15.6325 45.8673 15.68 45.9258C15.7276 45.9843 15.7831 46.0321 15.8035 46.0321C15.8238 46.0321 16.1585 46.1876 16.5471 46.3776C16.9358 46.5677 17.2774 46.7232 17.3063 46.7232C17.3352 46.7232 17.3588 46.7426 17.3588 46.7664C17.3588 46.7902 17.4533 46.8425 17.5687 46.8827C17.6841 46.9228 17.7785 46.9751 17.7785 46.9989C17.7785 47.0227 17.8325 47.0422 17.8985 47.0422C17.9644 47.0422 18.0184 47.0661 18.0184 47.0953C18.0184 47.1246 18.0723 47.1485 18.1383 47.1485C18.2042 47.1485 18.2582 47.1724 18.2582 47.2016C18.2582 47.2309 18.2933 47.2548 18.3362 47.2548C18.4465 47.2548 18.7368 47.3798 18.7374 47.4276C18.7376 47.4495 18.7918 47.4674 18.8578 47.4674C18.9237 47.4674 18.9777 47.4914 18.9777 47.5206C18.9777 47.5498 19.0316 47.5738 19.0976 47.5738C19.1635 47.5738 19.2175 47.5977 19.2175 47.6269C19.2175 47.6562 19.2438 47.6801 19.2758 47.6801C19.3079 47.6801 19.49 47.7428 19.6805 47.8194C19.871 47.896 20.1213 47.9949 20.2368 48.0392C20.3522 48.0836 20.6354 48.2003 20.8661 48.2987C21.0968 48.397 21.3329 48.4775 21.3908 48.4775C21.4486 48.4775 21.4959 48.5014 21.4959 48.5307C21.4959 48.5599 21.5312 48.5838 21.5745 48.5838C21.6178 48.5838 21.7649 48.6317 21.9014 48.6902C22.0379 48.7486 22.1914 48.7965 22.2424 48.7965C22.2935 48.7965 22.3353 48.8204 22.3353 48.8496C22.3353 48.8789 22.3851 48.9028 22.4459 48.9028C22.5069 48.9028 22.6443 48.9415 22.7514 48.9889C22.9274 49.0668 23.5368 49.2685 24.3438 49.516C24.5087 49.5665 24.6904 49.6287 24.7477 49.6541C24.8049 49.6794 24.9061 49.7002 24.9725 49.7002C25.0389 49.7002 25.0933 49.7241 25.0933 49.7534C25.0933 49.7826 25.1591 49.8065 25.2396 49.8065C25.3201 49.8065 25.4026 49.8305 25.423 49.8597C25.4434 49.8889 25.5394 49.9129 25.6364 49.9129C25.7334 49.9129 25.8127 49.9368 25.8127 49.966C25.8127 49.9953 25.9072 50.0192 26.0226 50.0192C26.138 50.0192 26.2324 50.0398 26.2324 50.0651C26.2324 50.2345 28.8752 50.2362 29.0774 50.0669C29.1088 50.0407 29.2099 50.0192 29.3022 50.0192C29.3946 50.0192 29.4701 49.9953 29.4701 49.966C29.4701 49.9368 29.5241 49.9129 29.59 49.9129C29.656 49.9129 29.7099 49.8889 29.7099 49.8597C29.7099 49.8305 29.7639 49.8065 29.8299 49.8065C29.8958 49.8065 29.9498 49.7826 29.9498 49.7534C29.9498 49.7241 30.0037 49.7002 30.0697 49.7002C30.1356 49.7002 30.1896 49.6763 30.1896 49.6471C30.1896 49.6178 30.2413 49.5939 30.3045 49.5939C30.3677 49.5939 30.4284 49.5738 30.4394 49.5492C30.4504 49.5246 30.5943 49.4146 30.7592 49.3047C31.1035 49.0754 31.8442 48.4141 32.0517 48.151C32.129 48.0528 32.2109 47.9605 32.2335 47.9459C32.2834 47.9137 32.6069 47.4541 32.748 47.2149C32.804 47.1199 32.8719 47.0422 32.8987 47.0422C32.9256 47.0422 32.9482 47.0003 32.9489 46.9491C32.9496 46.898 33.003 46.7963 33.0675 46.7232C33.132 46.6501 33.1854 46.5484 33.1861 46.4973C33.1868 46.4461 33.2144 46.4042 33.2474 46.4042C33.2804 46.4042 33.3074 46.368 33.3074 46.3237C33.3074 46.2795 33.3343 46.1958 33.3673 46.1377C33.4003 46.0796 33.4542 45.9846 33.4872 45.9265C33.5202 45.8684 33.5472 45.7727 33.5472 45.7139C33.5472 45.655 33.5674 45.6067 33.5921 45.6065C33.6169 45.6064 33.7006 45.421 33.7782 45.1945C33.8558 44.9681 33.9409 44.723 33.9674 44.6499C34.2191 43.9533 34.2966 43.2964 34.2966 41.859C34.2966 40.4823 34.2604 40.1216 34.0457 39.3604C33.9963 39.185 33.9427 38.9816 33.9268 38.9085C33.9109 38.8354 33.875 38.7278 33.847 38.6693C33.7933 38.5572 33.7398 38.3583 33.6862 38.0712C33.6685 37.9762 33.6299 37.8985 33.6006 37.8985C33.5712 37.8985 33.5472 37.8147 33.5472 37.7124C33.5472 37.6101 33.5202 37.5263 33.4872 37.5263C33.4542 37.5263 33.4273 37.468 33.4273 37.3966C33.4273 37.3252 33.4003 37.252 33.3673 37.2339C33.3343 37.2159 33.3074 37.1547 33.3074 37.0979C33.3074 37.0411 33.2804 36.9947 33.2474 36.9947C33.2144 36.9947 33.1874 36.9229 33.1874 36.8352C33.1874 36.7475 33.1605 36.6757 33.1275 36.6757C33.0945 36.6757 33.0675 36.6395 33.0675 36.5953C33.0675 36.551 33.0425 36.4733 33.012 36.4225C32.9815 36.3717 32.8849 36.1627 32.7974 35.9581C32.7099 35.7534 32.5595 35.4561 32.4632 35.2974C32.3669 35.1387 32.2881 34.9773 32.2881 34.9386C32.2881 34.8999 32.2611 34.8683 32.2281 34.8683C32.1951 34.8683 32.1682 34.8204 32.1682 34.762C32.1682 34.7035 32.1412 34.6556 32.1082 34.6556C32.0752 34.6556 32.0483 34.6187 32.0483 34.5737C32.0483 34.5286 31.9943 34.4403 31.9283 34.3776C31.8624 34.3148 31.8084 34.2082 31.8084 34.1405C31.8084 34.073 31.7845 34.0177 31.7553 34.0177C31.7261 34.0177 31.6584 33.94 31.6048 33.8449C31.5513 33.7499 31.4266 33.5525 31.3278 33.4063C31.2289 33.2601 31.0906 33.0448 31.0205 32.9279C30.9504 32.8109 30.8744 32.7033 30.8516 32.6887C30.8288 32.674 30.7447 32.5544 30.6648 32.4229C30.5848 32.2913 30.4992 32.1757 30.4744 32.1659C30.4496 32.1562 30.4294 32.1143 30.4294 32.0729C30.4294 32.0315 30.4024 31.9976 30.3695 31.9976C30.3365 31.9976 30.3095 31.9617 30.3095 31.9178C30.3095 31.874 30.2825 31.8381 30.2496 31.8381C30.2166 31.8381 30.1896 31.8022 30.1896 31.7583C30.1896 31.7145 30.1626 31.6786 30.1296 31.6786C30.0967 31.6786 30.0693 31.6487 30.0689 31.6122C30.0684 31.5756 30.0145 31.4859 29.9491 31.4128C29.8837 31.3397 29.705 31.1124 29.5519 30.9078C29.2007 30.4382 28.813 29.9764 28.6762 29.8649C28.6182 29.8176 28.5708 29.7486 28.5708 29.7116C28.5708 29.6746 28.5226 29.6057 28.4637 29.5584C28.4049 29.5111 28.2237 29.305 28.0613 29.1003C27.8988 28.8956 27.7041 28.6686 27.6287 28.5958C27.5533 28.523 27.4915 28.4478 27.4915 28.4287C27.4915 28.4095 27.4173 28.322 27.3267 28.2341C27.084 27.999 26.9519 27.8535 26.9519 27.8214C26.9519 27.8058 26.8913 27.738 26.817 27.6707C26.7428 27.6034 26.6096 27.467 26.521 27.3675C26.4325 27.2679 26.3111 27.1315 26.2512 27.0643C26.1914 26.9971 26.093 26.8895 26.0324 26.8251C25.9719 26.7607 25.8505 26.6266 25.7626 26.5271C25.6748 26.4276 25.5422 26.2911 25.468 26.2239C25.3938 26.1566 25.3331 26.0888 25.3331 26.0731C25.3331 26.0435 25.2357 25.9343 24.9582 25.6528C24.8673 25.5607 24.7727 25.4614 24.7478 25.4322C24.4715 25.108 24.2766 24.8974 24.2393 24.8829C24.2144 24.8731 24.1939 24.84 24.1939 24.8093C24.1939 24.7787 24.1454 24.7149 24.0862 24.6676C24.0269 24.6203 23.9131 24.4988 23.8332 24.3976C23.7534 24.2964 23.6003 24.129 23.4931 24.0255C23.3858 23.922 23.1016 23.6222 22.8616 23.3592C22.6215 23.0962 22.324 22.7883 22.2004 22.675C22.0767 22.5616 21.9755 22.4455 21.9755 22.4169C21.9755 22.3883 21.9006 22.3015 21.8091 22.224C21.7175 22.1465 21.5354 21.9635 21.4044 21.8173C21.2733 21.6711 21.065 21.4637 20.9413 21.3563C20.8176 21.2489 20.7164 21.1347 20.7164 21.1026C20.7164 21.0704 20.5747 20.9159 20.4016 20.7593C20.2286 20.6027 19.952 20.3224 19.7871 20.1365C19.3693 19.6654 19.275 19.5664 19.0526 19.3654C18.9454 19.2686 18.8577 19.1705 18.8577 19.1476C18.8576 19.1247 18.7952 19.0416 18.7188 18.963C18.6426 18.8843 18.5279 18.7564 18.4641 18.6786C18.4004 18.6009 18.2739 18.4654 18.1832 18.3775C18.0926 18.2896 18.0184 18.202 18.0184 18.1828C18.0184 18.1637 17.9577 18.0877 17.8835 18.0139C17.6421 17.774 17.3588 17.4387 17.3588 17.3931C17.3588 17.3687 17.3049 17.3141 17.2389 17.272C17.173 17.2298 17.119 17.1707 17.1189 17.1406C17.1188 17.1105 17.0372 17.0022 16.9376 16.8998C16.838 16.7975 16.6792 16.5934 16.5849 16.4462C16.4904 16.2991 16.3697 16.1466 16.3164 16.1075C16.2632 16.0683 16.2197 16.0033 16.2197 15.963C16.2197 15.9227 16.1972 15.8898 16.1698 15.8898C16.1424 15.8898 16.0817 15.824 16.0349 15.7436C15.9882 15.6632 15.9026 15.551 15.8449 15.4943C15.7873 15.4376 15.74 15.3599 15.74 15.3215C15.74 15.2832 15.713 15.2518 15.68 15.2518C15.6471 15.2518 15.6201 15.216 15.6201 15.1721C15.6201 15.1282 15.5931 15.0924 15.5601 15.0924C15.5272 15.0924 15.5002 15.0565 15.5002 15.0126C15.5002 14.9688 15.4732 14.9329 15.4402 14.9329C15.4072 14.9329 15.3803 14.9073 15.3803 14.876C15.3803 14.8447 15.2926 14.7071 15.1854 14.5703C14.9659 14.29 14.361 13.3389 14.361 13.274C14.361 13.2507 14.3391 13.2317 14.3123 13.2317C14.2854 13.2317 14.2264 13.148 14.1811 13.0456C14.1359 12.9433 14.0823 12.8596 14.0621 12.8596C14.0419 12.8596 13.9912 12.7759 13.9495 12.6735C13.9077 12.5712 13.8542 12.4875 13.8306 12.4875C13.8069 12.4875 13.7518 12.3798 13.708 12.2482C13.6641 12.1167 13.6043 12.009 13.575 12.009C13.5456 12.009 13.5216 11.9765 13.5216 11.9369C13.5216 11.8744 13.0891 11.0367 12.9211 10.7738C12.8886 10.723 12.8621 10.6452 12.8621 10.601C12.8621 10.5567 12.8351 10.5205 12.8021 10.5205C12.7691 10.5205 12.7422 10.4843 12.7422 10.44C12.7422 10.3958 12.7152 10.3121 12.6822 10.2539C12.6492 10.1959 12.5953 10.1008 12.5623 10.0428C12.5293 9.98469 12.5023 9.889 12.5023 9.83015C12.5023 9.77125 12.4754 9.72308 12.4424 9.72308C12.4094 9.72308 12.3824 9.67524 12.3824 9.61676C12.3824 9.55828 12.3554 9.51044 12.3225 9.51044C12.2895 9.51044 12.2625 9.43867 12.2625 9.35095C12.2625 9.26324 12.2355 9.19147 12.2026 9.19147C12.1696 9.19147 12.1426 9.14331 12.1426 9.0844C12.1426 9.02555 12.1188 8.93582 12.0897 8.88505C11.9704 8.6773 11.9031 8.50628 11.781 8.10167C11.7104 7.86776 11.5978 7.49696 11.5307 7.27767C11.4637 7.05838 11.3863 6.77131 11.3588 6.63974C11.3312 6.50817 11.2802 6.2809 11.2454 6.13471C11.0059 5.12874 10.9373 4.51282 10.9063 3.09124C10.8914 2.41141 10.86 1.85604 10.8364 1.857C10.8129 1.85801 10.7396 1.89984 10.6737 1.95008Z" fill="url(#paint0_linear_364_4241)"/>
    <path fill-rule="evenodd" clip-rule="evenodd" d="M46.5406 17.1916C46.4994 17.2331 46.4643 17.297 46.4643 17.3567C46.4043 17.3832 46.4643 17.3832 46.4043 17.4652C46.3743 17.5162 46.3457 17.6614 46.3457 17.9095C46.3457 18.1576 46.3707 18.3348 46.4057 18.3348C46.4386 18.3348 46.4656 18.4046 46.4656 18.4898C46.4656 18.5751 46.4858 18.6528 46.5106 18.6626C46.5353 18.6723 46.6196 18.7999 46.6979 18.9461C46.947 19.4112 47.1979 19.8359 47.2476 19.8764C47.2656 19.891 47.36 20.0166 47.4575 20.1554C47.555 20.2943 47.655 20.4079 47.6797 20.4079C47.7045 20.408 47.7247 20.4439 47.7247 20.4878C47.7247 20.5316 47.7517 20.5675 47.7847 20.5675C47.8176 20.5675 47.8446 20.5912 47.8446 20.6201C47.8446 20.649 47.8919 20.7238 47.9495 20.7864C48.115 20.9659 49.0186 21.7902 49.0499 21.7902C49.1094 21.7902 49.0851 21.5316 48.9794 21.0397C48.9132 20.7312 48.8551 20.1407 48.8331 19.5512C48.7883 18.3539 48.7846 18.3348 48.5929 18.3348C48.5111 18.3348 48.4442 18.3108 48.4442 18.2816C48.4442 18.2524 48.3902 18.2284 48.3243 18.2284C48.2583 18.2284 48.2044 18.2045 48.2044 18.1753C48.2044 18.146 48.1527 18.1221 48.0894 18.1221C48.0262 18.1221 47.9656 18.1042 47.9545 18.0822C47.9436 18.0603 47.8266 17.9771 47.6947 17.8974C47.4216 17.7323 47.0176 17.397 46.8871 17.2269C46.7863 17.0956 46.6496 17.0817 46.5406 17.1916Z" fill="#FF0000"/>
    <defs>
    <linearGradient id="paint0_linear_364_4241" x1="54" y1="27" x2="-6.42836e-07" y2="27" gradientUnits="userSpaceOnUse">
    <stop stop-color="white"/>
    <stop offset="1" stop-color="white"/>
    </linearGradient>
    </defs>
    </svg>
    