<svg width="900" height="900" viewBox="0 0 900 900" fill="none" xmlns="http://www.w3.org/2000/svg">
<path fill-rule="evenodd" clip-rule="evenodd" d="M622.074 0.447896C621.25 0.631302 616.753 1.15671 612.081 1.61655C596.192 3.1786 575.811 6.51269 565.115 9.29922C562.092 10.086 558.158 10.9313 556.372 11.1767C554.585 11.4212 553.124 11.9776 553.124 12.4109C553.124 12.8451 552.252 13.2004 551.184 13.2004C550.117 13.2004 548.967 13.5991 548.627 14.0864C548.287 14.5737 546.938 14.9724 545.629 14.9724C544.32 14.9724 542.971 15.3711 542.632 15.8584C542.292 16.3457 540.943 16.7444 539.634 16.7444C538.325 16.7444 536.976 17.1431 536.636 17.6304C536.296 18.1178 535.146 18.5165 534.079 18.5165C533.011 18.5165 532.139 18.9152 532.139 19.4025C532.139 19.8898 530.79 20.2885 529.141 20.2885C527.492 20.2885 526.143 20.6872 526.143 21.1745C526.143 21.6618 525 22.0605 523.603 22.0605C522.206 22.0605 520.098 22.8579 518.919 23.8326C517.738 24.8072 515.959 25.6046 514.962 25.6046C513.967 25.6046 513.153 26.0033 513.153 26.4906C513.153 26.9779 512.253 27.3766 511.154 27.3766C510.055 27.3766 509.156 27.7302 509.156 28.1625C509.156 28.5958 506.12 30.0675 502.41 31.4337C498.701 32.8008 494.472 34.6402 493.013 35.5209C491.554 36.4016 489.868 37.1228 489.266 37.1228C488.663 37.1228 488.171 37.4586 488.171 37.8698C488.171 38.28 486.035 39.5691 483.424 40.7342C480.813 41.8985 477.95 43.5562 477.062 44.4174C476.172 45.2786 474.941 45.983 474.325 45.983C473.708 45.983 472.412 46.5572 471.444 47.258C470.476 47.9597 465.412 51.3337 460.191 54.7564C451.341 60.5562 439.683 69.6131 433.408 75.5618C431.925 76.968 428.351 80.31 425.466 82.9902C422.581 85.6704 420.22 88.262 420.22 88.7484C420.22 89.2349 419.412 90.2777 418.425 91.0663C415.677 93.2592 407.229 103.316 407.229 104.393C407.229 104.917 406.834 105.346 406.351 105.346C405.868 105.346 404.914 106.542 404.231 108.004C403.549 109.466 402.649 110.662 402.233 110.662C401.816 110.662 400.917 111.858 400.234 113.32C399.552 114.782 398.597 115.978 398.115 115.978C397.631 115.978 397.236 116.776 397.236 117.75C397.236 118.725 396.787 119.523 396.237 119.523C395.687 119.523 395.238 120.32 395.238 121.295C395.238 122.269 394.788 123.067 394.238 123.067C393.689 123.067 393.239 123.864 393.239 124.839C393.239 125.813 392.789 126.611 392.24 126.611C391.69 126.611 391.241 127.384 391.241 128.33C391.241 129.277 390.791 130.296 390.241 130.598C389.692 130.899 389.242 131.919 389.242 132.865C389.242 133.811 388.873 134.585 388.424 134.585C387.973 134.585 386.993 136.578 386.244 139.015C385.496 141.451 384.6 143.445 384.254 143.445C383.908 143.445 383.026 145.539 382.297 148.097C381.567 150.655 380.075 155.14 378.981 158.064C377.888 160.988 376.617 165.175 376.155 167.367C373.786 178.624 373.254 181.497 372.701 185.974C372.37 188.654 371.669 191.645 371.141 192.621C369.95 194.827 370.655 233.592 372.044 242.236C372.592 245.647 373.335 250.83 373.696 253.754C374.057 256.678 374.738 260.466 375.211 262.171C375.683 263.877 376.61 267.465 377.271 270.146C379.614 279.651 387.03 300.376 388.578 301.75C388.943 302.073 389.242 303.068 389.242 303.962C389.242 304.855 389.692 305.586 390.241 305.586C390.791 305.586 391.241 306.172 391.241 306.889C391.241 307.605 392.14 309.611 393.239 311.345C394.338 313.08 395.238 315.086 395.238 315.802C395.238 316.519 395.687 317.105 396.237 317.105C396.787 317.105 397.236 317.869 397.236 318.803C397.236 319.737 397.573 320.634 397.986 320.797C398.398 320.959 400.49 324.082 402.633 327.737C404.778 331.392 407.739 335.977 409.213 337.926C410.687 339.875 412.979 343.262 414.307 345.452C415.636 347.642 417.51 350.21 418.471 351.157C419.432 352.104 420.22 353.22 420.22 353.635C420.22 354.051 421.119 355.248 422.218 356.293C423.317 357.34 424.217 358.718 424.217 359.358C424.217 359.997 424.666 360.519 425.216 360.519C425.766 360.519 426.216 361.018 426.216 361.627C426.217 362.237 427.334 363.885 428.698 365.291C430.061 366.697 432.642 369.886 434.431 372.379C436.222 374.871 438.703 377.826 439.945 378.944C441.188 380.063 442.211 381.259 442.22 381.602C442.229 381.946 443.465 383.466 444.968 384.981C446.471 386.496 448.824 389.04 450.198 390.637C451.572 392.233 453.497 394.382 454.476 395.413C455.455 396.445 457.479 398.616 458.973 400.237C460.467 401.857 462.599 404.05 463.71 405.11C464.822 406.169 466.823 408.431 468.159 410.136C469.495 411.842 471.397 413.882 472.385 414.67C473.372 415.459 474.181 416.374 474.181 416.704C474.181 417.035 475.305 418.302 476.679 419.52C478.053 420.739 479.177 422.074 479.177 422.488C479.177 422.901 480.414 424.454 481.925 425.94C483.437 427.426 486.472 430.916 488.67 433.697C490.869 436.477 493.132 439.191 493.7 439.728C494.267 440.265 495.82 442.1 497.149 443.805C498.479 445.511 500.376 447.551 501.364 448.339C502.352 449.127 503.16 450.242 503.16 450.816C503.16 451.39 504.172 452.759 505.408 453.859C506.645 454.958 510.127 459.226 513.147 463.343C516.166 467.46 519.171 471.329 519.826 471.941C520.48 472.554 521.301 473.849 521.649 474.821C521.996 475.793 522.646 476.588 523.092 476.588C523.537 476.588 524.462 477.784 525.144 479.246C525.827 480.708 526.781 481.904 527.264 481.904C527.747 481.904 528.142 482.502 528.142 483.233C528.142 483.964 528.592 484.562 529.141 484.562C529.691 484.562 530.141 485.085 530.141 485.723C530.141 486.363 531.04 487.742 532.139 488.788C533.238 489.834 534.138 491.305 534.138 492.056C534.138 492.807 534.482 493.422 534.903 493.422C536.1 493.422 549.127 511.372 549.127 513.022C549.127 513.451 549.576 513.8 550.126 513.8C550.676 513.8 551.125 514.598 551.125 515.573C551.125 516.547 551.52 517.345 552.004 517.345C552.486 517.345 553.441 518.541 554.123 520.003C554.806 521.465 555.76 522.661 556.243 522.661C556.726 522.661 557.121 523.458 557.121 524.433C557.121 525.407 557.458 526.208 557.871 526.212C558.283 526.215 559.116 527.113 559.721 528.205C562.751 533.672 570.489 546.194 571.077 546.583C571.446 546.827 573.735 550.615 576.164 555C578.594 559.386 580.924 563.107 581.343 563.27C581.76 563.433 582.103 564.329 582.103 565.263C582.103 566.198 582.553 566.962 583.102 566.962C583.652 566.962 584.102 567.725 584.102 568.66C584.102 569.594 584.438 570.491 584.851 570.654C586.078 571.137 590.097 578.514 590.097 580.283C590.097 581.183 590.475 582.127 590.937 582.379C591.398 582.633 593.021 586.344 594.542 590.627C596.064 594.911 598.452 601.206 599.851 604.617C601.249 608.028 602.594 612.514 602.841 614.585C603.088 616.656 603.643 618.351 604.074 618.351C604.867 618.351 605.738 621.315 606.747 627.438C607.049 629.268 607.699 630.986 608.19 631.255C608.682 631.525 609.084 633.316 609.084 635.237C609.084 637.158 609.533 638.729 610.083 638.729C610.632 638.729 611.082 640.842 611.082 643.425C611.082 646.008 611.488 648.5 611.985 648.963C612.481 649.426 613.164 651.798 613.501 654.234C613.839 656.671 614.552 661.455 615.084 664.867C617.193 678.375 618.114 705.051 617.11 723.567C616.166 740.967 615.679 744.943 613.061 756.569C612.458 759.25 611.721 763.137 611.423 765.208C611.124 767.279 610.477 768.974 609.982 768.974C609.488 768.974 609.084 770.545 609.084 772.465C609.084 774.386 608.634 776.204 608.084 776.505C607.535 776.806 607.085 778.623 607.085 780.544C607.085 782.465 606.635 784.036 606.086 784.036C605.536 784.036 605.086 784.809 605.086 785.756C605.086 786.702 604.637 787.722 604.087 788.023C603.538 788.324 603.088 789.291 603.088 790.173C603.088 792.44 596.513 807.007 590.481 818.1C589.171 820.511 588.099 822.82 588.099 823.232C588.099 823.644 587.199 824.837 586.1 825.883C585.001 826.929 584.102 828.308 584.102 828.947C584.102 829.586 583.652 830.109 583.102 830.109C582.553 830.109 582.103 830.906 582.103 831.881C582.103 832.856 581.653 833.653 581.104 833.653C580.554 833.653 580.104 834.45 580.104 835.425C580.104 836.4 579.765 837.197 579.349 837.197C578.933 837.197 577.961 838.492 577.188 840.077C576.414 841.661 574.507 844.623 572.947 846.66C571.388 848.697 570.112 850.619 570.112 850.932C570.112 851.244 569.55 852.056 568.863 852.735C566.628 854.944 565.639 856.205 564.197 858.683C563.418 860.024 562.405 861.12 561.949 861.12C561.492 861.12 561.118 861.718 561.118 862.449C561.118 863.18 560.669 863.778 560.119 863.778C559.569 863.778 559.12 864.172 559.12 864.654C559.12 865.584 557.055 868.001 553.374 871.38C552.138 872.515 551.125 873.782 551.125 874.196C551.125 874.611 549.519 876.523 547.554 878.446C533.413 892.287 530.383 895.231 528.392 897.066C527.156 898.206 526.143 899.411 526.143 899.746C526.143 900.36 535.566 899.843 551.125 898.373C563.626 897.193 584.665 893.982 600.59 890.824C604.437 890.061 608.934 889.205 610.583 888.921C612.231 888.637 616.054 887.69 619.076 886.817C622.099 885.943 626.709 884.701 629.319 884.056C631.929 883.411 634.066 882.572 634.066 882.191C634.066 881.81 635.415 881.498 637.063 881.498C638.712 881.498 640.061 881.099 640.061 880.612C640.061 880.125 641.159 879.726 642.501 879.726C643.843 879.726 645.218 879.327 645.557 878.84C645.897 878.353 647.272 877.954 648.614 877.954C649.956 877.954 651.053 877.555 651.053 877.068C651.053 876.581 651.91 876.182 652.957 876.182C655.093 876.182 656.224 875.725 678.284 865.937C686.941 862.096 694.022 858.643 694.022 858.265C694.022 857.886 694.612 857.576 695.332 857.576C696.054 857.576 697.609 856.778 698.789 855.803C699.968 854.829 701.163 854.031 701.444 854.031C702.217 854.031 716.315 845.875 717.826 844.554C718.553 843.918 719.544 843.399 720.03 843.399C720.515 843.399 721.944 842.494 723.206 841.386C724.468 840.28 727.074 838.398 728.997 837.207C730.921 836.015 732.999 834.629 733.615 834.125C734.231 833.622 738.667 830.02 743.473 826.122C748.278 822.223 753.17 818.095 754.344 816.949C755.517 815.802 759.4 812.161 762.973 808.858C770.598 801.807 772.966 799.329 772.966 798.397C772.966 798.024 773.865 797.143 774.964 796.44C776.063 795.738 776.963 794.834 776.963 794.432C776.963 794.03 778.087 792.705 779.461 791.487C780.835 790.268 781.959 788.952 781.959 788.562C781.959 788.171 782.747 787.03 783.708 786.026C788.342 781.19 793.706 773.034 797.108 765.651C797.839 764.067 798.775 762.772 799.191 762.772C799.606 762.772 799.946 761.998 799.946 761.052C799.946 760.106 800.396 759.086 800.945 758.784C801.495 758.483 801.945 757.463 801.945 756.517C801.945 755.571 802.394 754.797 802.944 754.797C803.494 754.797 803.943 754.194 803.943 753.456C803.943 752.719 804.34 751.423 804.826 750.576C807.01 746.771 808.095 744.304 809.403 740.178C810.177 737.742 811.513 734.046 812.374 731.966C815.761 723.782 818.695 711.029 821.187 693.662C824.308 671.91 821.87 624.174 816.73 606.389C815.885 603.466 814.642 598.681 813.966 595.757C813.292 592.833 812.128 589.046 811.381 587.34C810.633 585.634 809.478 582.445 808.813 580.252C808.148 578.059 807.23 575.886 806.772 575.423C806.316 574.961 805.942 573.664 805.942 572.543C805.942 571.423 805.492 570.506 804.943 570.506C804.393 570.506 803.943 569.31 803.943 567.848C803.943 566.386 803.494 565.19 802.944 565.19C802.394 565.19 801.945 564.193 801.945 562.974C801.945 561.756 801.495 560.759 800.945 560.759C800.396 560.759 799.946 559.763 799.946 558.544C799.946 557.326 799.496 556.329 798.947 556.329C798.397 556.329 797.948 555.556 797.948 554.61C797.948 553.663 797.498 552.644 796.948 552.342C796.399 552.041 795.949 551.021 795.949 550.075C795.949 549.129 795.499 548.355 794.95 548.355C794.4 548.355 793.95 547.558 793.95 546.583C793.95 545.609 793.501 544.811 792.951 544.811C792.402 544.811 791.952 544.255 791.952 543.575C791.952 542.012 778.949 519.662 777.809 519.265C777.343 519.102 776.963 518.293 776.963 517.466C776.963 516.64 776.063 515.389 774.964 514.687C773.865 513.984 772.966 512.899 772.966 512.276C772.966 511.653 772.516 511.142 771.966 511.142C771.417 511.142 770.967 510.544 770.967 509.813C770.967 509.082 770.517 508.484 769.968 508.484C769.418 508.484 768.968 508.072 768.968 507.569C768.968 507.065 767.507 505.278 765.721 503.597C760.439 498.626 758.577 496.662 756.701 494.083C755.726 492.742 752.465 489.461 749.456 486.793C746.449 484.125 743.986 481.723 743.986 481.455C743.986 480.357 713.198 452.665 711.977 452.665C711.519 452.665 710.859 451.868 710.511 450.893C710.162 449.919 709.509 449.121 709.061 449.121C708.613 449.121 701.959 443.639 694.275 436.938C686.592 430.238 677.289 422.363 673.601 419.44C661.94 410.191 660.65 409.154 655.872 405.172C653.301 403.03 650.828 401.275 650.376 401.274C649.924 401.273 648.655 400.077 647.556 398.618C646.457 397.159 645.196 395.964 644.754 395.963C644.312 395.961 639.693 392.172 634.488 387.543C629.284 382.914 624.699 379.125 624.3 379.123C623.9 379.122 622.674 377.927 621.575 376.468C620.475 375.008 619.229 373.813 618.805 373.812C617.938 373.81 607.085 364.371 607.085 363.62C607.085 363.356 604.725 361.019 601.839 358.428C598.953 355.836 594.794 351.808 592.596 349.475C590.397 347.143 587.242 343.99 585.584 342.467C583.926 340.944 581.475 338.303 580.135 336.597C578.796 334.891 577.002 332.898 576.146 332.167C575.291 331.436 573.349 329.209 571.831 327.219C570.313 325.229 568.181 322.754 567.093 321.719C566.006 320.684 565.115 319.421 565.115 318.914C565.115 318.406 564.742 317.991 564.285 317.991C563.828 317.991 562.816 316.895 562.036 315.554C561.257 314.214 559.831 312.345 558.87 311.399C557.909 310.455 557.121 309.192 557.121 308.594C557.121 307.995 556.784 307.373 556.372 307.21C555.521 306.875 550.442 299.614 547.799 294.954C546.832 293.248 545.194 290.657 544.159 289.195C543.124 287.733 542.245 285.839 542.205 284.986C542.165 284.134 541.795 283.432 541.382 283.429C540.485 283.421 538.135 279.13 538.135 277.5C538.135 276.866 537.685 276.348 537.135 276.348C536.586 276.348 536.136 275.574 536.136 274.628C536.136 273.682 535.687 272.662 535.137 272.361C534.587 272.059 534.138 270.84 534.138 269.65C534.138 268.46 533.688 267.488 533.138 267.488C532.589 267.488 532.139 266.69 532.139 265.715C532.139 264.741 531.689 263.943 531.14 263.943C530.59 263.943 530.141 262.947 530.141 261.728C530.141 260.51 529.691 259.513 529.141 259.513C528.592 259.513 528.142 258.317 528.142 256.855C528.142 255.393 527.692 254.197 527.143 254.197C526.593 254.197 526.143 253.224 526.143 252.034C526.143 250.845 525.694 249.625 525.144 249.324C524.594 249.023 524.145 247.627 524.145 246.223C524.145 244.819 523.743 243.449 523.251 243.18C522.76 242.91 522.132 241.192 521.857 239.362C521.584 237.531 520.546 232.246 519.553 227.617C517.127 216.299 517.128 191.295 519.556 181.101C523.575 164.223 524.226 162.051 525.261 162.051C525.746 162.051 526.143 161.079 526.143 159.889C526.143 158.699 526.593 157.48 527.143 157.178C527.692 156.877 528.142 155.857 528.142 154.911C528.142 153.965 528.592 153.191 529.141 153.191C529.691 153.191 530.141 152.194 530.141 150.976C530.141 149.758 530.59 148.761 531.14 148.761C531.689 148.761 532.139 148.238 532.139 147.6C532.139 146.96 533.038 145.581 534.138 144.535C535.237 143.489 536.136 142.019 536.136 141.267C536.136 140.516 536.586 139.901 537.135 139.901C537.685 139.901 538.135 139.455 538.135 138.909C538.135 135.079 562.9 110.067 573.609 103.081C575.808 101.646 578.725 99.5756 580.094 98.4796C581.462 97.3836 582.893 96.486 583.27 96.486C583.649 96.486 584.553 95.9881 585.28 95.3785C586.005 94.7698 587.949 93.6738 589.598 92.9437C591.246 92.2128 592.82 91.4154 593.095 91.1717C594.639 89.7975 608.976 83.7557 614.206 82.2743C633.467 76.8182 653.291 75.6168 670.584 78.8578C685.001 81.5593 687.396 82.3434 703.757 89.7169C704.99 90.2724 706.002 91.0264 706.006 91.3914C706.01 91.7565 706.913 92.056 708.012 92.056C709.112 92.056 710.011 92.4547 710.011 92.942C710.011 93.4293 710.685 93.828 711.51 93.828C712.334 93.828 713.009 94.1629 713.009 94.5714C713.009 94.9807 714.082 95.7489 715.394 96.2787C721.25 98.6444 739.989 115.354 739.989 118.209C739.989 118.932 740.355 119.523 740.802 119.523C741.249 119.523 742.233 120.918 742.987 122.624C743.742 124.329 744.725 125.725 745.173 125.725C745.619 125.725 745.985 126.897 745.985 128.33C745.985 129.764 746.435 131.183 746.984 131.484C747.534 131.785 747.984 133.004 747.984 134.194C747.984 135.384 748.379 136.357 748.863 136.357C752.125 136.357 752.202 187.015 748.949 193.505C745.998 199.393 746.097 243.89 749.067 246.622C749.57 247.084 749.982 248.228 749.982 249.164C749.982 251.496 754.195 262.366 755.612 263.691C756.879 264.875 757.094 264.497 761.045 254.197C763.073 248.912 768.255 240.907 769.65 240.907C770.874 240.907 774.962 245.849 774.963 247.331C774.963 248.183 775.304 248.881 775.719 248.881C776.134 248.881 776.98 250.177 777.598 251.761C779.609 256.91 781.446 260.833 782.061 261.285C782.392 261.529 783.496 263.323 784.514 265.272C789.271 274.38 802.746 288.752 806.528 288.752C807.305 288.752 807.94 289.071 807.94 289.46C807.94 290.348 812.724 291.83 820.182 293.254C824.829 294.141 826.982 294.127 831.424 293.182C834.447 292.539 836.919 291.678 836.919 291.268C836.919 290.859 837.524 290.524 838.263 290.524C839.003 290.524 840.422 289.727 841.416 288.752C842.411 287.777 843.647 286.98 844.162 286.98C845.709 286.98 866.658 267.565 869.865 263.159C871.502 260.911 873.19 258.651 873.617 258.139C874.366 257.24 875.513 255.511 878.14 251.318C878.827 250.221 879.639 249.125 879.945 248.881C881.432 247.696 889.056 232.466 891.698 225.402C898.94 206.032 899.838 201.43 899.993 182.865C900.104 169.506 898.881 158.514 896.838 154.52C896.34 153.546 895.068 149.743 894.01 146.07C892.954 142.398 890.919 137.239 889.487 134.608C888.055 131.976 886.883 129.379 886.883 128.836C886.883 127.336 884.485 123.082 883.636 123.074C883.223 123.07 882.886 122.269 882.886 121.295C882.886 120.32 882.437 119.523 881.887 119.523C881.337 119.523 880.888 118.813 880.888 117.946C880.888 117.079 879.988 115.795 878.889 115.092C877.79 114.39 876.891 113.106 876.891 112.239C876.891 111.372 876.441 110.662 875.891 110.662C875.342 110.662 874.892 110.226 874.892 109.692C874.892 108.525 866.312 96.9388 863.151 93.8368C861.914 92.6239 860.902 91.3409 860.902 90.9874C860.902 90.633 859.328 88.9478 857.405 87.2422C855.481 85.5366 853.907 83.9055 853.907 83.6175C853.907 82.9991 840.476 71.3462 832.486 65.0324C825.821 59.7668 825.683 59.664 819.932 55.7248C817.458 54.0298 814.64 52.0062 813.669 51.2274C812.698 50.4477 810.674 49.2507 809.172 48.5675C807.671 47.8835 805.714 46.6236 804.826 45.7677C803.936 44.9118 802.574 44.211 801.798 44.211C801.022 44.211 799.739 43.4136 798.947 42.4389C798.154 41.4643 797.131 40.6669 796.672 40.6669C796.215 40.6669 793.278 39.1509 790.148 37.2974C787.018 35.4447 781.873 32.753 778.713 31.3168C775.555 29.8805 772.97 28.4071 772.968 28.0412C772.967 27.6752 772.066 27.3766 770.967 27.3766C769.868 27.3766 768.968 26.9779 768.968 26.4906C768.968 26.0033 768.069 25.6046 766.97 25.6046C765.871 25.6046 764.971 25.2059 764.971 24.7186C764.971 24.2313 764.297 23.8326 763.472 23.8326C762.648 23.8326 761.973 23.4339 761.973 22.9466C761.973 22.4592 760.849 22.0605 759.475 22.0605C758.101 22.0605 756.977 21.6618 756.977 21.1745C756.977 20.6872 755.853 20.2885 754.479 20.2885C753.105 20.2885 751.981 19.9616 751.981 19.5628C751.981 19.1633 749.732 18.2941 746.984 17.6304C744.236 16.9668 741.988 16.0976 741.988 15.698C741.988 15.2993 740.954 14.9724 739.69 14.9724C738.425 14.9724 736.965 14.6198 736.442 14.1891C734.028 12.1983 710.337 6.39308 696.521 4.40574C692.673 3.85286 687.277 3.03684 684.529 2.59295C673.79 0.856351 657.787 -0.0952326 641.061 0.00754551C631.443 0.0669087 622.899 0.265377 622.074 0.447896ZM177.894 32.5014C176.795 33.3378 173.872 36.2138 171.399 38.8922C168.926 41.5707 166.003 44.584 164.904 45.5887C163.804 46.5935 161.556 48.9485 159.907 50.8225C158.258 52.6964 155.898 55.1471 154.661 56.2679C153.424 57.3896 152.413 58.724 152.413 59.2334C152.413 59.7429 151.963 60.1593 151.413 60.1593C150.864 60.1593 150.414 60.5713 150.414 61.0746C150.414 61.5787 148.84 63.3862 146.917 65.0918C144.993 66.7974 143.419 68.5171 143.419 68.9132C143.419 69.3101 142.47 70.5922 141.31 71.7635C140.15 72.9348 137.371 76.2848 135.135 79.2087C132.899 82.1325 130.251 85.1698 129.25 85.9575C128.249 86.746 127.431 87.9537 127.431 88.6421C127.431 89.3297 126.531 90.4673 125.432 91.1699C124.333 91.8725 123.434 92.786 123.434 93.1998C123.434 93.9254 117.677 101.787 116.485 102.688C116.162 102.932 115.349 104.128 114.679 105.346C114.007 106.564 111.642 110.352 109.422 113.763C107.201 117.175 104.618 121.461 103.681 123.288C102.743 125.116 101.633 126.611 101.214 126.611C100.794 126.611 100.45 127.408 100.45 128.383C100.45 129.357 100.11 130.155 99.6946 130.155C99.2789 130.155 98.3046 131.451 97.5282 133.034C96.7517 134.618 94.7952 138.505 93.1783 141.673C91.5625 144.84 89.8807 148.229 89.442 149.204C89.0033 150.179 87.0557 154.166 85.1151 158.064C83.1735 161.963 81.0171 166.747 80.3216 168.697C79.6261 170.646 78.6998 172.62 78.2621 173.082C77.8244 173.545 77.4666 174.817 77.4666 175.91C77.4666 177.002 77.017 178.141 76.4674 178.443C75.9178 178.744 75.4681 180.162 75.4681 181.596C75.4681 183.03 75.0184 184.202 74.4688 184.202C73.9192 184.202 73.4695 185.398 73.4695 186.86C73.4695 188.322 73.0198 189.518 72.4702 189.518C71.9206 189.518 71.471 191.089 71.471 193.01C71.471 194.931 71.0213 196.748 70.4717 197.049C69.9221 197.35 69.4724 199.145 69.4724 201.036C69.4724 202.928 69.0707 204.696 68.5791 204.966C68.0874 205.235 67.4299 206.953 67.1191 208.784C66.8073 210.614 66.0878 214.504 65.5203 217.427C59.5186 248.337 58.932 274.573 63.4807 308.687C64.7208 317.986 65.925 324.65 67.4858 330.838C68.0994 333.274 68.8439 336.863 69.1396 338.812C69.4354 340.761 70.081 342.735 70.5736 343.198C71.0673 343.661 71.471 345.355 71.471 346.963C71.471 348.571 71.8717 349.887 72.3613 349.887C72.85 349.887 73.4835 351.183 73.7673 352.767C74.0511 354.351 74.8056 357.241 75.4451 359.19C76.0836 361.14 76.8341 363.731 77.1119 364.949C77.3897 366.168 77.9733 367.962 78.408 368.937C78.8427 369.911 80.2007 373.101 81.4268 376.025C84.8783 384.255 88.5417 392.487 90.5912 396.615C91.6165 398.681 92.4558 400.973 92.4558 401.71C92.4558 402.446 92.9055 403.048 93.4551 403.048C94.0047 403.048 94.4544 403.822 94.4544 404.768C94.4544 405.714 94.9041 406.734 95.4537 407.035C96.0033 407.337 96.453 408.556 96.453 409.746C96.453 410.936 96.9026 411.908 97.4522 411.908C98.0019 411.908 98.4515 412.706 98.4515 413.68C98.4515 414.655 98.7893 415.454 99.201 415.456C99.6127 415.458 101.075 417.649 102.449 420.326C103.823 423.002 105.285 425.193 105.696 425.195C106.108 425.197 106.446 425.8 106.446 426.535C106.446 428.098 117.104 446.294 119.009 447.983C119.721 448.614 120.59 449.927 120.937 450.899C121.285 451.871 121.989 452.665 122.501 452.665C123.014 452.665 123.434 453.375 123.434 454.241C123.434 455.109 124.333 456.393 125.432 457.095C126.531 457.798 127.431 459.082 127.431 459.949C127.431 460.816 127.88 461.525 128.43 461.525C128.98 461.525 129.429 462.123 129.429 462.854C129.429 463.585 129.879 464.184 130.428 464.184C130.978 464.184 131.429 464.682 131.429 465.291C131.43 465.901 132.554 467.557 133.927 468.973C135.301 470.389 136.424 471.823 136.424 472.16C136.424 472.497 137.211 473.598 138.173 474.608C139.135 475.618 140.821 477.547 141.92 478.896C143.019 480.244 144.93 482.428 146.167 483.747C147.404 485.067 148.416 486.5 148.416 486.931C148.416 487.362 149.315 488.289 150.414 488.992C151.513 489.695 152.413 490.779 152.413 491.403C152.413 492.026 152.862 492.536 153.412 492.536C153.962 492.536 154.411 492.988 154.411 493.54C154.411 494.092 155.22 495.188 156.207 495.976C157.195 496.764 159.084 498.805 160.405 500.51C161.725 502.216 165.489 506.1 168.77 509.143C172.051 512.184 175.67 515.762 176.814 517.092C179.947 520.735 218.112 554.421 224.282 558.987C227.244 561.18 231.61 564.669 233.983 566.74C236.356 568.811 238.567 570.506 238.895 570.506C239.802 570.506 241.896 572.532 243.168 574.64C244.069 576.132 243.994 576.75 242.806 577.625C241.588 578.521 239.665 578.264 232.584 576.259C227.786 574.901 223.434 573.45 222.912 573.034C222.39 572.618 221.153 572.278 220.164 572.278C219.175 572.278 218.365 571.879 218.365 571.392C218.365 570.904 217.016 570.506 215.367 570.506C213.718 570.506 212.369 570.107 212.369 569.62C212.369 569.132 211.47 568.734 210.371 568.734C209.272 568.734 208.372 568.335 208.372 567.848C208.372 567.36 207.473 566.962 206.374 566.962C205.275 566.962 204.375 566.563 204.375 566.076C204.375 565.588 203.525 565.19 202.485 565.19C201.444 565.19 196.777 563.065 192.111 560.468C187.446 557.871 182.226 555.231 180.511 554.601C178.798 553.972 177.395 553.106 177.395 552.678C177.395 552.249 176.787 551.899 176.044 551.899C175.301 551.899 173.282 550.703 171.556 549.241C169.831 547.779 167.741 546.583 166.911 546.583C166.082 546.583 165.403 546.184 165.403 545.697C165.403 545.21 164.729 544.811 163.904 544.811C163.08 544.811 162.405 544.498 162.405 544.117C162.405 543.734 161.072 542.723 159.444 541.87C157.815 541.017 155.904 539.834 155.197 539.243C154.49 538.651 150.539 535.794 146.417 532.895C142.295 529.995 138.195 526.906 137.307 526.028C136.417 525.15 135.379 524.433 134.999 524.433C133.928 524.433 94.4544 489.173 94.4544 488.216C94.4544 487.749 94.1137 487.235 93.698 487.072C93.2813 486.91 91.3696 484.984 89.451 482.793C84.3997 477.026 82.3641 474.905 78.7157 471.608C76.93 469.994 75.4681 468.261 75.4681 467.757C75.4681 467.254 75.0184 466.842 74.4688 466.842C73.9192 466.842 73.4695 466.425 73.4695 465.916C73.4695 465.406 72.4573 464.06 71.2211 462.925C68.0225 459.99 65.4753 457.163 65.4753 456.549C65.4753 456.259 64.3441 454.769 62.9621 453.236C59.1808 449.045 59.1488 449.006 55.4995 444.248C53.6308 441.812 51.7382 439.685 51.2935 439.523C50.8498 439.36 50.4861 438.663 50.4861 437.972C50.4861 437.281 50.0364 436.717 49.4868 436.717C48.9372 436.717 48.4875 436.301 48.4875 435.791C48.4875 435.282 47.3983 433.899 46.0673 432.718C44.7352 431.537 43.3562 429.762 43.0015 428.771C42.6467 427.781 41.9382 426.971 41.4256 426.971C40.913 426.971 40.4933 426.54 40.4933 426.013C40.4933 425.487 38.8525 422.796 36.8469 420.032C34.8414 417.27 31.4778 412.617 29.3733 409.693C27.2678 406.77 25.1983 403.962 24.7756 403.454C23.0059 401.33 20.3458 397.182 19.8302 395.739C19.5244 394.886 18.8779 394.188 18.3922 394.188C17.9076 394.188 17.5098 393.59 17.5098 392.859C17.5098 392.128 17.0602 391.53 16.5106 391.53C15.961 391.53 15.5113 390.932 15.5113 390.201C15.5113 389.47 15.1745 388.868 14.7618 388.865C14.3491 388.861 13.5047 387.964 12.8842 386.871C7.10434 376.697 1.87811 369.654 0.80888 370.602C-0.561133 371.817 -0.077482 427.473 1.41045 439.818C2.78046 451.187 7.42611 476.811 9.5216 484.562C10.1152 486.755 10.8626 490.443 11.1844 492.758C11.5052 495.072 12.1607 496.966 12.6404 496.966C13.12 496.966 13.5127 498.162 13.5127 499.624C13.5127 501.086 13.9624 502.282 14.512 502.282C15.0616 502.282 15.5113 503.654 15.5113 505.331C15.5113 507.008 15.961 508.626 16.5106 508.927C17.0602 509.229 17.5098 510.847 17.5098 512.524C17.5098 514.201 17.9595 515.573 18.5091 515.573C19.0587 515.573 19.5084 516.376 19.5084 517.359C19.5084 519.854 21.8357 526.205 22.7491 526.205C23.1658 526.205 23.5055 526.876 23.5055 527.696C23.5055 529.585 27.4417 539.658 28.6178 540.78C29.1035 541.243 29.5012 542.119 29.5012 542.726C29.5012 543.334 31.126 546.942 33.1116 550.745C35.0982 554.548 37.2176 558.655 37.8222 559.873C38.4278 561.092 39.7258 563.146 40.7071 564.44C41.6884 565.734 42.4918 567.628 42.4918 568.649C42.4918 569.67 42.9415 570.506 43.4911 570.506C44.0407 570.506 44.4904 571.104 44.4904 571.835C44.4904 572.566 44.9401 573.164 45.4897 573.164C46.0393 573.164 46.489 573.927 46.489 574.862C46.489 575.796 46.8267 576.693 47.2384 576.856C47.6511 577.018 49.9715 580.526 52.3967 584.651C54.821 588.776 57.1973 592.564 57.6759 593.068C59.0449 594.509 65.4753 604.323 65.4753 604.972C65.4753 605.292 66.3746 606.13 67.4738 606.832C68.5731 607.535 69.4724 608.819 69.4724 609.686C69.4724 610.553 69.9221 611.262 70.4717 611.262C71.0213 611.262 71.471 611.861 71.471 612.591C71.471 613.322 71.9206 613.921 72.4702 613.921C73.0198 613.921 73.4695 614.519 73.4695 615.25C73.4695 615.981 73.8223 616.579 74.253 616.579C74.6846 616.579 75.7789 617.675 76.6842 619.015C78.5768 621.814 80.2816 623.801 86.2104 630.113C88.5457 632.601 90.4573 634.998 90.4573 635.441C90.4573 635.884 91.8063 637.364 93.4551 638.729C95.1039 640.094 96.453 641.647 96.453 642.178C96.453 642.709 97.3523 643.642 98.4515 644.251C99.5507 644.859 100.45 645.713 100.45 646.148C100.45 646.583 101.253 647.583 102.234 648.372C103.215 649.159 105.801 651.78 107.98 654.195C115.518 662.551 149.365 692.621 160.88 701.193C163.498 703.143 166.598 705.544 167.771 706.529C168.942 707.514 171.474 709.301 173.398 710.501C175.321 711.701 178.293 713.885 180.001 715.354C181.71 716.825 185.798 719.733 189.086 721.818C192.375 723.903 195.923 726.307 196.973 727.159C198.021 728.01 200.453 729.683 202.377 730.875C204.3 732.067 206.746 733.75 207.812 734.617C208.877 735.482 210.173 736.191 210.692 736.191C211.211 736.191 212.362 736.892 213.252 737.748C214.14 738.604 216.104 739.867 217.616 740.556C219.127 741.243 220.364 742.138 220.364 742.543C220.364 742.948 220.823 743.279 221.384 743.279C222.288 743.279 230.059 747.416 231.356 748.587C232.948 750.025 244.342 756.569 245.255 756.569C245.854 756.569 246.345 756.968 246.345 757.455C246.345 757.943 246.935 758.341 247.655 758.341C248.377 758.341 249.931 759.139 251.112 760.113C252.291 761.088 253.95 761.886 254.797 761.886C255.644 761.886 256.338 762.284 256.338 762.772C256.338 763.259 257.138 763.658 258.115 763.658C259.094 763.658 260.542 764.455 261.334 765.43C262.127 766.404 263.052 767.202 263.392 767.202C263.73 767.202 269.308 769.793 275.786 772.961C282.263 776.128 287.957 778.72 288.439 778.72C288.92 778.72 289.314 779.044 289.314 779.44C289.314 779.837 290.888 780.709 292.811 781.378C294.735 782.047 296.309 782.919 296.309 783.316C296.309 783.712 297.208 784.036 298.308 784.036C299.407 784.036 300.306 784.435 300.306 784.922C300.306 785.409 301.205 785.808 302.305 785.808C303.404 785.808 304.303 786.207 304.303 786.694C304.303 787.181 304.888 787.58 305.603 787.58C307.441 787.58 312.28 789.664 312.289 790.46C312.293 790.826 313.197 791.124 314.296 791.124C315.395 791.124 316.295 791.523 316.295 792.01C316.295 792.497 317.194 792.896 318.293 792.896C319.392 792.896 320.292 793.295 320.292 793.782C320.292 794.269 320.729 794.668 321.264 794.668C321.799 794.668 324.833 795.713 328.009 796.99C331.184 798.266 335.356 799.915 337.279 800.654C339.203 801.393 343.923 803.339 347.769 804.978C351.614 806.617 355.548 807.958 356.513 807.958C357.476 807.958 358.264 808.357 358.264 808.844C358.264 809.332 358.854 809.731 359.575 809.731C360.297 809.731 362.748 810.528 365.023 811.503C367.299 812.477 369.856 813.275 370.707 813.275C371.558 813.275 372.254 813.673 372.254 814.161C372.254 814.648 373.085 815.047 374.099 815.047C375.114 815.047 377.405 815.692 379.189 816.482C382.123 817.78 392.281 821.142 405.73 825.266C408.478 826.109 411.507 827.144 412.461 827.568C413.416 827.99 415.102 828.337 416.209 828.337C417.316 828.337 418.221 828.736 418.221 829.223C418.221 829.71 419.318 830.109 420.66 830.109C422.002 830.109 423.377 830.508 423.717 830.995C424.057 831.482 425.657 831.881 427.274 831.881C428.89 831.881 430.212 832.28 430.212 832.767C430.212 833.254 431.786 833.653 433.71 833.653C435.634 833.653 437.207 833.997 437.207 834.418C437.207 837.242 481.254 837.271 484.623 834.449C485.146 834.011 486.832 833.653 488.371 833.653C489.909 833.653 491.169 833.254 491.169 832.767C491.169 832.28 492.068 831.881 493.167 831.881C494.266 831.881 495.166 831.482 495.166 830.995C495.166 830.508 496.065 830.109 497.164 830.109C498.263 830.109 499.163 829.71 499.163 829.223C499.163 828.736 500.062 828.337 501.161 828.337C502.261 828.337 503.16 827.938 503.16 827.451C503.16 826.964 504.022 826.565 505.076 826.565C506.129 826.565 507.14 826.23 507.324 825.82C507.507 825.41 509.905 823.577 512.653 821.746C518.392 817.923 530.737 806.902 534.195 802.517C535.484 800.88 536.849 799.342 537.225 799.098C538.057 798.561 543.448 790.902 545.799 786.916C546.734 785.332 547.865 784.036 548.312 784.036C548.76 784.036 549.137 783.338 549.149 782.485C549.161 781.633 550.05 779.938 551.125 778.72C552.201 777.502 553.09 775.807 553.102 774.954C553.114 774.102 553.574 773.404 554.123 773.404C554.673 773.404 555.122 772.8 555.122 772.062C555.122 771.325 555.572 769.93 556.122 768.961C556.671 767.994 557.571 766.409 558.12 765.442C558.67 764.474 559.12 762.879 559.12 761.898C559.12 760.916 559.456 760.112 559.869 760.109C560.282 760.106 561.677 757.017 562.97 753.242C564.263 749.468 565.682 745.383 566.123 744.165C570.319 732.556 571.611 721.606 571.611 697.649C571.611 674.706 571.007 668.693 567.429 656.006C566.604 653.083 565.712 649.693 565.447 648.475C565.182 647.257 564.583 645.463 564.116 644.488C563.222 642.62 562.33 639.306 561.437 634.52C561.141 632.936 560.499 631.641 560.01 631.641C559.52 631.641 559.12 630.245 559.12 628.54C559.12 626.834 558.67 625.439 558.12 625.439C557.571 625.439 557.121 624.466 557.121 623.276C557.121 622.086 556.671 620.867 556.122 620.566C555.572 620.264 555.122 619.245 555.122 618.298C555.122 617.352 554.673 616.579 554.123 616.579C553.574 616.579 553.124 615.382 553.124 613.921C553.124 612.459 552.674 611.262 552.125 611.262C551.575 611.262 551.125 610.659 551.125 609.921C551.125 609.184 550.709 607.888 550.2 607.042C549.691 606.195 548.082 602.712 546.624 599.301C545.166 595.89 542.658 590.935 541.054 588.29C539.448 585.645 538.135 582.954 538.135 582.309C538.135 581.665 537.685 581.138 537.135 581.138C536.586 581.138 536.136 580.34 536.136 579.366C536.136 578.391 535.687 577.594 535.137 577.594C534.587 577.594 534.138 576.979 534.138 576.228C534.138 575.476 533.238 574.005 532.139 572.96C531.04 571.914 530.141 570.136 530.141 569.009C530.141 567.883 529.742 566.962 529.255 566.962C528.768 566.962 527.639 565.666 526.747 564.082C525.855 562.498 523.777 559.209 522.129 556.772C520.481 554.336 518.177 550.747 517.008 548.798C515.84 546.849 514.573 545.055 514.193 544.811C513.813 544.567 512.412 542.574 511.079 540.381C509.746 538.188 508.319 536.261 507.907 536.099C507.494 535.936 507.157 535.239 507.157 534.548C507.157 533.858 506.707 533.293 506.158 533.293C505.608 533.293 505.159 532.695 505.159 531.964C505.159 531.233 504.709 530.635 504.159 530.635C503.61 530.635 503.16 530.037 503.16 529.306C503.16 528.575 502.71 527.977 502.161 527.977C501.611 527.977 501.155 527.479 501.148 526.869C501.14 526.261 500.242 524.765 499.152 523.547C498.062 522.328 495.083 518.541 492.532 515.13C486.678 507.303 480.216 499.607 477.936 497.749C476.97 496.96 476.179 495.811 476.179 495.194C476.179 494.577 475.377 493.428 474.396 492.64C473.414 491.852 470.396 488.416 467.688 485.005C464.98 481.594 461.736 477.81 460.479 476.597C459.222 475.384 458.192 474.13 458.192 473.811C458.192 473.492 456.955 472.033 455.444 470.568C451.4 466.649 449.199 464.225 449.199 463.69C449.199 463.429 448.188 462.3 446.95 461.178C445.713 460.057 443.494 457.783 442.017 456.124C440.541 454.466 438.518 452.192 437.52 451.072C436.524 449.952 434.883 448.158 433.874 447.085C432.865 446.012 430.841 443.777 429.377 442.118C427.913 440.46 425.704 438.185 424.467 437.064C423.231 435.943 422.218 434.813 422.218 434.552C422.218 434.058 420.595 432.239 415.97 427.547C414.456 426.011 412.878 424.357 412.463 423.87C407.859 418.467 404.61 414.956 403.988 414.714C403.573 414.551 403.232 414 403.232 413.489C403.232 412.978 402.424 411.915 401.436 411.126C400.448 410.338 398.551 408.314 397.22 406.627C395.89 404.941 393.339 402.15 391.551 400.425C389.764 398.701 385.027 393.703 381.027 389.319C377.026 384.936 372.067 379.804 370.006 377.916C367.945 376.027 366.259 374.092 366.259 373.616C366.259 373.139 365.01 371.691 363.485 370.399C361.959 369.108 358.923 366.058 356.739 363.621C354.555 361.186 351.083 357.728 349.021 355.939C346.96 354.149 345.274 352.246 345.274 351.71C345.274 351.174 342.912 348.599 340.027 345.989C337.143 343.378 332.533 338.707 329.785 335.609C322.821 327.756 321.25 326.107 317.544 322.757C315.757 321.143 314.295 319.509 314.295 319.127C314.294 318.745 313.253 317.361 311.981 316.049C310.71 314.738 308.799 312.606 307.736 311.311C306.673 310.015 304.565 307.757 303.054 306.292C301.543 304.826 300.306 303.366 300.306 303.047C300.306 302.728 299.295 301.461 298.058 300.231C294.036 296.233 289.314 290.645 289.314 289.885C289.314 289.478 288.415 288.569 287.315 287.866C286.216 287.163 285.316 286.178 285.315 285.677C285.313 285.175 283.954 283.369 282.294 281.664C280.633 279.958 277.987 276.556 276.414 274.103C274.84 271.651 272.828 269.11 271.941 268.458C271.053 267.805 270.328 266.721 270.328 266.05C270.328 265.379 269.954 264.829 269.497 264.829C269.041 264.829 268.028 263.733 267.249 262.393C266.469 261.053 265.043 259.184 264.082 258.238C263.121 257.294 262.333 255.999 262.333 255.359C262.333 254.72 261.884 254.197 261.334 254.197C260.785 254.197 260.335 253.599 260.335 252.868C260.335 252.137 259.885 251.539 259.336 251.539C258.786 251.539 258.336 250.941 258.336 250.21C258.336 249.479 257.887 248.881 257.337 248.881C256.787 248.881 256.338 248.455 256.338 247.933C256.338 247.412 254.877 245.119 253.09 242.839C249.432 238.167 239.35 222.315 239.35 221.233C239.35 220.846 238.984 220.529 238.538 220.529C238.09 220.529 237.107 219.133 236.352 217.427C235.598 215.722 234.704 214.326 234.368 214.326C234.031 214.326 233.186 212.931 232.491 211.225C231.795 209.52 230.904 208.124 230.51 208.124C230.116 208.124 229.196 206.33 228.466 204.137C227.735 201.944 226.738 200.15 226.249 200.15C225.76 200.15 225.36 199.609 225.36 198.948C225.36 197.906 218.152 183.946 215.351 179.563C214.811 178.716 214.368 177.42 214.368 176.683C214.368 175.945 213.918 175.342 213.369 175.342C212.819 175.342 212.369 174.738 212.369 174C212.369 173.263 211.92 171.868 211.37 170.899C210.821 169.932 209.921 168.347 209.372 167.38C208.822 166.411 208.372 164.817 208.372 163.836C208.372 162.854 207.923 162.051 207.373 162.051C206.823 162.051 206.374 161.254 206.374 160.279C206.374 159.305 205.924 158.507 205.374 158.507C204.825 158.507 204.375 157.311 204.375 155.849C204.375 154.387 203.926 153.191 203.376 153.191C202.826 153.191 202.377 152.388 202.377 151.407C202.377 150.426 201.98 148.93 201.494 148.084C199.507 144.622 198.385 141.771 196.35 135.028C195.174 131.129 193.297 124.949 192.179 121.295C191.062 117.64 189.772 112.855 189.313 110.662C188.853 108.469 188.004 104.682 187.423 102.245C183.432 85.479 182.288 75.2136 181.771 51.5206C181.524 40.1902 181 30.934 180.607 30.95C180.215 30.9668 178.993 31.6641 177.894 32.5014Z" fill="url(#paint0_linear_271_38)"/>
<path fill-rule="evenodd" clip-rule="evenodd" d="M775.691 286.526C775.005 287.218 774.419 288.283 774.419 289.278C773.42 289.721 774.419 289.721 773.42 291.087C772.921 291.936 772.443 294.356 772.443 298.491C772.443 302.626 772.86 305.579 773.443 305.579C773.992 305.579 774.442 306.743 774.442 308.164C774.442 309.585 774.779 310.88 775.191 311.043C775.604 311.206 777.008 313.332 778.313 315.769C782.465 323.52 786.647 330.598 787.476 331.274C787.774 331.518 789.348 333.61 790.973 335.924C792.598 338.238 794.265 340.131 794.677 340.132C795.09 340.133 795.427 340.732 795.427 341.463C795.427 342.194 795.876 342.792 796.426 342.792C796.976 342.792 797.425 343.186 797.425 343.668C797.425 344.15 798.213 345.397 799.174 346.441C801.932 349.432 816.992 363.171 817.513 363.171C818.504 363.171 818.099 358.861 816.339 350.662C815.236 345.52 814.267 335.678 813.9 325.853C813.154 305.898 813.091 305.579 809.897 305.579C808.533 305.579 807.418 305.181 807.418 304.693C807.418 304.206 806.519 303.807 805.42 303.807C804.32 303.807 803.421 303.409 803.421 302.921C803.421 302.434 802.56 302.035 801.505 302.035C800.452 302.035 799.441 301.737 799.257 301.371C799.074 301.005 797.126 299.619 794.927 298.29C790.375 295.539 783.642 289.95 781.466 287.115C779.786 284.927 777.509 284.695 775.691 286.526Z" fill="#FF0000"/>
<defs>
<linearGradient id="paint0_linear_271_38" x1="900" y1="450" x2="-1.07139e-05" y2="450" gradientUnits="userSpaceOnUse">
<stop stop-color="#6C737A"/>
<stop offset="0.703125" stop-color="#2C333A"/>
</linearGradient>
</defs>
</svg>
