<svg width="40" height="40" viewBox="0 0 40 40" fill="none" xmlns="http://www.w3.org/2000/svg">
    <path d="M12.9007 0.333191C7.00067 1.66652 2.05067 6.41653 0.483999 12.2499C-0.0660007 14.2499 -0.149334 18.1999 0.317333 20.2832C0.683999 21.9665 1.584 24.3165 1.91733 24.4499C2.184 24.5499 9.26733 20.4499 9.21733 20.2332C9.184 20.1499 9.01733 19.6332 8.81733 19.0832C8.51733 18.2332 8.484 17.8165 8.534 16.3165C8.60067 14.6999 8.66733 14.4332 9.21733 13.2665C10.3173 10.9499 12.884 8.89986 15.1007 8.56653L15.834 8.46653V4.23319V-0.000141144L15.0507 0.0165253C14.6007 0.0165253 13.634 0.166525 12.9007 0.333191Z" fill="#0191E7"/>
    <path d="M17.5 4.2V8.46667L18.2333 8.56667C19.8667 8.81667 22.7833 10.75 23.4833 12.05C23.6667 12.4 23.8 12.45 24.25 12.3833C25.1167 12.25 27.6 12.65 29 13.1667C30.1333 13.5667 31.4333 14.3167 32.9833 15.45L33.3833 15.75L33.2833 14.6667C33.0167 11.8 31.65 8.56667 29.7167 6.16667C27 2.78333 22.7 0.4 18.6333 0.0499992L17.5 -0.0500011V4.2Z" fill="#0191E7"/>
    <path d="M22.5832 14.0667C19.1666 14.85 16.5166 16.9167 15.0832 19.9C14.2166 21.7333 13.9332 22.9167 13.9499 24.9167C13.9666 27.9667 14.9499 30.3 17.1666 32.5C19.3999 34.75 21.6332 35.6667 24.8332 35.6667C26.6832 35.6667 28.1332 35.35 29.4832 34.6833L30.4499 34.2L33.3499 37.1C34.9499 38.7 36.3166 40 36.4166 40C36.6332 40 39.9999 36.6333 39.9999 36.4167C39.9999 36.3167 38.6999 34.95 37.0999 33.35L34.1999 30.45L34.6832 29.4833C35.4666 27.9167 35.7166 26.55 35.6166 24.25C35.5666 22.65 35.4666 22.0333 35.1332 21.1333C33.5166 16.8 29.7832 14.0667 25.2499 13.9C24.1999 13.8667 23.2166 13.9167 22.5832 14.0667ZM26.7499 17.7C28.6999 18.1833 30.6332 19.85 31.5666 21.8333C32.0499 22.85 32.0832 23.0333 32.0832 24.8333C32.0832 26.6333 32.0499 26.8167 31.5666 27.8333C30.1332 30.85 26.8999 32.65 23.7999 32.15C19.7999 31.5167 16.8999 27.6667 17.5166 23.7833C18.2166 19.4 22.4332 16.6 26.7499 17.7Z" fill="#0191E7"/>
    <path d="M27.168 24.8333V29H28.0846H29.0013V24.8333V20.6667H28.0846H27.168V24.8333Z" fill="#0191E7"/>
    <path d="M23.834 26.4167V29H24.7507H25.6673V26.4167V23.8333H24.7507H23.834V26.4167Z" fill="#0191E7"/>
    <path d="M20.5 27.25V29H21.4167H22.3333V27.25V25.5H21.4167H20.5V27.25Z" fill="#0191E7"/>
    <path d="M6.30049 23.7665C3.28382 25.5165 2.70049 25.9165 2.83382 26.1499C2.90049 26.2999 3.40049 26.9332 3.91715 27.5499C6.43382 30.5832 10.7672 32.9165 14.6338 33.2832C15.2005 33.3332 15.6672 33.3332 15.6672 33.2665C15.6672 33.1999 15.3672 32.7665 15.0005 32.2999C14.1005 31.1832 13.0838 29.0332 12.7505 27.5999C12.6005 26.9665 12.4672 25.8165 12.4505 25.0499C12.4338 24.2999 12.3672 23.6665 12.3172 23.6665C12.2672 23.6665 11.7172 23.2165 11.1172 22.6665C10.5172 22.1165 10.0005 21.6665 9.96715 21.6665C9.95049 21.6665 8.28382 22.6165 6.30049 23.7665Z" fill="#0191E7"/>
    </svg>
    