<svg width="39" height="30" viewBox="0 0 39 30" fill="none" xmlns="http://www.w3.org/2000/svg">
    <path d="M18.9988 10.8398C15.5588 10.8398 12.7188 13.6398 12.7188 17.1198C12.7188 20.5998 15.5188 23.3998 18.9988 23.3998C22.4788 23.3998 25.2787 20.5998 25.2787 17.1198C25.2787 13.6398 22.4388 10.8398 18.9988 10.8398ZM18.9988 20.4398C18.0788 20.4398 17.2788 20.0798 16.6788 19.5198C16.7588 19.5198 16.7988 19.5198 16.8788 19.5198C19.3988 19.5198 21.3988 17.4798 21.3988 14.9998C21.3988 14.9198 21.3988 14.8798 21.3988 14.7998C21.9988 15.3998 22.3188 16.1998 22.3188 17.1198C22.3188 18.9598 20.8388 20.4398 18.9988 20.4398Z" fill="#0191E7"/>
    <path d="M33.8391 5.27979H25.9991L24.4791 1.55979C24.1591 0.799785 23.3991 0.279785 22.5591 0.279785H15.4791C14.6391 0.279785 13.8791 0.799785 13.5591 1.55979L12.0391 5.27979H8.51906V4.75979C8.51906 4.19979 8.03906 3.71978 7.47906 3.71978H5.27906C4.71906 3.71978 4.23906 4.19979 4.23906 4.75979V5.27979H4.19906C1.91906 5.27979 0.0390625 7.11978 0.0390625 9.43978V25.5198C0.0390625 27.7998 1.87906 29.6798 4.19906 29.6798H33.8791C36.1591 29.6798 38.0391 27.8398 38.0391 25.5198V9.43978C37.9991 7.15978 36.1591 5.27979 33.8391 5.27979ZM16.9191 3.19979H21.0791C21.6391 3.19979 22.1191 3.67979 22.1191 4.23979C22.1191 4.79979 21.6391 5.27979 21.0791 5.27979H16.9191C16.3591 5.27979 15.8791 4.79979 15.8791 4.23979C15.8791 3.67979 16.3191 3.19979 16.9191 3.19979ZM18.9991 25.4398C14.3991 25.4398 10.6791 21.7198 10.6791 17.1198C10.6791 12.5198 14.3991 8.75979 18.9991 8.75979C23.5991 8.75979 27.3191 12.5198 27.3191 17.0798C27.3191 21.6398 23.5991 25.4398 18.9991 25.4398ZM31.9991 13.1598C30.9591 13.1598 30.1191 12.3198 30.1191 11.2798C30.1191 10.2398 30.9591 9.39979 31.9991 9.39979C33.0391 9.39979 33.8791 10.2398 33.8791 11.2798C33.8791 12.3198 32.9991 13.1598 31.9991 13.1598Z" fill="#0191E7"/>
    </svg>
    