<svg width="127" height="24" viewBox="0 0 127 24" fill="none" xmlns="http://www.w3.org/2000/svg">
    <path opacity="0.5" d="M114.449 17.2263C105.527 18.2799 97.1891 19.2414 88.862 20.2961C88.2669 20.3714 87.7625 21.1368 86.4385 22.2143C90.4155 22.6831 93.4538 23.2726 96.5056 23.3551C104.569 23.574 112.638 23.5764 120.706 23.6529C121.689 23.6625 122.694 23.7247 123.65 23.5549C126.897 22.9785 127.884 20.9239 126.169 18.1758C125.358 16.8759 124.367 15.6358 123.259 14.5643C119.069 10.5151 114.824 6.51847 110.532 2.5721C109.766 1.86654 108.682 1.48746 107.24 0.671875C107.034 6.75168 113.249 8.42232 114.608 13.2656C113.495 13.0551 112.557 12.9391 111.655 12.6975C78.563 3.83615 45.5383 4.79522 12.5884 13.4067C9.18079 14.2976 5.86397 15.5533 2.56677 16.797C0.826752 17.4535 -0.653122 18.6577 0.297874 20.7469C1.20102 22.7345 2.91894 22.7404 4.77921 21.932C26.7393 12.3986 50.0589 11.284 73.5626 11.5925C85.7771 11.7528 97.902 13.0432 109.822 15.7925C111.263 16.1249 112.652 16.663 114.449 17.2263Z" fill="url(#paint0_linear_364_4547)"/>
    <defs>
    <linearGradient id="paint0_linear_364_4547" x1="127" y1="23.3934" x2="-23.9323" y2="23.3934" gradientUnits="userSpaceOnUse">
    <stop stop-color="#BAE5FF"/>
    <stop offset="1" stop-color="#F3FBFF"/>
    </linearGradient>
    </defs>
    </svg>
    