<svg width="381" height="300" viewBox="0 0 381 300" fill="none" xmlns="http://www.w3.org/2000/svg">
    <path d="M195.509 231.186C195.509 225.01 190.503 220.003 184.326 220.003C178.15 220.003 173.144 225.01 173.144 231.186H151.471V296.899H217.183V231.186H195.509Z" fill="#136292"/>
    <path d="M188.296 146.117C188.451 139.943 183.572 134.812 177.398 134.656C171.224 134.502 166.093 139.381 165.938 145.555L144.271 145.01L142.621 210.702L166.164 211.293C166.178 204.914 171.352 199.748 177.734 199.748C184.124 199.748 189.305 204.928 189.305 211.319C189.305 211.506 189.286 211.688 189.277 211.874L208.312 212.352L209.962 146.66L188.296 146.117Z" fill="#0191E7"/>
    <path d="M330.353 101.477C358.188 101.477 380.754 78.9112 380.754 51.0752C380.754 23.2393 358.188 0.673828 330.353 0.673828C302.517 0.673828 279.951 23.2393 279.951 51.0752C279.951 78.9112 302.517 101.477 330.353 101.477Z" fill="#0191E7"/>
    <path d="M230.724 75.7071C230.724 75.7071 218.518 71.0167 218.377 72.0188C218.235 73.0219 222.161 74.9954 222.161 74.9954C222.161 74.9954 216.324 75.7404 213.098 75.9319C211.877 76.0043 210.829 76.9532 210.593 78.1851L209.98 81.3848C209.98 81.3848 215.903 82.0257 219.135 82.1389C222.367 82.2521 232.053 82.044 232.053 82.044L230.724 75.7071Z" fill="#D8948F"/>
    <path d="M210.684 77.8796L218.13 77.5732" stroke="#050528" stroke-width="0.5" stroke-miterlimit="10" stroke-linecap="round" stroke-linejoin="round"/>
    <path d="M210.318 79.923L217.765 79.6167" stroke="#050528" stroke-width="0.5" stroke-miterlimit="10" stroke-linecap="round" stroke-linejoin="round"/>
    <path d="M340.274 115.202C340.274 115.202 332.089 125.4 333.001 125.841C333.913 126.281 336.988 123.142 336.988 123.142C336.988 123.142 335.92 128.929 335.12 132.059C334.817 133.245 335.402 134.532 336.503 135.132L339.364 136.69C339.364 136.69 341.778 131.244 342.87 128.2C343.963 125.156 346.713 115.867 346.713 115.867L340.274 115.202Z" fill="#D8948F"/>
    <path d="M336.24 134.953L338.216 127.767" stroke="#050528" stroke-width="0.5" stroke-miterlimit="10" stroke-linecap="round" stroke-linejoin="round"/>
    <path d="M338.076 135.922L340.051 128.736" stroke="#050528" stroke-width="0.5" stroke-miterlimit="10" stroke-linecap="round" stroke-linejoin="round"/>
    <path d="M301.147 52.9869C303.318 50.8744 303.368 47.37 301.255 45.1975L293.489 37.2125C291.377 35.0408 287.872 34.9917 285.7 37.1043C283.529 39.2169 283.48 42.7212 285.592 44.8929L293.358 52.8779C295.47 55.0504 298.975 55.0995 301.147 52.9869Z" fill="#D8948F"/>
    <path d="M285.363 37.4317L286.036 36.7775C288.023 34.8455 291.229 34.8896 293.162 36.8765L295.915 39.7074C295.482 44.2714 293.184 48.9136 291.121 50.5783L285.265 44.5569C283.332 42.57 283.376 39.3637 285.363 37.4317Z" fill="#C67775"/>
    <path d="M271.048 42.4208C270.153 41.496 269.455 40.4555 268.934 39.3535C268.907 39.3093 268.889 39.2769 268.881 39.2611C268.881 39.2611 268.887 39.2536 268.889 39.2527C266.913 34.9668 267.72 29.7262 271.295 26.2485C275.5 22.1598 282.036 21.9559 286.481 25.5601C286.486 25.5626 286.491 25.5634 286.496 25.5659C288.678 26.8353 291.331 32.0835 292.69 35.0292C293.307 36.3661 293.539 37.8419 293.362 39.3035C292.76 44.2595 289.587 54.4137 283.927 53.3582C278.831 52.4077 274.14 46.6201 271.048 42.4208Z" fill="#D8948F"/>
    <path d="M279.793 46.3847C279.793 46.3847 281.555 46.3772 282.084 44.1572" stroke="#0E0108" stroke-width="0.5" stroke-miterlimit="10" stroke-linecap="round" stroke-linejoin="round"/>
    <path d="M284.563 34.1913C284.605 34.1497 284.636 34.0947 284.647 34.0323C284.677 33.8717 284.57 33.7177 284.409 33.6885C281.581 33.1758 280.283 36.3688 280.271 36.4013C280.211 36.5528 280.285 36.7242 280.436 36.785C280.588 36.8449 280.76 36.7717 280.82 36.6194C280.865 36.5061 281.954 33.845 284.304 34.2704C284.401 34.2887 284.496 34.2562 284.563 34.1913Z" fill="#0E0108"/>
    <path d="M272.447 44.2697C272.323 44.1107 272.202 43.9542 272.082 43.7978C272.916 42.8805 274.031 42.4585 274.05 42.451C274.203 42.3952 274.374 42.4743 274.429 42.6283C274.484 42.7814 274.405 42.9504 274.252 43.007C274.235 43.0128 273.174 43.4115 272.447 44.2697Z" fill="#0E0108"/>
    <path d="M281.909 41.9249C281.909 41.9249 285.738 41.0259 286.197 35.6562C286.197 35.6562 280.569 37.7663 281.909 41.9249Z" fill="white"/>
    <path d="M281.822 42.1665C281.885 42.1057 281.92 42.0183 281.91 41.9251C281.892 41.7403 281.517 37.3853 286.335 36.2316C286.494 36.1933 286.592 36.0343 286.554 35.8754C286.516 35.7164 286.356 35.619 286.198 35.6564C280.87 36.9325 281.316 41.9343 281.322 41.985C281.339 42.1473 281.483 42.2655 281.646 42.2489C281.715 42.2422 281.776 42.2114 281.822 42.1665Z" fill="#0E0108"/>
    <path d="M294.888 29.2428C293.183 27.4889 290.378 27.4498 288.625 29.1554C286.871 30.8609 286.832 33.6652 288.537 35.4182C290.243 37.172 293.047 37.2111 294.8 35.5056C296.554 33.8009 296.593 30.9966 294.888 29.2428Z" fill="#D8948F"/>
    <path d="M290.561 34.0437C290.561 34.0437 289.062 30.4662 292.358 28.3794" stroke="#0E0108" stroke-width="0.5" stroke-miterlimit="10" stroke-linecap="round" stroke-linejoin="round"/>
    <path d="M283.329 41.2307C282.991 41.1566 282.665 41.0076 282.387 40.7621C282.101 40.5099 281.91 40.196 281.795 39.8598C282.061 38.6911 282.875 37.7647 283.733 37.0821C284.244 37.0705 284.762 37.2378 285.175 37.6023C285.372 37.7763 285.523 37.9811 285.639 38.2008C285.044 39.7649 284.114 40.6905 283.329 41.2307Z" fill="#050528"/>
    <path d="M276.164 45.1389C276.771 45.0215 277.464 44.9965 278.253 45.1014C277.88 45.7257 277.487 46.2542 277.081 46.6829C277.059 46.4357 276.998 46.1885 276.883 45.9521C276.715 45.6075 276.461 45.337 276.164 45.1389Z" fill="white"/>
    <path d="M275.544 47.9054C275.568 47.8904 275.594 47.8762 275.619 47.8613C275.703 47.8105 275.788 47.7589 275.873 47.7023C275.95 47.6515 276.026 47.5982 276.103 47.5416C276.194 47.4759 276.283 47.4043 276.374 47.331C276.447 47.2719 276.52 47.2145 276.592 47.1504C276.701 47.0547 276.809 46.949 276.917 46.8416C276.971 46.7875 277.026 46.74 277.08 46.6826C277.058 46.4354 276.997 46.1882 276.882 45.9518C276.714 45.6072 276.461 45.3375 276.164 45.1385C276.77 45.0212 277.464 44.9962 278.253 45.1011C278.328 45.1111 278.402 45.1186 278.478 45.1311C278.64 45.1569 278.791 45.047 278.817 44.8863C278.843 44.7249 278.733 44.5734 278.572 44.5476C276.27 44.178 274.676 44.8339 273.602 45.7121C273.647 45.767 273.694 45.8219 273.74 45.8769C273.74 45.8769 273.74 45.8769 273.741 45.8794C273.816 45.9693 273.895 46.0592 273.97 46.1491C274.474 46.7425 274.999 47.331 275.544 47.9054Z" fill="#050528"/>
    <path d="M283.437 50.2469C284.385 50.3834 285.349 50.1604 286.182 49.7026C287.729 48.8519 288.733 47.1447 288.865 45.4016C288.932 44.5077 288.805 43.4647 288.265 42.7214C287.712 41.9606 286.685 41.7042 286.222 42.6873C285.771 43.6445 285.862 44.7549 285.403 45.7146C285.235 46.0634 285.004 46.3913 284.725 46.6719C284.5 46.8225 284.255 46.9507 283.982 47.0448C283.244 47.2978 281.291 47.4235 281.345 48.5572C281.392 49.5602 282.577 50.1229 283.437 50.2469Z" fill="#0E0108"/>
    <path d="M285.83 46.786C286.602 45.912 287.744 45.5749 288.812 45.7789C288.574 47.387 287.616 48.9144 286.181 49.7027C285.894 49.86 285.589 49.9782 285.276 50.0748C284.842 48.9944 285.007 47.7183 285.83 46.786Z" fill="#FF8DCC"/>
    <path d="M291.12 50.5781L263.472 71.8779C263.472 71.8779 249.251 75.5478 230.395 74.4399L228.326 84.4152C228.326 84.4152 249.594 95.6839 270.459 86.6318C291.323 77.5797 302.777 62.7999 302.777 62.7999L291.12 50.5781Z" fill="#136292"/>
    <path d="M343.647 75.4188C336.086 63.0081 314.759 43.3506 309.851 43.3506C303.03 43.3506 297.5 48.8801 297.5 55.7014C297.5 61.3008 328.327 85.3591 328.327 85.3591C328.327 85.3591 335.581 97.9488 337.075 116.779L347.24 117.456C347.24 117.456 355.48 94.8416 343.647 75.4188Z" fill="#136292"/>
    <path d="M379.442 63.7955C380.458 59.8059 381 55.6274 381 51.3223C381 41.9772 378.447 33.233 374.016 25.73C363.955 26.1262 316.952 27.9941 309.069 28.6258C300.232 29.3342 295.424 39.1954 295.424 39.1954C297.675 47.7273 291.367 50.8246 291.367 50.8246C296.847 63.202 336.811 75.9058 336.811 75.9058L379.442 63.7955Z" fill="#136292"/>
    <path d="M291.367 50.8252L303.025 63.0479" stroke="white" stroke-width="0.5" stroke-miterlimit="10" stroke-linecap="round" stroke-linejoin="round"/>
    <path d="M342.936 74.167C342.936 74.167 319.125 42.8354 310.916 42.4974C302.707 42.1595 297.237 48.9542 298.123 57.9089" stroke="white" stroke-width="0.5" stroke-miterlimit="10" stroke-linecap="round" stroke-linejoin="round"/>
    <path d="M345.837 79.2461C345.259 78.045 344.615 76.8497 343.894 75.6669C341.433 71.6265 337.51 66.8204 333.172 62.1724C330.639 64.1176 328.998 67.1683 328.998 70.6094C328.998 76.486 333.762 81.2497 339.638 81.2497C341.954 81.2497 344.091 80.5022 345.837 79.2461Z" fill="#050528"/>
    <path d="M278.216 82.7961C276.448 79.3709 272.882 77.0244 268.761 77.0244C262.885 77.0244 258.121 81.7881 258.121 87.6655C258.121 88.4105 258.199 89.1372 258.345 89.8381C262.292 89.3852 266.383 88.4005 270.461 86.6309C273.212 85.4381 275.795 84.1429 278.216 82.7961Z" fill="#050528"/>
    <path d="M276.874 25.9606C276.874 25.9606 283.359 33.0025 287.891 32.027C287.891 32.027 287.816 29.941 289.222 28.5909C288.314 27.2167 287.369 26.073 286.498 25.5661C286.493 25.5636 286.487 25.5627 286.482 25.5602C282.037 21.9552 275.502 22.1591 271.297 26.2486C267.721 29.7263 266.915 34.967 268.891 39.2529L268.883 39.2612C268.891 39.277 268.909 39.3095 268.936 39.3536C269.457 40.4565 270.156 41.4961 271.05 42.4209C271.05 42.4209 280.395 37.1861 276.874 25.9606Z" fill="#050528"/>
    <path d="M314.617 137.949C355.014 163.493 367.556 216.825 342.535 257.744C317.515 298.663 264.328 311.804 223.18 287.486L314.617 137.949Z" fill="#0191E7"/>
    <path d="M306.491 209.97H263.049C263.469 209.681 263.901 209.403 264.35 209.144C263.014 208.836 261.808 208.141 260.744 207.421C259.249 206.41 257.716 205.254 256.891 203.793C256.092 202.381 256.148 200.828 257.147 199.489C258.179 198.105 259.891 197.087 261.584 196.282C263.062 195.579 264.655 195.047 266.305 194.679C264.325 193.533 263.31 191.273 263.387 189.34C263.439 188.044 263.953 186.777 264.991 185.78C266.049 184.764 267.613 184.169 269.203 183.933C270.652 183.719 272.12 183.739 273.579 183.847C273.053 182.607 273.834 181.086 275.009 180.168C276.581 178.942 278.792 178.326 280.956 178.367C283.161 178.41 285.29 179.124 286.812 180.431C287.604 181.112 288.213 181.902 288.664 182.752C290.604 184 291.841 185.936 291.94 187.941C294.589 187.127 298.035 188.511 299.656 190.237C301.866 192.591 300.407 195.332 298.597 197.528C301.485 197.676 304.061 199.473 304.936 201.737C305.906 204.249 304.737 206.944 302.717 208.926C304.032 209.016 305.363 209.388 306.491 209.97Z" fill="#0E0108"/>
    <path d="M284.352 221.608C287.422 221.462 289.815 218.83 289.669 215.76L289.132 204.471C288.986 201.4 286.354 199.008 283.284 199.153C280.214 199.299 277.822 201.931 277.967 205.001L278.504 216.29C278.65 219.36 281.282 221.753 284.352 221.608Z" fill="#D8948F"/>
    <path d="M282.808 199.176L283.759 199.131C286.567 198.998 288.976 201.187 289.109 203.995L289.299 207.998C285.902 211.176 281.036 213.161 278.348 213.039L277.943 204.526C277.811 201.717 280 199.309 282.808 199.176Z" fill="#C67775"/>
    <path d="M268.574 193.347C268.516 192.043 268.684 190.783 269.029 189.594C269.038 189.543 269.046 189.505 269.05 189.488C269.05 189.488 269.06 189.487 269.062 189.487C270.44 184.9 274.575 181.459 279.631 181.219C285.575 180.937 290.68 185.173 291.636 190.901C291.638 190.906 291.643 190.911 291.644 190.916C292.45 193.347 290.939 199.12 289.992 202.272C289.563 203.703 288.747 204.981 287.63 205.972C283.842 209.335 274.605 214.921 271.012 210.315C267.778 206.169 268.101 198.618 268.574 193.347Z" fill="#D8948F"/>
    <path d="M272.557 202.238C272.557 202.238 273.902 203.416 275.795 202.084" stroke="#0E0108" stroke-width="0.5" stroke-miterlimit="10" stroke-linecap="round" stroke-linejoin="round"/>
    <path d="M284.378 196.174C284.439 196.171 284.499 196.15 284.549 196.11C284.679 196.008 284.702 195.819 284.599 195.689C282.794 193.398 279.662 194.953 279.631 194.97C279.483 195.045 279.425 195.225 279.499 195.373C279.574 195.52 279.754 195.58 279.902 195.504C280.013 195.449 282.628 194.158 284.128 196.06C284.19 196.139 284.284 196.179 284.378 196.174Z" fill="#0E0108"/>
    <path d="M268.395 195.692C268.407 195.488 268.42 195.288 268.434 195.088C269.685 194.951 270.817 195.38 270.836 195.387C270.99 195.447 271.066 195.622 271.005 195.775C270.944 195.929 270.771 196.005 270.616 195.944C270.599 195.939 269.525 195.529 268.395 195.692Z" fill="#0E0108"/>
    <path d="M276.933 200.394C277.022 200.39 277.107 200.348 277.163 200.27C277.273 200.117 279.915 196.554 284.353 198.917C284.5 198.994 284.681 198.939 284.759 198.793C284.836 198.646 284.78 198.465 284.635 198.387C279.728 195.776 276.705 199.879 276.675 199.921C276.579 200.055 276.61 200.243 276.744 200.339C276.802 200.38 276.868 200.398 276.933 200.394Z" fill="#0E0108"/>
    <path d="M268.294 198.041C269.573 197.995 271.072 198.377 272.627 199.698C272.754 199.806 272.769 199.995 272.662 200.121C272.554 200.248 272.365 200.263 272.239 200.156C270.804 198.937 269.438 198.584 268.283 198.625C268.285 198.428 268.29 198.235 268.294 198.041Z" fill="#0E0108"/>
    <path d="M295.553 199.352C295.435 196.874 293.33 194.959 290.851 195.076C288.373 195.195 286.458 197.3 286.575 199.779C286.694 202.257 288.799 204.172 291.278 204.054C293.756 203.937 295.671 201.831 295.553 199.352Z" fill="#D8948F"/>
    <path d="M289.037 200.093C289.037 200.093 290.301 196.366 294.21 196.995" stroke="#0E0108" stroke-width="0.5" stroke-miterlimit="10" stroke-linecap="round" stroke-linejoin="round"/>
    <path d="M273.633 206.449C273.633 206.449 277.984 207.758 279.866 203.646" stroke="#0E0108" stroke-width="0.5" stroke-miterlimit="10" stroke-linecap="round" stroke-linejoin="round"/>
    <path d="M268.574 193.347C268.516 192.043 268.684 190.783 269.029 189.594C269.038 189.543 269.046 189.505 269.051 189.488C269.051 189.488 269.061 189.487 269.062 189.487C270.441 184.901 274.575 181.459 279.631 181.219C285.575 180.937 290.68 185.174 291.636 190.902C291.638 190.907 291.643 190.912 291.645 190.917C292.007 192.01 292.532 195.472 292.475 195.319C291.253 195.946 289.51 197.544 289.132 198.789C289.059 199.027 288.736 199.139 288.555 198.941C286.891 197.129 286.531 194.384 287.602 192.205C286.256 192.385 284.871 191.348 284.137 190.26C283.545 189.382 283.209 188.365 283.021 187.318C282.92 187.512 282.802 187.703 282.652 187.887C282.091 188.575 281.282 189.057 280.394 189.155C279.361 189.268 278.377 188.763 277.745 187.982C277.696 188.386 277.599 188.783 277.424 189.161C277.059 189.947 276.365 190.621 275.482 190.749C274.609 190.875 273.74 190.429 273.213 189.747C273.184 189.71 273.163 189.671 273.137 189.633C273.017 190.734 272.676 191.763 271.726 192.358C271.087 192.758 270.268 192.796 269.671 192.3C269.6 192.242 269.535 192.179 269.476 192.111C269.28 192.801 268.982 193.462 268.525 193.933C268.541 193.737 268.558 193.538 268.574 193.347Z" fill="#0E0108"/>
    <path d="M294.87 203.487C294.87 202.053 293.707 200.89 292.273 200.89C290.839 200.89 289.676 202.053 289.676 203.487C289.676 204.921 290.839 206.084 292.273 206.084C293.708 206.084 294.87 204.921 294.87 203.487Z" fill="white"/>
    <path d="M208.657 265.123C208.892 263.891 209.94 262.942 211.161 262.869C214.387 262.678 220.224 261.933 220.224 261.933C220.224 261.933 216.299 259.959 216.44 258.956C216.553 258.157 224.324 260.972 227.477 262.149C231.441 262.467 258.456 263.898 268.69 244.938L286.497 259.143C286.497 259.143 279.473 288.02 226.645 269.045C223.535 269.095 219.17 269.145 217.199 269.076C213.967 268.962 208.045 268.322 208.045 268.322L208.657 265.123Z" fill="#D8948F"/>
    <path d="M208.746 264.818L216.193 264.511" stroke="#050528" stroke-width="0.5" stroke-miterlimit="10" stroke-linecap="round" stroke-linejoin="round"/>
    <path d="M208.383 266.861L215.829 266.555" stroke="#050528" stroke-width="0.5" stroke-miterlimit="10" stroke-linecap="round" stroke-linejoin="round"/>
    <path d="M262.883 250.187L278.283 214.555C278.283 214.555 285.367 215.58 289.635 210.535C314.002 214.839 326.315 253.329 331.015 272.706C315.887 288.505 295.632 297.754 274.545 299.409V274.687L262.883 250.187Z" fill="#136292"/>
    <path d="M274.547 274.687C274.547 274.687 295.023 263.575 291.733 237.778" stroke="white" stroke-width="0.5" stroke-miterlimit="10" stroke-linecap="round" stroke-linejoin="round"/>
    <path d="M141.829 264.818L110.549 210.888L0 224.526V277.098L141.829 264.818Z" fill="#136292"/>
    <path d="M91.3004 114.299C91.0806 115.658 90.8609 117.018 90.6403 118.378C90.4156 119.771 91.3928 120.988 89.8146 122.539H36.9219C37.2115 121.427 37.5761 120.337 38.0173 119.276C38.9903 116.937 40.4537 114.639 43.0757 114.008C44.4741 113.672 45.8841 113.814 47.3016 113.883C48.6334 113.948 49.8512 113.795 50.5096 112.503C51.1073 111.329 51.3245 109.943 51.6217 108.673C51.9055 107.458 52.2268 106.238 52.807 105.126C55.1327 100.667 60.6355 100.982 64.5619 98.8856C64.8873 98.7116 65.1936 98.5152 65.4908 98.3071C66.0443 97.682 66.5329 96.9878 67.0049 96.3285C68.1436 94.7395 69.1974 93.0931 70.3977 91.5482C72.3305 89.0602 74.8118 86.7553 77.8974 85.9146C78.5184 85.6599 79.1793 85.481 79.8693 85.3877C82.0568 85.0914 84.2451 85.7373 86.1197 86.8569C88.1249 88.0547 89.8803 89.7869 91.0398 91.8187C92.2052 93.8605 92.7829 96.1554 92.9934 98.4836C93.2315 101.125 92.946 103.778 92.5664 106.39C92.1819 109.031 91.7266 111.663 91.3004 114.299Z" fill="#0E0108"/>
    <path d="M76.4333 127.127C73.2661 126.976 70.7973 124.262 70.948 121.094L71.5015 109.448C71.6521 106.281 74.3665 103.812 77.5346 103.963C80.7018 104.113 83.1706 106.828 83.0199 109.995L82.4664 121.642C82.3149 124.81 79.6005 127.278 76.4333 127.127Z" fill="#D8948F"/>
    <path d="M78.0238 103.986L77.0432 103.939C74.1457 103.802 71.6619 106.06 71.5246 108.957L71.3281 113.087C74.8316 116.366 79.8525 118.412 82.6252 118.287L83.0422 109.505C83.1804 106.608 80.9221 104.124 78.0238 103.986Z" fill="#C67775"/>
    <path d="M92.7088 97.9735C92.7695 96.6275 92.5955 95.3282 92.2401 94.1021C92.2301 94.0488 92.2226 94.0105 92.2176 93.9922C92.2176 93.9922 92.2077 93.9914 92.206 93.9914C90.7843 89.2601 86.5183 85.71 81.3027 85.462C75.1705 85.1707 69.904 89.5415 68.9177 95.4505C68.916 95.4555 68.911 95.4605 68.9094 95.4664C68.0786 97.9743 69.6369 103.929 70.6141 107.181C71.0577 108.657 71.8984 109.976 73.0513 110.999C76.9593 114.468 86.4884 120.23 90.1941 115.479C93.5303 111.201 93.1965 103.411 92.7088 97.9735Z" fill="#D8948F"/>
    <path d="M88.6001 107.145C88.6001 107.145 87.2125 108.361 85.2598 106.986" stroke="#0E0108" stroke-width="0.5" stroke-miterlimit="10" stroke-linecap="round" stroke-linejoin="round"/>
    <path d="M76.4057 100.89C76.3433 100.887 76.2817 100.865 76.2292 100.823C76.0952 100.718 76.0719 100.523 76.1776 100.389C78.0405 98.0256 81.2718 99.6296 81.3034 99.6471C81.4557 99.7245 81.5165 99.9101 81.4391 100.063C81.3617 100.216 81.176 100.277 81.0229 100.199C80.9088 100.142 78.2103 98.8097 76.6629 100.772C76.5996 100.853 76.5031 100.894 76.4057 100.89Z" fill="#0E0108"/>
    <path d="M92.8947 100.392C92.8814 100.183 92.8681 99.9754 92.8531 99.7698C91.5629 99.6291 90.3959 100.071 90.376 100.079C90.217 100.141 90.1387 100.322 90.2012 100.48C90.2636 100.639 90.4426 100.716 90.6024 100.655C90.6207 100.647 91.7294 100.224 92.8947 100.392Z" fill="#0E0108"/>
    <path d="M84.0839 105.244C83.9932 105.239 83.9049 105.195 83.8467 105.115C83.7335 104.957 81.0074 101.282 76.4293 103.719C76.2787 103.798 76.0914 103.742 76.0106 103.59C75.9307 103.44 75.9882 103.252 76.1388 103.172C81.2014 100.478 84.3195 104.71 84.3503 104.753C84.4493 104.892 84.4185 105.085 84.2795 105.184C84.2204 105.229 84.1513 105.247 84.0839 105.244Z" fill="#0E0108"/>
    <path d="M92.9993 102.815C91.6808 102.768 90.1334 103.162 88.5294 104.524C88.3987 104.635 88.3829 104.83 88.4936 104.96C88.6043 105.091 88.7999 105.107 88.9297 104.996C90.4097 103.738 91.8189 103.374 93.0101 103.416C93.0084 103.215 93.0034 103.015 92.9993 102.815Z" fill="#0E0108"/>
    <path d="M64.8784 104.168C64.9999 101.61 67.1716 99.6357 69.7295 99.7573C72.2874 99.8788 74.2618 102.05 74.1403 104.608C74.0187 107.166 71.847 109.141 69.2891 109.019C66.7312 108.898 64.7568 106.726 64.8784 104.168Z" fill="#D8948F"/>
    <path d="M71.6001 104.932C71.6001 104.932 70.2957 101.087 66.2637 101.736" stroke="#0E0108" stroke-width="0.5" stroke-miterlimit="10" stroke-linecap="round" stroke-linejoin="round"/>
    <path d="M87.4907 111.489C87.4907 111.489 83.0017 112.84 81.0605 108.597" stroke="#0E0108" stroke-width="0.5" stroke-miterlimit="10" stroke-linecap="round" stroke-linejoin="round"/>
    <path d="M68.9086 95.4664C68.9102 95.4606 68.9152 95.4564 68.9169 95.4506C69.9033 89.5416 75.1706 85.1699 81.3019 85.4621C86.5175 85.7101 90.7835 89.2602 92.2052 93.9915C92.2069 93.9915 92.2168 93.9923 92.2168 93.9923C92.2218 94.0106 92.2293 94.0489 92.2393 94.1013C92.5947 95.3274 92.7804 95.5696 92.7196 96.9156C92.7196 96.9156 90.1783 95.6321 84.7446 90.5362C84.3933 90.2075 83.0249 86.2254 83.0249 86.2254L84.499 90.4006C84.499 90.4006 83.8631 101.019 68.6738 99.7515L68.8137 99.312C68.6222 97.7696 68.6039 96.3862 68.9086 95.4664Z" fill="#0E0108"/>
    <path d="M70.0018 108.388C70.0018 106.32 68.3253 104.644 66.2577 104.644C64.1901 104.644 62.5137 106.32 62.5137 108.388C62.5137 110.456 64.1901 112.132 66.2577 112.132C68.3253 112.131 70.0018 110.456 70.0018 108.388Z" stroke="#0191E7" stroke-width="0.5" stroke-miterlimit="10" stroke-linecap="round" stroke-linejoin="round"/>
    <path d="M52.4671 209.39C52.4671 209.39 44.7119 205.96 41.1651 212.274C41.1651 212.274 15.4046 218.081 14.9759 220.068C14.5473 222.056 15.9115 222.953 15.9115 222.953H51.9211L52.4671 209.39Z" fill="#D8948F"/>
    <path d="M31.8284 180.341L119.488 184.358C119.488 184.358 133.192 186.367 133.192 204.206C133.192 222.044 107.91 224.526 107.91 224.526L48.3678 223.581L49.3125 199.007C49.3125 199.007 29.5835 200.307 31.8284 180.341Z" fill="#050528"/>
    <path d="M49.3125 199.008L114.822 202.434" stroke="white" stroke-width="0.5" stroke-miterlimit="10" stroke-linecap="round" stroke-linejoin="round"/>
    <path d="M132.123 166.377C132.123 166.377 144.329 161.686 144.471 162.688C144.612 163.691 140.687 165.665 140.687 165.665C140.687 165.665 146.524 166.41 149.75 166.601C150.971 166.674 152.019 167.623 152.254 168.855L152.867 172.054C152.867 172.054 146.945 172.695 143.713 172.808C140.48 172.922 130.795 172.713 130.795 172.713L132.123 166.377Z" fill="#D8948F"/>
    <path d="M152.164 168.549L144.719 168.243" stroke="#050528" stroke-width="0.5" stroke-miterlimit="10" stroke-linecap="round" stroke-linejoin="round"/>
    <path d="M152.528 170.592L145.082 170.286" stroke="#050528" stroke-width="0.5" stroke-miterlimit="10" stroke-linecap="round" stroke-linejoin="round"/>
    <path d="M31.8281 180.341C31.8281 180.341 38.5529 120.047 71.2738 114.268L70.9425 111.398L83.4914 117.281L82.6266 118.288L94.0218 148.683C95.322 154.216 99.7769 158.452 105.368 159.472L133.192 164.549V176.108C133.192 176.108 94.7219 182.065 86.364 178.419L86.8892 182.864L31.8281 180.341Z" fill="#0191E7"/>
    <path d="M86.3644 178.419C86.3644 178.419 65.8879 167.308 69.1783 141.511" stroke="white" stroke-width="0.5" stroke-miterlimit="10" stroke-linecap="round" stroke-linejoin="round"/>
    <path d="M133.191 164.548L128.285 163.653L128.583 176.772L133.191 176.107V164.548Z" fill="white"/>
    <path d="M152.397 68.7411C146.31 67.6973 140.529 71.7859 139.485 77.8731C138.441 83.9603 142.53 89.7412 148.617 90.785L144.955 112.146L166.316 115.809C167.36 109.722 173.141 105.633 179.228 106.677C185.315 107.721 189.404 113.501 188.36 119.589L209.722 123.251L220.827 58.4837L156.059 47.3789L152.397 68.7411Z" fill="#0191E7"/>
    <path d="M316.53 116.127C316.218 117.108 316.013 117.765 315.799 118.42C314.045 123.791 312.291 129.161 310.531 134.53C310.017 136.1 309.763 136.238 308.239 135.742C302.43 133.85 296.63 131.931 290.813 130.068C289.647 129.694 289.277 129.137 289.677 127.935C291.633 122.051 293.551 116.155 295.455 110.254C295.791 109.212 296.342 108.86 297.416 109.213C303.393 111.184 309.382 113.111 315.351 115.107C315.844 115.271 316.205 115.836 316.53 116.127ZM291.858 128.159C297.479 129.994 302.995 131.793 308.596 133.621C310.442 127.965 312.232 122.48 314.06 116.882C308.427 115.045 302.941 113.256 297.323 111.424C295.486 117.051 293.695 122.535 291.858 128.159Z" fill="#136292"/>
    <path d="M110.604 47.8379C111.524 48.2999 112.141 48.6045 112.755 48.9183C117.784 51.492 122.814 54.0649 127.841 56.6436C129.311 57.3978 129.407 57.67 128.678 59.0975C125.9 64.5379 123.096 69.9659 120.345 75.4196C119.794 76.5125 119.186 76.7905 118.061 76.2079C112.556 73.3553 107.032 70.5369 101.503 67.7318C100.526 67.2365 100.264 66.6372 100.782 65.6325C103.663 60.0389 106.505 54.4237 109.411 48.8426C109.652 48.3806 110.265 48.1134 110.604 47.8379ZM118.625 74.0895C121.316 68.8247 123.958 63.6581 126.64 58.4124C121.343 55.703 116.206 53.0761 110.963 50.395C108.267 55.6706 105.641 60.8089 102.953 66.0712C108.222 68.7672 113.356 71.3942 118.625 74.0895Z" fill="#136292"/>
    <path d="M243.298 181.631C243.093 185.529 242.896 189.428 242.682 193.325C242.6 194.816 242 195.154 240.764 194.359C234.199 190.136 227.642 185.899 221.096 181.649C219.939 180.898 219.984 180.161 221.208 179.529C228.143 175.954 235.082 172.386 242.029 168.836C243.338 168.167 243.909 168.568 243.842 170.071C243.672 173.925 243.481 177.778 243.298 181.631ZM223.133 180.682C229.133 184.553 234.872 188.256 240.853 192.115C241.203 185.028 241.541 178.199 241.894 171.072C235.509 174.342 229.442 177.451 223.133 180.682Z" fill="#0191E7"/>
    <path d="M49.5061 66.5598C53.2427 67.691 56.9809 68.8147 60.7141 69.9542C62.1417 70.3904 62.3273 71.053 61.2593 72.0635C55.5892 77.4282 49.9073 82.7812 44.2147 88.1218C43.2083 89.0657 42.5033 88.8459 42.1837 87.5058C40.3708 79.917 38.567 72.3265 36.7815 64.7311C36.4453 63.2994 36.9713 62.8416 38.4138 63.2652C42.1138 64.3532 45.8087 65.4602 49.5061 66.5598ZM43.7619 85.9118C48.9559 81.0116 53.9236 76.3244 59.101 71.44C52.3038 69.4049 45.7538 67.4438 38.9183 65.397C40.5664 72.379 42.1329 79.0139 43.7619 85.9118Z" fill="#0191E7"/>
    <path d="M206.604 33.0284C207.033 33.7751 207.81 35.1826 208.64 36.5586C209.987 38.7927 211.957 38.8343 213.399 36.6393C214.18 35.4507 214.801 34.1563 215.598 32.9793C218.5 28.6909 223.929 28.8299 226.609 33.2457C227.253 34.3062 227.798 35.4257 228.44 36.487C229.921 38.935 231.92 38.96 233.457 36.5436C234.222 35.3425 234.85 34.0531 235.65 32.8786C236.819 31.1623 238.417 30.0818 240.567 29.9778C241.355 29.9395 242.083 30.1984 241.974 31.0474C241.919 31.4769 241.215 32.1012 240.752 32.1511C239.122 32.3292 238.036 33.1766 237.223 34.4984C236.43 35.7895 235.737 37.1512 234.852 38.374C232.723 41.3115 229.28 41.3348 227.121 38.4131C226.253 37.2378 225.619 35.8893 224.871 34.625C222.882 31.2646 219.376 31.1906 217.263 34.4793C216.469 35.7154 215.826 37.0538 214.97 38.2425C212.749 41.3289 209.047 41.2282 206.99 38.0527C206.167 36.7816 205.468 35.4307 204.666 34.1447C203.898 32.9111 202.833 32.1053 201.308 32.0329C200.516 31.9955 199.843 31.5926 200.101 30.7702C200.232 30.349 201.019 29.8679 201.507 29.8696C203.478 29.8779 205.003 30.8559 206.604 33.0284Z" fill="#0E0108"/>
    <path d="M93.4871 287.621C93.9166 288.367 94.6933 289.775 95.5231 291.151C96.8699 293.385 98.8402 293.427 100.282 291.232C101.063 290.043 101.684 288.749 102.481 287.572C105.383 283.283 110.812 283.422 113.493 287.838C114.136 288.898 114.681 290.018 115.323 291.079C116.805 293.527 118.803 293.552 120.341 291.136C121.105 289.935 121.733 288.645 122.533 287.47C123.702 285.754 125.3 284.673 127.45 284.569C128.239 284.531 128.966 284.79 128.857 285.639C128.802 286.068 128.098 286.693 127.635 286.743C126.005 286.921 124.919 287.769 124.106 289.091C123.313 290.382 122.621 291.744 121.736 292.966C119.607 295.904 116.164 295.927 114.005 293.005C113.137 291.83 112.503 290.482 111.755 289.217C109.766 285.857 106.259 285.783 104.147 289.072C103.353 290.308 102.71 291.646 101.854 292.835C99.6334 295.921 95.931 295.821 93.8742 292.645C93.051 291.374 92.3518 290.023 91.551 288.737C90.7827 287.503 89.7181 286.698 88.1932 286.625C87.4008 286.588 86.7282 286.185 86.9854 285.362C87.1169 284.941 87.9035 284.459 88.3921 284.462C90.3607 284.469 91.8856 285.447 93.4871 287.621Z" fill="#0191E7"/>
    <path d="M132.365 120.695C137.191 123.619 141.615 126.299 146.283 129.127C141.523 131.744 136.97 134.246 132.365 136.778C132.365 131.454 132.365 126.289 132.365 120.695Z" fill="#136292"/>
    <path d="M234.169 140.065C235.337 140.065 236.285 139.117 236.285 137.949C236.285 136.78 235.337 135.833 234.169 135.833C233 135.833 232.053 136.78 232.053 137.949C232.053 139.117 233 140.065 234.169 140.065Z" fill="#0191E7"/>
    <path d="M85.377 50.0744C85.377 48.9057 86.3242 47.9585 87.4929 47.9585C88.6615 47.9585 89.6088 48.9057 89.6088 50.0744C89.6088 51.2431 88.6615 52.1903 87.4929 52.1903C86.3242 52.1903 85.377 51.2431 85.377 50.0744Z" fill="#0191E7"/>
    <path d="M131.076 229.407C131.076 228.238 132.023 227.291 133.192 227.291C134.361 227.291 135.308 228.238 135.308 229.407C135.308 230.576 134.361 231.523 133.192 231.523C132.023 231.524 131.076 230.576 131.076 229.407Z" fill="#0191E7"/>
    <path d="M122.408 25.7302C122.408 24.5615 123.355 23.6143 124.524 23.6143C125.693 23.6143 126.64 24.5615 126.64 25.7302C126.64 26.8988 125.693 27.8461 124.524 27.8461C123.355 27.8461 122.408 26.8988 122.408 25.7302Z" fill="#0191E7"/>
    <path d="M230.168 239.421C231.075 239.421 231.81 238.686 231.81 237.779C231.81 236.872 231.075 236.136 230.168 236.136C229.261 236.136 228.525 236.872 228.525 237.779C228.525 238.686 229.261 239.421 230.168 239.421Z" fill="#0191E7"/>
    <path d="M262.885 165.769C264.054 165.769 265.001 164.822 265.001 163.653C265.001 162.484 264.054 161.537 262.885 161.537C261.717 161.537 260.77 162.484 260.77 163.653C260.77 164.822 261.717 165.769 262.885 165.769Z" fill="#0191E7"/>
    <path d="M12.7773 196.634C12.7773 195.465 13.7246 194.518 14.8933 194.518C16.0619 194.518 17.0092 195.465 17.0092 196.634C17.0092 197.803 16.0619 198.75 14.8933 198.75C13.7246 198.75 12.7773 197.803 12.7773 196.634Z" fill="#0191E7"/>
    <path d="M355.422 155.997C355.422 154.828 356.369 153.881 357.538 153.881C358.706 153.881 359.654 154.828 359.654 155.997C359.654 157.165 358.706 158.113 357.538 158.113C356.37 158.113 355.422 157.165 355.422 155.997Z" fill="#0191E7"/>
    <path d="M21.8568 139.007C22.4411 139.007 22.9147 138.533 22.9147 137.949C22.9147 137.365 22.4411 136.891 21.8568 136.891C21.2725 136.891 20.7988 137.365 20.7988 137.949C20.7988 138.533 21.2725 139.007 21.8568 139.007Z" fill="#0191E7"/>
    <path d="M365.015 182.708C365.599 182.708 366.073 182.235 366.073 181.65C366.073 181.066 365.599 180.592 365.015 180.592C364.431 180.592 363.957 181.066 363.957 181.65C363.957 182.235 364.431 182.708 365.015 182.708Z" fill="#0191E7"/>
    <path d="M221.051 155.997C222.22 155.997 223.167 155.05 223.167 153.881C223.167 152.712 222.22 151.765 221.051 151.765C219.883 151.765 218.936 152.712 218.936 153.881C218.936 155.05 219.883 155.997 221.051 155.997Z" fill="#0191E7"/>
    <path d="M53.5254 284.439C53.5254 283.855 53.999 283.381 54.5833 283.381C55.1677 283.381 55.6413 283.855 55.6413 284.439C55.6413 285.024 55.1677 285.497 54.5833 285.497C53.999 285.497 53.5254 285.024 53.5254 284.439Z" fill="#0191E7"/>
    <path d="M112.705 140.065C112.705 138.896 113.652 137.949 114.821 137.949C115.99 137.949 116.937 138.896 116.937 140.065C116.937 141.234 115.99 142.181 114.821 142.181C113.652 142.181 112.705 141.234 112.705 140.065Z" fill="#0191E7"/>
    <path d="M71.6009 20.2272C72.1852 20.2272 72.6589 19.7536 72.6589 19.1693C72.6589 18.585 72.1852 18.1113 71.6009 18.1113C71.0166 18.1113 70.543 18.585 70.543 19.1693C70.543 19.7536 71.0166 20.2272 71.6009 20.2272Z" fill="#0191E7"/>
    <path d="M176.294 37.7723C177.462 37.7723 178.41 36.825 178.41 35.6564C178.41 34.4879 177.462 33.5405 176.294 33.5405C175.125 33.5405 174.178 34.4879 174.178 35.6564C174.178 36.825 175.125 37.7723 176.294 37.7723Z" fill="#0191E7"/>
    <path d="M200.048 46.3288C200.632 46.3288 201.106 45.8551 201.106 45.2708C201.106 44.6866 200.632 44.2129 200.048 44.2129C199.464 44.2129 198.99 44.6866 198.99 45.2708C198.99 45.8551 199.464 46.3288 200.048 46.3288Z" fill="#0191E7"/>
    <path d="M240.689 53.4343C240.689 51.6896 242.104 50.2754 243.848 50.2754C245.593 50.2754 247.007 51.6896 247.007 53.4343C247.007 55.1789 245.593 56.5931 243.848 56.5931C242.104 56.5931 240.689 55.1789 240.689 53.4343Z" fill="#0191E7"/>
    <path d="M258.12 131.895C259.864 131.895 261.279 130.481 261.279 128.736C261.279 126.991 259.864 125.577 258.12 125.577C256.375 125.577 254.961 126.991 254.961 128.736C254.961 130.481 256.375 131.895 258.12 131.895Z" fill="#0191E7"/>
    <path d="M227.008 197.888C227.008 196.143 228.422 194.729 230.167 194.729C231.911 194.729 233.326 196.143 233.326 197.888C233.326 199.633 231.911 201.047 230.167 201.047C228.422 201.046 227.008 199.632 227.008 197.888Z" fill="#0191E7"/>
    </svg>
    