<svg width="32" height="32" viewBox="0 0 32 32" fill="none" xmlns="http://www.w3.org/2000/svg">
    <path d="M2 32H6.70001C6.83996 32 6.95001 31.89 6.95001 31.75V0.25C6.95001 0.11005 6.83996 0 6.70001 0H2C0.89996 0 0 0.90003 0 2V30C0 31.1101 0.89996 32 2 32ZM1.98999 3.26001C1.98999 3.13001 2.09998 3.01001 2.23999 3.01001H4.73999C4.88 3.01001 4.98999 3.13001 4.98999 3.26001V4.76001C4.98999 4.90002 4.88 5.01001 4.73999 5.01001H2.23999C2.09998 5.01001 1.98999 4.90002 1.98999 4.76001V3.26001ZM1.98999 7.20001C1.98999 7.06006 2.09998 6.95001 2.23999 6.95001H4.73999C4.88 6.95001 4.98999 7.06006 4.98999 7.20001V8.70001C4.98999 8.84002 4.88 8.95001 4.73999 8.95001H2.23999C2.09998 8.95001 1.98999 8.84002 1.98999 8.70001V7.20001ZM1.98999 11.19C1.98999 11.05 2.09998 10.94 2.23999 10.94H4.73999C4.88 10.94 4.98999 11.05 4.98999 11.19V12.69C4.98999 12.82 4.88 12.94 4.73999 12.94H2.23999C2.09998 12.94 1.98999 12.82 1.98999 12.69V11.19ZM1.98999 15.2C1.98999 15.0601 2.09998 14.95 2.23999 14.95H4.73999C4.88 14.95 4.98999 15.0601 4.98999 15.2V16.7C4.98999 16.84 4.88 16.95 4.73999 16.95H2.23999C2.09998 16.95 1.98999 16.84 1.98999 16.7V15.2ZM1.98999 19.2C1.98999 19.0601 2.09998 18.95 2.23999 18.95H4.73999C4.88 18.95 4.98999 19.0601 4.98999 19.2V20.7C4.98999 20.84 4.88 20.95 4.73999 20.95H2.23999C2.09998 20.95 1.98999 20.84 1.98999 20.7V19.2ZM1.98999 23.23C1.98999 23.09 2.09998 22.98 2.23999 22.98H4.73999C4.88 22.98 4.98999 23.09 4.98999 23.23V24.73C4.98999 24.8701 4.88 24.98 4.73999 24.98H2.23999C2.09998 24.98 1.98999 24.8701 1.98999 24.73V23.23ZM1.98999 27.26C1.98999 27.13 2.09998 27.01 2.23999 27.01H4.73999C4.88 27.01 4.98999 27.13 4.98999 27.26V28.76C4.98999 28.9 4.88 29.01 4.73999 29.01H2.23999C2.09998 29.01 1.98999 28.9 1.98999 28.76V27.26Z" fill="#0191E7"/>
    <path d="M9.19922 0C9.05921 0 8.94922 0.11005 8.94922 0.25V31.75C8.94922 31.89 9.05921 32 9.19922 32H22.7592C22.8992 32 23.0092 31.89 23.0092 31.75V0.25C23.0092 0.11005 22.8992 0 22.7592 0H9.19922ZM18.7061 16.0036L14.5974 18.3209C14.0277 18.7417 13.0079 18.4011 13.0005 17.8201L12.9705 13.1787C12.963 12.5843 13.9526 12.2839 14.53 12.7046L18.7061 15.0754C19.0585 15.3358 19.0585 15.7432 18.7061 16.0036Z" fill="#0191E7"/>
    <path d="M29.9998 0H25.2598C25.1198 0 25.0098 0.11005 25.0098 0.25V31.75C25.0098 31.89 25.1198 32 25.2598 32H29.9998C31.0997 32 31.9998 31.1 31.9998 30V2C31.9998 0.90003 31.1097 0 29.9998 0ZM29.9297 28.76C29.9297 28.9 29.8198 29.01 29.6797 29.01H27.1797C27.0397 29.01 26.9297 28.9 26.9297 28.76V27.26C26.9297 27.13 27.0397 27.01 27.1797 27.01H29.6797C29.8198 27.01 29.9297 27.13 29.9297 27.26V28.76ZM29.9297 24.73C29.9297 24.8701 29.8198 24.98 29.6797 24.98H27.1797C27.0397 24.98 26.9297 24.8701 26.9297 24.73V23.23C26.9297 23.09 27.0397 22.98 27.1797 22.98H29.6797C29.8198 22.98 29.9297 23.09 29.9297 23.23V24.73ZM29.9297 20.7C29.9297 20.84 29.8198 20.95 29.6797 20.95H27.1797C27.0397 20.95 26.9297 20.84 26.9297 20.7V19.2C26.9297 19.0601 27.0397 18.95 27.1797 18.95H29.6797C29.8198 18.95 29.9297 19.0601 29.9297 19.2V20.7ZM29.9297 16.7C29.9297 16.84 29.8198 16.95 29.6797 16.95H27.1797C27.0397 16.95 26.9297 16.84 26.9297 16.7V15.2C26.9297 15.0601 27.0397 14.95 27.1797 14.95H29.6797C29.8198 14.95 29.9297 15.0601 29.9297 15.2V16.7ZM29.9297 12.69C29.9297 12.82 29.8198 12.94 29.6797 12.94H27.1797C27.0397 12.94 26.9297 12.82 26.9297 12.69V11.19C26.9297 11.05 27.0397 10.94 27.1797 10.94H29.6797C29.8198 10.94 29.9297 11.05 29.9297 11.19V12.69ZM29.9297 8.70001C29.9297 8.84002 29.8198 8.95001 29.6797 8.95001H27.1797C27.0397 8.95001 26.9297 8.84002 26.9297 8.70001V7.20001C26.9297 7.06006 27.0397 6.95001 27.1797 6.95001H29.6797C29.8198 6.95001 29.9297 7.06006 29.9297 7.20001V8.70001ZM29.9297 4.76001C29.9297 4.90002 29.8198 5.01001 29.6797 5.01001H27.1797C27.0397 5.01001 26.9297 4.90002 26.9297 4.76001V3.26001C26.9297 3.13001 27.0397 3.01001 27.1797 3.01001H29.6797C29.8198 3.01001 29.9297 3.13001 29.9297 3.26001V4.76001Z" fill="#0191E7"/>
    </svg>
    