<svg width="38" height="38" viewBox="0 0 38 38" fill="none" xmlns="http://www.w3.org/2000/svg">
    <path fill-rule="evenodd" clip-rule="evenodd" d="M11.5374 7.29745C11.5347 7.08679 11.488 6.87902 11.4001 6.68756C11.3122 6.49609 11.1851 6.32519 11.0271 6.18587C10.6723 5.87406 10.2162 5.70209 9.7439 5.70209C9.27161 5.70209 8.81548 5.87406 8.46075 6.18587C8.30271 6.32519 8.17564 6.49609 8.08774 6.68756C7.99984 6.87902 7.95306 7.08679 7.95043 7.29745V12.5817C7.95278 12.7926 7.99943 13.0006 8.08734 13.1923C8.17525 13.384 8.30247 13.5551 8.46075 13.6945C8.8154 14.0065 9.27156 14.1786 9.7439 14.1786C10.2162 14.1786 10.6724 14.0065 11.0271 13.6945C11.1851 13.5552 11.3122 13.3843 11.4001 13.1928C11.488 13.0014 11.5347 12.7936 11.5374 12.5829V7.29745ZM21.5631 8.08103H25.15V5.2625C25.1428 4.7916 24.9507 4.34243 24.6151 4.01198C24.2796 3.68152 23.8275 3.4963 23.3565 3.4963C22.8856 3.4963 22.4335 3.68152 22.098 4.01198C21.7624 4.34243 21.5703 4.7916 21.5631 5.2625V8.08103ZM16.6932 16.0389C17.2605 15.2468 17.9647 14.5624 18.7727 14.0179C19.0182 13.8542 19.2725 13.704 19.5344 13.5682H18.8186C18.1594 13.5684 17.5223 13.3302 17.025 12.8975V14.7345C17.0252 15.1905 16.911 15.6393 16.6927 16.0398L16.6932 16.0389ZM27.0932 37.1215V32.0069H9.2738V37.1236L27.0932 37.1215ZM17.0254 8.55429H17.2831C17.7359 8.2459 18.2712 8.08112 18.8191 8.08145H20.6127V2.66924C20.611 2.19411 20.4214 1.73895 20.0854 1.40302C19.7494 1.06709 19.2942 0.87764 18.8191 0.875977C18.586 0.876748 18.3555 0.924202 18.141 1.01554C17.9266 1.10687 17.7327 1.24024 17.5706 1.40777C17.2305 1.75417 17.0388 2.21955 17.0363 2.70503L17.0241 5.17661C17.0241 5.20566 17.0241 5.23471 17.0241 5.26419V8.55598L17.0254 8.55429ZM11.5647 15.1227C11.6361 15.6276 11.8468 16.1026 12.1733 16.4943C12.4997 16.886 12.929 17.1788 13.4128 17.34C13.8965 17.5011 14.4157 17.5241 14.9118 17.4063C15.4079 17.2886 15.8614 17.0348 16.2212 16.6734C16.2826 16.6116 16.3416 16.5471 16.3967 16.4802C16.145 16.8782 15.9228 17.2942 15.7319 17.7248C15.7048 17.7819 15.6895 17.8437 15.6867 17.9068C15.6838 17.9698 15.6937 18.0328 15.7156 18.092C15.7374 18.1513 15.7709 18.2055 15.8141 18.2516C15.8572 18.2977 15.9091 18.3347 15.9668 18.3604C16.0244 18.3861 16.0866 18.4001 16.1497 18.4014C16.2128 18.4028 16.2756 18.3915 16.3343 18.3683C16.393 18.345 16.4464 18.3103 16.4915 18.2661C16.5366 18.2219 16.5723 18.1691 16.5967 18.1109C17.1652 16.7749 18.1035 15.629 19.3012 14.8082C20.4776 14.0283 21.8513 13.5983 23.2624 13.5682H23.3517H23.3572C23.4827 13.5675 23.6028 13.5169 23.691 13.4276C23.7793 13.3384 23.8284 13.2177 23.8277 13.0922C23.827 12.9667 23.7764 12.8466 23.6871 12.7583C23.5979 12.6701 23.4772 12.6209 23.3517 12.6217H18.8191C18.3444 12.6199 17.8896 12.4308 17.5537 12.0954C17.2178 11.76 17.0279 11.3056 17.0254 10.8309V10.8246C17.0279 10.35 17.2178 9.89559 17.5538 9.56029C17.8897 9.225 18.3444 9.03595 18.8191 9.03429H26.3264C26.5571 9.03428 26.7784 9.12537 26.9423 9.28772C27.1062 9.45008 27.1993 9.67058 27.2014 9.90124L27.2435 17.2844C27.3104 18.7755 27.1399 20.2679 26.7382 21.7055C26.4156 22.8464 25.8226 23.8927 25.0094 24.7556C24.7823 24.9839 24.603 25.2551 24.4818 25.5534C24.3606 25.8518 24.3001 26.1713 24.3037 26.4932V31.0562H11.9037V26.9673C12.7054 27.8103 13.7086 28.4353 14.8186 28.7833C14.8797 28.8004 14.9436 28.805 15.0065 28.797C15.0694 28.7889 15.13 28.7683 15.1848 28.7364C15.2396 28.7045 15.2875 28.662 15.3256 28.6113C15.3637 28.5606 15.3912 28.5028 15.4066 28.4413C15.4219 28.3798 15.4248 28.3158 15.415 28.2531C15.4053 28.1905 15.383 28.1304 15.3497 28.0765C15.3163 28.0226 15.2724 27.9759 15.2207 27.9392C15.169 27.9025 15.1105 27.8766 15.0485 27.8629C13.5749 27.4916 11.9959 25.9261 10.6974 24.0541C9.12348 21.788 7.99043 19.1181 7.94833 17.5699V15.1278L9.64685 15.1236C9.67885 15.1236 9.71127 15.1236 9.74411 15.1236C9.77696 15.1236 9.81738 15.1236 9.85401 15.1236L11.5647 15.1193V15.1227ZM4.4258 14.1913V9.53029L2.4599 9.53492C2.02818 9.54041 1.60435 9.65142 1.22538 9.85829C0.872706 10.0516 0.578506 10.3362 0.373588 10.6823C0.16348 11.0412 0.0527344 11.4496 0.0527344 11.8655C0.0527344 12.2813 0.16348 12.6897 0.373588 13.0486C0.580656 13.3988 0.87805 13.6869 1.23464 13.8827C1.60774 14.0882 2.02681 14.1958 2.45275 14.1956L4.4258 14.1913ZM5.37611 9.52819V14.1888L7.00011 14.185V12.8524C7.00007 12.827 7.00218 12.8016 7.00643 12.7766C7.00096 12.7126 6.99843 12.6478 6.99843 12.5825V9.52608L5.37443 9.52987L5.37611 9.52819ZM31.6123 14.1282V9.46714L28.0961 9.47513C28.1293 9.61305 28.1464 9.75434 28.1471 9.89619L28.1711 14.1375L31.6123 14.1294V14.1282ZM32.5626 9.54587V14.0473L37.9475 11.8217L32.5626 9.54587ZM14.2814 3.46882C13.8062 3.47059 13.3511 3.66015 13.0152 3.99616C12.6792 4.33217 12.4898 4.78737 12.4881 5.2625V14.7362C12.4953 15.2071 12.6875 15.6563 13.023 15.9867C13.3586 16.3172 13.8106 16.5024 14.2816 16.5024C14.7525 16.5024 15.2046 16.3172 15.5402 15.9867C15.8757 15.6563 16.0678 15.2071 16.0751 14.7362V5.2625C16.0734 4.7873 15.8839 4.33204 15.5479 3.99602C15.2118 3.65999 14.7566 3.47048 14.2814 3.46882Z" fill="#0191E7"/>
    </svg>
    